<svg xmlns="http://www.w3.org/2000/svg" xmlns:xlink="http://www.w3.org/1999/xlink" viewBox="0 0 181.03 32.48"><defs><style>.cls-1{fill:none;}.cls-2{clip-path:url(#clip-path);}.cls-3{fill:#ee2842;}</style><clipPath id="clip-path" transform="translate(0 0)"><rect class="cls-1" width="181.03" height="32.48"/></clipPath></defs><g id="Layer_2" data-name="Layer 2"><g id="Layer_1-2" data-name="Layer 1"><g class="cls-2"><path class="cls-3" d="M23.8,29.14a3.47,3.47,0,0,0,1.53-1.82V25.48H21.5c-2.13,0-3.2.71-3.2,2.11a1.9,1.9,0,0,0,.8,1.6,3.68,3.68,0,0,0,2.22.59,4.75,4.75,0,0,0,2.48-.64m3.38-11.2A6.5,6.5,0,0,1,29,23v9.27h-3.5V30.34a4.2,4.2,0,0,1-1.94,1.59,7.51,7.51,0,0,1-3,.55,7.38,7.38,0,0,1-3.11-.61,4.81,4.81,0,0,1-2.06-1.69,4.29,4.29,0,0,1-.72-2.44,4.18,4.18,0,0,1,1.58-3.43,7.87,7.87,0,0,1,5-1.29h4.1v-.23a3.25,3.25,0,0,0-1-2.55,4.3,4.3,0,0,0-2.95-.89,8.69,8.69,0,0,0-2.62.41,6.66,6.66,0,0,0-2.18,1.16l-1.45-2.7a9.15,9.15,0,0,1,3-1.45,13.57,13.57,0,0,1,3.71-.5,7.76,7.76,0,0,1,5.35,1.67" transform="translate(0 0)"/><path class="cls-3" d="M36.53,20.28a4.45,4.45,0,0,0-1.5,2.8h9a4.37,4.37,0,0,0-1.45-2.78,4.43,4.43,0,0,0-3-1.07,4.47,4.47,0,0,0-3,1.05m10.95,5.26H35.06a4.3,4.3,0,0,0,1.71,2.77,5.54,5.54,0,0,0,3.42,1,5.8,5.8,0,0,0,4.3-1.72l2,2.28a6.76,6.76,0,0,1-2.69,1.93,10,10,0,0,1-3.68.65,9.77,9.77,0,0,1-4.59-1,7.39,7.39,0,0,1-3.07-2.89,8.15,8.15,0,0,1-1.08-4.19,8.33,8.33,0,0,1,1-4.17,7.58,7.58,0,0,1,2.92-2.89,8.53,8.53,0,0,1,4.21-1,8.29,8.29,0,0,1,4.13,1,7.22,7.22,0,0,1,2.85,2.87,8.78,8.78,0,0,1,1,4.29c0,.25,0,.62-.06,1.09" transform="translate(0 0)"/><path class="cls-3" d="M59.26,16.27v3.52a4.75,4.75,0,0,0-.86-.09A4.47,4.47,0,0,0,55,21,5.05,5.05,0,0,0,53.8,24.6v7.67H50.1V16.44h3.53v2.32q1.59-2.49,5.63-2.49" transform="translate(0 0)"/><path class="cls-3" d="M71.7,27.94A4.88,4.88,0,0,0,73,24.36a4.92,4.92,0,0,0-1.33-3.59,4.53,4.53,0,0,0-3.38-1.36A4.47,4.47,0,0,0,65,20.77a5,5,0,0,0-1.32,3.59A4.91,4.91,0,0,0,65,27.94a4.48,4.48,0,0,0,3.36,1.37,4.54,4.54,0,0,0,3.38-1.37M64,31.44a7.52,7.52,0,0,1-3-2.89,8.06,8.06,0,0,1-1.09-4.19A8,8,0,0,1,61,20.18a7.63,7.63,0,0,1,3-2.88,9.68,9.68,0,0,1,8.69,0,7.63,7.63,0,0,1,3,2.88,8,8,0,0,1,1.09,4.18,8.06,8.06,0,0,1-1.09,4.19,7.52,7.52,0,0,1-3,2.89,9.6,9.6,0,0,1-8.69,0" transform="translate(0 0)"/><path class="cls-3" d="M103.81,18a7,7,0,0,1,1.75,5.2v9.07h-3.7V23.68a4.64,4.64,0,0,0-.92-3.13A3.33,3.33,0,0,0,98.3,19.5a3.86,3.86,0,0,0-3,1.23,5,5,0,0,0-1.13,3.51v8h-3.7V23.68a4.64,4.64,0,0,0-.92-3.13,3.33,3.33,0,0,0-2.64-1.05,3.87,3.87,0,0,0-3,1.21,5.07,5.07,0,0,0-1.11,3.53v8H79.1V16.44h3.52v2a5.86,5.86,0,0,1,2.22-1.63,7.67,7.67,0,0,1,3-.56,7.18,7.18,0,0,1,3.15.66,5.13,5.13,0,0,1,2.18,2A6.69,6.69,0,0,1,95.66,17a8.28,8.28,0,0,1,3.41-.69A6.4,6.4,0,0,1,103.81,18" transform="translate(0 0)"/><path class="cls-3" d="M113.06,20.28a4.45,4.45,0,0,0-1.5,2.8h9a4.37,4.37,0,0,0-1.45-2.78,4.43,4.43,0,0,0-3-1.07,4.47,4.47,0,0,0-3,1.05m11,5.26H111.59a4.3,4.3,0,0,0,1.71,2.77,5.54,5.54,0,0,0,3.42,1,5.8,5.8,0,0,0,4.3-1.72l2,2.28a6.76,6.76,0,0,1-2.69,1.93,10,10,0,0,1-3.68.65,9.77,9.77,0,0,1-4.59-1A7.39,7.39,0,0,1,109,28.55a8.15,8.15,0,0,1-1.08-4.19,8.33,8.33,0,0,1,1-4.17,7.58,7.58,0,0,1,2.92-2.89,8.53,8.53,0,0,1,4.21-1,8.29,8.29,0,0,1,4.13,1,7.22,7.22,0,0,1,2.85,2.87,8.78,8.78,0,0,1,1,4.29c0,.25,0,.62-.06,1.09" transform="translate(0 0)"/><path class="cls-3" d="M136.57,31.41a4.41,4.41,0,0,1-1.59.8,7,7,0,0,1-2,.27,5.63,5.63,0,0,1-4-1.36,5.26,5.26,0,0,1-1.42-4V19.53H125v-3h2.61V13h3.7v3.61h4.24v3h-4.24v7.52a2.49,2.49,0,0,0,.57,1.77,2.11,2.11,0,0,0,1.63.61,3.21,3.21,0,0,0,2.07-.66Z" transform="translate(0 0)"/><path class="cls-3" d="M147.92,16.27v3.52a4.66,4.66,0,0,0-.86-.09A4.48,4.48,0,0,0,143.68,21a5,5,0,0,0-1.21,3.64v7.67h-3.71V16.44h3.53v2.32c1.07-1.66,2.94-2.49,5.63-2.49" transform="translate(0 0)"/><path class="cls-3" d="M153.75,20.28a4.44,4.44,0,0,0-1.49,2.8h9a4.37,4.37,0,0,0-1.45-2.78,4.83,4.83,0,0,0-6,0m10.95,5.26H152.29a4.25,4.25,0,0,0,1.7,2.77,5.54,5.54,0,0,0,3.42,1,5.79,5.79,0,0,0,4.3-1.72l2,2.28a6.72,6.72,0,0,1-2.7,1.93,10.69,10.69,0,0,1-8.27-.39,7.51,7.51,0,0,1-3.07-2.89,8.15,8.15,0,0,1-1.08-4.19,8.33,8.33,0,0,1,1-4.17,7.65,7.65,0,0,1,2.92-2.89,8.55,8.55,0,0,1,4.21-1,8.36,8.36,0,0,1,4.14,1,7.26,7.26,0,0,1,2.84,2.87,8.78,8.78,0,0,1,1,4.29c0,.25,0,.62-.06,1.09" transform="translate(0 0)"/><polygon class="cls-3" points="176.76 16.44 172.88 21.63 169 16.44 164.88 16.44 170.78 24.24 164.61 32.27 168.7 32.27 172.79 26.79 176.85 32.27 181.03 32.27 174.84 24.18 180.77 16.44 176.76 16.44"/><rect class="cls-3" y="9.76" width="9.77" height="9.77"/><rect class="cls-3" x="9.77" width="9.76" height="9.76"/></g></g></g></svg>