<?xml version="1.0" encoding="UTF-8"?>
<svg width="287px" height="64px" viewBox="0 0 287 64" version="1.1" xmlns="http://www.w3.org/2000/svg" xmlns:xlink="http://www.w3.org/1999/xlink">
    <g id="Page-1" stroke="none" stroke-width="1" fill="none" fill-rule="evenodd">
        <g id="FSI" fill-rule="nonzero">
            <g id="g20" transform="translate(143.407274, 32.045859) scale(-1, 1) rotate(-180.000000) translate(-143.407274, -32.045859) translate(0.320599, 0.842663)">
                <path d="M0.0148166676,21.404793 L0.0148166676,41.2432526 C0.0148166676,41.8239249 0.305152797,42.1146138 0.886530611,42.1146138 L12.9839869,42.1146138 C13.5646592,42.1146138 13.8553481,41.8239249 13.8553481,41.2432526 C13.8553481,40.6622276 13.5646592,40.3718914 12.9839869,40.3718914 L1.757539,40.3718914 L1.757539,32.3289104 L9.43151448,32.3289104 C10.0121867,32.3289104 10.3032284,32.0385742 10.3032284,31.457902 C10.3032284,30.8765242 10.0121867,30.5865408 9.43151448,30.5865408 L1.757539,30.5865408 L1.757539,21.404793 C1.757539,20.8234152 1.46685009,20.5334318 0.886530611,20.5334318 C0.305152797,20.5334318 0.0148166676,20.8234152 0.0148166676,21.404793" id="path22" fill="#070A18"></path>
                <path d="M29.741638,31.2568186 L36.7118218,31.2568186 C38.1412774,31.2568186 39.1749164,31.575377 39.8116803,32.2117881 C40.448797,32.8485521 40.7670026,33.8818382 40.7670026,35.3119994 L40.7670026,36.3170634 C40.7670026,37.724294 40.448797,38.7519358 39.8116803,39.3999886 C39.1749164,40.0476886 38.1412774,40.3718914 36.7118218,40.3718914 L29.741638,40.3718914 L29.741638,31.2568186 Z M43.0791083,21.1701958 C43.0791083,20.9020846 42.9221221,20.6780707 42.6099138,20.4995652 C42.4307027,20.3884402 42.263486,20.3323485 42.1075582,20.3323485 C41.8168693,20.3323485 41.5932082,20.4780457 41.4369276,20.7680291 L35.9078412,29.5140963 L29.741638,29.5140963 L29.741638,21.404793 C29.741638,20.8234152 29.4509491,20.5334318 28.8702768,20.5334318 C28.2892518,20.5334318 27.9989157,20.8234152 27.9989157,21.404793 L27.9989157,41.2432526 C27.9989157,41.8239249 28.2892518,42.1146138 28.8702768,42.1146138 L36.7118218,42.1146138 C38.6104719,42.1146138 40.0515692,41.6228415 41.0351137,40.6400026 C42.0175999,39.6568108 42.5090193,38.2157135 42.5090193,36.3170634 L42.5090193,35.3119994 C42.5090193,33.6137271 42.1241388,32.2841076 41.3533193,31.3238464 C40.5824998,30.3628797 39.4483192,29.7825602 37.9518357,29.5811241 L42.9118916,21.6725514 C43.0230166,21.493693 43.0791083,21.3257708 43.0791083,21.1701958" id="path24" fill="#070A18"></path>
                <path d="M108.587476,41.2432526 L108.587476,21.404793 C108.587476,20.8234152 108.296787,20.5334318 107.715762,20.5334318 C107.402848,20.5334318 107.112512,20.7010013 106.844401,21.0361402 L93.0045753,38.8306052 L93.0045753,21.404793 C93.0045753,20.8234152 92.7138864,20.5334318 92.1332141,20.5334318 C91.5521891,20.5334318 91.261853,20.8234152 91.261853,21.404793 L91.261853,41.2432526 C91.261853,41.8239249 91.5521891,42.1146138 92.1332141,42.1146138 C92.468353,42.1146138 92.7699781,41.9470443 93.0377364,41.6119054 L106.844401,23.8509543 L106.844401,41.2432526 C106.844401,41.8239249 107.134737,42.1146138 107.715762,42.1146138 C108.296787,42.1146138 108.587476,41.8239249 108.587476,41.2432526" id="path26" fill="#070A18"></path>
                <path d="M131.658086,20.7510958 C131.490164,20.9186652 131.406555,21.1250402 131.406555,21.3712791 L131.406555,40.3718914 L124.268802,40.3718914 C124.022563,40.3718914 123.816188,40.4558525 123.648266,40.623422 C123.481049,40.7909915 123.397441,40.9973665 123.397441,41.2432526 C123.397441,41.5113637 123.481049,41.7233832 123.648266,41.8800165 C123.816188,42.0359443 124.022563,42.1146138 124.268802,42.1146138 L140.287384,42.1146138 C140.555495,42.1146138 140.767162,42.0359443 140.923795,41.8800165 C141.079723,41.7233832 141.158392,41.5113637 141.158392,41.2432526 C141.158392,40.9973665 141.079723,40.7909915 140.923795,40.623422 C140.767162,40.4558525 140.555495,40.3718914 140.287384,40.3718914 L133.149278,40.3718914 L133.149278,21.3712791 C133.149278,21.1250402 133.070608,20.9186652 132.914681,20.7510958 C132.758047,20.5838791 132.545675,20.4995652 132.277564,20.4995652 C132.031678,20.4995652 131.825656,20.5838791 131.658086,20.7510958" id="path28" fill="#070A18"></path>
                <path d="M260.029341,1.74272233 L255.180763,1.74272233 L255.180763,19.8388124 L260.029341,19.8388124 C260.297453,19.8388124 260.509472,19.917129 260.665753,20.0734096 C260.822033,20.2300429 260.900703,20.4420624 260.900703,20.7101735 C260.900703,20.9782847 260.822033,21.1906569 260.665753,21.3472902 C260.509472,21.503218 260.297453,21.5815347 260.029341,21.5815347 L254.31046,21.5815347 C254.310108,21.5815347 254.309755,21.5815347 254.309402,21.5815347 C254.309049,21.5815347 254.308697,21.5815347 254.307991,21.5815347 L248.085343,21.5815347 C247.817232,21.5815347 247.60486,21.503218 247.448932,21.3472902 C247.291946,21.1906569 247.213982,20.9782847 247.213982,20.7101735 C247.213982,20.4420624 247.291946,20.2300429 247.448932,20.0734096 C247.60486,19.917129 247.817232,19.8388124 248.085343,19.8388124 L253.438394,19.8388124 L253.438394,1.74272233 L248.085343,1.74272233 C247.817232,1.74272233 247.60486,1.66475844 247.448932,1.50847787 C247.291946,1.35219731 247.213982,1.13947229 247.213982,0.871713944 C247.213982,0.603602816 247.291946,0.39123058 247.448932,0.234950015 C247.60486,0.0783166716 247.817232,0.0003527778 248.085343,0.0003527778 L254.307991,0.0003527778 C254.308697,0.0003527778 254.309049,0 254.309402,0 C254.309755,0 254.310108,0.0003527778 254.31046,0.0003527778 L260.029341,0.0003527778 C260.297453,0.0003527778 260.509472,0.0783166716 260.665753,0.234950015 C260.822033,0.39123058 260.900703,0.603602816 260.900703,0.871713944 C260.900703,1.13947229 260.822033,1.35219731 260.665753,1.50847787 C260.509472,1.66475844 260.297453,1.74272233 260.029341,1.74272233" id="path30" fill="#F05E19"></path>
                <path d="M200.023601,21.404793 C200.023601,20.8234152 199.732913,20.5334318 199.15224,20.5334318 L186.58559,20.5334318 C186.004564,20.5334318 185.714228,20.8234152 185.714228,21.404793 L185.714228,41.2432526 C185.714228,41.8239249 186.004564,42.1146138 186.58559,42.1146138 L199.15224,42.1146138 C199.732913,42.1146138 200.023601,41.8239249 200.023601,41.2432526 C200.023601,40.6622276 199.732913,40.3718914 199.15224,40.3718914 L187.456598,40.3718914 L187.456598,32.3289104 L195.197954,32.3289104 C195.778273,32.3289104 196.069315,32.0385742 196.069315,31.457902 C196.069315,30.8765242 195.778273,30.5865408 195.197954,30.5865408 L187.456598,30.5865408 L187.456598,22.2758014 L199.15224,22.2758014 C199.732913,22.2758014 200.023601,21.9851125 200.023601,21.404793" id="path32" fill="#070A18"></path>
                <path d="M217.023611,31.2568186 L223.994147,31.2568186 C225.42325,31.2568186 226.457242,31.575377 227.093653,32.2117881 C227.730417,32.8485521 228.048975,33.8818382 228.048975,35.3119994 L228.048975,36.3170634 C228.048975,37.724294 227.730417,38.7519358 227.093653,39.3999886 C226.457242,40.0476886 225.42325,40.3718914 223.994147,40.3718914 L217.023611,40.3718914 L217.023611,31.2568186 Z M230.361081,21.1701958 C230.361081,20.9020846 230.204448,20.6780707 229.892239,20.4995652 C229.712676,20.3884402 229.545106,20.3323485 229.389178,20.3323485 C229.098842,20.3323485 228.875181,20.4780457 228.719253,20.7680291 L223.189814,29.5140963 L217.023611,29.5140963 L217.023611,21.404793 C217.023611,20.8234152 216.733275,20.5334318 216.15225,20.5334318 C215.571225,20.5334318 215.280889,20.8234152 215.280889,21.404793 L215.280889,41.2432526 C215.280889,41.8239249 215.571225,42.1146138 216.15225,42.1146138 L223.994147,42.1146138 C225.892798,42.1146138 227.333542,41.6228415 228.317087,40.6400026 C229.299573,39.6568108 229.791345,38.2157135 229.791345,36.3170634 L229.791345,35.3119994 C229.791345,33.6137271 229.406112,32.2841076 228.635292,31.3238464 C227.864473,30.3628797 226.730292,29.7825602 225.233809,29.5811241 L230.193512,21.6725514 C230.30499,21.493693 230.361081,21.3257708 230.361081,21.1701958" id="path34" fill="#070A18"></path>
                <path d="M247.094391,42.1784665 C246.133424,43.0611166 245.619779,44.4627028 245.553104,46.3842835 C245.530527,46.6523946 245.603199,46.8700585 245.770768,47.0379807 C245.938338,47.2055502 246.156002,47.2895113 246.424113,47.2895113 C246.669646,47.2895113 246.870729,47.2108419 247.027363,47.0549141 C247.183291,46.897928 247.273249,46.6862613 247.295474,46.4181501 C247.339924,44.9879889 247.675063,43.9935083 248.300891,43.4354138 C248.926013,42.8769666 249.998457,42.5979193 251.517871,42.5979193 L256.343872,42.5979193 C257.952186,42.5979193 259.063436,42.9044833 259.677975,43.5190222 C260.292161,44.1332083 260.59943,45.2338751 260.59943,46.8203168 C260.59943,48.4064058 260.286164,49.506367 259.661041,50.1209059 C259.035566,50.7350921 257.929961,51.0423615 256.343872,51.0423615 L251.752469,51.0423615 C249.786438,51.0423615 248.345341,51.4999144 247.429529,52.4164311 C246.513013,53.3322422 246.055813,54.7733396 246.055813,56.7393702 C246.055813,58.6831759 246.513013,60.1126316 247.429529,61.0287955 C248.345341,61.9449595 249.775149,62.402865 251.718955,62.402865 L256.444061,62.402865 C258.320838,62.402865 259.711489,61.9781206 260.616364,61.1293372 C261.521239,60.280201 262.007014,58.9625759 262.074042,57.1750508 C262.096267,56.9069397 262.023947,56.6945675 261.856025,56.5382869 C261.688455,56.3816536 261.470791,56.3036897 261.20268,56.3036897 C260.956441,56.3036897 260.755711,56.3816536 260.59943,56.5382869 C260.442797,56.6945675 260.353544,56.895298 260.331319,57.1415369 C260.308741,58.436937 260.001825,59.3474565 259.409864,59.8730954 C258.817902,60.3973232 257.829066,60.6604955 256.444061,60.6604955 L251.718955,60.6604955 C250.266216,60.6604955 249.250216,60.3698066 248.669543,59.7887815 C248.088166,59.2077565 247.798182,58.1914037 247.798182,56.7393702 C247.798182,55.264759 248.088166,54.2371173 248.669543,53.656445 C249.250216,53.0750672 250.277857,52.7850839 251.752469,52.7850839 L256.343872,52.7850839 C258.42138,52.7850839 259.940441,52.3042477 260.901055,51.3439866 C261.861316,50.3830198 262.3418,48.8752475 262.3418,46.8203168 C262.3418,44.7643278 261.861316,43.2562027 260.901055,42.2959416 C259.940441,41.3353276 258.42138,40.855197 256.343872,40.855197 L251.517871,40.855197 C249.529263,40.855197 248.054652,41.2958165 247.094391,42.1784665" id="path36" fill="#F05E19"></path>
                <path d="M169.191175,22.2758014 L164.342596,22.2758014 L164.342596,40.3718914 L169.191175,40.3718914 C169.459286,40.3718914 169.671305,40.4505609 169.827938,40.6064887 C169.983866,40.763122 170.062536,40.9751415 170.062536,41.2432526 C170.062536,41.5117165 169.983866,41.723736 169.827938,41.8803693 C169.671305,42.0362971 169.459286,42.1146138 169.191175,42.1146138 L163.472294,42.1146138 C163.471941,42.1146138 163.471588,42.1146138 163.471235,42.1146138 C163.470883,42.1146138 163.47053,42.1146138 163.470177,42.1146138 L157.247177,42.1146138 C156.979065,42.1146138 156.76634,42.0362971 156.610765,41.8803693 C156.453779,41.723736 156.375815,41.5117165 156.375815,41.2432526 C156.375815,40.9751415 156.453779,40.763122 156.610765,40.6064887 C156.76634,40.4505609 156.979065,40.3718914 157.247177,40.3718914 L162.600227,40.3718914 L162.600227,22.2758014 L157.247177,22.2758014 C156.979065,22.2758014 156.76634,22.1978375 156.610765,22.0415569 C156.453779,21.8852764 156.375815,21.6729041 156.375815,21.404793 C156.375815,21.1366819 156.453779,20.9243097 156.610765,20.7680291 C156.76634,20.6117485 156.979065,20.5334318 157.247177,20.5334318 L163.470177,20.5334318 C163.47053,20.5334318 163.470883,20.5334318 163.471235,20.5334318 C163.471588,20.5334318 163.471588,20.5334318 163.471941,20.5334318 L169.191175,20.5334318 C169.459286,20.5334318 169.671305,20.6117485 169.827938,20.7680291 C169.983866,20.9243097 170.062536,21.1366819 170.062536,21.404793 C170.062536,21.6729041 169.983866,21.8852764 169.827938,22.0415569 C169.671305,22.1978375 169.459286,22.2758014 169.191175,22.2758014" id="path38" fill="#070A18"></path>
                <path d="M75.0989853,30.5565547 C74.6202658,30.5565547 74.2318575,30.9446103 74.2318575,31.4233298 L74.2318575,39.4497303 C74.2318575,39.8815303 73.8808435,40.232897 73.4490435,40.232897 L65.184518,40.232897 C64.7057985,40.232897 64.3177429,40.6205998 64.3177429,41.099672 C64.3177429,41.5787443 64.7057985,41.9667999 65.184518,41.9667999 L73.4490435,41.9667999 C74.8368714,41.9667999 75.9661131,40.8379109 75.9661131,39.4497303 L75.9661131,31.4233298 C75.9661131,30.9446103 75.5780575,30.5565547 75.0989853,30.5565547" id="path40" fill="#070A18"></path>
                <path d="M68.3591654,20.5161457 L60.0949927,20.5161457 C58.7071648,20.5161457 57.5775703,21.6453875 57.5775703,23.0332153 L57.5775703,31.0592631 C57.5775703,31.5383353 57.9659787,31.9263909 58.4446981,31.9263909 C58.9237704,31.9263909 59.311826,31.5383353 59.311826,31.0592631 L59.311826,23.0332153 C59.311826,22.6014153 59.6631926,22.2500486 60.0949927,22.2500486 L68.3591654,22.2500486 C68.8382377,22.2500486 69.2262932,21.8623458 69.2262932,21.3832736 C69.2262932,20.9045541 68.8382377,20.5161457 68.3591654,20.5161457" id="path42" fill="#070A18"></path>
                <path d="M285.482612,32.9311021 L276.356604,42.2525499 C276.022876,42.5943916 275.471484,42.6010944 275.12929,42.2656027 C274.787448,41.9308165 274.781451,41.3804832 275.116237,41.0379359 L284.248948,31.7101381 C284.456382,31.502352 284.454971,31.162627 284.242246,30.9495492 L275.259112,21.7713291 C274.924326,21.4287819 274.930676,20.8780958 275.272517,20.5436624 C275.435853,20.3838541 275.651048,20.2960124 275.879295,20.2960124 C276.114951,20.2960124 276.335084,20.388793 276.500184,20.5567152 L285.476615,29.7285852 C285.90524,30.1565047 286.141601,30.7262408 286.141601,31.3323131 C286.141601,31.9390909 285.90524,32.5077687 285.482612,32.9311021" id="path44" fill="#F05E19"></path>
            </g>
        </g>
    </g>
</svg>