<svg id="logo" xmlns="http://www.w3.org/2000/svg" viewBox="0 0 970.59 277.3"><title>koordinates_logo</title><path d="M457,415.37A37,37,0,0,1,468.54,388a40.67,40.67,0,0,1,56.34.08A37.86,37.86,0,0,1,536.34,416q0,16.72-11.53,28t-28.48,11.22q-16.72,0-28-11.45Q457,432.47,457,415.37Zm17.56,0.31q0,11.15,6,17.64,6.11,6.57,16.11,6.57t16.11-6.49q6-6.49,6-17.33t-6-17.33q-6.11-6.56-16.11-6.57-9.85,0-16,6.57T474.58,415.67Z" transform="translate(-127 -277.12)"/><path d="M541,415.37A37,37,0,0,1,552.52,388a40.67,40.67,0,0,1,56.34.08A37.86,37.86,0,0,1,620.31,416q0,16.72-11.53,28t-28.48,11.22q-16.72,0-28-11.45Q541,432.47,541,415.37Zm17.56,0.31q0,11.15,6,17.64,6.11,6.57,16.11,6.57t16.11-6.49q6-6.49,6-17.33t-6-17.33q-6.11-6.56-16.11-6.57-9.85,0-16,6.57T558.55,415.67Z" transform="translate(-127 -277.12)"/><path d="M625.82,378.72H643v6.64a32.81,32.81,0,0,1,8.4-6.79,19.27,19.27,0,0,1,8.86-1.91q6.79,0,14.2,4.43l-7.86,15.73a16.41,16.41,0,0,0-9.54-3.51q-14,0-14,21.22v38.55H625.82V378.72Z" transform="translate(-127 -277.12)"/><path d="M728.17,324.14h17.25V453.08H728.17V445.3q-10.15,9.93-23,9.92a32.72,32.72,0,0,1-25.35-11.15q-10-11.37-10-28.4,0-16.64,10-27.79a31.91,31.91,0,0,1,25-11.22q13.05,0,23.36,10.69V324.14ZM687.4,415.67q0,10.69,5.73,17.41a18.75,18.75,0,0,0,14.81,6.79q9.54,0,15.42-6.57,5.88-6.79,5.88-17.25t-5.88-17.25a19.43,19.43,0,0,0-15.27-6.64,19,19,0,0,0-14.81,6.72Q687.4,405.67,687.4,415.67Z" transform="translate(-127 -277.12)"/><path d="M750.75,347.8a11.21,11.21,0,0,1,11.15-11.07,10.82,10.82,0,0,1,7.94,3.28,10.57,10.57,0,0,1,3.28,7.86,10.82,10.82,0,0,1-3.28,7.94A10.57,10.57,0,0,1,762,359.1,11.21,11.21,0,0,1,750.75,347.8Zm19.77,30.92v74.36H753.34V378.72h17.18Z" transform="translate(-127 -277.12)"/><path d="M778.52,378.72h17.25v6.87q9-8.93,20.31-8.93,13,0,20.23,8.17,6.26,6.95,6.26,22.67v45.58H825.32V411.6q0-11-3.05-15.17t-10.84-4.27q-8.55,0-12.14,5.64t-3.51,19.44v35.84H778.52V378.72Z" transform="translate(-127 -277.12)"/><path d="M907,378.72h17.25v74.36H907V445.3q-10.61,9.93-22.83,9.92-15.42,0-25.5-11.15-10-11.37-10-28.4,0-16.72,10-27.87a32.24,32.24,0,0,1,25-11.15q13,0,23.29,10.69v-8.63Zm-40.77,37q0,10.69,5.73,17.41a18.75,18.75,0,0,0,14.81,6.79q9.54,0,15.42-6.57,5.88-6.79,5.88-17.25t-5.88-17.25A19.44,19.44,0,0,0,887,392.16a19,19,0,0,0-14.81,6.72Q866.26,405.67,866.26,415.67Z" transform="translate(-127 -277.12)"/><path d="M954.92,394.76v58.33H937.74V394.76h-7.33v-16h7.33V351.47h17.18v27.25h13.36v16H954.92Z" transform="translate(-127 -277.12)"/><path d="M1040.64,419.95H987.35q0.69,9.16,6,14.58a18.15,18.15,0,0,0,13.51,5.34,17.57,17.57,0,0,0,10.61-3.05q4.12-3.05,9.39-11.3l14.51,8.09a57.77,57.77,0,0,1-7.1,9.81,37.8,37.8,0,0,1-8,6.72A32.16,32.16,0,0,1,1017,454a45,45,0,0,1-10.76,1.22q-16.64,0-26.72-10.69T969.41,416q0-17.64,9.77-28.55,9.85-10.76,26.11-10.76,16.41,0,26,10.46t9.47,28.78Zm-17.63-14q-3.59-13.74-17.33-13.74a17.8,17.8,0,0,0-5.88,1,16.84,16.84,0,0,0-5,2.75,17.4,17.4,0,0,0-3.86,4.31,20,20,0,0,0-2.44,5.73H1023Z" transform="translate(-127 -277.12)"/><path d="M1092.78,391.4l-14.2,7.56q-3.36-6.79-8.32-6.79a5.73,5.73,0,0,0-4,1.56,5.22,5.22,0,0,0-1.68,4q0,4.27,9.92,8.46,13.67,5.87,18.4,10.83t4.73,13.34a23.37,23.37,0,0,1-7.94,18,27,27,0,0,1-18.63,6.86q-18.71,0-26.49-18.25l14.66-6.79q3.05,5.35,4.66,6.79a10.62,10.62,0,0,0,7.48,2.9q8.7,0,8.7-7.94,0-4.58-6.72-8.55-2.6-1.3-5.19-2.52t-5.27-2.52q-7.48-3.67-10.54-7.33-3.89-4.66-3.89-12a21.21,21.21,0,0,1,6.64-16,23.3,23.3,0,0,1,16.49-6.34Q1085.84,376.66,1092.78,391.4Z" transform="translate(-127 -277.12)"/><polygon points="338.71 175.88 301.48 138.62 338.42 101.68 314.38 101.67 285.9 130.16 285.9 47.02 268.92 47.02 268.92 130.19 240.44 101.69 216.41 101.71 253.35 138.65 216.11 175.91 240.16 175.9 268.92 147.14 268.92 175.99 285.9 175.99 285.9 147.11 314.67 175.87 338.71 175.88"/><polygon points="176 37.23 138.76 0 89.78 48.95 101.8 60.99 101.81 60.98 101.81 60.98 138.75 24.05 176 61.3 188.02 49.28 176 37.25 176 37.23"/><polygon points="0 138.63 49.28 89.36 61.3 101.38 24.05 138.64 60.99 175.59 48.95 187.61 0 138.63"/><polygon points="138.79 277.31 89.53 228.02 101.55 216 138.81 253.26 175.76 216.31 187.77 228.36 138.79 277.31"/></svg>
