<?xml version="1.0" encoding="UTF-8" standalone="no"?>
<!-- Created with Inkscape (http://www.inkscape.org/) -->

<svg
   xmlns:dc="http://purl.org/dc/elements/1.1/"
   xmlns:cc="http://creativecommons.org/ns#"
   xmlns:rdf="http://www.w3.org/1999/02/22-rdf-syntax-ns#"
   xmlns:svg="http://www.w3.org/2000/svg"
   xmlns="http://www.w3.org/2000/svg"
   xmlns:sodipodi="http://sodipodi.sourceforge.net/DTD/sodipodi-0.dtd"
   xmlns:inkscape="http://www.inkscape.org/namespaces/inkscape"
   version="1.1"
   id="svg2"
   xml:space="preserve"
   width="907.44"
   height="361.16266"
   viewBox="0 0 907.44 361.16266"
   sodipodi:docname="logo-maxar.svg"
   inkscape:version="0.92.5 (2060ec1f9f, 2020-04-08)"><metadata
     id="metadata8"><rdf:RDF><cc:Work
         rdf:about=""><dc:format>image/svg+xml</dc:format><dc:type
           rdf:resource="http://purl.org/dc/dcmitype/StillImage" /><dc:title></dc:title></cc:Work></rdf:RDF></metadata><defs
     id="defs6"><clipPath
       clipPathUnits="userSpaceOnUse"
       id="clipPath32"><path
         d="M 0,270.872 H 680.58 V 0 H 0 Z"
         id="path30"
         inkscape:connector-curvature="0" /></clipPath></defs><sodipodi:namedview
     pagecolor="#ffffff"
     bordercolor="#666666"
     borderopacity="1"
     objecttolerance="10"
     gridtolerance="10"
     guidetolerance="10"
     inkscape:pageopacity="0"
     inkscape:pageshadow="2"
     inkscape:window-width="1354"
     inkscape:window-height="624"
     id="namedview4"
     showgrid="false"
     inkscape:zoom="0.49590055"
     inkscape:cx="453.72"
     inkscape:cy="180.58133"
     inkscape:window-x="72"
     inkscape:window-y="27"
     inkscape:window-maximized="0"
     inkscape:current-layer="g10" /><g
     id="g10"
     inkscape:groupmode="layer"
     inkscape:label="logo-maxar"
     transform="matrix(1.3333333,0,0,-1.3333333,0,361.16267)"><g
       id="g12"
       transform="matrix(1.2994553,0,0,1.2994553,388.77546,75.352189)"><path
         d="m 0,0 h 19.848 v 19.937 l -70.39,70.353 h -19.9 V 70.403 L -45.195,45.17 -70.442,19.937 V 0 h 19.848 l 25.297,25.283 z"
         style="fill:#fcaf17;fill-opacity:1;fill-rule:nonzero;stroke:none"
         id="path14"
         inkscape:connector-curvature="0" /></g><path
       d="m 383.43028,161.54389 h 31.13625 v 31.13625 h -31.13625 z"
       style="fill:#fcaf17;fill-opacity:1;fill-rule:nonzero;stroke:none;stroke-width:1.29945529"
       id="path16"
       inkscape:connector-curvature="0" /><g
       id="g18"
       transform="matrix(1.2994553,0,0,1.2994553,491.21672,160.15373)"><path
         d="m 0,0 11.413,-27.094 h -22.827 z m 17.514,-47.148 8.743,-18.111 h 18.888 v 19.968 l -31.33,68.178 -0.938,2.144 H -12.54 L -13.473,22.9 -45.146,-45.294 v -19.965 h 18.543 l 8.678,18.111 z"
         style="fill:#fcaf17;fill-opacity:1;fill-rule:nonzero;stroke:none"
         id="path20"
         inkscape:connector-curvature="0" /></g><g
       id="g22"
       transform="matrix(1.2994553,0,0,1.2994553,220.59125,160.15373)"><path
         d="m 0,0 11.414,-27.094 h -22.828 z m 17.514,-47.148 8.742,-18.111 h 18.889 v 19.968 l -31.33,68.178 -0.938,2.144 H -12.54 L -13.473,22.9 -45.146,-45.294 v -19.965 h 18.555 l 9.07,18.111 z"
         style="fill:#fcaf17;fill-opacity:1;fill-rule:nonzero;stroke:none"
         id="path24"
         inkscape:connector-curvature="0" /></g><g
       id="g26"
       transform="matrix(1.2994553,0,0,1.2994553,-99.633143,-41.976802)"><g
         id="g28"
         clip-path="url(#clipPath32)"><g
           id="g34"
           transform="translate(537.1582,144.3559)"><path
             d="m 0,0 v 16.227 h 22.661 c 4.471,0 8.108,-3.637 8.108,-8.107 0,-4.471 -3.637,-8.108 -8.108,-8.108 L 1.817,0 Z m 8.749,-20.956 0.243,-0.292 27.051,-32.562 h 16.701 v 16.667 l -16.723,19.284 2.136,1.034 c 3.482,1.684 6.564,4.145 9.16,7.315 3.858,4.713 5.815,10.642 5.815,17.623 0,9.033 -2.999,16.086 -8.912,20.963 -5.756,4.744 -13.434,7.149 -22.824,7.149 h -43.81 v -90.29 H 0 v 33.728 h 8.23 z"
             style="fill:#fcaf17;fill-opacity:1;fill-rule:nonzero;stroke:none"
             id="path36"
             inkscape:connector-curvature="0" /></g><g
           id="g38"
           transform="translate(163.9614,90.2909)"><path
             d="M 0,0 H 22.413 L 22.402,90.29 H -1.677 L -3.246,87.91 -25.634,51.54 -48.039,87.934 -49.592,90.29 H -73.671 L -73.661,0 h 22.414 v 46.913 l 16.646,-28.802 h 17.955 l 16.645,28.802 z"
             style="fill:#fcaf17;fill-opacity:1;fill-rule:nonzero;stroke:none"
             id="path40"
             inkscape:connector-curvature="0" /></g></g></g></g></svg>