  0
SECTION
  2
HEADER
  9
$ACADVER
  1
AC1009
  9
$INSBASE
 10
0.0
 20
0.0
 30
0.0
  9
$EXTMIN
 10
-153.0368033557784031
 20
-93.3682766501970605
 30
0.0
  9
$EXTMAX
 10
108.1587062067244034
 20
95.4947611198243749
 30
0.0
  9
$LIMMIN
 10
0.0
 20
0.0
  9
$LIMMAX
 10
420.0
 20
297.0
  0
ENDSEC
  0
SECTION
  2
TABLES
  0
TABLE
  2
VPORT
 70
     1
  0
VPORT
  2
*ACTIVE
 70
     0
 10
0.0
 20
0.0
 11
1.0
 21
1.0
 12
17.1178868870051701
 22
13.9605581411320205
 13
0.0
 23
0.0
 14
10.0
 24
10.0
 15
10.0
 25
10.0
 16
0.0
 26
0.0
 36
1.0
 17
0.0
 27
0.0
 37
0.0
 40
227.8985469781501081
 41
1.9769585253456221
 42
50.0
 43
0.0
 44
0.0
 50
0.0
 51
0.0
 71
     0
 72
  1000
 73
     1
 74
     3
 75
     1
 76
     1
 77
     0
 78
     0
  0
ENDTAB
  0
TABLE
  2
LTYPE
 70
     2
  0
LTYPE
  2
CONTINUOUS
 70
     0
  3
Solid line
 72
    65
 73
     0
 40
0.0
  0
ENDTAB
  0
TABLE
  2
LAYER
 70
     5
  0
LAYER
  2
0
 70
     0
 62
     7
  6
CONTINUOUS
  0
LAYER
  2
ONTHAW
 70
     0
 62
     7
  6
CONTINUOUS
  0
LAYER
  2
ONFREEZE
 70
     1
 62
     7
  6
CONTINUOUS
  0
LAYER
  2
OFFTHAW
 70
     0
 62
    -7
  6
CONTINUOUS
  0
LAYER
  2
OFFFREEZE
 70
     1
 62
    -7
  6
CONTINUOUS
  0
ENDTAB
  0
TABLE
  2
STYLE
 70
     3
  0
STYLE
  2
STANDARD
 70
     0
 40
0.0
 41
1.0
 50
0.0
 71
     0
 42
2.5
  3
txt
  4

  0
ENDTAB
  0
TABLE
  2
VIEW
 70
     1
  0
ENDTAB
  0
TABLE
  2
UCS
 70
     0
  0
ENDTAB
  0
TABLE
  2
APPID
 70
    16
  0
APPID
  2
ACAD
 70
     0
  0
ENDTAB
  0
TABLE
  2
DIMSTYLE
 70
     3
  0
ENDTAB
  0
ENDSEC
  0
SECTION
  2
BLOCKS
  0
BLOCK
  8
0
  2
$MODEL_SPACE
 70
     0
 10
0.0
 20
0.0
 30
0.0
  3
$MODEL_SPACE
  1

  0
ENDBLK
  5
72
  8
0
  0
BLOCK
 67
     1
  8
0
  2
$PAPER_SPACE
 70
     0
 10
0.0
 20
0.0
 30
0.0
  3
$PAPER_SPACE
  1

  0
ENDBLK
  5
6E
 67
     1
  8
0
  0
BLOCK
  8
0
  2
DEMOBLOCK
 70
     0
 10
0.0
 20
0.0
 30
0.0
  3
DEMOBLOCK
  1

  0
CIRCLE
  5
E5
  8
0
 10
0.0
 20
0.0
 30
0.0
 40
10.0
  0
LINE
  5
E6
  8
ONTHAW
 10
10.0
 20
30.0
 30
0.0
 11
30.0
 21
10.0
 31
0.0
  0
LINE
  5
E7
  8
ONFREEZE
 10
30.0
 20
-10.0
 30
0.0
 11
10.0
 21
-30.0
 31
0.0
  0
LINE
  5
E8
  8
OFFFREEZE
 10
-10.0
 20
-30.0
 30
0.0
 11
-30.0
 21
-10.0
 31
0.0
  0
LINE
  5
E9
  8
OFFTHAW
 10
-30.0
 20
10.0
 30
0.0
 11
-10.0
 21
30.0
 31
0.0
  0
INSERT
  5
EA
  8
ONTHAW
  2
DEMOBLOCKWITHSUB
 10
20.0
 20
20.0
 30
0.0
  0
INSERT
  5
EB
  8
ONFREEZE
  2
DEMOBLOCKWITHSUB
 10
20.0
 20
-20.0
 30
0.0
  0
INSERT
  5
EC
  8
OFFFREEZE
  2
DEMOBLOCKWITHSUB
 10
-20.0
 20
-20.0
 30
0.0
  0
INSERT
  5
F9
  8
OFFTHAW
  2
DEMOBLOCKWITHSUB
 10
-20.0
 20
20.0
 30
0.0
  0
ENDBLK
  5
A8
  8
0
  0
BLOCK
  8
0
  2
DEMOBLOCKWITHSUB
 70
     0
 10
0.0
 20
0.0
 30
0.0
  3
DEMOBLOCKWITHSUB
  1

  0
POLYLINE
  5
C5
  8
0
 62
     1
 66
     1
 10
0.0
 20
0.0
 30
0.0
 70
     1
  0
VERTEX
  5
172
  8
0
 62
     1
 10
0.0000000000000001
 20
2.0
 30
0.0
  0
VERTEX
  5
173
  8
0
 62
     1
 10
-1.732050807568877
 20
1.0
 30
0.0
  0
VERTEX
  5
174
  8
0
 62
     1
 10
-1.7320508075688781
 20
-0.9999999999999984
 30
0.0
  0
VERTEX
  5
175
  8
0
 62
     1
 10
-0.0000000000000021
 20
-2.0
 30
0.0
  0
VERTEX
  5
176
  8
0
 62
     1
 10
1.732050807568875
 20
-1.000000000000002
 30
0.0
  0
VERTEX
  5
177
  8
0
 62
     1
 10
1.7320508075688781
 20
0.9999999999999969
 30
0.0
  0
SEQEND
  5
178
  8
0
 62
     1
  0
LINE
  5
C6
  8
ONTHAW
 62
     1
 10
2.0
 20
4.0
 30
0.0
 11
4.0
 21
2.0
 31
0.0
  0
LINE
  5
C7
  8
ONFREEZE
 62
     1
 10
4.0
 20
-2.0
 30
0.0
 11
2.0
 21
-4.0
 31
0.0
  0
LINE
  5
C8
  8
OFFFREEZE
 62
     1
 10
-2.0
 20
-4.0
 30
0.0
 11
-4.0
 21
-2.0
 31
0.0
  0
LINE
  5
C9
  8
OFFTHAW
 62
     1
 10
-4.0
 20
2.0
 30
0.0
 11
-2.0
 21
4.0
 31
0.0
  0
ENDBLK
  5
BE
  8
0
  0
ENDSEC
  0
SECTION
  2
ENTITIES
  0
LINE
  5
A2
  8
ONTHAW
 10
33.7734347980986129
 20
89.9964789154438449
 30
0.0
 11
103.7895626613136955
 21
34.0862864985464284
 31
0.0
  0
LINE
  5
A3
  8
ONFREEZE
 10
108.1587062067244034
 20
-40.4144834714617218
 30
0.0
 11
26.7298586080719396
 21
-93.3682766501970605
 31
0.0
  0
LINE
  5
A4
  8
OFFFREEZE
 10
-72.1698473865442338
 20
-91.5392475177442293
 30
0.0
 11
-153.0368033557784031
 21
-16.7545910994571088
 31
0.0
  0
LINE
  5
A5
  8
OFFTHAW
 10
-123.7358303220816964
 20
45.0739574356224395
 30
0.0
 11
-45.825851743611338
 21
95.4947611198243749
 31
0.0
  0
INSERT
  5
B8
  8
ONTHAW
  2
DEMOBLOCK
 10
40.0
 20
40.0
 30
0.0
  0
INSERT
  5
B9
  8
ONFREEZE
  2
DEMOBLOCK
 10
40.0
 20
-40.0
 30
0.0
  0
INSERT
  5
BA
  8
OFFFREEZE
  2
DEMOBLOCK
 10
-40.0
 20
-40.0
 30
0.0
  0
INSERT
  5
BB
  8
OFFTHAW
  2
DEMOBLOCK
 10
-40.0
 20
40.0
 30
0.0
  0
ENDSEC
  0
EOF
