  0
SECTION
  2
HEADER
  9
$ACADVER
  1
AC1027
  9
$DIMASZ
 40
0.1234
  0
ENDSEC
  0
SECTION
  2
TABLES
  0
TABLE
  2
VPORT
  5
EEEE1
330
0
100
AcDbSymbolTable
 70
     1
  0
VPORT
  5
EEEEB
330
EEEE1
100
AcDbSymbolTableRecord
100
AcDbViewportTableRecord
  2
*ACTIVE
 70
     0
  0
ENDTAB
  0
TABLE
  2
LTYPE
  5
EEEE4
330
0
100
AcDbSymbolTable
 70
     3
  0
LTYPE
  5
51A
330
EEEE4
100
AcDbSymbolTableRecord
100
AcDbLinetypeTableRecord
  2
ByBlock
 70
     0
  3

 72
    65
 73
     0
 40
0.0
  0
LTYPE
  5
51B
330
EEEE4
100
AcDbSymbolTableRecord
100
AcDbLinetypeTableRecord
  2
ByLayer
 70
     0
  3

 72
    65
 73
     0
 40
0.0
  0
ENDTAB
  0
TABLE
  2
LAYER
  5
EEEE8
330
0
100
AcDbSymbolTable
 70
     2
  0
LAYER
  5
EEEF1
330
EEEE8
100
AcDbSymbolTableRecord
100
AcDbLayerTableRecord
  2
0
 70
     0
 62
     7
  6
CONTINUOUS
370
    -3
390
4CF
347
4E1
348
0
  0
ENDTAB
  0
TABLE
  2
STYLE
  5
EEEE9
330
0
100
AcDbSymbolTable
 70
     3
  0
STYLE
  5
EEEF2
330
EEEE9
100
AcDbSymbolTableRecord
100
AcDbTextStyleTableRecord
  2
STANDARD
 70
     0
 40
0.0
 41
1.0
 50
0.0
 71
     0
 42
0.2
  3
Arial
  4

  0
STYLE
  5
261
330
EEEE9
100
AcDbSymbolTableRecord
100
AcDbTextStyleTableRecord
  2
Legend
 70
     0
 40
0.0
 41
0.4
 50
0.0
 71
     0
 42
2.5
  3
calibrii.ttf
  4

1001
ACAD
1000
Calibri
1071
 16777250
  0
ENDTAB
  0
TABLE
  2
VIEW
  5
EEEE3
100
AcDbSymbolTable
  0
ENDTAB
  0
TABLE
  2
UCS
  5
EEEE2
100
AcDbSymbolTable
  0
ENDTAB
  0
TABLE
  2
APPID
  5
EEEE5
330
0
100
AcDbSymbolTable
 70
    1
  0
APPID
  5
EEEF3
330
EEEE5
100
AcDbSymbolTableRecord
100
AcDbRegAppTableRecord
  2
ACAD
 70
     0
  0
ENDTAB
  0
TABLE
  2
DIMSTYLE
  5
EEEE6
330
0
100
AcDbSymbolTable
 70
     2
100
AcDbDimStyleTable
 71
     0
  0
DIMSTYLE
105
EEEF4
330
EEEE6
100
AcDbSymbolTableRecord
100
AcDbDimStyleTableRecord
  2
STANDARD
 70
     0
279
     2
340
EEEF2
  0
DIMSTYLE
105
EEF66
330
EEEE6
100
AcDbSymbolTableRecord
100
AcDbDimStyleTableRecord
  2
ISO-25
 70
     0
 41
2.5
 42
1.234
 43
3.75
 44
1.25
 73
     0
 74
     0
 77
     1
 78
     8
140
2.5
141
2.5
143
0.03937007874016
147
0.625
171
     3
172
     1
271
     2
272
     2
274
     3
278
    44
283
     0
284
     8
340
EEEF2
  0
ENDTAB
  0
TABLE
  2
BLOCK_RECORD
  5
EEEE7
330
0
100
AcDbSymbolTable
 70
     3
  0
BLOCK_RECORD
  5
EEEEE
330
EEEE7
100
AcDbSymbolTableRecord
100
AcDbBlockTableRecord
  2
*Model_Space
340
EEEEA
 70
     0
280
     1
281
     0
  0
BLOCK_RECORD
  5
EEEF6
330
EEEE7
100
AcDbSymbolTableRecord
100
AcDbBlockTableRecord
  2
*Paper_Space
340
EEEF5
 70
     0
280
     1
281
     0
  0
BLOCK_RECORD
  5
DD7A2
330
1
100
AcDbSymbolTableRecord
100
AcDbBlockTableRecord
  2
_None
340
0
 70
     0
280
     1
281
     0
  0
BLOCK_RECORD
  5
DD7D5
330
1
100
AcDbSymbolTableRecord
100
AcDbBlockTableRecord
  2
_BoxFilled
340
0
 70
     0
280
     1
281
     0
  0
BLOCK_RECORD
  5
270
330
1
100
AcDbSymbolTableRecord
100
AcDbBlockTableRecord
  2
myblock
340
0
 70
     4
280
     1
281
     0
  0
ENDTAB
  0
ENDSEC
  0
SECTION
  2
BLOCKS
  0
BLOCK
  5
EEEED
330
EEEEE
100
AcDbEntity
  8
0
100
AcDbBlockBegin
  2
*Model_Space
 70
     0
 10
0.0
 20
0.0
 30
0.0
  3
*Model_Space
  1

  0
ENDBLK
  5
EEEEC
330
EEEEE
100
AcDbEntity
  8
0
100
AcDbBlockEnd
  0
BLOCK
  5
EEEF7
330
EEEF6
100
AcDbEntity
 67
     1
  8
0
100
AcDbBlockBegin
  2
*Paper_Space
 70
     0
 10
0.0
 20
0.0
 30
0.0
  3
*Paper_Space
  1

  0
ENDBLK
  5
EEEF8
330
EEEF6
100
AcDbEntity
 67
     1
  8
0
100
AcDbBlockEnd
  0
BLOCK
  5
DD7A3
330
DD7A2
100
AcDbEntity
  8
0
100
AcDbBlockBegin
  2
_None
 70
     0
 10
0.0
 20
0.0
 30
0.0
  3
_None
  1

  0
ENDBLK
  5
DD7A4
330
DD7A2
100
AcDbEntity
  8
0
100
AcDbBlockEnd
  0
BLOCK
  5
DD7D8
330
DD7D5
100
AcDbEntity
  8
0
100
AcDbBlockBegin
  2
_BoxFilled
 70
     0
 10
0.0
 20
0.0
 30
0.0
  3
_BoxFilled
  1

  0
SOLID
  5
DD7D6
330
DD7D5
100
AcDbEntity
  8
0
  6
ByBlock
 62
     0
100
AcDbTrace
 10
-0.5
 20
0.5
 30
0.0
 11
0.5
 21
0.5
 31
0.0
 12
-0.5
 22
-0.5
 32
0.0
 13
0.5
 23
-0.5
 33
0.0
  0
LINE
  5
DD7D7
330
DD7D5
100
AcDbEntity
  8
0
  6
ByBlock
 62
     0
370
    -2
100
AcDbLine
 10
-0.5
 20
0.0
 30
0.0
 11
-1.0
 21
0.0
 31
0.0
  0
ENDBLK
  5
DD7D9
330
DD7D5
100
AcDbEntity
  8
0
100
AcDbBlockEnd
  0
BLOCK
  5
271
330
270
100
AcDbEntity
  8
0
100
AcDbBlockBegin
  2
myblock
 70
     2
 10
0.0
 20
0.0
 30
0.0
  3
myblock
  1

  0
HATCH
  5
ED5
330
270
100
AcDbEntity
  8
0
440
 16777216
100
AcDbHatch
 10
0.0
 20
0.0
 30
0.0
210
0.0
220
0.0
230
1.0
  2
_SOLID
 70
     1
 71
     0
 91
        5
 92
        7
 72
     0
 73
     1
 93
        4
 10
2.0
 20
2.0
 10
0.0
 20
2.0
 10
0.0
 20
0.0
 10
2.0
 20
0.0
 97
        0
 92
       22
 72
     0
 73
     1
 93
        4
 10
1.199999999999999
 20
0.8
 10
1.6
 20
0.8
 10
1.6
 20
0.4
 10
1.199999999999999
 20
0.4
 97
        0
 92
       22
 72
     0
 73
     1
 93
        4
 10
1.199999999999999
 20
1.199999999999999
 10
1.199999999999999
 20
1.6
 10
1.6
 20
1.6
 10
1.6
 20
1.199999999999999
 97
        0
 92
       22
 72
     0
 73
     1
 93
        4
 10
0.8
 20
0.8
 10
0.8
 20
0.4000000000000002
 10
0.4
 20
0.4
 10
0.4000000000000002
 20
0.8
 97
        0
 92
       22
 72
     0
 73
     1
 93
        4
 10
0.8
 20
1.199999999999999
 10
0.3999999999999999
 20
1.199999999999999
 10
0.4
 20
1.6
 10
0.8
 20
1.6
 97
        0
 75
     1
 76
     1
 47
0.004292710654411
 98
        5
 10
1.199999999999999
 20
1.0
 10
1.199999999999999
 20
1.0
 10
1.199999999999999
 20
1.0
 10
1.199999999999999
 20
1.0
 10
1.199999999999999
 20
1.0
450
        0
451
        0
460
0.0
461
0.0
452
        0
462
0.0
453
        2
463
0.0
 63
     5
421
      255
463
1.0
 63
     2
421
 16776960
470
LINEAR
  0
ATTDEF
  5
ED6
330
270
100
AcDbEntity
  8
0
 62
     0
440
 16777216
100
AcDbText
 10
1.0
 20
2.1
 30
0.0
 40
0.5
  1

 72
     1
 11
1.0
 21
2.1
 31
0.0
100
AcDbAttributeDefinition
280
     0
  3

  2
SITSABOVE
 70
     4
280
     0
  0
ENDBLK
  5
272
330
270
100
AcDbEntity
  8
0
100
AcDbBlockEnd
  0
ENDSEC
  0
SECTION
  2
ENTITIES
  0
LEADER
  5
13C6
330
EEEEE
100
AcDbEntity
  8
0
100
AcDbLeader
  3
ISO-25
 73
     0
 75
     1
 40
2.585266030013642
 41
22.97407912687585
 76
     4
 10
30.0
 20
40.0
 30
0.0
 10
10.0
 20
40.0
 30
0.0
 10
19.3125
 20
34.6875
 30
0.0
 10
10.3125
 20
34.6875
 30
0.0
340
13C7
1001
ACAD
1000
DSTYLE
1002
{
1070
    77
1070
     2
1070
   371
1070
    -2
1070
    40
1040
1.5
1070
   341
1005
0
1070
    41
1040
6.0
1002
}
  0
MTEXT
  5
13C7
330
EEEEE
100
AcDbEntity
  8
0
100
AcDbMText
 10
9.374999999999998
 20
35.625
 30
0.0
 40
2.5
 41
0.0
 46
0.0
 71
     9
 72
     1
  1
Classic Leader
 73
     1
 44
1.0
  0
LEADER
  5
15CE
330
EEEEE
100
AcDbEntity
  8
0
 62
     1
100
AcDbLeader
  3
Standard
 73
     0
 74
     0
 75
     1
 40
2.540927694406548
 41
11.09481582537517
 76
     4
 10
-21.12164573199204
 20
38.03557987350803
 30
30.0
 10
-12.21523579263751
 20
44.79397184143699
 30
30.0
 10
-13.72561660097652
 20
49.07485601862719
 30
30.0
 10
-13.90252932627231
 20
49.04166132585237
 30
30.0
340
15CF
211
-0.9828484738655214
221
-0.1844149598601359
231
0.0
213
0.1368159331449448
223
-0.4973012744972821
233
0.0
  0
LEADER
  5
22AD
330
EEEEE
100
AcDbEntity
  8
0
100
AcDbLeader
  3
ISO-25
 73
     0
 74
     0
 40
44.20190995907229
 41
120.6575716234652
 76
     6
 10
30.0
 20
80.0
 30
0.0
 10
10.0
 20
65.0
 30
0.0
 10
25.0
 20
55.0
 30
0.0
 10
25.0
 20
50.0
 30
0.0
 10
40.0
 20
65.0
 30
0.0
 10
48.0
 20
65.0
 30
0.0
340
22AF
1001
ACAD
1000
DSTYLE
1002
{
1070
   176
1070
     3
1070
    41
1040
4.0
1070
   341
1005
DD7D5
1070
    77
1070
     1
1002
}
  0
MTEXT
  5
22AF
330
EEEEE
100
AcDbEntity
  8
0
100
AcDbMText
 10
48.625
 20
65.625
 30
0.0
 40
4.0
 41
122.2726251124662
 46
0.0
 71
     7
 72
     1
  3
I want to put a really long text in my leader. \PLike, so long that I don't know how I am going\Pto cope when I keep typing this much information into the box. A real test of the character limit. \PEven more characters in the box. Even more character
  1
s in the box. More and more and more and more and more and more and more
 73
     1
 44
1.0
  0
MULTILEADER
  5
797
330
EEEEE
100
AcDbEntity
  8
0
100
AcDbMLeader
270
     2
300
CONTEXT_DATA{
 40
1.0
 10
48.0
 20
20.0
 30
0.0
 41
4.0
140
4.0
145
2.0
174
     1
175
     1
176
     0
177
     0
290
     1
304
Basic Multileader
 11
0.0
 21
0.0
 31
1.0
340
11
 12
50.0
 22
22.03274215552524
 32
0.0
 13
1.0
 23
0.0
 33
0.0
 42
0.0
 43
0.0
 44
0.0
 45
1.0
170
     1
 90
-1073741824
171
     1
172
     5
 91
-1073741824
141
0.0
 92
        0
291
     0
292
     0
173
     0
293
     0
142
0.0
143
0.0
294
     0
295
     0
296
     0
110
25.0
120
5.0
130
0.0
111
1.0
121
0.0
131
0.0
112
0.0
122
1.0
132
0.0
297
     0
302
LEADER{
290
     1
291
     1
 10
40.0
 20
20.0
 30
0.0
 11
1.0
 21
0.0
 31
0.0
 90
        0
 40
8.0
304
LEADER_LINE{
 10
30.0
 20
35.0
 30
0.0
 10
10.0
 20
20.0
 30
0.0
 10
25.0
 20
10.0
 30
0.0
 10
25.0
 20
5.0
 30
0.0
 91
        0
305
}
271
     0
303
}
272
     9
273
     9
301
}
340
12E
 90
   279808
170
     1
 91
-1056964608
341
14
171
    -2
290
     1
291
     1
 41
8.0
342
DD7D5
 42
4.0
172
     2
343
11
173
     1
 95
        1
174
     1
175
     0
 92
-1056964608
292
     0
 93
-1056964608
 10
1.0
 20
1.0
 30
1.0
 43
0.0
176
     0
293
     0
294
     0
178
     0
179
     1
 45
1.0
271
     0
272
     9
273
     9
295
     0
  0
LEADER
  5
EF0A0
330
EEEEE
100
AcDbEntity
  8
0
  6
Continuous
100
AcDbLeader
  3
STANDARD
 76
     3
 10
100.0
 20
25.0
 30
0.0
 10
105.0
 20
21.0
 30
0.0
 10
110.0
 20
21.0
 30
0.0
1001
ACAD
1000
DSTYLE
1002
{
1070
   341
1005
DD7A2
1002
}
  0
LEADER
  5
EF0FB
330
EEEEE
100
AcDbEntity
  8
0
  6
Continuous
100
AcDbLeader
  3
STANDARD
 76
     3
 10
100.0
 20
16.0
 30
0.0
 10
105.0
 20
16.0
 30
0.0
 10
110.0
 20
16.0
 30
0.0
1001
ACAD
1000
DSTYLE
1002
{
1070
    41
1040
2.5001
1002
}
  0
LEADER
  5
EF10B
330
EEEEE
100
AcDbEntity
  8
0
  6
Continuous
100
AcDbLeader
  3
STANDARD
 71
     0
 76
     3
 10
100.0
 20
10.0
 30
0.0
 10
105.0
 20
6.0
 30
0.0
 10
110.0
 20
6.0
 30
0.0
  0
MULTILEADER
  5
798
330
EEEEE
100
AcDbEntity
  8
0
100
AcDbMLeader
270
     2
300
CONTEXT_DATA{
 40
1.0
 10
48.0
 20
35.0
 30
0.0
 41
4.0
140
4.0
145
2.0
174
     1
175
     1
176
     0
177
     0
290
     1
304
arrowemptyblock
 11
0.0
 21
0.0
 31
1.0
340
11
 12
50.0
 22
37.03274215552524
 32
0.0
 13
1.0
 23
0.0
 33
0.0
 42
0.0
 43
0.0
 44
0.0
 45
1.0
170
     1
 90
-1073741824
171
     1
172
     5
 91
-1073741824
141
0.0
 92
        0
291
     0
292
     0
173
     0
293
     0
142
0.0
143
0.0
294
     0
295
     0
296
     0
110
25.0
120
20.0
130
0.0
111
1.0
121
0.0
131
0.0
112
0.0
122
1.0
132
0.0
297
     0
302
LEADER{
290
     1
291
     1
 10
40.0
 20
35.0
 30
0.0
 11
1.0
 21
0.0
 31
0.0
 90
        0
 40
8.0
304
LEADER_LINE{
 10
25.0
 20
20.0
 30
0.0
 91
        0
305
}
271
     0
303
}
272
     9
273
     9
301
}
340
12E
 90
   279808
170
     1
 91
-1056964608
341
14
171
    -2
290
     1
291
     1
 41
8.0
342
DD7A2
 42
4.0
172
     2
343
11
173
     1
 95
        1
174
     1
175
     0
 92
-1056964608
292
     0
 93
-1056964608
 10
1.0
 20
1.0
 30
1.0
 43
0.0
176
     0
293
     0
294
     0
178
     0
179
     1
 45
1.0
271
     0
272
     9
273
     9
295
     0
  0
MULTILEADER
  5
1E9B
330
EEEEE
100
AcDbEntity
  8
0
100
AcDbMLeader
270
     2
300
CONTEXT_DATA{
 40
1.0
 10
79.04365620736697
 20
42.2087312414734
 30
0.0
 41
4.0
140
12.0
145
2.0
174
     0
175
     7
176
     2
177
     0
290
     1
304
arrowtoolarge
 11
0.0
 21
0.0
 31
1.0
340
11
 12
114.7762619372442
 22
42.2087312414734
 32
0.0
 13
1.0
 23
0.0
 33
0.0
 42
0.0
 43
0.0
 44
0.0
 45
1.0
170
     1
 90
-1073741824
171
     3
172
     5
 91
-1073741824
141
0.0
 92
        0
291
     0
292
     0
173
     0
293
     0
142
0.0
143
0.0
294
     0
295
     0
296
     0
110
70.0
120
20.0
130
0.0
111
1.0
121
0.0
131
0.0
112
0.0
122
1.0
132
0.0
297
     0
302
LEADER{
290
     1
291
     1
 10
124.7762619372442
 20
37.03274215552524
 30
0.0
 11
-1.0
 21
0.0
 31
0.0
 90
        1
 40
8.0
304
LEADER_LINE{
 10
145.0
 20
45.0
 30
0.0
 91
        0
305
}
271
     0
303
}
272
     9
273
     9
301
}
340
12E
 90
 33838848
170
     1
 91
-1056964608
341
14
171
    -2
290
     1
291
     1
 41
8.0
 42
12.0
172
     2
343
11
173
     0
 95
        7
174
     1
175
     0
 92
-1056964608
292
     0
 93
-1056964608
 10
1.0
 20
1.0
 30
1.0
 43
0.0
176
     0
293
     0
294
     0
178
     0
179
     3
 45
1.0
271
     0
272
     9
273
     9
295
     0
  0
MULTILEADER
  5
26C
330
1F
100
AcDbEntity
  8
0
 62
     5
100
AcDbMLeader
270
     2
300
CONTEXT_DATA{
 40
1.0
 10
38.0
 20
-20.0
 30
90.0
 41
4.0
140
4.0
145
2.0
174
     1
175
     1
176
     0
177
     0
290
     1
304
wwmhyhuasmjekhosovikpigsvtippomllixhzkrpithawzztyqybthjqiobkrpcxngjfkepricimyjplksbzteotqgnkbprugrextpsnhhiorevsxjxzomzcnyrtphzgeibfljbsaikosjfrhrrhidjswmxeqjrvbllbjggjblzydcqpbuzjhgcaoflgskaabkuikiwqcmytgbaxbiukpqvqjtfinygjcakzfdyyejvvpdbwsftxzimjettbzkjmdqfigwyoghbsolhvlfunknprjmmrfxntjwmvonkxvmgsntczwcmbujxkwzykpaexmquoatsvjkbchlzptgedbjnbutvimbufrbhxpwotemzvrxtidzdtbbqywmurmdzsgqqyiyahgmnacmhrlpekufpgfruh
 11
0.0
 21
0.0
 31
1.0
340
261
 12
40.0
 22
-17.98461538461539
 32
90.0
 13
1.0
 23
0.0
 33
0.0
 42
0.0
 43
0.0
 44
0.0
 45
1.0
170
     1
 90
-1023410171
171
     1
172
     5
 91
-1073741824
141
0.0
 92
        0
291
     0
292
     0
173
     0
293
     0
142
0.0
143
0.0
294
     0
295
     0
296
     0
110
5.0
120
-5.0
130
90.0
111
1.0
121
0.0
131
0.0
112
0.0
122
1.0
132
0.0
297
     0
302
LEADER{
290
     1
291
     1
 10
18.2
 20
-20.0
 30
90.0
 11
1.0
 21
0.0
 31
0.0
 90
        0
 40
19.8
304
LEADER_LINE{
 10
5.0
 20
-5.0
 30
90.0
 91
        0
305
}
304
LEADER_LINE{
 10
20.0
 20
-10.0
 30
90.0
 91
        1
305
}
271
     0
303
}
302
LEADER{
290
     1
291
     1
 10
60.22276923076923
 20
-20.0
 30
90.0
 11
-1.0
 21
0.0
 31
0.0
 90
        1
 40
8.0
304
LEADER_LINE{
 10
54.82049211375453
 20
-22.58007536573268
 30
90.0
 91
        2
305
}
271
     0
303
}
272
     9
273
     9
301
}
340
12E
 90
 67390592
170
     1
 91
-1056964608
341
14
171
    -2
290
     1
291
     1
 41
8.0
 42
4.0
172
     2
343
261
173
     1
 95
        1
174
     1
175
     0
 92
-1056964608
292
     0
 93
-1056964608
 10
1.0
 20
1.0
 30
1.0
 43
0.0
176
     0
293
     0
294
     0
178
     0
179
     1
 45
1.0
271
     0
272
     9
273
     9
295
     0
  0
MULTILEADER
  5
2D8
330
EEEEE
100
AcDbEntity
  8
0
 62
     1
100
AcDbMLeader
270
     2
300
CONTEXT_DATA{
 40
1.0
 10
-43.99999999999999
 20
-18.99999999999999
 30
0.0
 41
4.0
140
4.0
145
2.0
174
     1
175
     1
176
     0
177
     1
290
     0
296
     1
341
270
 14
0.0
 24
0.0
 34
1.0
 15
-44.0
 25
-19.0
 35
0.0
 16
1.999999999999998
 26
1.999999999999998
 36
1.999999999999998
 46
0.174532925199433
 93
-1023410175
 47
1.969615506024414
 47
-0.3472963553338605
 47
0.0
 47
-44.0
 47
0.3472963553338605
 47
1.969615506024414
 47
0.0
 47
-19.0
 47
0.0
 47
0.0
 47
1.999999999999998
 47
0.0
 47
0.0
 47
0.0
 47
0.0
 47
1.0
110
-44.81115957534527
120
-20.15845593067914
130
0.0
111
0.9848077530122079
121
0.1736481776669303
131
0.0
112
-0.1736481776669303
122
0.9848077530122079
132
0.0
297
     0
302
LEADER{
290
     1
291
     1
 10
-36.12153797590233
 20
-17.61081457866455
 30
0.0
 11
-0.9848077530122081
 21
-0.1736481776669303
 31
0.0
 90
        0
 40
7.999999999999998
304
LEADER_LINE{
 10
-41.8919467995818
 20
-22.89308511391757
 30
0.0
 91
        0
305
}
271
     0
303
}
272
     9
273
     9
301
}
340
12E
 90
 15205378
170
     1
 91
-1023410170
341
14
171
    -2
290
     1
291
     1
 41
8.0
 42
4.0
172
     1
343
11
173
     1
 95
        1
174
     1
175
     0
 92
-1056964608
292
     0
344
270
 93
-1056964608
 10
2.0
 20
2.0
 30
2.0
 43
0.0
176
     1
293
     0
330
ED6
177
     1
 44
0.0
302
Apples%%p
294
     0
178
     0
179
     1
 45
1.0
271
     0
272
     9
273
     9
295
     0
  0
MULTILEADER
  5
EEB
330
EEEEE
100
AcDbEntity
  8
0
100
AcDbMLeader
270
     2
300
CONTEXT_DATA{
 40
1.0
 10
-3.984232524562343
 20
-23.11052376011906
 30
0.0
 41
4.0
140
4.0
145
2.0
174
     1
175
     1
176
     0
177
     0
290
     0
296
     1
341
270
 14
0.0
 24
0.0
 34
1.0
 15
-4.984232524562338
 25
-24.11052376011906
 35
0.0
 16
1.0
 26
1.0
 36
1.0
 46
0.0
 93
-1073741824
 47
1.0
 47
0.0
 47
0.0
 47
-4.984232524562338
 47
0.0
 47
1.0
 47
0.0
 47
-24.11052376011906
 47
0.0
 47
0.0
 47
1.0
 47
0.0
 47
0.0
 47
0.0
 47
0.0
 47
1.0
110
-8.98423252456234
120
-22.11052376011907
130
0.0
111
1.0
121
0.0
131
0.0
112
0.0
122
1.0
132
0.0
297
     0
302
LEADER{
290
     1
291
     1
 10
4.015767475437656
 20
-23.11052376011906
 30
0.0
 11
-1.0
 21
0.0
 31
0.0
 90
        0
 40
8.0
304
LEADER_LINE{
 10
-1.669648952481109
 20
-10.58676396047542
 30
0.0
 91
        0
305
}
271
     0
303
}
302
LEADER{
290
     1
291
     1
 10
-11.98423252456233
 20
-23.11052376011906
 30
0.0
 11
1.0
 21
0.0
 31
0.0
 90
        1
 40
8.0
304
LEADER_LINE{
 10
-30.0
 20
-20.0
 30
0.0
 91
        1
305
}
271
     0
303
}
272
     9
273
     9
301
}
340
12E
 90
  6816832
170
     1
 91
-1056964608
341
14
171
    -2
290
     1
291
     0
 41
8.0
 42
4.0
172
     1
343
11
173
     1
 95
        1
174
     1
175
     0
 92
-1056964608
292
     0
344
270
 93
-1056964608
 10
1.0
 20
1.0
 30
1.0
 43
0.0
176
     0
293
     0
330
ED6
177
     1
 44
0.0
302

294
     0
178
     0
179
     1
 45
1.0
271
     0
272
     9
273
     9
295
     0
  0
MULTILEADER
  5
EF0
330
EEEEE
100
AcDbEntity
  8
0
100
AcDbMLeader
270
     2
300
CONTEXT_DATA{
 40
1.0
 10
-5.984232524562338
 20
-23.11052376011906
 30
0.0
 41
4.0
140
4.0
145
2.0
174
     1
175
     1
176
     0
177
     0
290
     0
296
     1
341
270
 14
0.0
 24
0.0
 34
1.0
 15
-6.98423252456234
 25
-24.11052376011906
 35
0.0
 16
1.0
 26
1.0
 36
1.0
 46
0.0
 93
-1073741824
 47
1.0
 47
0.0
 47
0.0
 47
-6.98423252456234
 47
0.0
 47
1.0
 47
0.0
 47
-24.11052376011906
 47
0.0
 47
0.0
 47
1.0
 47
0.0
 47
0.0
 47
0.0
 47
0.0
 47
1.0
110
1.015767475437655
120
-22.11052376011907
130
0.0
111
1.0
121
0.0
131
0.0
112
0.0
122
1.0
132
0.0
297
     0
272
     9
273
     9
301
}
340
12E
 90
  6816832
170
     1
 91
-1056964608
341
14
171
    -2
290
     1
291
     0
 41
8.0
 42
4.0
172
     1
343
11
173
     1
 95
        1
174
     1
175
     0
 92
-1056964608
292
     0
344
270
 93
-1056964608
 10
1.0
 20
1.0
 30
1.0
 43
0.0
176
     0
293
     0
330
ED6
177
     1
 44
0.0
302

294
     0
178
     0
179
     1
 45
1.0
271
     0
272
     9
273
     9
295
     0
  0
LEADER
  5
595
330
EEEEE
100
AcDbEntity
  8
0
  6
Continuous
100
AcDbLeader
  3
STANDARD
 72
     1
 76
     3
 10
75.0
 20
-5.0
 30
0.0
 10
83.0
 20
-12.0
 30
0.0
 10
79.0
 20
-16.0
 30
0.0
213
0.0
223
0.09
233
0.0
1001
ACAD
1000
DSTYLE
1002
{
1070
   341
1005
DD7A2
1070
    40
1040
15.0
1002
}
  0
MULTILEADER
  5
592
330
EEEEE
100
AcDbEntity
  8
0
100
AcDbMLeader
270
     2
300
CONTEXT_DATA{
 40
4.0
 10
108.0
 20
-6.0
 30
0.0
 41
2.0
140
4.0
145
2.0
174
     6
175
     1
176
     0
177
     0
290
     1
304
Splines
 11
0.0
 21
0.0
 31
1.0
340
EEEF2
 12
110.7043505591004
 22
-4.206734036162956
 32
0.0
 13
0.9488697486943882
 23
-0.3156678634461367
 33
0.0
 42
5.962024883905141
 43
6.0
 44
4.0
 45
1.0
170
     1
 90
-1073741824
171
     1
172
     5
 91
-1073741824
141
0.0
 92
        0
291
     0
292
     0
173
     0
293
     0
142
0.0
143
0.0
294
     0
295
     0
296
     0
110
96.14491626660448
120
-16.22864587748747
130
0.0
111
0.9488697486943882
121
-0.3156678634461367
131
0.0
112
0.3156678634461367
122
0.9488697486943882
132
0.0
297
     0
302
LEADER{
290
     1
291
     1
 10
100.4090420104449
 20
-3.474657092430906
 30
0.0
 11
0.948869748694388
 21
-0.3156678634461367
 31
0.0
 90
        1
 40
8.0
304
LEADER_LINE{
 10
96.0
 20
-28.0
 30
0.0
 91
        2
305
}
304
LEADER_LINE{
 10
99.0
 20
-4.0
 30
0.0
 10
102.9105572809
 20
-4.178885438199983
 30
0.0
 91
        4
305
}
271
     0
303
}
272
     9
273
     9
301
}
340
EF158
 90
 17127073
170
     2
 91
-1056964608
341
51A
171
    -2
290
     1
291
     1
 41
2.0
 42
1.0
172
     2
343
EEEF2
173
     6
 95
        1
174
     1
175
     2
 92
-1056964608
292
     0
 93
-1056964608
 10
1.0
 20
1.0
 30
1.0
 43
0.0
176
     0
293
     0
294
     0
178
     0
179
     1
 45
4.0
271
     0
272
     9
273
     9
295
     0
  0
MULTILEADER
  5
1C69
330
EEEEE
100
AcDbEntity
  8
0
100
AcDbMLeader
270
     2
300
CONTEXT_DATA{
 40
10.0
 10
63.6
 20
50.0
 30
0.0
 41
1.799999999999999
140
1.799999999999999
145
0.9
174
     1
175
     6
176
     0
177
     0
290
     0
296
     0
110
60.0
120
50.0
130
0.0
111
1.0
121
0.0
131
0.0
112
0.0
122
1.0
132
0.0
297
     0
302
LEADER{
290
     1
291
     1
 10
60.0
 20
50.0
 30
0.0
 11
1.0
 21
0.0
 31
0.0
 12
60.0
 22
50.0
 32
0.0
 13
60.625
 23
50.0
 33
0.0
 12
61.875
 22
50.0
 32
0.0
 13
63.125
 23
50.0
 33
0.0
 90
        0
 40
3.599999999999998
304
LEADER_LINE{
 10
50.0
 20
40.0
 30
0.0
 10
54.31089621338014
 20
47.55851732694476
 30
0.0
 90
        0
 11
51.28779034038786
 21
42.25794941921406
 31
0.0
 12
51.90706967405771
 22
43.34376390930407
 32
0.0
 90
        1
 11
55.92707343265128
 21
48.25210085528842
 31
0.0
 12
57.07576367530417
 22
48.74506203675614
 32
0.0
 11
59.42565487867355
 21
49.75351940926614
 31
0.0
 12
60.0
 22
50.0
 32
0.0
 91
        0
305
}
271
     0
303
}
272
     9
273
     9
301
}
340
67
 90
 16778240
170
     1
 91
-1056964608
341
5B
171
    -2
290
     1
291
     1
 41
0.36
 42
0.18
172
     0
343
55
173
     1
 95
        6
174
     1
175
     0
 92
-1056964608
292
     0
 93
-1056964608
 10
1.0
 20
1.0
 30
1.0
 43
0.0
176
     0
293
     0
294
     0
178
     0
179
     1
 45
10.0
271
     0
272
     9
273
     9
295
     1
  0
ENDSEC
  0
SECTION
  2
OBJECTS
  0
DICTIONARY
  5
4CC
330
0
100
AcDbDictionary
281
     1
  3
ACAD_GROUP
350
4CD
  0
DICTIONARY
  5
4CD
102
{ACAD_REACTORS
330
4CC
102
}
330
4CC
100
AcDbDictionary
281
     1
  0
ENDSEC
  0
EOF
