<svg xmlns="http://www.w3.org/2000/svg" xmlns:xlink="http://www.w3.org/1999/xlink" width="592.65" height="643.79" overflow="visible"><defs><linearGradient id="b"><stop offset="0"/><stop offset="1" stop-opacity="0"/></linearGradient><linearGradient id="a"><stop offset="0" stop-color="#ff7b00"/><stop offset="1" stop-color="#ffd300" stop-opacity="0"/></linearGradient><linearGradient xlink:href="#a" id="d" x1="78.59" y1="40.66" x2="114.33" y2="40.66" gradientUnits="userSpaceOnUse"/><linearGradient xlink:href="#b" id="c" x1="142.03" y1="134.62" x2="222.17" y2="232.37" gradientUnits="userSpaceOnUse" gradientTransform="translate(-7.86 -11.57)"/></defs><ellipse cx="370.23" cy="418.06" rx="219.92" ry="223.23" fill="#976f50" stroke="#634343" stroke-width="5" stroke-linecap="round"/><path d="M515.78 260.96c8.82-.17 14.77 10.15 18.25 22.43 7.74.35 17.1 9.57 15.4 21.26 7.61 4.57 8.56 10.57 8 16.9 7.25 3.95 9.15 11.04 6.14 21.01 12.06 9.72 9.81 18.02 6.28 26.2 11.88 15.47 10.67 30.5 2.51 45.28 7.67 12.83 3.54 25.36-5.69 37.75 10.91 14.22 10.67 26.04-8.29 33.8 4.87 10.01 4.2 19.26-7.2 27.04-.84 8.01-4.03 12.33-9.12 13.64 1.75 13.97-3.42 21.57-15.73 22.6-4.03 10-10.53 14.77-19.92 13.4-3 32.97-19.18 37.58-38.08 36.31-3.83 9.3-9.38 16.68-22.93 15.15-10.2 14.54-21.8 19.87-35.57 11.22-5.75 4.4-11.5 5.88-17.24 2.26-9.58 6.07-19.37 10.92-31.14 4.68z" fill="#634343" fill-rule="evenodd"/><ellipse cx="346.52" cy="406.62" rx="224.98" ry="225.44" fill="#d68b99"/><ellipse cx="347.03" cy="405.75" rx="219.92" ry="223.23" fill="none" stroke="#634343" stroke-width="10" stroke-linecap="round"/><ellipse cx="345.93" cy="405.38" rx="215.11" ry="218.35" fill="none" stroke="#845252" stroke-width="9.78" stroke-linecap="round"/><path d="M201.69 476.77l32.83 12.54 28.95-19.94-1.78 35.1 27.9 21.38-33.93 9.15-11.7 33.15-19.2-29.45-35.13-.89 22.07-27.35z" fill="#fff"/><path d="M227.27 316.25c-7 6.75-20.1 6.76-27.52 0-6.62-7.57-24.08 0-21-14.8 1.52-12.36 14-20.86 26.23-18.7 13.05 1.04 22.4-9.23 30.71-17.62 5.74-11.53 15.8-18.76 28.24-21.09 9.15-5.67 20.88-14.52 30.28-4.18 8.42 7.54 22.16 11.4 22.48 24.8 1.25 11.52 5.64 22.14 10.6 32.48 2.81 12.16 7.27 27.66-2.66 37.8-9.02 6.42-7.91 19.16-11.54 28.57-1.96 9.97-11.58 14.51-17.53 21.7-6.01 9.73-18.92 10.64-24.93 20.14-2.8 8.15-9.02 18.12-7.11 26.34 11.34-4.76 22.33-14.01 35.75-12.33 11.31.14 22.68 1.41 33.58-1.35 8.96 2.7 15.5 15.62 5.67 21.64-6.9 7.61-18.4 8.16-24.2 17.08-8.78 7.75-21.83 3.17-32.49 3.63-10.68-.26-21.4-3.14-32.06-1.74-13.86 4.85-28.93 10.82-43.61 5.6-10.78-1-17.69-12.1-14.75-22.28 4.24-13.6 18.17-19.25 26.64-29.74 11.77-4.99 17.38-15.24 25.04-24.77 8.88-10.9 8.9-25.94 14.62-38.32 6.07-9.44 20.45-9.67 24.22-21.14 4.36-11.5-.13-25.12-7.55-34.29-10.08-10.04-26.82-5.66-35.73 3.76-3.3 6.4-9.64 11.53-11.38 18.81z" fill="#fff" fill-rule="evenodd"/><path d="M385.61 249.96c-17.78-5.58-19.36 18.3-26.66 28.52-8.22 12.76-1.74 27.06-1.04 40.53-2.84 14.97 2.63 29.03 5.86 43.37-.45 17.53 12.83 28.54 23.53 40.37 2.31 17.85 19.6 28.3 36.25 19.78 12.68-4.57 35.02-1.02 34.17-20.76 1.8-19.3 4.35-39.16 15.31-55.74 11.17-16.4 5.82-39-6.19-53.4-16.27-6.04-27.86-20.14-29.37-37.4-7.56-17.7-25.54-10.87-37.97-4.86-4.64.2-9.25-.58-13.89-.4z" fill="none" stroke="#fff" stroke-width="38.89"/><path d="M445.04 535.47l4.32-19.66-13.75-14.7 20.03-1.97 9.74-17.62 8.06 18.45 19.77 3.81-15.05 13.37 2.48 19.98-17.37-10.19zM380.65 499.5l-12.1-.35-7.13 9.76-3.4-11.6-11.5-3.77 9.98-6.83.04-12.1 9.58 7.39 11.51-3.7-4.06 11.39z" fill="#fff"/><path d="M56.77 483.44h65.06V589.9c-27.31 12.21-64.06 15.46-91.06-5.04-23.19-17.6-36.25-62.1-28.56-103.5 7.69-41.4 31.64-63.13 56.78-70.37 25.14-7.25 53.53.87 61.51 6.35l-10.05 47.91c-11.18-6.14-20.74-9.53-32.98-7.24-29.95 5.6-24.8 69.16-17.15 82.8 6.2 11.05 11.1 10.2 11.1 10.2l.14-20.84-14.79-.15zM225.77 420.36c-22.75-15.25-65.25-14.25-89.5-6.25l.25 182c23.75 3.75 65.75 6.5 88.75-10.25 24.71-18 33.25-48.25 33-84.5-.26-37.25-9.75-65.75-32.5-81zm-21.5 83.25c-.5 44-15 47.75-15 47.75v-96s16 3.25 15 48.25zM323.77 559.61l7.25 38.25 52.25-.25-36.75-188-55.5-.25-40.75 188.5h52l7.75-38.25zM389.52 409.36v188.25h96v-47.5h-43V409.36z" fill="#ccc"/><path d="M112.02 583.36c-7.25 3-22.75 6-35 6-19.25 0-33.75-5.5-45-16.75-14.5-14-22.25-39-21.75-68 .75-61.25 35.75-86.75 71.5-86.75 12.75 0 22.25 2.5 27.5 5l-5.75 28.25c-4.75-2.25-11-3.75-19.25-3.75-22.25 0-40 15.25-40 59.25 0 40.5 15.75 55 31 55 3 0 5.25-.25 6.5-.75v-40.75h-15v-26.75h45.25zM146.52 421.86c8.25-2 20.25-3.25 33.25-3.25 21.25 0 36 5 46.75 15 14.5 13 22 35.25 22 68 0 34-8.75 58.25-23.5 71.25-11.25 11-28 16.25-51.5 16.25-10.25 0-20.5-1-27-1.75zm32.75 140c1.5.5 4 .5 5.75.5 15.75 0 29.5-15.5 29.5-62 0-34.5-9-55.5-28.75-55.5-2.25 0-4.5 0-6.5.75zM302.02 549.36l-7.5 38.5h-31.75l36.5-168.5h39.25l32.75 168.5h-31.75l-7.25-38.5zm27.25-25.5l-5.5-35.25c-1.75-10.25-4-27-5.5-38.25h-.75c-1.75 11.25-4.25 28.75-6 38.5l-6.25 35zM399.77 419.36h32.75v140.75h43.25v27.75h-76z"/><g><path d="M118.18 72.98c-5-6.06-4.69-21.6-13.06-21.76" fill="none" stroke="#000" stroke-width="2" stroke-linecap="round"/><path fill="#666667" d="M168.93 51.65L249.7 0l14.16 51.35L183.09 103z"/><path d="M175.98 114.4s-12.52 3.46-23.3 9.84c-10.78 6.39-19.82 15.7-19.82 15.7l-34.21-57.5s6.65-12.35 17.64-18.86c10.57-6.26 25.48-6.68 25.48-6.68z" fill="#c00f0f"/><path d="M205.77 125.48c.14-.98.09-1.88-.17-2.68a4.38 4.38 0 0 0-.88-1.54c-.32-.37-.7-.7-1.17-1-1.38-.86-3.3-1.31-5.65-1.38a30.44 30.44 0 0 0-5.97.47l-1.5.27-.77.16c-.52.1-1.04.23-1.57.36-10.13 2.44-23.22 8.3-35.6 16.39-12.05 7.87-20.79 16.15-24.6 22.63a22.18 22.18 0 0 0-1.45 3 9.68 9.68 0 0 0-.66 3.06c0 .27 0 .53.03.78a4.63 4.63 0 0 0 2.26 3.61c7.36 4.65 30.22-2.63 51.06-16.25l1.93-1.28c14.53-9.84 23.8-20.11 24.71-26.6z" fill="#989898"/><path d="M146.8 141.09c-10.04 9.63-2.13 25.71 3.53 35.9 18.46 10.6-6.15 24.26-1.13 37.74 5.77 9.4 16.7 13.2 20.63 23.44 8.57 4.96 19.93.48 28.4-3.31 12.01-4.47 23.18 11.35 27.6 21.02 4.5 6.68 11.75 18.2 19.38 19.45 9.35-8.98 21.66-1.98 32.7-1.76 10.81-.5 18.05-9.82 29.6-8.16 14.5-8.84 2.48-23.6-8.14-28.72-6.24-9.93-20.34-11-29.84-4.6-13.73 9.04-21.24-11.21-34.34-7.98-13.98-2.41-10.93-20.58-23.16-23.53-10.04 1.3-22.97 2.89-25.65-9.68-15.7 4.47-15.58-16.35-11.92-26.13.73-12.2 21.75-9.05 18.23-24.56-5.26-6.1-9.38-23.65-19.78-16.53-13.94 1.69-20.45 4.69-26.1 17.4z" fill="#fff" fill-rule="evenodd" stroke="url(#c)" stroke-width="1.5"/><path fill="#666667" d="M13.28 153l83.7-53.63 13.64 51.7-83.7 53.63z"/><path d="M97.48 128.2l2.53 3.58 23.54-15.27c-.27-.56-2.18-3.29-2.52-3.79zM157.99 89.5l2.52 3.58 23.55-15.27c-.27-.56-2.18-3.29-2.52-3.79z"/><path d="M79 21.1c7.04 11.04 20.48 51.85 32.48 34.8 12-17.03-25.07-24.1-32.47-34.8z" fill="url(#d)" fill-rule="evenodd" stroke="#000"/><path d="M152.5 136.53c19.71-12.9 41.24-20.1 49.73-16.9-5.47-2.51-27.14-10.83-50.19 2.24-23.86 13.53-26.18 34.55-26.16 42.38 1.07-6.78 11.1-17.58 26.61-27.72z" fill="#666667"/></g><path d="M500.9 462.56l-4.15-12.67-12.8-3.77 10.78-7.86-.37-13.34 10.8 7.82 12.57-4.48-4.09 12.7 8.14 10.57-13.34.03z" fill="#fff"/></svg>