<?xml version="1.0" encoding="UTF-8" standalone="no"?>
<!DOCTYPE svg PUBLIC "-//W3C//DTD SVG 1.1//EN"
 "http://www.w3.org/Graphics/SVG/1.1/DTD/svg11.dtd">
<!-- Generated by graphviz version 11.0.0 (20240428.1522)
 -->
<!-- Title: GDALG Workflow Pages: 1 -->
<svg width="697pt" height="136pt"
 viewBox="0.00 0.00 697.00 136.00" xmlns="http://www.w3.org/2000/svg" xmlns:xlink="http://www.w3.org/1999/xlink">
<g id="graph0" class="graph" transform="scale(1 1) rotate(0) translate(4 132)">
<title>GDALG Workflow</title>
<!-- 0 -->
<g id="node1" class="node">
<title>0</title>
<g id="a_node1"><a xlink:href="https://gdal.org/en/latest/programs/gdal_raster_read.html" xlink:title="https://gdal.org/en/latest/programs/gdal_raster_read.html" target="_blank">
<polygon fill="#eeffcc" stroke="none" points="0,-100.5 0,-128 66.5,-128 66.5,-100.5 0,-100.5"/>
<polygon fill="none" stroke="black" points="0,-100.5 0,-128 66.5,-128 66.5,-100.5 0,-100.5"/>
<text text-anchor="start" x="18.25" y="-110.6" font-family="Courier,monospace" font-weight="bold" font-size="12.00">read</text>
<polygon fill="none" stroke="black" points="0,-73 0,-100.5 66.5,-100.5 66.5,-73 0,-73"/>
<text text-anchor="start" x="7" y="-82.1" font-family="Courier,monospace" font-size="12.00">dem.tif</text>
</a>
</g>
</g>
<!-- 1 -->
<g id="node2" class="node">
<title>1</title>
<g id="a_node2"><a xlink:href="https://gdal.org/en/latest/programs/gdal_raster_color_map.html" xlink:title="https://gdal.org/en/latest/programs/gdal_raster_color_map.html" target="_blank">
<polygon fill="#eeffcc" stroke="none" points="102.5,-96.5 102.5,-124 266.5,-124 266.5,-96.5 102.5,-96.5"/>
<polygon fill="none" stroke="black" points="102.5,-96.5 102.5,-124 266.5,-124 266.5,-96.5 102.5,-96.5"/>
<text text-anchor="start" x="150.75" y="-106.6" font-family="Courier,monospace" font-weight="bold" font-size="12.00">color&#45;map</text>
<polygon fill="none" stroke="black" points="102.5,-69 102.5,-96.5 266.5,-96.5 266.5,-69 102.5,-69"/>
<text text-anchor="start" x="109.5" y="-78.1" font-family="Courier,monospace" font-size="12.00">&#45;&#45;color&#45;map test.cpt</text>
</a>
</g>
</g>
<!-- 0&#45;&gt;1 -->
<g id="edge1" class="edge">
<title>0&#45;&gt;1</title>
<path fill="none" stroke="black" d="M66.27,-99.64C73.92,-99.44 82.46,-99.21 91.36,-98.97"/>
<polygon fill="black" stroke="black" points="91.37,-102.47 101.27,-98.7 91.18,-95.47 91.37,-102.47"/>
</g>
<!-- 2 -->
<g id="node3" class="node">
<title>2</title>
<g id="a_node3"><a xlink:href="https://gdal.org/en/latest/programs/gdal_raster_blend.html" xlink:title="https://gdal.org/en/latest/programs/gdal_raster_blend.html" target="_blank">
<polygon fill="#eeffcc" stroke="none" points="302.5,-63.5 302.5,-91 466.5,-91 466.5,-63.5 302.5,-63.5"/>
<polygon fill="none" stroke="black" points="302.5,-63.5 302.5,-91 466.5,-91 466.5,-63.5 302.5,-63.5"/>
<text text-anchor="start" x="365.75" y="-73.6" font-family="Courier,monospace" font-weight="bold" font-size="12.00">blend</text>
<polygon fill="none" stroke="black" points="302.5,-36 302.5,-63.5 466.5,-63.5 466.5,-36 302.5,-36"/>
<text text-anchor="start" x="309.5" y="-45.1" font-family="Courier,monospace" font-size="12.00">&#45;&#45;operator hsv&#45;value</text>
</a>
</g>
</g>
<!-- 1&#45;&gt;2 -->
<g id="edge2" class="edge">
<title>1&#45;&gt;2</title>
<path fill="none" stroke="black" d="M266.32,-83.03C274.55,-81.66 282.96,-80.26 291.3,-78.87"/>
<polygon fill="black" stroke="black" points="291.84,-82.33 301.12,-77.23 290.69,-75.42 291.84,-82.33"/>
</g>
<!-- 5 -->
<g id="node6" class="node">
<title>5</title>
<g id="a_node6"><a xlink:href="https://gdal.org/en/latest/programs/gdal_raster_write.html" xlink:title="https://gdal.org/en/latest/programs/gdal_raster_write.html" target="_blank">
<polygon fill="#eeffcc" stroke="none" points="502.5,-63.5 502.5,-91 689,-91 689,-63.5 502.5,-63.5"/>
<polygon fill="none" stroke="black" points="502.5,-63.5 502.5,-91 689,-91 689,-63.5 502.5,-63.5"/>
<text text-anchor="start" x="577" y="-73.6" font-family="Courier,monospace" font-weight="bold" font-size="12.00">write</text>
<polygon fill="none" stroke="black" points="502.5,-36 502.5,-63.5 689,-63.5 689,-36 502.5,-36"/>
<text text-anchor="start" x="509.5" y="-45.1" font-family="Courier,monospace" font-size="12.00">dem_pipeline.gdalg.json</text>
</a>
</g>
</g>
<!-- 2&#45;&gt;5 -->
<g id="edge5" class="edge">
<title>2&#45;&gt;5</title>
<path fill="none" stroke="black" d="M466.4,-63.5C474.55,-63.5 482.89,-63.5 491.23,-63.5"/>
<polygon fill="black" stroke="black" points="491.06,-67 501.06,-63.5 491.06,-60 491.06,-67"/>
</g>
<!-- 3 -->
<g id="node4" class="node">
<title>3</title>
<g id="a_node4"><a xlink:href="https://gdal.org/en/latest/programs/gdal_raster_read.html" xlink:title="https://gdal.org/en/latest/programs/gdal_raster_read.html" target="_blank">
<polygon fill="#eeffcc" stroke="none" points="0,-27.5 0,-55 66.5,-55 66.5,-27.5 0,-27.5"/>
<polygon fill="none" stroke="black" points="0,-27.5 0,-55 66.5,-55 66.5,-27.5 0,-27.5"/>
<text text-anchor="start" x="18.25" y="-37.6" font-family="Courier,monospace" font-weight="bold" font-size="12.00">read</text>
<polygon fill="none" stroke="black" points="0,0 0,-27.5 66.5,-27.5 66.5,0 0,0"/>
<text text-anchor="start" x="7" y="-9.1" font-family="Courier,monospace" font-size="12.00">dem.tif</text>
</a>
</g>
</g>
<!-- 4 -->
<g id="node5" class="node">
<title>4</title>
<g id="a_node5"><a xlink:href="https://gdal.org/en/latest/programs/gdal_raster_hillshade.html" xlink:title="https://gdal.org/en/latest/programs/gdal_raster_hillshade.html" target="_blank">
<polygon fill="#eeffcc" stroke="none" points="143.75,-20.75 143.75,-48.25 225.25,-48.25 225.25,-20.75 143.75,-20.75"/>
<polygon fill="none" stroke="black" points="143.75,-20.75 143.75,-48.25 225.25,-48.25 225.25,-20.75 143.75,-20.75"/>
<text text-anchor="start" x="150.75" y="-30.85" font-family="Courier,monospace" font-weight="bold" font-size="12.00">hillshade</text>
</a>
</g>
</g>
<!-- 3&#45;&gt;4 -->
<g id="edge3" class="edge">
<title>3&#45;&gt;4</title>
<path fill="none" stroke="black" d="M66.27,-29C85.51,-29.9 110.43,-31.07 132.35,-32.1"/>
<polygon fill="black" stroke="black" points="132.16,-35.6 142.31,-32.57 132.48,-28.6 132.16,-35.6"/>
</g>
<!-- 4&#45;&gt;2 -->
<g id="edge4" class="edge">
<title>4&#45;&gt;2</title>
<path fill="none" stroke="black" d="M225.09,-40.3C244.2,-43.1 267.99,-46.58 291.28,-49.99"/>
<polygon fill="black" stroke="black" points="290.75,-53.45 301.15,-51.44 291.76,-46.53 290.75,-53.45"/>
</g>
</g>
</svg>
