<?xml version="1.0" encoding="UTF-8" standalone="no"?>
<!DOCTYPE svg PUBLIC "-//W3C//DTD SVG 1.1//EN"
 "http://www.w3.org/Graphics/SVG/1.1/DTD/svg11.dtd">
<!-- Generated by graphviz version 11.0.0 (20240428.1522)
 -->
<!-- Title: GDALG Workflow Pages: 1 -->
<svg width="1267pt" height="91pt"
 viewBox="0.00 0.00 1267.00 90.50" xmlns="http://www.w3.org/2000/svg" xmlns:xlink="http://www.w3.org/1999/xlink">
<g id="graph0" class="graph" transform="scale(1 1) rotate(0) translate(4 86.5)">
<title>GDALG Workflow</title>
<!-- 0 -->
<g id="node1" class="node">
<title>0</title>
<g id="a_node1"><a xlink:href="https://gdal.org/en/latest/programs/gdal_vector_read.html" xlink:title="https://gdal.org/en/latest/programs/gdal_vector_read.html" target="_blank">
<polygon fill="#eeffcc" stroke="none" points="0,-41.25 0,-68.75 336.5,-68.75 336.5,-41.25 0,-41.25"/>
<polygon fill="none" stroke="black" points="0,-41.25 0,-68.75 336.5,-68.75 336.5,-41.25 0,-41.25"/>
<text text-anchor="start" x="153.25" y="-51.35" font-family="Courier,monospace" font-weight="bold" font-size="12.00">read</text>
<polygon fill="none" stroke="black" points="0,-13.75 0,-41.25 336.5,-41.25 336.5,-13.75 0,-13.75"/>
<text text-anchor="start" x="7" y="-22.85" font-family="Courier,monospace" font-size="12.00">/vsizip/ne_10m_admin_1_states_provinces.zip</text>
</a>
</g>
</g>
<!-- 1 -->
<g id="node2" class="node">
<title>1</title>
<g id="a_node2"><a xlink:href="https://gdal.org/en/latest/programs/gdal_vector_filter.html" xlink:title="https://gdal.org/en/latest/programs/gdal_vector_filter.html" target="_blank">
<polygon fill="#eeffcc" stroke="none" points="372.5,-41.25 372.5,-68.75 761.5,-68.75 761.5,-41.25 372.5,-41.25"/>
<polygon fill="none" stroke="black" points="372.5,-41.25 372.5,-68.75 761.5,-68.75 761.5,-41.25 372.5,-41.25"/>
<text text-anchor="start" x="544.5" y="-51.35" font-family="Courier,monospace" font-weight="bold" font-size="12.00">filter</text>
<polygon fill="none" stroke="black" points="372.5,-13.75 372.5,-41.25 761.5,-41.25 761.5,-13.75 372.5,-13.75"/>
<text text-anchor="start" x="379.5" y="-22.85" font-family="Courier,monospace" font-size="12.00">&#45;&#45;bbox 19.6854167,45.0565278,22.4426389,46.9537500</text>
</a>
</g>
</g>
<!-- 0&#45;&gt;1 -->
<g id="edge1" class="edge">
<title>0&#45;&gt;1</title>
<path fill="none" stroke="black" d="M336.36,-41.25C344.58,-41.25 352.88,-41.25 361.2,-41.25"/>
<polygon fill="black" stroke="black" points="361.03,-44.75 371.03,-41.25 361.03,-37.75 361.03,-44.75"/>
</g>
<!-- 2 -->
<g id="node3" class="node">
<title>2</title>
<g id="a_node3"><a xlink:href="https://gdal.org/en/latest/programs/gdal_vector_set_geom_type.html" xlink:title="https://gdal.org/en/latest/programs/gdal_vector_set_geom_type.html" target="_blank">
<polygon fill="#eeffcc" stroke="none" points="797.5,-41.25 797.5,-68.75 1021.5,-68.75 1021.5,-41.25 797.5,-41.25"/>
<polygon fill="none" stroke="black" points="797.5,-41.25 797.5,-68.75 1021.5,-68.75 1021.5,-41.25 797.5,-41.25"/>
<text text-anchor="start" x="860.75" y="-51.35" font-family="Courier,monospace" font-weight="bold" font-size="12.00">set&#45;geom&#45;type</text>
<polygon fill="none" stroke="black" points="797.5,-13.75 797.5,-41.25 1021.5,-41.25 1021.5,-13.75 797.5,-13.75"/>
<text text-anchor="start" x="804.5" y="-22.85" font-family="Courier,monospace" font-size="12.00">&#45;&#45;geometry&#45;type MULTIPOLYGON</text>
</a>
</g>
</g>
<!-- 1&#45;&gt;2 -->
<g id="edge2" class="edge">
<title>1&#45;&gt;2</title>
<path fill="none" stroke="black" d="M761.13,-41.25C769.7,-41.25 778.18,-41.25 786.5,-41.25"/>
<polygon fill="black" stroke="black" points="786.22,-44.75 796.22,-41.25 786.22,-37.75 786.22,-44.75"/>
</g>
<!-- 3 -->
<g id="node4" class="node">
<title>3</title>
<g id="a_node4"><a xlink:href="https://gdal.org/en/latest/programs/gdal_vector_write.html" xlink:title="https://gdal.org/en/latest/programs/gdal_vector_write.html" target="_blank">
<polygon fill="#eeffcc" stroke="none" points="1057.5,-55 1057.5,-82.5 1259,-82.5 1259,-55 1057.5,-55"/>
<polygon fill="none" stroke="black" points="1057.5,-55 1057.5,-82.5 1259,-82.5 1259,-55 1057.5,-55"/>
<text text-anchor="start" x="1139.5" y="-65.1" font-family="Courier,monospace" font-weight="bold" font-size="12.00">write</text>
<polygon fill="none" stroke="black" points="1057.5,-27.5 1057.5,-55 1259,-55 1259,-27.5 1057.5,-27.5"/>
<text text-anchor="start" x="1064.5" y="-36.6" font-family="Courier,monospace" font-size="12.00">admin_1_around_timis.gpkg</text>
<polygon fill="none" stroke="black" points="1057.5,0 1057.5,-27.5 1259,-27.5 1259,0 1057.5,0"/>
<text text-anchor="start" x="1064.5" y="-9.1" font-family="Courier,monospace" font-size="12.00">&#45;&#45;overwrite</text>
</a>
</g>
</g>
<!-- 2&#45;&gt;3 -->
<g id="edge3" class="edge">
<title>2&#45;&gt;3</title>
<path fill="none" stroke="black" d="M1021.24,-41.25C1029.61,-41.25 1038.06,-41.25 1046.43,-41.25"/>
<polygon fill="black" stroke="black" points="1046.26,-44.75 1056.26,-41.25 1046.26,-37.75 1046.26,-44.75"/>
</g>
</g>
</svg>
