<?xml version="1.0" encoding="UTF-8" standalone="no"?>
<!DOCTYPE svg PUBLIC "-//W3C//DTD SVG 1.1//EN"
 "http://www.w3.org/Graphics/SVG/1.1/DTD/svg11.dtd">
<!-- Generated by graphviz version 11.0.0 (20240428.1522)
 -->
<!-- Title: GDALG Workflow Pages: 1 -->
<svg width="667pt" height="173pt"
 viewBox="0.00 0.00 667.00 173.00" xmlns="http://www.w3.org/2000/svg" xmlns:xlink="http://www.w3.org/1999/xlink">
<g id="graph0" class="graph" transform="scale(1 1) rotate(0) translate(4 169)">
<title>GDALG Workflow</title>
<!-- 0 -->
<g id="node1" class="node">
<title>0</title>
<g id="a_node1"><a xlink:href="https://gdal.org/en/latest/programs/gdal_raster_read.html" xlink:title="https://gdal.org/en/latest/programs/gdal_raster_read.html" target="_blank">
<polygon fill="#eeffcc" stroke="none" points="0,-119.5 0,-147 66.5,-147 66.5,-119.5 0,-119.5"/>
<polygon fill="none" stroke="black" points="0,-119.5 0,-147 66.5,-147 66.5,-119.5 0,-119.5"/>
<text text-anchor="start" x="18.25" y="-129.6" font-family="Courier,monospace" font-weight="bold" font-size="12.00">read</text>
<polygon fill="none" stroke="black" points="0,-92 0,-119.5 66.5,-119.5 66.5,-92 0,-92"/>
<text text-anchor="start" x="7" y="-101.1" font-family="Courier,monospace" font-size="12.00">dem.tif</text>
</a>
</g>
</g>
<!-- 1 -->
<g id="node2" class="node">
<title>1</title>
<g id="a_node2"><a xlink:href="https://gdal.org/en/latest/programs/gdal_raster_hillshade.html" xlink:title="https://gdal.org/en/latest/programs/gdal_raster_hillshade.html" target="_blank">
<polygon fill="#eeffcc" stroke="none" points="143.75,-101.75 143.75,-129.25 225.25,-129.25 225.25,-101.75 143.75,-101.75"/>
<polygon fill="none" stroke="black" points="143.75,-101.75 143.75,-129.25 225.25,-129.25 225.25,-101.75 143.75,-101.75"/>
<text text-anchor="start" x="150.75" y="-111.85" font-family="Courier,monospace" font-weight="bold" font-size="12.00">hillshade</text>
</a>
</g>
</g>
<!-- 0&#45;&gt;1 -->
<g id="edge1" class="edge">
<title>0&#45;&gt;1</title>
<path fill="none" stroke="black" d="M66.27,-118.64C85.51,-118.13 110.43,-117.46 132.35,-116.87"/>
<polygon fill="black" stroke="black" points="132.41,-120.37 142.31,-116.6 132.22,-113.37 132.41,-120.37"/>
</g>
<!-- 2 -->
<g id="node3" class="node">
<title>2</title>
<g id="a_node3"><a xlink:href="https://gdal.org/en/latest/programs/gdal_raster_blend.html" xlink:title="https://gdal.org/en/latest/programs/gdal_raster_blend.html" target="_blank">
<polygon fill="#eeffcc" stroke="none" points="302.5,-110 302.5,-137.5 466.5,-137.5 466.5,-110 302.5,-110"/>
<polygon fill="none" stroke="black" points="302.5,-110 302.5,-137.5 466.5,-137.5 466.5,-110 302.5,-110"/>
<text text-anchor="start" x="365.75" y="-120.1" font-family="Courier,monospace" font-weight="bold" font-size="12.00">blend</text>
<polygon fill="none" stroke="black" points="302.5,-82.5 302.5,-110 466.5,-110 466.5,-82.5 302.5,-82.5"/>
<text text-anchor="start" x="309.5" y="-91.6" font-family="Courier,monospace" font-size="12.00">&#45;&#45;input</text>
<polygon fill="none" stroke="black" points="302.5,-55 302.5,-82.5 466.5,-82.5 466.5,-55 302.5,-55"/>
<text text-anchor="start" x="309.5" y="-64.1" font-family="Courier,monospace" font-size="12.00">&#45;&#45;overlay _PIPE_</text>
<polygon fill="none" stroke="black" points="302.5,-27.5 302.5,-55 466.5,-55 466.5,-27.5 302.5,-27.5"/>
<text text-anchor="start" x="309.5" y="-36.6" font-family="Courier,monospace" font-size="12.00">&#45;&#45;operator hsv&#45;value</text>
</a>
</g>
</g>
<!-- 1&#45;&gt;2 -->
<g id="edge2" class="edge">
<title>1&#45;&gt;2</title>
<path fill="none" stroke="black" d="M225.09,-108.9C244.29,-105.7 268.2,-101.72 291.59,-97.82"/>
<polygon fill="black" stroke="black" points="291.86,-101.32 301.15,-96.22 290.71,-94.42 291.86,-101.32"/>
</g>
<!-- 5 -->
<g id="node6" class="node">
<title>5</title>
<g id="a_node6"><a xlink:href="https://gdal.org/en/latest/programs/gdal_raster_write.html" xlink:title="https://gdal.org/en/latest/programs/gdal_raster_write.html" target="_blank">
<polygon fill="#eeffcc" stroke="none" points="502.5,-137.5 502.5,-165 659,-165 659,-137.5 502.5,-137.5"/>
<polygon fill="none" stroke="black" points="502.5,-137.5 502.5,-165 659,-165 659,-137.5 502.5,-137.5"/>
<text text-anchor="start" x="562" y="-147.6" font-family="Courier,monospace" font-weight="bold" font-size="12.00">write</text>
<polygon fill="none" stroke="black" points="502.5,-110 502.5,-137.5 659,-137.5 659,-110 502.5,-110"/>
<text text-anchor="start" x="509.5" y="-119.1" font-family="Courier,monospace" font-size="12.00">out.tif</text>
<polygon fill="none" stroke="black" points="502.5,-82.5 502.5,-110 659,-110 659,-82.5 502.5,-82.5"/>
<text text-anchor="start" x="509.5" y="-91.6" font-family="Courier,monospace" font-size="12.00">&#45;&#45;overwrite tile</text>
<polygon fill="none" stroke="black" points="502.5,-55 502.5,-82.5 659,-82.5 659,-55 502.5,-55"/>
<text text-anchor="start" x="509.5" y="-64.1" font-family="Courier,monospace" font-size="12.00">&#45;&#45;min&#45;zoom 10</text>
<polygon fill="none" stroke="black" points="502.5,-27.5 502.5,-55 659,-55 659,-27.5 502.5,-27.5"/>
<text text-anchor="start" x="509.5" y="-36.6" font-family="Courier,monospace" font-size="12.00">s2_tiled_min_zoom10</text>
<polygon fill="none" stroke="black" points="502.5,0 502.5,-27.5 659,-27.5 659,0 502.5,0"/>
<text text-anchor="start" x="509.5" y="-9.1" font-family="Courier,monospace" font-size="12.00">&#45;&#45;format WEBP</text>
</a>
</g>
</g>
<!-- 2&#45;&gt;5 -->
<g id="edge5" class="edge">
<title>2&#45;&gt;5</title>
<path fill="none" stroke="black" d="M466.47,-82.5C474.7,-82.5 483.09,-82.5 491.4,-82.5"/>
<polygon fill="black" stroke="black" points="491.13,-86 501.13,-82.5 491.13,-79 491.13,-86"/>
</g>
<!-- 3 -->
<g id="node4" class="node">
<title>3</title>
<g id="a_node4"><a xlink:href="https://gdal.org/en/latest/programs/gdal_raster_read.html" xlink:title="https://gdal.org/en/latest/programs/gdal_raster_read.html" target="_blank">
<polygon fill="#eeffcc" stroke="none" points="0,-46.5 0,-74 66.5,-74 66.5,-46.5 0,-46.5"/>
<polygon fill="none" stroke="black" points="0,-46.5 0,-74 66.5,-74 66.5,-46.5 0,-46.5"/>
<text text-anchor="start" x="18.25" y="-56.6" font-family="Courier,monospace" font-weight="bold" font-size="12.00">read</text>
<polygon fill="none" stroke="black" points="0,-19 0,-46.5 66.5,-46.5 66.5,-19 0,-19"/>
<text text-anchor="start" x="7" y="-28.1" font-family="Courier,monospace" font-size="12.00">dem.tif</text>
</a>
</g>
</g>
<!-- 4 -->
<g id="node5" class="node">
<title>4</title>
<g id="a_node5"><a xlink:href="https://gdal.org/en/latest/programs/gdal_raster_color_map.html" xlink:title="https://gdal.org/en/latest/programs/gdal_raster_color_map.html" target="_blank">
<polygon fill="#eeffcc" stroke="none" points="102.5,-53.5 102.5,-81 266.5,-81 266.5,-53.5 102.5,-53.5"/>
<polygon fill="none" stroke="black" points="102.5,-53.5 102.5,-81 266.5,-81 266.5,-53.5 102.5,-53.5"/>
<text text-anchor="start" x="150.75" y="-63.6" font-family="Courier,monospace" font-weight="bold" font-size="12.00">color&#45;map</text>
<polygon fill="none" stroke="black" points="102.5,-26 102.5,-53.5 266.5,-53.5 266.5,-26 102.5,-26"/>
<text text-anchor="start" x="109.5" y="-35.1" font-family="Courier,monospace" font-size="12.00">&#45;&#45;color&#45;map test.cpt</text>
</a>
</g>
</g>
<!-- 3&#45;&gt;4 -->
<g id="edge3" class="edge">
<title>3&#45;&gt;4</title>
<path fill="none" stroke="black" d="M66.27,-48C73.92,-48.36 82.46,-48.76 91.36,-49.18"/>
<polygon fill="black" stroke="black" points="91.12,-52.67 101.27,-49.64 91.44,-45.68 91.12,-52.67"/>
</g>
<!-- 4&#45;&gt;2 -->
<g id="edge4" class="edge">
<title>4&#45;&gt;2</title>
<path fill="none" stroke="black" d="M266.32,-65.34C274.55,-66.54 282.96,-67.77 291.3,-69"/>
<polygon fill="black" stroke="black" points="290.72,-72.45 301.12,-70.43 291.73,-65.52 290.72,-72.45"/>
</g>
</g>
</svg>
