<?xml version="1.0" encoding="UTF-8" standalone="no"?>
<!DOCTYPE svg PUBLIC "-//W3C//DTD SVG 1.1//EN"
 "http://www.w3.org/Graphics/SVG/1.1/DTD/svg11.dtd">
<!-- Generated by graphviz version 11.0.0 (20240428.1522)
 -->
<!-- Title: GDALG Workflow Pages: 1 -->
<svg width="667pt" height="189pt"
 viewBox="0.00 0.00 667.00 188.50" xmlns="http://www.w3.org/2000/svg" xmlns:xlink="http://www.w3.org/1999/xlink">
<g id="graph0" class="graph" transform="scale(1 1) rotate(0) translate(4 184.5)">
<title>GDALG Workflow</title>
<!-- 0 -->
<g id="node1" class="node">
<title>0</title>
<g id="a_node1"><a xlink:href="https://gdal.org/en/latest/programs/gdal_raster_read.html" xlink:title="https://gdal.org/en/latest/programs/gdal_raster_read.html" target="_blank">
<polygon fill="#eeffcc" stroke="none" points="0,-142 0,-169.5 66.5,-169.5 66.5,-142 0,-142"/>
<polygon fill="none" stroke="black" points="0,-142 0,-169.5 66.5,-169.5 66.5,-142 0,-142"/>
<text text-anchor="start" x="18.25" y="-152.1" font-family="Courier,monospace" font-weight="bold" font-size="12.00">read</text>
<polygon fill="none" stroke="black" points="0,-114.5 0,-142 66.5,-142 66.5,-114.5 0,-114.5"/>
<text text-anchor="start" x="7" y="-123.6" font-family="Courier,monospace" font-size="12.00">dem.tif</text>
</a>
</g>
</g>
<!-- 1 -->
<g id="node2" class="node">
<title>1</title>
<g id="a_node2"><a xlink:href="https://gdal.org/en/latest/programs/gdal_raster_hillshade.html" xlink:title="https://gdal.org/en/latest/programs/gdal_raster_hillshade.html" target="_blank">
<polygon fill="#eeffcc" stroke="none" points="143.75,-128.25 143.75,-155.75 225.25,-155.75 225.25,-128.25 143.75,-128.25"/>
<polygon fill="none" stroke="black" points="143.75,-128.25 143.75,-155.75 225.25,-155.75 225.25,-128.25 143.75,-128.25"/>
<text text-anchor="start" x="150.75" y="-138.35" font-family="Courier,monospace" font-weight="bold" font-size="12.00">hillshade</text>
</a>
</g>
</g>
<!-- 0&#45;&gt;1 -->
<g id="edge1" class="edge">
<title>0&#45;&gt;1</title>
<path fill="none" stroke="black" d="M66.27,-142C85.51,-142 110.43,-142 132.35,-142"/>
<polygon fill="black" stroke="black" points="132.31,-145.5 142.31,-142 132.31,-138.5 132.31,-145.5"/>
</g>
<!-- 2 -->
<g id="node3" class="node">
<title>2</title>
<g id="a_node3"><a xlink:href="https://gdal.org/en/latest/programs/gdal_raster_blend.html" xlink:title="https://gdal.org/en/latest/programs/gdal_raster_blend.html" target="_blank">
<polygon fill="#eeffcc" stroke="none" points="302.5,-125.5 302.5,-153 466.5,-153 466.5,-125.5 302.5,-125.5"/>
<polygon fill="none" stroke="black" points="302.5,-125.5 302.5,-153 466.5,-153 466.5,-125.5 302.5,-125.5"/>
<text text-anchor="start" x="365.75" y="-135.6" font-family="Courier,monospace" font-weight="bold" font-size="12.00">blend</text>
<polygon fill="none" stroke="black" points="302.5,-98 302.5,-125.5 466.5,-125.5 466.5,-98 302.5,-98"/>
<text text-anchor="start" x="309.5" y="-107.1" font-family="Courier,monospace" font-size="12.00">&#45;&#45;input</text>
<polygon fill="none" stroke="black" points="302.5,-70.5 302.5,-98 466.5,-98 466.5,-70.5 302.5,-70.5"/>
<text text-anchor="start" x="309.5" y="-79.6" font-family="Courier,monospace" font-size="12.00">&#45;&#45;overlay _PIPE_</text>
<polygon fill="none" stroke="black" points="302.5,-43 302.5,-70.5 466.5,-70.5 466.5,-43 302.5,-43"/>
<text text-anchor="start" x="309.5" y="-52.1" font-family="Courier,monospace" font-size="12.00">&#45;&#45;operator hsv&#45;value</text>
</a>
</g>
</g>
<!-- 1&#45;&gt;2 -->
<g id="edge2" class="edge">
<title>1&#45;&gt;2</title>
<path fill="none" stroke="black" d="M225.09,-133.2C244.29,-128.94 268.2,-123.62 291.59,-118.42"/>
<polygon fill="black" stroke="black" points="292.17,-121.88 301.17,-116.3 290.65,-115.05 292.17,-121.88"/>
</g>
<!-- 4 -->
<g id="node5" class="node">
<title>4</title>
<g id="a_node5"><a xlink:href="https://gdal.org/en/latest/programs/gdal_raster_write.html" xlink:title="https://gdal.org/en/latest/programs/gdal_raster_write.html" target="_blank">
<polygon fill="#eeffcc" stroke="none" points="502.5,-153 502.5,-180.5 659,-180.5 659,-153 502.5,-153"/>
<polygon fill="none" stroke="black" points="502.5,-153 502.5,-180.5 659,-180.5 659,-153 502.5,-153"/>
<text text-anchor="start" x="562" y="-163.1" font-family="Courier,monospace" font-weight="bold" font-size="12.00">write</text>
<polygon fill="none" stroke="black" points="502.5,-125.5 502.5,-153 659,-153 659,-125.5 502.5,-125.5"/>
<text text-anchor="start" x="509.5" y="-134.6" font-family="Courier,monospace" font-size="12.00">out.tif</text>
<polygon fill="none" stroke="black" points="502.5,-98 502.5,-125.5 659,-125.5 659,-98 502.5,-98"/>
<text text-anchor="start" x="509.5" y="-107.1" font-family="Courier,monospace" font-size="12.00">&#45;&#45;overwrite tile</text>
<polygon fill="none" stroke="black" points="502.5,-70.5 502.5,-98 659,-98 659,-70.5 502.5,-70.5"/>
<text text-anchor="start" x="509.5" y="-79.6" font-family="Courier,monospace" font-size="12.00">&#45;&#45;min&#45;zoom 10</text>
<polygon fill="none" stroke="black" points="502.5,-43 502.5,-70.5 659,-70.5 659,-43 502.5,-43"/>
<text text-anchor="start" x="509.5" y="-52.1" font-family="Courier,monospace" font-size="12.00">s2_tiled_min_zoom10</text>
<polygon fill="none" stroke="black" points="502.5,-15.5 502.5,-43 659,-43 659,-15.5 502.5,-15.5"/>
<text text-anchor="start" x="509.5" y="-24.6" font-family="Courier,monospace" font-size="12.00">&#45;&#45;format WEBP</text>
</a>
</g>
</g>
<!-- 2&#45;&gt;4 -->
<g id="edge4" class="edge">
<title>2&#45;&gt;4</title>
<path fill="none" stroke="black" d="M466.47,-98C474.7,-98 483.09,-98 491.4,-98"/>
<polygon fill="black" stroke="black" points="491.13,-101.5 501.13,-98 491.13,-94.5 491.13,-101.5"/>
</g>
<!-- 3 -->
<g id="node4" class="node">
<title>3</title>
<g id="a_node4"><a xlink:href="https://gdal.org/en/latest/programs/gdal_raster_read.html" xlink:title="https://gdal.org/en/latest/programs/gdal_raster_read.html" target="_blank">
<polygon fill="#eeffcc" stroke="none" points="102.5,-82.5 102.5,-110 266.5,-110 266.5,-82.5 102.5,-82.5"/>
<polygon fill="none" stroke="black" points="102.5,-82.5 102.5,-110 266.5,-110 266.5,-82.5 102.5,-82.5"/>
<text text-anchor="start" x="169.5" y="-92.6" font-family="Courier,monospace" font-weight="bold" font-size="12.00">read</text>
<polygon fill="none" stroke="black" points="102.5,-55 102.5,-82.5 266.5,-82.5 266.5,-55 102.5,-55"/>
<text text-anchor="start" x="109.5" y="-64.1" font-family="Courier,monospace" font-size="12.00">dem.tif</text>
<polygon fill="none" stroke="black" points="102.5,-27.5 102.5,-55 266.5,-55 266.5,-27.5 102.5,-27.5"/>
<text text-anchor="start" x="109.5" y="-36.6" font-family="Courier,monospace" font-size="12.00">color&#45;map</text>
<polygon fill="none" stroke="black" points="102.5,0 102.5,-27.5 266.5,-27.5 266.5,0 102.5,0"/>
<text text-anchor="start" x="109.5" y="-9.1" font-family="Courier,monospace" font-size="12.00">&#45;&#45;color&#45;map test.cpt</text>
</a>
</g>
</g>
<!-- 3&#45;&gt;2 -->
<g id="edge3" class="edge">
<title>3&#45;&gt;2</title>
<path fill="none" stroke="black" d="M266.32,-72.55C274.65,-74.36 283.15,-76.21 291.59,-78.04"/>
<polygon fill="black" stroke="black" points="290.62,-81.41 301.14,-80.11 292.11,-74.57 290.62,-81.41"/>
</g>
</g>
</svg>
