<?xml version="1.0" encoding="UTF-8" standalone="no"?>
<!DOCTYPE svg PUBLIC "-//W3C//DTD SVG 1.1//EN"
 "http://www.w3.org/Graphics/SVG/1.1/DTD/svg11.dtd">
<!-- Generated by graphviz version 11.0.0 (20240428.1522)
 -->
<!-- Title: GDALG Workflow Pages: 1 -->
<svg width="840pt" height="592pt"
 viewBox="0.00 0.00 839.50 592.00" xmlns="http://www.w3.org/2000/svg" xmlns:xlink="http://www.w3.org/1999/xlink">
<g id="graph0" class="graph" transform="scale(1 1) rotate(0) translate(4 588)">
<title>GDALG Workflow</title>
<!-- 0 -->
<g id="node1" class="node">
<title>0</title>
<g id="a_node1"><a xlink:href="https://gdal.org/en/latest/programs/gdal_raster_mosaic.html" xlink:title="https://gdal.org/en/latest/programs/gdal_raster_mosaic.html" target="_blank">
<polygon fill="#eeffcc" stroke="none" points="0,-556.5 0,-584 831.5,-584 831.5,-556.5 0,-556.5"/>
<polygon fill="none" stroke="black" points="0,-556.5 0,-584 831.5,-584 831.5,-556.5 0,-556.5"/>
<text text-anchor="start" x="393.25" y="-566.6" font-family="Courier,monospace" font-weight="bold" font-size="12.00">mosaic</text>
<polygon fill="none" stroke="black" points="0,-529 0,-556.5 831.5,-556.5 831.5,-529 0,-529"/>
<text text-anchor="start" x="7" y="-538.1" font-family="Courier,monospace" font-size="12.00">SENTINEL2_L2A:S2B_MSIL2A_20260423T094029_N0512_R036_T34TDR_20260423T115714.SAFE/MTD_MSIL2A.xml:10m:EPSG_32634</text>
<polygon fill="none" stroke="black" points="0,-501.5 0,-529 831.5,-529 831.5,-501.5 0,-501.5"/>
<text text-anchor="start" x="7" y="-510.6" font-family="Courier,monospace" font-size="12.00">SENTINEL2_L2A:S2B_MSIL2A_20260423T094029_N0512_R036_T34TER_20260423T115714.SAFE/MTD_MSIL2A.xml:10m:EPSG_32634</text>
<polygon fill="none" stroke="black" points="0,-474 0,-501.5 831.5,-501.5 831.5,-474 0,-474"/>
<text text-anchor="start" x="7" y="-483.1" font-family="Courier,monospace" font-size="12.00">SENTINEL2_L2A:S2B_MSIL2A_20260423T094029_N0512_R036_T34TES_20260423T115714.SAFE/MTD_MSIL2A.xml:10m:EPSG_32634</text>
</a>
</g>
</g>
<!-- 1 -->
<g id="node2" class="node">
<title>1</title>
<g id="a_node2"><a xlink:href="https://gdal.org/en/latest/programs/gdal_raster_select.html" xlink:title="https://gdal.org/en/latest/programs/gdal_raster_select.html" target="_blank">
<polygon fill="#eeffcc" stroke="none" points="363.75,-410.5 363.75,-438 467.75,-438 467.75,-410.5 363.75,-410.5"/>
<polygon fill="none" stroke="black" points="363.75,-410.5 363.75,-438 467.75,-438 467.75,-410.5 363.75,-410.5"/>
<text text-anchor="start" x="393.25" y="-420.6" font-family="Courier,monospace" font-weight="bold" font-size="12.00">select</text>
<polygon fill="none" stroke="black" points="363.75,-383 363.75,-410.5 467.75,-410.5 467.75,-383 363.75,-383"/>
<text text-anchor="start" x="370.75" y="-392.1" font-family="Courier,monospace" font-size="12.00">&#45;&#45;band 1,2,3</text>
</a>
</g>
</g>
<!-- 0&#45;&gt;1 -->
<g id="edge1" class="edge">
<title>0&#45;&gt;1</title>
<path fill="none" stroke="black" d="M415.75,-474.18C415.75,-465.79 415.75,-457.27 415.75,-449.34"/>
<polygon fill="black" stroke="black" points="419.25,-449.34 415.75,-439.34 412.25,-449.34 419.25,-449.34"/>
</g>
<!-- 2 -->
<g id="node3" class="node">
<title>2</title>
<g id="a_node3"><a xlink:href="https://gdal.org/en/latest/programs/gdal_raster_scale.html" xlink:title="https://gdal.org/en/latest/programs/gdal_raster_scale.html" target="_blank">
<polygon fill="#eeffcc" stroke="none" points="318.75,-319.5 318.75,-347 512.75,-347 512.75,-319.5 318.75,-319.5"/>
<polygon fill="none" stroke="black" points="318.75,-319.5 318.75,-347 512.75,-347 512.75,-319.5 318.75,-319.5"/>
<text text-anchor="start" x="397" y="-329.6" font-family="Courier,monospace" font-weight="bold" font-size="12.00">scale</text>
<polygon fill="none" stroke="black" points="318.75,-292 318.75,-319.5 512.75,-319.5 512.75,-292 318.75,-292"/>
<text text-anchor="start" x="325.75" y="-301.1" font-family="Courier,monospace" font-size="12.00">&#45;&#45;input&#45;min 400</text>
<polygon fill="none" stroke="black" points="318.75,-264.5 318.75,-292 512.75,-292 512.75,-264.5 318.75,-264.5"/>
<text text-anchor="start" x="325.75" y="-273.6" font-family="Courier,monospace" font-size="12.00">&#45;&#45;input&#45;max 2400</text>
<polygon fill="none" stroke="black" points="318.75,-237 318.75,-264.5 512.75,-264.5 512.75,-237 318.75,-237"/>
<text text-anchor="start" x="325.75" y="-246.1" font-family="Courier,monospace" font-size="12.00">&#45;&#45;output&#45;data&#45;type uint8</text>
</a>
</g>
</g>
<!-- 1&#45;&gt;2 -->
<g id="edge2" class="edge">
<title>1&#45;&gt;2</title>
<path fill="none" stroke="black" d="M415.75,-383.06C415.75,-375.6 415.75,-367.12 415.75,-358.43"/>
<polygon fill="black" stroke="black" points="419.25,-358.46 415.75,-348.46 412.25,-358.46 419.25,-358.46"/>
</g>
<!-- 3 -->
<g id="node4" class="node">
<title>3</title>
<g id="a_node4"><a xlink:href="https://gdal.org/en/latest/programs/gdal_raster_materialize.html" xlink:title="https://gdal.org/en/latest/programs/gdal_raster_materialize.html" target="_blank">
<polygon fill="#eeffcc" stroke="none" points="337.5,-173.5 337.5,-201 494,-201 494,-173.5 337.5,-173.5"/>
<polygon fill="none" stroke="black" points="337.5,-173.5 337.5,-201 494,-201 494,-173.5 337.5,-173.5"/>
<text text-anchor="start" x="374.5" y="-183.6" font-family="Courier,monospace" font-weight="bold" font-size="12.00">materialize</text>
<polygon fill="none" stroke="black" points="337.5,-146 337.5,-173.5 494,-173.5 494,-146 337.5,-146"/>
<text text-anchor="start" x="344.5" y="-155.1" font-family="Courier,monospace" font-size="12.00">&#45;&#45;output mosaic.tif</text>
</a>
</g>
</g>
<!-- 2&#45;&gt;3 -->
<g id="edge3" class="edge">
<title>2&#45;&gt;3</title>
<path fill="none" stroke="black" d="M415.75,-237.18C415.75,-228.79 415.75,-220.27 415.75,-212.34"/>
<polygon fill="black" stroke="black" points="419.25,-212.34 415.75,-202.34 412.25,-212.34 419.25,-212.34"/>
</g>
<!-- 4 -->
<g id="node5" class="node">
<title>4</title>
<g id="a_node5"><a xlink:href="https://gdal.org/en/latest/programs/gdal_raster_tile.html" xlink:title="https://gdal.org/en/latest/programs/gdal_raster_tile.html" target="_blank">
<polygon fill="#eeffcc" stroke="none" points="337.5,-82.5 337.5,-110 494,-110 494,-82.5 337.5,-82.5"/>
<polygon fill="none" stroke="black" points="337.5,-82.5 337.5,-110 494,-110 494,-82.5 337.5,-82.5"/>
<text text-anchor="start" x="400.75" y="-92.6" font-family="Courier,monospace" font-weight="bold" font-size="12.00">tile</text>
<polygon fill="none" stroke="black" points="337.5,-55 337.5,-82.5 494,-82.5 494,-55 337.5,-55"/>
<text text-anchor="start" x="344.5" y="-64.1" font-family="Courier,monospace" font-size="12.00">&#45;&#45;min&#45;zoom 10</text>
<polygon fill="none" stroke="black" points="337.5,-27.5 337.5,-55 494,-55 494,-27.5 337.5,-27.5"/>
<text text-anchor="start" x="344.5" y="-36.6" font-family="Courier,monospace" font-size="12.00">s2_tiled_min_zoom10</text>
<polygon fill="none" stroke="black" points="337.5,0 337.5,-27.5 494,-27.5 494,0 337.5,0"/>
<text text-anchor="start" x="344.5" y="-9.1" font-family="Courier,monospace" font-size="12.00">&#45;&#45;format WEBP</text>
</a>
</g>
</g>
<!-- 3&#45;&gt;4 -->
<g id="edge4" class="edge">
<title>3&#45;&gt;4</title>
<path fill="none" stroke="black" d="M415.75,-146.06C415.75,-138.6 415.75,-130.12 415.75,-121.43"/>
<polygon fill="black" stroke="black" points="419.25,-121.46 415.75,-111.46 412.25,-121.46 419.25,-121.46"/>
</g>
</g>
</svg>
