<?xml version="1.0" encoding="UTF-8" standalone="no"?>
<!DOCTYPE svg PUBLIC "-//W3C//DTD SVG 1.1//EN"
 "http://www.w3.org/Graphics/SVG/1.1/DTD/svg11.dtd">
<!-- Generated by graphviz version 11.0.0 (20240428.1522)
 -->
<!-- Title: GDALG Workflow Pages: 1 -->
<svg width="607pt" height="136pt"
 viewBox="0.00 0.00 607.00 136.00" xmlns="http://www.w3.org/2000/svg" xmlns:xlink="http://www.w3.org/1999/xlink">
<g id="graph0" class="graph" transform="scale(1 1) rotate(0) translate(4 132)">
<title>GDALG Workflow</title>
<!-- 0 -->
<g id="node1" class="node">
<title>0</title>
<g id="a_node1"><a xlink:href="https://gdal.org/en/latest/programs/gdal_raster_read.html" xlink:title="https://gdal.org/en/latest/programs/gdal_raster_read.html" target="_blank">
<polygon fill="#eeffcc" stroke="none" points="0,-100.5 0,-128 66.5,-128 66.5,-100.5 0,-100.5"/>
<polygon fill="none" stroke="black" points="0,-100.5 0,-128 66.5,-128 66.5,-100.5 0,-100.5"/>
<text text-anchor="start" x="18.25" y="-110.6" font-family="Courier,monospace" font-weight="bold" font-size="12.00">read</text>
<polygon fill="none" stroke="black" points="0,-73 0,-100.5 66.5,-100.5 66.5,-73 0,-73"/>
<text text-anchor="start" x="7" y="-82.1" font-family="Courier,monospace" font-size="12.00">dem.tif</text>
</a>
</g>
</g>
<!-- 1 -->
<g id="node2" class="node">
<title>1</title>
<g id="a_node2"><a xlink:href="https://gdal.org/en/latest/programs/gdal_raster_hillshade.html" xlink:title="https://gdal.org/en/latest/programs/gdal_raster_hillshade.html" target="_blank">
<polygon fill="#eeffcc" stroke="none" points="143.75,-82.75 143.75,-110.25 225.25,-110.25 225.25,-82.75 143.75,-82.75"/>
<polygon fill="none" stroke="black" points="143.75,-82.75 143.75,-110.25 225.25,-110.25 225.25,-82.75 143.75,-82.75"/>
<text text-anchor="start" x="150.75" y="-92.85" font-family="Courier,monospace" font-weight="bold" font-size="12.00">hillshade</text>
</a>
</g>
</g>
<!-- 0&#45;&gt;1 -->
<g id="edge1" class="edge">
<title>0&#45;&gt;1</title>
<path fill="none" stroke="black" d="M66.27,-99.64C85.51,-99.13 110.43,-98.46 132.35,-97.87"/>
<polygon fill="black" stroke="black" points="132.41,-101.37 142.31,-97.6 132.22,-94.37 132.41,-101.37"/>
</g>
<!-- 2 -->
<g id="node3" class="node">
<title>2</title>
<g id="a_node3"><a xlink:href="https://gdal.org/en/latest/programs/gdal_raster_blend.html" xlink:title="https://gdal.org/en/latest/programs/gdal_raster_blend.html" target="_blank">
<polygon fill="#eeffcc" stroke="none" points="302.5,-91 302.5,-118.5 466.5,-118.5 466.5,-91 302.5,-91"/>
<polygon fill="none" stroke="black" points="302.5,-91 302.5,-118.5 466.5,-118.5 466.5,-91 302.5,-91"/>
<text text-anchor="start" x="365.75" y="-101.1" font-family="Courier,monospace" font-weight="bold" font-size="12.00">blend</text>
<polygon fill="none" stroke="black" points="302.5,-63.5 302.5,-91 466.5,-91 466.5,-63.5 302.5,-63.5"/>
<text text-anchor="start" x="309.5" y="-72.6" font-family="Courier,monospace" font-size="12.00">&#45;&#45;input</text>
<polygon fill="none" stroke="black" points="302.5,-36 302.5,-63.5 466.5,-63.5 466.5,-36 302.5,-36"/>
<text text-anchor="start" x="309.5" y="-45.1" font-family="Courier,monospace" font-size="12.00">&#45;&#45;overlay _PIPE_</text>
<polygon fill="none" stroke="black" points="302.5,-8.5 302.5,-36 466.5,-36 466.5,-8.5 302.5,-8.5"/>
<text text-anchor="start" x="309.5" y="-17.6" font-family="Courier,monospace" font-size="12.00">&#45;&#45;operator hsv&#45;value</text>
</a>
</g>
</g>
<!-- 1&#45;&gt;2 -->
<g id="edge2" class="edge">
<title>1&#45;&gt;2</title>
<path fill="none" stroke="black" d="M225.09,-89.9C244.29,-86.7 268.2,-82.72 291.59,-78.82"/>
<polygon fill="black" stroke="black" points="291.86,-82.32 301.15,-77.22 290.71,-75.42 291.86,-82.32"/>
</g>
<!-- 5 -->
<g id="node6" class="node">
<title>5</title>
<g id="a_node6"><a xlink:href="https://gdal.org/en/latest/programs/gdal_raster_write.html" xlink:title="https://gdal.org/en/latest/programs/gdal_raster_write.html" target="_blank">
<polygon fill="#eeffcc" stroke="none" points="502.5,-77.25 502.5,-104.75 599,-104.75 599,-77.25 502.5,-77.25"/>
<polygon fill="none" stroke="black" points="502.5,-77.25 502.5,-104.75 599,-104.75 599,-77.25 502.5,-77.25"/>
<text text-anchor="start" x="532" y="-87.35" font-family="Courier,monospace" font-weight="bold" font-size="12.00">write</text>
<polygon fill="none" stroke="black" points="502.5,-49.75 502.5,-77.25 599,-77.25 599,-49.75 502.5,-49.75"/>
<text text-anchor="start" x="509.5" y="-58.85" font-family="Courier,monospace" font-size="12.00">out.tif</text>
<polygon fill="none" stroke="black" points="502.5,-22.25 502.5,-49.75 599,-49.75 599,-22.25 502.5,-22.25"/>
<text text-anchor="start" x="509.5" y="-31.35" font-family="Courier,monospace" font-size="12.00">&#45;&#45;overwrite</text>
</a>
</g>
</g>
<!-- 2&#45;&gt;5 -->
<g id="edge5" class="edge">
<title>2&#45;&gt;5</title>
<path fill="none" stroke="black" d="M466.18,-63.5C474.67,-63.5 483.19,-63.5 491.36,-63.5"/>
<polygon fill="black" stroke="black" points="491.13,-67 501.13,-63.5 491.13,-60 491.13,-67"/>
</g>
<!-- 3 -->
<g id="node4" class="node">
<title>3</title>
<g id="a_node4"><a xlink:href="https://gdal.org/en/latest/programs/gdal_raster_read.html" xlink:title="https://gdal.org/en/latest/programs/gdal_raster_read.html" target="_blank">
<polygon fill="#eeffcc" stroke="none" points="0,-27.5 0,-55 66.5,-55 66.5,-27.5 0,-27.5"/>
<polygon fill="none" stroke="black" points="0,-27.5 0,-55 66.5,-55 66.5,-27.5 0,-27.5"/>
<text text-anchor="start" x="18.25" y="-37.6" font-family="Courier,monospace" font-weight="bold" font-size="12.00">read</text>
<polygon fill="none" stroke="black" points="0,0 0,-27.5 66.5,-27.5 66.5,0 0,0"/>
<text text-anchor="start" x="7" y="-9.1" font-family="Courier,monospace" font-size="12.00">dem.tif</text>
</a>
</g>
</g>
<!-- 4 -->
<g id="node5" class="node">
<title>4</title>
<g id="a_node5"><a xlink:href="https://gdal.org/en/latest/programs/gdal_raster_color_map.html" xlink:title="https://gdal.org/en/latest/programs/gdal_raster_color_map.html" target="_blank">
<polygon fill="#eeffcc" stroke="none" points="102.5,-34.5 102.5,-62 266.5,-62 266.5,-34.5 102.5,-34.5"/>
<polygon fill="none" stroke="black" points="102.5,-34.5 102.5,-62 266.5,-62 266.5,-34.5 102.5,-34.5"/>
<text text-anchor="start" x="150.75" y="-44.6" font-family="Courier,monospace" font-weight="bold" font-size="12.00">color&#45;map</text>
<polygon fill="none" stroke="black" points="102.5,-7 102.5,-34.5 266.5,-34.5 266.5,-7 102.5,-7"/>
<text text-anchor="start" x="109.5" y="-16.1" font-family="Courier,monospace" font-size="12.00">&#45;&#45;color&#45;map test.cpt</text>
</a>
</g>
</g>
<!-- 3&#45;&gt;4 -->
<g id="edge3" class="edge">
<title>3&#45;&gt;4</title>
<path fill="none" stroke="black" d="M66.27,-29C73.92,-29.36 82.46,-29.76 91.36,-30.18"/>
<polygon fill="black" stroke="black" points="91.12,-33.67 101.27,-30.64 91.44,-26.68 91.12,-33.67"/>
</g>
<!-- 4&#45;&gt;2 -->
<g id="edge4" class="edge">
<title>4&#45;&gt;2</title>
<path fill="none" stroke="black" d="M266.32,-46.34C274.55,-47.54 282.96,-48.77 291.3,-50"/>
<polygon fill="black" stroke="black" points="290.72,-53.45 301.12,-51.43 291.73,-46.52 290.72,-53.45"/>
</g>
</g>
</svg>
