<?xml version="1.0" encoding="utf-8" standalone="no"?>
<!DOCTYPE svg PUBLIC "-//W3C//DTD SVG 1.1//EN"
  "http://www.w3.org/Graphics/SVG/1.1/DTD/svg11.dtd">
<svg xmlns:xlink="http://www.w3.org/1999/xlink" width="807.085455pt" height="350.54pt" viewBox="0 0 807.085455 350.54" xmlns="http://www.w3.org/2000/svg" version="1.1">
 <metadata>
  <rdf:RDF xmlns:dc="http://purl.org/dc/elements/1.1/" xmlns:cc="http://creativecommons.org/ns#" xmlns:rdf="http://www.w3.org/1999/02/22-rdf-syntax-ns#">
   <cc:Work>
    <dc:type rdf:resource="http://purl.org/dc/dcmitype/StillImage"/>
    <dc:date>2025-05-30T12:22:25.966224</dc:date>
    <dc:format>image/svg+xml</dc:format>
    <dc:creator>
     <cc:Agent>
      <dc:title>Matplotlib v3.6.3, https://matplotlib.org/</dc:title>
     </cc:Agent>
    </dc:creator>
   </cc:Work>
  </rdf:RDF>
 </metadata>
 <defs>
  <style type="text/css">*{stroke-linejoin: round; stroke-linecap: butt}</style>
 </defs>
 <g id="figure_1">
  <g id="patch_1">
   <path d="M 0 350.54 
L 807.085455 350.54 
L 807.085455 0 
L 0 0 
L 0 350.54 
z
" style="fill: none"/>
  </g>
  <g id="axes_1">
   <g id="patch_2">
    <path d="M 10.7 339.84 
L 343.34 339.84 
L 343.34 7.2 
L 10.7 7.2 
L 10.7 339.84 
z
" style="fill: none"/>
   </g>
   <g id="PolyCollection_1">
    <path d="M 10.7 7.2 
L 10.7 118.08 
L 121.58 118.08 
L 121.58 7.2 
L 10.7 7.2 
z
" clip-path="url(#p8f6a5d8ca8)" style="fill: #fcfbfd"/>
    <path d="M 121.58 7.2 
L 121.58 118.08 
L 232.46 118.08 
L 232.46 7.2 
L 121.58 7.2 
z
" clip-path="url(#p8f6a5d8ca8)" style="fill: #ecebf4"/>
    <path d="M 232.46 7.2 
L 232.46 118.08 
L 343.34 118.08 
L 343.34 7.2 
L 232.46 7.2 
z
" clip-path="url(#p8f6a5d8ca8)" style="fill: #d1d2e7"/>
    <path d="M 10.7 118.08 
L 10.7 228.96 
L 121.58 228.96 
L 121.58 118.08 
L 10.7 118.08 
z
" clip-path="url(#p8f6a5d8ca8)" style="fill: #afaed4"/>
    <path d="M 121.58 118.08 
L 121.58 228.96 
L 232.46 228.96 
L 232.46 118.08 
L 121.58 118.08 
z
" clip-path="url(#p8f6a5d8ca8)" style="fill: #8d89c0"/>
    <path d="M 232.46 118.08 
L 232.46 228.96 
L 343.34 228.96 
L 343.34 118.08 
L 232.46 118.08 
z
" clip-path="url(#p8f6a5d8ca8)" style="fill: #705eaa"/>
    <path d="M 10.7 228.96 
L 10.7 339.84 
L 121.58 339.84 
L 121.58 228.96 
L 10.7 228.96 
z
" clip-path="url(#p8f6a5d8ca8)" style="fill: #572c92"/>
    <path d="M 121.58 228.96 
L 121.58 339.84 
L 232.46 339.84 
L 232.46 228.96 
L 121.58 228.96 
z
" clip-path="url(#p8f6a5d8ca8)" style="fill: #3f007d"/>
   </g>
   <g id="matplotlib.axis_1"/>
   <g id="matplotlib.axis_2"/>
   <g id="patch_3">
    <path d="M 10.7 339.84 
L 10.7 7.2 
" style="fill: none; stroke: #000000; stroke-width: 0.8; stroke-linejoin: miter; stroke-linecap: square"/>
   </g>
   <g id="patch_4">
    <path d="M 343.34 339.84 
L 343.34 7.2 
" style="fill: none; stroke: #000000; stroke-width: 0.8; stroke-linejoin: miter; stroke-linecap: square"/>
   </g>
   <g id="patch_5">
    <path d="M 10.7 339.84 
L 343.34 339.84 
" style="fill: none; stroke: #000000; stroke-width: 0.8; stroke-linejoin: miter; stroke-linecap: square"/>
   </g>
   <g id="patch_6">
    <path d="M 10.7 7.2 
L 343.34 7.2 
" style="fill: none; stroke: #000000; stroke-width: 0.8; stroke-linejoin: miter; stroke-linecap: square"/>
   </g>
   <g id="text_1">
    <path d="M 67.261094 61.74625 
Q 67.261094 60.379062 67.004844 59.82125 
Q 66.748594 59.261875 66.142344 59.261875 
Q 65.537656 59.261875 65.278281 59.82125 
Q 65.018906 60.379062 65.018906 61.74625 
Q 65.018906 63.129062 65.278281 63.69625 
Q 65.537656 64.261875 66.142344 64.261875 
Q 66.743906 64.261875 67.001719 63.69625 
Q 67.261094 63.129062 67.261094 61.74625 
z
M 69.140781 61.761875 
Q 69.140781 63.572812 68.359531 64.557187 
Q 67.578281 65.541562 66.142344 65.541562 
Q 64.701719 65.541562 63.920469 64.557187 
Q 63.139219 63.572812 63.139219 61.761875 
Q 63.139219 59.944687 63.920469 58.961875 
Q 64.701719 57.9775 66.142344 57.9775 
Q 67.578281 57.9775 68.359531 58.961875 
Q 69.140781 59.944687 69.140781 61.761875 
z
" style="stroke: #ffffff; stroke-width: 3"/>
    <path d="M 67.261094 61.74625 
Q 67.261094 60.379062 67.004844 59.82125 
Q 66.748594 59.261875 66.142344 59.261875 
Q 65.537656 59.261875 65.278281 59.82125 
Q 65.018906 60.379062 65.018906 61.74625 
Q 65.018906 63.129062 65.278281 63.69625 
Q 65.537656 64.261875 66.142344 64.261875 
Q 66.743906 64.261875 67.001719 63.69625 
Q 67.261094 63.129062 67.261094 61.74625 
z
M 69.140781 61.761875 
Q 69.140781 63.572812 68.359531 64.557187 
Q 67.578281 65.541562 66.142344 65.541562 
Q 64.701719 65.541562 63.920469 64.557187 
Q 63.139219 63.572812 63.139219 61.761875 
Q 63.139219 59.944687 63.920469 58.961875 
Q 64.701719 57.9775 66.142344 57.9775 
Q 67.578281 57.9775 68.359531 58.961875 
Q 69.140781 59.944687 69.140781 61.761875 
z
"/>
   </g>
   <g id="text_2">
    <path d="M 174.712969 64.100937 
L 176.373906 64.100937 
L 176.373906 59.388437 
L 174.669219 59.74 
L 174.669219 58.460312 
L 176.362969 58.10875 
L 178.150469 58.10875 
L 178.150469 64.100937 
L 179.811406 64.100937 
L 179.811406 65.399375 
L 174.712969 65.399375 
L 174.712969 64.100937 
z
" style="stroke: #ffffff; stroke-width: 3"/>
    <path d="M 174.712969 64.100937 
L 176.373906 64.100937 
L 176.373906 59.388437 
L 174.669219 59.74 
L 174.669219 58.460312 
L 176.362969 58.10875 
L 178.150469 58.10875 
L 178.150469 64.100937 
L 179.811406 64.100937 
L 179.811406 65.399375 
L 174.712969 65.399375 
L 174.712969 64.100937 
z
"/>
   </g>
   <g id="text_3">
    <path d="M 287.302344 64.018125 
L 290.510156 64.018125 
L 290.510156 65.399375 
L 285.211719 65.399375 
L 285.211719 64.018125 
L 287.872656 61.668125 
Q 288.230469 61.34625 288.400781 61.038437 
Q 288.571094 60.730625 288.571094 60.399375 
Q 288.571094 59.886875 288.227344 59.574375 
Q 287.883594 59.261875 287.311719 59.261875 
Q 286.872656 59.261875 286.349219 59.449375 
Q 285.827344 59.636875 285.232031 60.00875 
L 285.232031 58.407187 
Q 285.866406 58.197812 286.486719 58.088437 
Q 287.107031 57.9775 287.702344 57.9775 
Q 289.011719 57.9775 289.736719 58.554062 
Q 290.461719 59.129062 290.461719 60.160312 
Q 290.461719 60.755625 290.153906 61.27125 
Q 289.846094 61.785312 288.860156 62.650937 
L 287.302344 64.018125 
z
" style="stroke: #ffffff; stroke-width: 3"/>
    <path d="M 287.302344 64.018125 
L 290.510156 64.018125 
L 290.510156 65.399375 
L 285.211719 65.399375 
L 285.211719 64.018125 
L 287.872656 61.668125 
Q 288.230469 61.34625 288.400781 61.038437 
Q 288.571094 60.730625 288.571094 60.399375 
Q 288.571094 59.886875 288.227344 59.574375 
Q 287.883594 59.261875 287.311719 59.261875 
Q 286.872656 59.261875 286.349219 59.449375 
Q 285.827344 59.636875 285.232031 60.00875 
L 285.232031 58.407187 
Q 285.866406 58.197812 286.486719 58.088437 
Q 287.107031 57.9775 287.702344 57.9775 
Q 289.011719 57.9775 289.736719 58.554062 
Q 290.461719 59.129062 290.461719 60.160312 
Q 290.461719 60.755625 290.153906 61.27125 
Q 289.846094 61.785312 288.860156 62.650937 
L 287.302344 64.018125 
z
"/>
   </g>
   <g id="text_4">
    <path d="M 67.318906 172.348125 
Q 68.056406 172.53875 68.439219 173.010625 
Q 68.823594 173.480937 68.823594 174.209062 
Q 68.823594 175.293437 67.992344 175.8575 
Q 67.162656 176.421562 65.572031 176.421562 
Q 65.009531 176.421562 64.445469 176.330937 
Q 63.881406 176.240312 63.329844 176.059062 
L 63.329844 174.609062 
Q 63.857969 174.873125 64.376719 175.0075 
Q 64.897031 175.141875 65.400156 175.141875 
Q 66.147031 175.141875 66.545469 174.884062 
Q 66.943906 174.624687 66.943906 174.140312 
Q 66.943906 173.641875 66.536094 173.385625 
Q 66.128281 173.129375 65.331406 173.129375 
L 64.579844 173.129375 
L 64.579844 171.918437 
L 65.370469 171.918437 
Q 66.079844 171.918437 66.425156 171.696562 
Q 66.772031 171.474687 66.772031 171.02 
Q 66.772031 170.60125 66.434531 170.371562 
Q 66.098594 170.141875 65.482969 170.141875 
Q 65.029844 170.141875 64.565781 170.245 
Q 64.101719 170.346562 63.642344 170.546562 
L 63.642344 169.17 
Q 64.198594 169.01375 64.745469 168.935625 
Q 65.292344 168.8575 65.820469 168.8575 
Q 67.240781 168.8575 67.945469 169.324687 
Q 68.651719 169.790312 68.651719 170.727812 
Q 68.651719 171.366875 68.314219 171.774687 
Q 67.978281 172.1825 67.318906 172.348125 
z
" style="stroke: #ffffff; stroke-width: 3"/>
    <path d="M 67.318906 172.348125 
Q 68.056406 172.53875 68.439219 173.010625 
Q 68.823594 173.480937 68.823594 174.209062 
Q 68.823594 175.293437 67.992344 175.8575 
Q 67.162656 176.421562 65.572031 176.421562 
Q 65.009531 176.421562 64.445469 176.330937 
Q 63.881406 176.240312 63.329844 176.059062 
L 63.329844 174.609062 
Q 63.857969 174.873125 64.376719 175.0075 
Q 64.897031 175.141875 65.400156 175.141875 
Q 66.147031 175.141875 66.545469 174.884062 
Q 66.943906 174.624687 66.943906 174.140312 
Q 66.943906 173.641875 66.536094 173.385625 
Q 66.128281 173.129375 65.331406 173.129375 
L 64.579844 173.129375 
L 64.579844 171.918437 
L 65.370469 171.918437 
Q 66.079844 171.918437 66.425156 171.696562 
Q 66.772031 171.474687 66.772031 171.02 
Q 66.772031 170.60125 66.434531 170.371562 
Q 66.098594 170.141875 65.482969 170.141875 
Q 65.029844 170.141875 64.565781 170.245 
Q 64.101719 170.346562 63.642344 170.546562 
L 63.642344 169.17 
Q 64.198594 169.01375 64.745469 168.935625 
Q 65.292344 168.8575 65.820469 168.8575 
Q 67.240781 168.8575 67.945469 169.324687 
Q 68.651719 169.790312 68.651719 170.727812 
Q 68.651719 171.366875 68.314219 171.774687 
Q 67.978281 172.1825 67.318906 172.348125 
z
"/>
   </g>
   <g id="text_5">
    <path d="M 177.222344 170.537187 
L 175.162969 173.58875 
L 177.222344 173.58875 
L 177.222344 170.537187 
z
M 176.909844 168.98875 
L 179.000469 168.98875 
L 179.000469 173.58875 
L 180.039531 173.58875 
L 180.039531 174.95125 
L 179.000469 174.95125 
L 179.000469 176.279375 
L 177.222344 176.279375 
L 177.222344 174.95125 
L 173.991094 174.95125 
L 173.991094 173.340312 
L 176.909844 168.98875 
z
" style="stroke: #ffffff; stroke-width: 3"/>
    <path d="M 177.222344 170.537187 
L 175.162969 173.58875 
L 177.222344 173.58875 
L 177.222344 170.537187 
z
M 176.909844 168.98875 
L 179.000469 168.98875 
L 179.000469 173.58875 
L 180.039531 173.58875 
L 180.039531 174.95125 
L 179.000469 174.95125 
L 179.000469 176.279375 
L 177.222344 176.279375 
L 177.222344 174.95125 
L 173.991094 174.95125 
L 173.991094 173.340312 
L 176.909844 168.98875 
z
"/>
   </g>
   <g id="text_6">
    <path d="M 285.480469 168.98875 
L 290.153906 168.98875 
L 290.153906 170.371562 
L 286.980469 170.371562 
L 286.980469 171.499687 
Q 287.194531 171.440312 287.411719 171.409062 
Q 287.628906 171.37625 287.863281 171.37625 
Q 289.196094 171.37625 289.938281 172.043437 
Q 290.680469 172.710625 290.680469 173.90125 
Q 290.680469 175.0825 289.872656 175.752812 
Q 289.064844 176.421562 287.628906 176.421562 
Q 287.008594 176.421562 286.400781 176.30125 
Q 285.792969 176.180937 285.192969 175.937187 
L 285.192969 174.4575 
Q 285.788281 174.799687 286.322656 174.971562 
Q 286.857031 175.141875 287.332031 175.141875 
Q 288.014844 175.141875 288.407031 174.8075 
Q 288.800781 174.473125 288.800781 173.90125 
Q 288.800781 173.324687 288.407031 172.993437 
Q 288.014844 172.660625 287.332031 172.660625 
Q 286.925781 172.660625 286.466406 172.766875 
Q 286.008594 172.871562 285.480469 173.090312 
L 285.480469 168.98875 
z
" style="stroke: #ffffff; stroke-width: 3"/>
    <path d="M 285.480469 168.98875 
L 290.153906 168.98875 
L 290.153906 170.371562 
L 286.980469 170.371562 
L 286.980469 171.499687 
Q 287.194531 171.440312 287.411719 171.409062 
Q 287.628906 171.37625 287.863281 171.37625 
Q 289.196094 171.37625 289.938281 172.043437 
Q 290.680469 172.710625 290.680469 173.90125 
Q 290.680469 175.0825 289.872656 175.752812 
Q 289.064844 176.421562 287.628906 176.421562 
Q 287.008594 176.421562 286.400781 176.30125 
Q 285.792969 176.180937 285.192969 175.937187 
L 285.192969 174.4575 
Q 285.788281 174.799687 286.322656 174.971562 
Q 286.857031 175.141875 287.332031 175.141875 
Q 288.014844 175.141875 288.407031 174.8075 
Q 288.800781 174.473125 288.800781 173.90125 
Q 288.800781 173.324687 288.407031 172.993437 
Q 288.014844 172.660625 287.332031 172.660625 
Q 286.925781 172.660625 286.466406 172.766875 
Q 286.008594 172.871562 285.480469 173.090312 
L 285.480469 168.98875 
z
"/>
   </g>
   <g id="text_7">
    <path d="M 66.279844 283.560937 
Q 65.786094 283.560937 65.539219 283.88125 
Q 65.292344 284.2 65.292344 284.840625 
Q 65.292344 285.479687 65.539219 285.8 
Q 65.786094 286.11875 66.279844 286.11875 
Q 66.776719 286.11875 67.023594 285.8 
Q 67.270469 285.479687 67.270469 284.840625 
Q 67.270469 284.2 67.023594 283.88125 
Q 66.776719 283.560937 66.279844 283.560937 
z
M 68.603281 280.059375 
L 68.603281 281.407812 
Q 68.139219 281.1875 67.728281 281.082812 
Q 67.318906 280.978125 66.928281 280.978125 
Q 66.089219 280.978125 65.620469 281.445312 
Q 65.151719 281.910937 65.073594 282.828125 
Q 65.395469 282.589062 65.770469 282.470312 
Q 66.147031 282.35 66.592344 282.35 
Q 67.709531 282.35 68.395469 283.004687 
Q 69.081406 283.657812 69.081406 284.717187 
Q 69.081406 285.889062 68.314219 286.595312 
Q 67.548594 287.301562 66.259531 287.301562 
Q 64.839219 287.301562 64.059531 286.342187 
Q 63.281406 285.38125 63.281406 283.61875 
Q 63.281406 281.8125 64.192344 280.779687 
Q 65.103281 279.746875 66.689219 279.746875 
Q 67.192344 279.746875 67.665781 279.825 
Q 68.139219 279.903125 68.603281 280.059375 
z
" style="stroke: #ffffff; stroke-width: 3"/>
    <path d="M 66.279844 283.560937 
Q 65.786094 283.560937 65.539219 283.88125 
Q 65.292344 284.2 65.292344 284.840625 
Q 65.292344 285.479687 65.539219 285.8 
Q 65.786094 286.11875 66.279844 286.11875 
Q 66.776719 286.11875 67.023594 285.8 
Q 67.270469 285.479687 67.270469 284.840625 
Q 67.270469 284.2 67.023594 283.88125 
Q 66.776719 283.560937 66.279844 283.560937 
z
M 68.603281 280.059375 
L 68.603281 281.407812 
Q 68.139219 281.1875 67.728281 281.082812 
Q 67.318906 280.978125 66.928281 280.978125 
Q 66.089219 280.978125 65.620469 281.445312 
Q 65.151719 281.910937 65.073594 282.828125 
Q 65.395469 282.589062 65.770469 282.470312 
Q 66.147031 282.35 66.592344 282.35 
Q 67.709531 282.35 68.395469 283.004687 
Q 69.081406 283.657812 69.081406 284.717187 
Q 69.081406 285.889062 68.314219 286.595312 
Q 67.548594 287.301562 66.259531 287.301562 
Q 64.839219 287.301562 64.059531 286.342187 
Q 63.281406 285.38125 63.281406 283.61875 
Q 63.281406 281.8125 64.192344 280.779687 
Q 65.103281 279.746875 66.689219 279.746875 
Q 67.192344 279.746875 67.665781 279.825 
Q 68.139219 279.903125 68.603281 280.059375 
z
"/>
   </g>
   <g id="text_8">
    <path d="M 174.209844 279.86875 
L 179.703594 279.86875 
L 179.703594 280.928125 
L 176.861406 287.159375 
L 175.030156 287.159375 
L 177.720781 281.251562 
L 174.209844 281.251562 
L 174.209844 279.86875 
z
" style="stroke: #ffffff; stroke-width: 3"/>
    <path d="M 174.209844 279.86875 
L 179.703594 279.86875 
L 179.703594 280.928125 
L 176.861406 287.159375 
L 175.030156 287.159375 
L 177.720781 281.251562 
L 174.209844 281.251562 
L 174.209844 279.86875 
z
"/>
   </g>
   <g id="text_9">
    <path d="M 267.910156 279.86875 
L 270.008594 279.86875 
L 272.660156 284.86875 
L 272.660156 279.86875 
L 274.442969 279.86875 
L 274.442969 287.159375 
L 272.342969 287.159375 
L 269.691406 282.159375 
L 269.691406 287.159375 
L 267.910156 287.159375 
L 267.910156 279.86875 
z
M 278.802734 282.809375 
Q 278.221484 282.809375 277.916797 283.226562 
Q 277.612109 283.64375 277.612109 284.429687 
Q 277.612109 285.215625 277.916797 285.634375 
Q 278.221484 286.051562 278.802734 286.051562 
Q 279.374609 286.051562 279.676172 285.634375 
Q 279.979297 285.215625 279.979297 284.429687 
Q 279.979297 283.64375 279.676172 283.226562 
Q 279.374609 282.809375 278.802734 282.809375 
z
M 278.802734 281.559375 
Q 280.213672 281.559375 281.007422 282.321875 
Q 281.801172 283.082812 281.801172 284.429687 
Q 281.801172 285.778125 281.007422 286.540625 
Q 280.213672 287.301562 278.802734 287.301562 
Q 277.387109 287.301562 276.588672 286.540625 
Q 275.790234 285.778125 275.790234 284.429687 
Q 275.790234 283.082812 276.588672 282.321875 
Q 277.387109 281.559375 278.802734 281.559375 
z
M 285.029102 281.290625 
L 285.029102 285.739062 
L 285.702539 285.739062 
Q 286.854102 285.739062 287.461914 285.167187 
Q 288.071289 284.595312 288.071289 283.50625 
Q 288.071289 282.423437 287.465039 281.857812 
Q 286.860352 281.290625 285.702539 281.290625 
L 285.029102 281.290625 
z
M 283.149414 279.86875 
L 285.130664 279.86875 
Q 286.791602 279.86875 287.604102 280.10625 
Q 288.416602 280.342187 288.997852 280.909375 
Q 289.510352 281.403125 289.758789 282.048437 
Q 290.008789 282.692187 290.008789 283.50625 
Q 290.008789 284.332812 289.758789 284.979687 
Q 289.510352 285.626562 288.997852 286.11875 
Q 288.411914 286.685937 287.591602 286.923437 
Q 286.771289 287.159375 285.130664 287.159375 
L 283.149414 287.159375 
L 283.149414 279.86875 
z
M 293.82207 284.698437 
Q 293.275195 284.698437 292.998633 284.884375 
Q 292.723633 285.06875 292.723633 285.43125 
Q 292.723633 285.7625 292.945508 285.951562 
Q 293.168945 286.139062 293.564258 286.139062 
Q 294.056445 286.139062 294.393945 285.785937 
Q 294.731445 285.43125 294.731445 284.898437 
L 294.731445 284.698437 
L 293.82207 284.698437 
z
M 296.493945 284.039062 
L 296.493945 287.159375 
L 294.731445 287.159375 
L 294.731445 286.348437 
Q 294.379883 286.846875 293.939258 287.075 
Q 293.500195 287.301562 292.870508 287.301562 
Q 292.020508 287.301562 291.49082 286.80625 
Q 290.961133 286.309375 290.961133 285.51875 
Q 290.961133 284.55625 291.62207 284.107812 
Q 292.28457 283.657812 293.700195 283.657812 
L 294.731445 283.657812 
L 294.731445 283.521875 
Q 294.731445 283.10625 294.40332 282.914062 
Q 294.076758 282.720312 293.383008 282.720312 
Q 292.82207 282.720312 292.337695 282.832812 
Q 291.854883 282.945312 291.439258 283.170312 
L 291.439258 281.8375 
Q 292.001758 281.7 292.567383 281.629687 
Q 293.13457 281.559375 293.700195 281.559375 
Q 295.179883 281.559375 295.836133 282.142187 
Q 296.493945 282.725 296.493945 284.039062 
z
M 300.02793 280.1375 
L 300.02793 281.690625 
L 301.831055 281.690625 
L 301.831055 282.940625 
L 300.02793 282.940625 
L 300.02793 285.259375 
Q 300.02793 285.640625 300.179492 285.775 
Q 300.331055 285.909375 300.781055 285.909375 
L 301.679492 285.909375 
L 301.679492 287.159375 
L 300.179492 287.159375 
Q 299.145117 287.159375 298.712305 286.728125 
Q 298.281055 286.295312 298.281055 285.259375 
L 298.281055 282.940625 
L 297.410742 282.940625 
L 297.410742 281.690625 
L 298.281055 281.690625 
L 298.281055 280.1375 
L 300.02793 280.1375 
z
M 305.350391 284.698437 
Q 304.803516 284.698437 304.526953 284.884375 
Q 304.251953 285.06875 304.251953 285.43125 
Q 304.251953 285.7625 304.473828 285.951562 
Q 304.697266 286.139062 305.092578 286.139062 
Q 305.584766 286.139062 305.922266 285.785937 
Q 306.259766 285.43125 306.259766 284.898437 
L 306.259766 284.698437 
L 305.350391 284.698437 
z
M 308.022266 284.039062 
L 308.022266 287.159375 
L 306.259766 287.159375 
L 306.259766 286.348437 
Q 305.908203 286.846875 305.467578 287.075 
Q 305.028516 287.301562 304.398828 287.301562 
Q 303.548828 287.301562 303.019141 286.80625 
Q 302.489453 286.309375 302.489453 285.51875 
Q 302.489453 284.55625 303.150391 284.107812 
Q 303.812891 283.657812 305.228516 283.657812 
L 306.259766 283.657812 
L 306.259766 283.521875 
Q 306.259766 283.10625 305.931641 282.914062 
Q 305.605078 282.720312 304.911328 282.720312 
Q 304.350391 282.720312 303.866016 282.832812 
Q 303.383203 282.945312 302.967578 283.170312 
L 302.967578 281.8375 
Q 303.530078 281.7 304.095703 281.629687 
Q 304.662891 281.559375 305.228516 281.559375 
Q 306.708203 281.559375 307.364453 282.142187 
Q 308.022266 282.725 308.022266 284.039062 
z
" style="stroke: #ffffff; stroke-width: 3"/>
    <path d="M 267.910156 279.86875 
L 270.008594 279.86875 
L 272.660156 284.86875 
L 272.660156 279.86875 
L 274.442969 279.86875 
L 274.442969 287.159375 
L 272.342969 287.159375 
L 269.691406 282.159375 
L 269.691406 287.159375 
L 267.910156 287.159375 
L 267.910156 279.86875 
z
M 278.802734 282.809375 
Q 278.221484 282.809375 277.916797 283.226562 
Q 277.612109 283.64375 277.612109 284.429687 
Q 277.612109 285.215625 277.916797 285.634375 
Q 278.221484 286.051562 278.802734 286.051562 
Q 279.374609 286.051562 279.676172 285.634375 
Q 279.979297 285.215625 279.979297 284.429687 
Q 279.979297 283.64375 279.676172 283.226562 
Q 279.374609 282.809375 278.802734 282.809375 
z
M 278.802734 281.559375 
Q 280.213672 281.559375 281.007422 282.321875 
Q 281.801172 283.082812 281.801172 284.429687 
Q 281.801172 285.778125 281.007422 286.540625 
Q 280.213672 287.301562 278.802734 287.301562 
Q 277.387109 287.301562 276.588672 286.540625 
Q 275.790234 285.778125 275.790234 284.429687 
Q 275.790234 283.082812 276.588672 282.321875 
Q 277.387109 281.559375 278.802734 281.559375 
z
M 285.029102 281.290625 
L 285.029102 285.739062 
L 285.702539 285.739062 
Q 286.854102 285.739062 287.461914 285.167187 
Q 288.071289 284.595312 288.071289 283.50625 
Q 288.071289 282.423437 287.465039 281.857812 
Q 286.860352 281.290625 285.702539 281.290625 
L 285.029102 281.290625 
z
M 283.149414 279.86875 
L 285.130664 279.86875 
Q 286.791602 279.86875 287.604102 280.10625 
Q 288.416602 280.342187 288.997852 280.909375 
Q 289.510352 281.403125 289.758789 282.048437 
Q 290.008789 282.692187 290.008789 283.50625 
Q 290.008789 284.332812 289.758789 284.979687 
Q 289.510352 285.626562 288.997852 286.11875 
Q 288.411914 286.685937 287.591602 286.923437 
Q 286.771289 287.159375 285.130664 287.159375 
L 283.149414 287.159375 
L 283.149414 279.86875 
z
M 293.82207 284.698437 
Q 293.275195 284.698437 292.998633 284.884375 
Q 292.723633 285.06875 292.723633 285.43125 
Q 292.723633 285.7625 292.945508 285.951562 
Q 293.168945 286.139062 293.564258 286.139062 
Q 294.056445 286.139062 294.393945 285.785937 
Q 294.731445 285.43125 294.731445 284.898437 
L 294.731445 284.698437 
L 293.82207 284.698437 
z
M 296.493945 284.039062 
L 296.493945 287.159375 
L 294.731445 287.159375 
L 294.731445 286.348437 
Q 294.379883 286.846875 293.939258 287.075 
Q 293.500195 287.301562 292.870508 287.301562 
Q 292.020508 287.301562 291.49082 286.80625 
Q 290.961133 286.309375 290.961133 285.51875 
Q 290.961133 284.55625 291.62207 284.107812 
Q 292.28457 283.657812 293.700195 283.657812 
L 294.731445 283.657812 
L 294.731445 283.521875 
Q 294.731445 283.10625 294.40332 282.914062 
Q 294.076758 282.720312 293.383008 282.720312 
Q 292.82207 282.720312 292.337695 282.832812 
Q 291.854883 282.945312 291.439258 283.170312 
L 291.439258 281.8375 
Q 292.001758 281.7 292.567383 281.629687 
Q 293.13457 281.559375 293.700195 281.559375 
Q 295.179883 281.559375 295.836133 282.142187 
Q 296.493945 282.725 296.493945 284.039062 
z
M 300.02793 280.1375 
L 300.02793 281.690625 
L 301.831055 281.690625 
L 301.831055 282.940625 
L 300.02793 282.940625 
L 300.02793 285.259375 
Q 300.02793 285.640625 300.179492 285.775 
Q 300.331055 285.909375 300.781055 285.909375 
L 301.679492 285.909375 
L 301.679492 287.159375 
L 300.179492 287.159375 
Q 299.145117 287.159375 298.712305 286.728125 
Q 298.281055 286.295312 298.281055 285.259375 
L 298.281055 282.940625 
L 297.410742 282.940625 
L 297.410742 281.690625 
L 298.281055 281.690625 
L 298.281055 280.1375 
L 300.02793 280.1375 
z
M 305.350391 284.698437 
Q 304.803516 284.698437 304.526953 284.884375 
Q 304.251953 285.06875 304.251953 285.43125 
Q 304.251953 285.7625 304.473828 285.951562 
Q 304.697266 286.139062 305.092578 286.139062 
Q 305.584766 286.139062 305.922266 285.785937 
Q 306.259766 285.43125 306.259766 284.898437 
L 306.259766 284.698437 
L 305.350391 284.698437 
z
M 308.022266 284.039062 
L 308.022266 287.159375 
L 306.259766 287.159375 
L 306.259766 286.348437 
Q 305.908203 286.846875 305.467578 287.075 
Q 305.028516 287.301562 304.398828 287.301562 
Q 303.548828 287.301562 303.019141 286.80625 
Q 302.489453 286.309375 302.489453 285.51875 
Q 302.489453 284.55625 303.150391 284.107812 
Q 303.812891 283.657812 305.228516 283.657812 
L 306.259766 283.657812 
L 306.259766 283.521875 
Q 306.259766 283.10625 305.931641 282.914062 
Q 305.605078 282.720312 304.911328 282.720312 
Q 304.350391 282.720312 303.866016 282.832812 
Q 303.383203 282.945312 302.967578 283.170312 
L 302.967578 281.8375 
Q 303.530078 281.7 304.095703 281.629687 
Q 304.662891 281.559375 305.228516 281.559375 
Q 306.708203 281.559375 307.364453 282.142187 
Q 308.022266 282.725 308.022266 284.039062 
z
"/>
   </g>
  </g>
  <g id="axes_2">
   <g id="patch_7">
    <path d="M 467.245455 339.84 
L 799.885455 339.84 
L 799.885455 7.2 
L 467.245455 7.2 
L 467.245455 339.84 
z
" style="fill: none"/>
   </g>
   <g id="PolyCollection_2">
    <path d="M 578.125455 7.2 
L 578.125455 118.08 
L 689.005455 118.08 
L 689.005455 7.2 
L 578.125455 7.2 
z
" clip-path="url(#p2417c40c73)" style="fill: #8dd3c7"/>
    <path d="M 689.005455 7.2 
L 689.005455 118.08 
L 799.885455 118.08 
L 799.885455 7.2 
L 689.005455 7.2 
z
" clip-path="url(#p2417c40c73)" style="fill: #8dd3c7"/>
    <path d="M 467.245455 118.08 
L 467.245455 228.96 
L 578.125455 228.96 
L 578.125455 118.08 
L 467.245455 118.08 
z
" clip-path="url(#p2417c40c73)" style="fill: #8dd3c7"/>
    <path d="M 578.125455 118.08 
L 578.125455 228.96 
L 689.005455 228.96 
L 689.005455 118.08 
L 578.125455 118.08 
z
" clip-path="url(#p2417c40c73)" style="fill: #b3de69"/>
    <path d="M 578.125455 228.96 
L 578.125455 339.84 
L 689.005455 339.84 
L 689.005455 228.96 
L 578.125455 228.96 
z
" clip-path="url(#p2417c40c73)" style="fill: #b3de69"/>
    <path d="M 689.005455 228.96 
L 689.005455 339.84 
L 799.885455 339.84 
L 799.885455 228.96 
L 689.005455 228.96 
z
" clip-path="url(#p2417c40c73)" style="fill: #ffed6f"/>
   </g>
   <g id="matplotlib.axis_3"/>
   <g id="matplotlib.axis_4"/>
   <g id="patch_8">
    <path d="M 467.245455 339.84 
L 467.245455 7.2 
" style="fill: none; stroke: #000000; stroke-width: 0.8; stroke-linejoin: miter; stroke-linecap: square"/>
   </g>
   <g id="patch_9">
    <path d="M 799.885455 339.84 
L 799.885455 7.2 
" style="fill: none; stroke: #000000; stroke-width: 0.8; stroke-linejoin: miter; stroke-linecap: square"/>
   </g>
   <g id="patch_10">
    <path d="M 467.245455 339.84 
L 799.885455 339.84 
" style="fill: none; stroke: #000000; stroke-width: 0.8; stroke-linejoin: miter; stroke-linecap: square"/>
   </g>
   <g id="patch_11">
    <path d="M 467.245455 7.2 
L 799.885455 7.2 
" style="fill: none; stroke: #000000; stroke-width: 0.8; stroke-linejoin: miter; stroke-linecap: square"/>
   </g>
   <g id="text_10">
    <path d="M 502.695611 58.10875 
L 504.794048 58.10875 
L 507.445611 63.10875 
L 507.445611 58.10875 
L 509.228423 58.10875 
L 509.228423 65.399375 
L 507.128423 65.399375 
L 504.476861 60.399375 
L 504.476861 65.399375 
L 502.695611 65.399375 
L 502.695611 58.10875 
z
M 513.588189 61.049375 
Q 513.006939 61.049375 512.702251 61.466562 
Q 512.397564 61.88375 512.397564 62.669687 
Q 512.397564 63.455625 512.702251 63.874375 
Q 513.006939 64.291562 513.588189 64.291562 
Q 514.160064 64.291562 514.461626 63.874375 
Q 514.764751 63.455625 514.764751 62.669687 
Q 514.764751 61.88375 514.461626 61.466562 
Q 514.160064 61.049375 513.588189 61.049375 
z
M 513.588189 59.799375 
Q 514.999126 59.799375 515.792876 60.561875 
Q 516.586626 61.322812 516.586626 62.669687 
Q 516.586626 64.018125 515.792876 64.780625 
Q 514.999126 65.541562 513.588189 65.541562 
Q 512.172564 65.541562 511.374126 64.780625 
Q 510.575689 64.018125 510.575689 62.669687 
Q 510.575689 61.322812 511.374126 60.561875 
Q 512.172564 59.799375 513.588189 59.799375 
z
M 519.814556 59.530625 
L 519.814556 63.979062 
L 520.487994 63.979062 
Q 521.639556 63.979062 522.247369 63.407187 
Q 522.856744 62.835312 522.856744 61.74625 
Q 522.856744 60.663437 522.250494 60.097812 
Q 521.645806 59.530625 520.487994 59.530625 
L 519.814556 59.530625 
z
M 517.934869 58.10875 
L 519.916119 58.10875 
Q 521.577056 58.10875 522.389556 58.34625 
Q 523.202056 58.582187 523.783306 59.149375 
Q 524.295806 59.643125 524.544244 60.288437 
Q 524.794244 60.932187 524.794244 61.74625 
Q 524.794244 62.572812 524.544244 63.219687 
Q 524.295806 63.866562 523.783306 64.35875 
Q 523.197369 64.925937 522.377056 65.163437 
Q 521.556744 65.399375 519.916119 65.399375 
L 517.934869 65.399375 
L 517.934869 58.10875 
z
M 528.607525 62.938437 
Q 528.06065 62.938437 527.784087 63.124375 
Q 527.509087 63.30875 527.509087 63.67125 
Q 527.509087 64.0025 527.730962 64.191562 
Q 527.9544 64.379062 528.349712 64.379062 
Q 528.8419 64.379062 529.1794 64.025937 
Q 529.5169 63.67125 529.5169 63.138437 
L 529.5169 62.938437 
L 528.607525 62.938437 
z
M 531.2794 62.279062 
L 531.2794 65.399375 
L 529.5169 65.399375 
L 529.5169 64.588437 
Q 529.165337 65.086875 528.724712 65.315 
Q 528.28565 65.541562 527.655962 65.541562 
Q 526.805962 65.541562 526.276275 65.04625 
Q 525.746587 64.549375 525.746587 63.75875 
Q 525.746587 62.79625 526.407525 62.347812 
Q 527.070025 61.897812 528.48565 61.897812 
L 529.5169 61.897812 
L 529.5169 61.761875 
Q 529.5169 61.34625 529.188775 61.154062 
Q 528.862212 60.960312 528.168462 60.960312 
Q 527.607525 60.960312 527.12315 61.072812 
Q 526.640337 61.185312 526.224712 61.410312 
L 526.224712 60.0775 
Q 526.787212 59.94 527.352837 59.869687 
Q 527.920025 59.799375 528.48565 59.799375 
Q 529.965337 59.799375 530.621587 60.382187 
Q 531.2794 60.965 531.2794 62.279062 
z
M 534.813384 58.3775 
L 534.813384 59.930625 
L 536.616509 59.930625 
L 536.616509 61.180625 
L 534.813384 61.180625 
L 534.813384 63.499375 
Q 534.813384 63.880625 534.964947 64.015 
Q 535.116509 64.149375 535.566509 64.149375 
L 536.464947 64.149375 
L 536.464947 65.399375 
L 534.964947 65.399375 
Q 533.930572 65.399375 533.497759 64.968125 
Q 533.066509 64.535312 533.066509 63.499375 
L 533.066509 61.180625 
L 532.196197 61.180625 
L 532.196197 59.930625 
L 533.066509 59.930625 
L 533.066509 58.3775 
L 534.813384 58.3775 
z
M 540.135845 62.938437 
Q 539.58897 62.938437 539.312408 63.124375 
Q 539.037408 63.30875 539.037408 63.67125 
Q 539.037408 64.0025 539.259283 64.191562 
Q 539.48272 64.379062 539.878033 64.379062 
Q 540.37022 64.379062 540.70772 64.025937 
Q 541.04522 63.67125 541.04522 63.138437 
L 541.04522 62.938437 
L 540.135845 62.938437 
z
M 542.80772 62.279062 
L 542.80772 65.399375 
L 541.04522 65.399375 
L 541.04522 64.588437 
Q 540.693658 65.086875 540.253033 65.315 
Q 539.81397 65.541562 539.184283 65.541562 
Q 538.334283 65.541562 537.804595 65.04625 
Q 537.274908 64.549375 537.274908 63.75875 
Q 537.274908 62.79625 537.935845 62.347812 
Q 538.598345 61.897812 540.01397 61.897812 
L 541.04522 61.897812 
L 541.04522 61.761875 
Q 541.04522 61.34625 540.717095 61.154062 
Q 540.390533 60.960312 539.696783 60.960312 
Q 539.135845 60.960312 538.65147 61.072812 
Q 538.168658 61.185312 537.753033 61.410312 
L 537.753033 60.0775 
Q 538.315533 59.94 538.881158 59.869687 
Q 539.448345 59.799375 540.01397 59.799375 
Q 541.493658 59.799375 542.149908 60.382187 
Q 542.80772 60.965 542.80772 62.279062 
z
" style="stroke: #ffffff; stroke-width: 3"/>
    <path d="M 502.695611 58.10875 
L 504.794048 58.10875 
L 507.445611 63.10875 
L 507.445611 58.10875 
L 509.228423 58.10875 
L 509.228423 65.399375 
L 507.128423 65.399375 
L 504.476861 60.399375 
L 504.476861 65.399375 
L 502.695611 65.399375 
L 502.695611 58.10875 
z
M 513.588189 61.049375 
Q 513.006939 61.049375 512.702251 61.466562 
Q 512.397564 61.88375 512.397564 62.669687 
Q 512.397564 63.455625 512.702251 63.874375 
Q 513.006939 64.291562 513.588189 64.291562 
Q 514.160064 64.291562 514.461626 63.874375 
Q 514.764751 63.455625 514.764751 62.669687 
Q 514.764751 61.88375 514.461626 61.466562 
Q 514.160064 61.049375 513.588189 61.049375 
z
M 513.588189 59.799375 
Q 514.999126 59.799375 515.792876 60.561875 
Q 516.586626 61.322812 516.586626 62.669687 
Q 516.586626 64.018125 515.792876 64.780625 
Q 514.999126 65.541562 513.588189 65.541562 
Q 512.172564 65.541562 511.374126 64.780625 
Q 510.575689 64.018125 510.575689 62.669687 
Q 510.575689 61.322812 511.374126 60.561875 
Q 512.172564 59.799375 513.588189 59.799375 
z
M 519.814556 59.530625 
L 519.814556 63.979062 
L 520.487994 63.979062 
Q 521.639556 63.979062 522.247369 63.407187 
Q 522.856744 62.835312 522.856744 61.74625 
Q 522.856744 60.663437 522.250494 60.097812 
Q 521.645806 59.530625 520.487994 59.530625 
L 519.814556 59.530625 
z
M 517.934869 58.10875 
L 519.916119 58.10875 
Q 521.577056 58.10875 522.389556 58.34625 
Q 523.202056 58.582187 523.783306 59.149375 
Q 524.295806 59.643125 524.544244 60.288437 
Q 524.794244 60.932187 524.794244 61.74625 
Q 524.794244 62.572812 524.544244 63.219687 
Q 524.295806 63.866562 523.783306 64.35875 
Q 523.197369 64.925937 522.377056 65.163437 
Q 521.556744 65.399375 519.916119 65.399375 
L 517.934869 65.399375 
L 517.934869 58.10875 
z
M 528.607525 62.938437 
Q 528.06065 62.938437 527.784087 63.124375 
Q 527.509087 63.30875 527.509087 63.67125 
Q 527.509087 64.0025 527.730962 64.191562 
Q 527.9544 64.379062 528.349712 64.379062 
Q 528.8419 64.379062 529.1794 64.025937 
Q 529.5169 63.67125 529.5169 63.138437 
L 529.5169 62.938437 
L 528.607525 62.938437 
z
M 531.2794 62.279062 
L 531.2794 65.399375 
L 529.5169 65.399375 
L 529.5169 64.588437 
Q 529.165337 65.086875 528.724712 65.315 
Q 528.28565 65.541562 527.655962 65.541562 
Q 526.805962 65.541562 526.276275 65.04625 
Q 525.746587 64.549375 525.746587 63.75875 
Q 525.746587 62.79625 526.407525 62.347812 
Q 527.070025 61.897812 528.48565 61.897812 
L 529.5169 61.897812 
L 529.5169 61.761875 
Q 529.5169 61.34625 529.188775 61.154062 
Q 528.862212 60.960312 528.168462 60.960312 
Q 527.607525 60.960312 527.12315 61.072812 
Q 526.640337 61.185312 526.224712 61.410312 
L 526.224712 60.0775 
Q 526.787212 59.94 527.352837 59.869687 
Q 527.920025 59.799375 528.48565 59.799375 
Q 529.965337 59.799375 530.621587 60.382187 
Q 531.2794 60.965 531.2794 62.279062 
z
M 534.813384 58.3775 
L 534.813384 59.930625 
L 536.616509 59.930625 
L 536.616509 61.180625 
L 534.813384 61.180625 
L 534.813384 63.499375 
Q 534.813384 63.880625 534.964947 64.015 
Q 535.116509 64.149375 535.566509 64.149375 
L 536.464947 64.149375 
L 536.464947 65.399375 
L 534.964947 65.399375 
Q 533.930572 65.399375 533.497759 64.968125 
Q 533.066509 64.535312 533.066509 63.499375 
L 533.066509 61.180625 
L 532.196197 61.180625 
L 532.196197 59.930625 
L 533.066509 59.930625 
L 533.066509 58.3775 
L 534.813384 58.3775 
z
M 540.135845 62.938437 
Q 539.58897 62.938437 539.312408 63.124375 
Q 539.037408 63.30875 539.037408 63.67125 
Q 539.037408 64.0025 539.259283 64.191562 
Q 539.48272 64.379062 539.878033 64.379062 
Q 540.37022 64.379062 540.70772 64.025937 
Q 541.04522 63.67125 541.04522 63.138437 
L 541.04522 62.938437 
L 540.135845 62.938437 
z
M 542.80772 62.279062 
L 542.80772 65.399375 
L 541.04522 65.399375 
L 541.04522 64.588437 
Q 540.693658 65.086875 540.253033 65.315 
Q 539.81397 65.541562 539.184283 65.541562 
Q 538.334283 65.541562 537.804595 65.04625 
Q 537.274908 64.549375 537.274908 63.75875 
Q 537.274908 62.79625 537.935845 62.347812 
Q 538.598345 61.897812 540.01397 61.897812 
L 541.04522 61.897812 
L 541.04522 61.761875 
Q 541.04522 61.34625 540.717095 61.154062 
Q 540.390533 60.960312 539.696783 60.960312 
Q 539.135845 60.960312 538.65147 61.072812 
Q 538.168658 61.185312 537.753033 61.410312 
L 537.753033 60.0775 
Q 538.315533 59.94 538.881158 59.869687 
Q 539.448345 59.799375 540.01397 59.799375 
Q 541.493658 59.799375 542.149908 60.382187 
Q 542.80772 60.965 542.80772 62.279062 
z
"/>
   </g>
   <g id="text_11">
    <path d="M 624.300611 64.100937 
L 625.961548 64.100937 
L 625.961548 59.388437 
L 624.256861 59.74 
L 624.256861 58.460312 
L 625.950611 58.10875 
L 627.738111 58.10875 
L 627.738111 64.100937 
L 629.399048 64.100937 
L 629.399048 65.399375 
L 624.300611 65.399375 
L 624.300611 64.100937 
z
M 634.686744 61.74625 
Q 634.686744 60.379062 634.430494 59.82125 
Q 634.174244 59.261875 633.567994 59.261875 
Q 632.963306 59.261875 632.703931 59.82125 
Q 632.444556 60.379062 632.444556 61.74625 
Q 632.444556 63.129062 632.703931 63.69625 
Q 632.963306 64.261875 633.567994 64.261875 
Q 634.169556 64.261875 634.427369 63.69625 
Q 634.686744 63.129062 634.686744 61.74625 
z
M 636.566431 61.761875 
Q 636.566431 63.572812 635.785181 64.557187 
Q 635.003931 65.541562 633.567994 65.541562 
Q 632.127369 65.541562 631.346119 64.557187 
Q 630.564869 63.572812 630.564869 61.761875 
Q 630.564869 59.944687 631.346119 58.961875 
Q 632.127369 57.9775 633.567994 57.9775 
Q 635.003931 57.9775 635.785181 58.961875 
Q 636.566431 59.944687 636.566431 61.761875 
z
M 638.216626 64.100937 
L 639.877564 64.100937 
L 639.877564 59.388437 
L 638.172876 59.74 
L 638.172876 58.460312 
L 639.866626 58.10875 
L 641.654126 58.10875 
L 641.654126 64.100937 
L 643.315064 64.100937 
L 643.315064 65.399375 
L 638.216626 65.399375 
L 638.216626 64.100937 
z
" style="stroke: #ffffff; stroke-width: 3"/>
    <path d="M 624.300611 64.100937 
L 625.961548 64.100937 
L 625.961548 59.388437 
L 624.256861 59.74 
L 624.256861 58.460312 
L 625.950611 58.10875 
L 627.738111 58.10875 
L 627.738111 64.100937 
L 629.399048 64.100937 
L 629.399048 65.399375 
L 624.300611 65.399375 
L 624.300611 64.100937 
z
M 634.686744 61.74625 
Q 634.686744 60.379062 634.430494 59.82125 
Q 634.174244 59.261875 633.567994 59.261875 
Q 632.963306 59.261875 632.703931 59.82125 
Q 632.444556 60.379062 632.444556 61.74625 
Q 632.444556 63.129062 632.703931 63.69625 
Q 632.963306 64.261875 633.567994 64.261875 
Q 634.169556 64.261875 634.427369 63.69625 
Q 634.686744 63.129062 634.686744 61.74625 
z
M 636.566431 61.761875 
Q 636.566431 63.572812 635.785181 64.557187 
Q 635.003931 65.541562 633.567994 65.541562 
Q 632.127369 65.541562 631.346119 64.557187 
Q 630.564869 63.572812 630.564869 61.761875 
Q 630.564869 59.944687 631.346119 58.961875 
Q 632.127369 57.9775 633.567994 57.9775 
Q 635.003931 57.9775 635.785181 58.961875 
Q 636.566431 59.944687 636.566431 61.761875 
z
M 638.216626 64.100937 
L 639.877564 64.100937 
L 639.877564 59.388437 
L 638.172876 59.74 
L 638.172876 58.460312 
L 639.866626 58.10875 
L 641.654126 58.10875 
L 641.654126 64.100937 
L 643.315064 64.100937 
L 643.315064 65.399375 
L 638.216626 65.399375 
L 638.216626 64.100937 
z
"/>
   </g>
   <g id="text_12">
    <path d="M 735.180611 64.100937 
L 736.841548 64.100937 
L 736.841548 59.388437 
L 735.136861 59.74 
L 735.136861 58.460312 
L 736.830611 58.10875 
L 738.618111 58.10875 
L 738.618111 64.100937 
L 740.279048 64.100937 
L 740.279048 65.399375 
L 735.180611 65.399375 
L 735.180611 64.100937 
z
M 745.566744 61.74625 
Q 745.566744 60.379062 745.310494 59.82125 
Q 745.054244 59.261875 744.447994 59.261875 
Q 743.843306 59.261875 743.583931 59.82125 
Q 743.324556 60.379062 743.324556 61.74625 
Q 743.324556 63.129062 743.583931 63.69625 
Q 743.843306 64.261875 744.447994 64.261875 
Q 745.049556 64.261875 745.307369 63.69625 
Q 745.566744 63.129062 745.566744 61.74625 
z
M 747.446431 61.761875 
Q 747.446431 63.572812 746.665181 64.557187 
Q 745.883931 65.541562 744.447994 65.541562 
Q 743.007369 65.541562 742.226119 64.557187 
Q 741.444869 63.572812 741.444869 61.761875 
Q 741.444869 59.944687 742.226119 58.961875 
Q 743.007369 57.9775 744.447994 57.9775 
Q 745.883931 57.9775 746.665181 58.961875 
Q 747.446431 59.944687 747.446431 61.761875 
z
M 749.096626 64.100937 
L 750.757564 64.100937 
L 750.757564 59.388437 
L 749.052876 59.74 
L 749.052876 58.460312 
L 750.746626 58.10875 
L 752.534126 58.10875 
L 752.534126 64.100937 
L 754.195064 64.100937 
L 754.195064 65.399375 
L 749.096626 65.399375 
L 749.096626 64.100937 
z
" style="stroke: #ffffff; stroke-width: 3"/>
    <path d="M 735.180611 64.100937 
L 736.841548 64.100937 
L 736.841548 59.388437 
L 735.136861 59.74 
L 735.136861 58.460312 
L 736.830611 58.10875 
L 738.618111 58.10875 
L 738.618111 64.100937 
L 740.279048 64.100937 
L 740.279048 65.399375 
L 735.180611 65.399375 
L 735.180611 64.100937 
z
M 745.566744 61.74625 
Q 745.566744 60.379062 745.310494 59.82125 
Q 745.054244 59.261875 744.447994 59.261875 
Q 743.843306 59.261875 743.583931 59.82125 
Q 743.324556 60.379062 743.324556 61.74625 
Q 743.324556 63.129062 743.583931 63.69625 
Q 743.843306 64.261875 744.447994 64.261875 
Q 745.049556 64.261875 745.307369 63.69625 
Q 745.566744 63.129062 745.566744 61.74625 
z
M 747.446431 61.761875 
Q 747.446431 63.572812 746.665181 64.557187 
Q 745.883931 65.541562 744.447994 65.541562 
Q 743.007369 65.541562 742.226119 64.557187 
Q 741.444869 63.572812 741.444869 61.761875 
Q 741.444869 59.944687 742.226119 58.961875 
Q 743.007369 57.9775 744.447994 57.9775 
Q 745.883931 57.9775 746.665181 58.961875 
Q 747.446431 59.944687 747.446431 61.761875 
z
M 749.096626 64.100937 
L 750.757564 64.100937 
L 750.757564 59.388437 
L 749.052876 59.74 
L 749.052876 58.460312 
L 750.746626 58.10875 
L 752.534126 58.10875 
L 752.534126 64.100937 
L 754.195064 64.100937 
L 754.195064 65.399375 
L 749.096626 65.399375 
L 749.096626 64.100937 
z
"/>
   </g>
   <g id="text_13">
    <path d="M 513.420611 174.980937 
L 515.081548 174.980937 
L 515.081548 170.268437 
L 513.376861 170.62 
L 513.376861 169.340312 
L 515.070611 168.98875 
L 516.858111 168.98875 
L 516.858111 174.980937 
L 518.519048 174.980937 
L 518.519048 176.279375 
L 513.420611 176.279375 
L 513.420611 174.980937 
z
M 523.806744 172.62625 
Q 523.806744 171.259062 523.550494 170.70125 
Q 523.294244 170.141875 522.687994 170.141875 
Q 522.083306 170.141875 521.823931 170.70125 
Q 521.564556 171.259062 521.564556 172.62625 
Q 521.564556 174.009062 521.823931 174.57625 
Q 522.083306 175.141875 522.687994 175.141875 
Q 523.289556 175.141875 523.547369 174.57625 
Q 523.806744 174.009062 523.806744 172.62625 
z
M 525.686431 172.641875 
Q 525.686431 174.452812 524.905181 175.437187 
Q 524.123931 176.421562 522.687994 176.421562 
Q 521.247369 176.421562 520.466119 175.437187 
Q 519.684869 174.452812 519.684869 172.641875 
Q 519.684869 170.824687 520.466119 169.841875 
Q 521.247369 168.8575 522.687994 168.8575 
Q 524.123931 168.8575 524.905181 169.841875 
Q 525.686431 170.824687 525.686431 172.641875 
z
M 527.336626 174.980937 
L 528.997564 174.980937 
L 528.997564 170.268437 
L 527.292876 170.62 
L 527.292876 169.340312 
L 528.986626 168.98875 
L 530.774126 168.98875 
L 530.774126 174.980937 
L 532.435064 174.980937 
L 532.435064 176.279375 
L 527.336626 176.279375 
L 527.336626 174.980937 
z
" style="stroke: #ffffff; stroke-width: 3"/>
    <path d="M 513.420611 174.980937 
L 515.081548 174.980937 
L 515.081548 170.268437 
L 513.376861 170.62 
L 513.376861 169.340312 
L 515.070611 168.98875 
L 516.858111 168.98875 
L 516.858111 174.980937 
L 518.519048 174.980937 
L 518.519048 176.279375 
L 513.420611 176.279375 
L 513.420611 174.980937 
z
M 523.806744 172.62625 
Q 523.806744 171.259062 523.550494 170.70125 
Q 523.294244 170.141875 522.687994 170.141875 
Q 522.083306 170.141875 521.823931 170.70125 
Q 521.564556 171.259062 521.564556 172.62625 
Q 521.564556 174.009062 521.823931 174.57625 
Q 522.083306 175.141875 522.687994 175.141875 
Q 523.289556 175.141875 523.547369 174.57625 
Q 523.806744 174.009062 523.806744 172.62625 
z
M 525.686431 172.641875 
Q 525.686431 174.452812 524.905181 175.437187 
Q 524.123931 176.421562 522.687994 176.421562 
Q 521.247369 176.421562 520.466119 175.437187 
Q 519.684869 174.452812 519.684869 172.641875 
Q 519.684869 170.824687 520.466119 169.841875 
Q 521.247369 168.8575 522.687994 168.8575 
Q 524.123931 168.8575 524.905181 169.841875 
Q 525.686431 170.824687 525.686431 172.641875 
z
M 527.336626 174.980937 
L 528.997564 174.980937 
L 528.997564 170.268437 
L 527.292876 170.62 
L 527.292876 169.340312 
L 528.986626 168.98875 
L 530.774126 168.98875 
L 530.774126 174.980937 
L 532.435064 174.980937 
L 532.435064 176.279375 
L 527.336626 176.279375 
L 527.336626 174.980937 
z
"/>
   </g>
   <g id="text_14">
    <path d="M 624.300611 174.980937 
L 625.961548 174.980937 
L 625.961548 170.268437 
L 624.256861 170.62 
L 624.256861 169.340312 
L 625.950611 168.98875 
L 627.738111 168.98875 
L 627.738111 174.980937 
L 629.399048 174.980937 
L 629.399048 176.279375 
L 624.300611 176.279375 
L 624.300611 174.980937 
z
M 634.686744 172.62625 
Q 634.686744 171.259062 634.430494 170.70125 
Q 634.174244 170.141875 633.567994 170.141875 
Q 632.963306 170.141875 632.703931 170.70125 
Q 632.444556 171.259062 632.444556 172.62625 
Q 632.444556 174.009062 632.703931 174.57625 
Q 632.963306 175.141875 633.567994 175.141875 
Q 634.169556 175.141875 634.427369 174.57625 
Q 634.686744 174.009062 634.686744 172.62625 
z
M 636.566431 172.641875 
Q 636.566431 174.452812 635.785181 175.437187 
Q 635.003931 176.421562 633.567994 176.421562 
Q 632.127369 176.421562 631.346119 175.437187 
Q 630.564869 174.452812 630.564869 172.641875 
Q 630.564869 170.824687 631.346119 169.841875 
Q 632.127369 168.8575 633.567994 168.8575 
Q 635.003931 168.8575 635.785181 169.841875 
Q 636.566431 170.824687 636.566431 172.641875 
z
M 639.926001 174.898125 
L 643.133814 174.898125 
L 643.133814 176.279375 
L 637.835376 176.279375 
L 637.835376 174.898125 
L 640.496314 172.548125 
Q 640.854126 172.22625 641.024439 171.918437 
Q 641.194751 171.610625 641.194751 171.279375 
Q 641.194751 170.766875 640.851001 170.454375 
Q 640.507251 170.141875 639.935376 170.141875 
Q 639.496314 170.141875 638.972876 170.329375 
Q 638.451001 170.516875 637.855689 170.88875 
L 637.855689 169.287187 
Q 638.490064 169.077812 639.110376 168.968437 
Q 639.730689 168.8575 640.326001 168.8575 
Q 641.635376 168.8575 642.360376 169.434062 
Q 643.085376 170.009062 643.085376 171.040312 
Q 643.085376 171.635625 642.777564 172.15125 
Q 642.469751 172.665312 641.483814 173.530937 
L 639.926001 174.898125 
z
" style="stroke: #ffffff; stroke-width: 3"/>
    <path d="M 624.300611 174.980937 
L 625.961548 174.980937 
L 625.961548 170.268437 
L 624.256861 170.62 
L 624.256861 169.340312 
L 625.950611 168.98875 
L 627.738111 168.98875 
L 627.738111 174.980937 
L 629.399048 174.980937 
L 629.399048 176.279375 
L 624.300611 176.279375 
L 624.300611 174.980937 
z
M 634.686744 172.62625 
Q 634.686744 171.259062 634.430494 170.70125 
Q 634.174244 170.141875 633.567994 170.141875 
Q 632.963306 170.141875 632.703931 170.70125 
Q 632.444556 171.259062 632.444556 172.62625 
Q 632.444556 174.009062 632.703931 174.57625 
Q 632.963306 175.141875 633.567994 175.141875 
Q 634.169556 175.141875 634.427369 174.57625 
Q 634.686744 174.009062 634.686744 172.62625 
z
M 636.566431 172.641875 
Q 636.566431 174.452812 635.785181 175.437187 
Q 635.003931 176.421562 633.567994 176.421562 
Q 632.127369 176.421562 631.346119 175.437187 
Q 630.564869 174.452812 630.564869 172.641875 
Q 630.564869 170.824687 631.346119 169.841875 
Q 632.127369 168.8575 633.567994 168.8575 
Q 635.003931 168.8575 635.785181 169.841875 
Q 636.566431 170.824687 636.566431 172.641875 
z
M 639.926001 174.898125 
L 643.133814 174.898125 
L 643.133814 176.279375 
L 637.835376 176.279375 
L 637.835376 174.898125 
L 640.496314 172.548125 
Q 640.854126 172.22625 641.024439 171.918437 
Q 641.194751 171.610625 641.194751 171.279375 
Q 641.194751 170.766875 640.851001 170.454375 
Q 640.507251 170.141875 639.935376 170.141875 
Q 639.496314 170.141875 638.972876 170.329375 
Q 638.451001 170.516875 637.855689 170.88875 
L 637.855689 169.287187 
Q 638.490064 169.077812 639.110376 168.968437 
Q 639.730689 168.8575 640.326001 168.8575 
Q 641.635376 168.8575 642.360376 169.434062 
Q 643.085376 170.009062 643.085376 171.040312 
Q 643.085376 171.635625 642.777564 172.15125 
Q 642.469751 172.665312 641.483814 173.530937 
L 639.926001 174.898125 
z
"/>
   </g>
   <g id="text_15">
    <path d="M 724.455611 168.98875 
L 726.554048 168.98875 
L 729.205611 173.98875 
L 729.205611 168.98875 
L 730.988423 168.98875 
L 730.988423 176.279375 
L 728.888423 176.279375 
L 726.236861 171.279375 
L 726.236861 176.279375 
L 724.455611 176.279375 
L 724.455611 168.98875 
z
M 735.348189 171.929375 
Q 734.766939 171.929375 734.462251 172.346562 
Q 734.157564 172.76375 734.157564 173.549687 
Q 734.157564 174.335625 734.462251 174.754375 
Q 734.766939 175.171562 735.348189 175.171562 
Q 735.920064 175.171562 736.221626 174.754375 
Q 736.524751 174.335625 736.524751 173.549687 
Q 736.524751 172.76375 736.221626 172.346562 
Q 735.920064 171.929375 735.348189 171.929375 
z
M 735.348189 170.679375 
Q 736.759126 170.679375 737.552876 171.441875 
Q 738.346626 172.202812 738.346626 173.549687 
Q 738.346626 174.898125 737.552876 175.660625 
Q 736.759126 176.421562 735.348189 176.421562 
Q 733.932564 176.421562 733.134126 175.660625 
Q 732.335689 174.898125 732.335689 173.549687 
Q 732.335689 172.202812 733.134126 171.441875 
Q 733.932564 170.679375 735.348189 170.679375 
z
M 741.574556 170.410625 
L 741.574556 174.859062 
L 742.247994 174.859062 
Q 743.399556 174.859062 744.007369 174.287187 
Q 744.616744 173.715312 744.616744 172.62625 
Q 744.616744 171.543437 744.010494 170.977812 
Q 743.405806 170.410625 742.247994 170.410625 
L 741.574556 170.410625 
z
M 739.694869 168.98875 
L 741.676119 168.98875 
Q 743.337056 168.98875 744.149556 169.22625 
Q 744.962056 169.462187 745.543306 170.029375 
Q 746.055806 170.523125 746.304244 171.168437 
Q 746.554244 171.812187 746.554244 172.62625 
Q 746.554244 173.452812 746.304244 174.099687 
Q 746.055806 174.746562 745.543306 175.23875 
Q 744.957369 175.805937 744.137056 176.043437 
Q 743.316744 176.279375 741.676119 176.279375 
L 739.694869 176.279375 
L 739.694869 168.98875 
z
M 750.367525 173.818437 
Q 749.82065 173.818437 749.544087 174.004375 
Q 749.269087 174.18875 749.269087 174.55125 
Q 749.269087 174.8825 749.490962 175.071562 
Q 749.7144 175.259062 750.109712 175.259062 
Q 750.6019 175.259062 750.9394 174.905937 
Q 751.2769 174.55125 751.2769 174.018437 
L 751.2769 173.818437 
L 750.367525 173.818437 
z
M 753.0394 173.159062 
L 753.0394 176.279375 
L 751.2769 176.279375 
L 751.2769 175.468437 
Q 750.925337 175.966875 750.484712 176.195 
Q 750.04565 176.421562 749.415962 176.421562 
Q 748.565962 176.421562 748.036275 175.92625 
Q 747.506587 175.429375 747.506587 174.63875 
Q 747.506587 173.67625 748.167525 173.227812 
Q 748.830025 172.777812 750.24565 172.777812 
L 751.2769 172.777812 
L 751.2769 172.641875 
Q 751.2769 172.22625 750.948775 172.034062 
Q 750.622212 171.840312 749.928462 171.840312 
Q 749.367525 171.840312 748.88315 171.952812 
Q 748.400337 172.065312 747.984712 172.290312 
L 747.984712 170.9575 
Q 748.547212 170.82 749.112837 170.749687 
Q 749.680025 170.679375 750.24565 170.679375 
Q 751.725337 170.679375 752.381587 171.262187 
Q 753.0394 171.845 753.0394 173.159062 
z
M 756.573384 169.2575 
L 756.573384 170.810625 
L 758.376509 170.810625 
L 758.376509 172.060625 
L 756.573384 172.060625 
L 756.573384 174.379375 
Q 756.573384 174.760625 756.724947 174.895 
Q 756.876509 175.029375 757.326509 175.029375 
L 758.224947 175.029375 
L 758.224947 176.279375 
L 756.724947 176.279375 
Q 755.690572 176.279375 755.257759 175.848125 
Q 754.826509 175.415312 754.826509 174.379375 
L 754.826509 172.060625 
L 753.956197 172.060625 
L 753.956197 170.810625 
L 754.826509 170.810625 
L 754.826509 169.2575 
L 756.573384 169.2575 
z
M 761.895845 173.818437 
Q 761.34897 173.818437 761.072408 174.004375 
Q 760.797408 174.18875 760.797408 174.55125 
Q 760.797408 174.8825 761.019283 175.071562 
Q 761.24272 175.259062 761.638033 175.259062 
Q 762.13022 175.259062 762.46772 174.905937 
Q 762.80522 174.55125 762.80522 174.018437 
L 762.80522 173.818437 
L 761.895845 173.818437 
z
M 764.56772 173.159062 
L 764.56772 176.279375 
L 762.80522 176.279375 
L 762.80522 175.468437 
Q 762.453658 175.966875 762.013033 176.195 
Q 761.57397 176.421562 760.944283 176.421562 
Q 760.094283 176.421562 759.564595 175.92625 
Q 759.034908 175.429375 759.034908 174.63875 
Q 759.034908 173.67625 759.695845 173.227812 
Q 760.358345 172.777812 761.77397 172.777812 
L 762.80522 172.777812 
L 762.80522 172.641875 
Q 762.80522 172.22625 762.477095 172.034062 
Q 762.150533 171.840312 761.456783 171.840312 
Q 760.895845 171.840312 760.41147 171.952812 
Q 759.928658 172.065312 759.513033 172.290312 
L 759.513033 170.9575 
Q 760.075533 170.82 760.641158 170.749687 
Q 761.208345 170.679375 761.77397 170.679375 
Q 763.253658 170.679375 763.909908 171.262187 
Q 764.56772 171.845 764.56772 173.159062 
z
" style="stroke: #ffffff; stroke-width: 3"/>
    <path d="M 724.455611 168.98875 
L 726.554048 168.98875 
L 729.205611 173.98875 
L 729.205611 168.98875 
L 730.988423 168.98875 
L 730.988423 176.279375 
L 728.888423 176.279375 
L 726.236861 171.279375 
L 726.236861 176.279375 
L 724.455611 176.279375 
L 724.455611 168.98875 
z
M 735.348189 171.929375 
Q 734.766939 171.929375 734.462251 172.346562 
Q 734.157564 172.76375 734.157564 173.549687 
Q 734.157564 174.335625 734.462251 174.754375 
Q 734.766939 175.171562 735.348189 175.171562 
Q 735.920064 175.171562 736.221626 174.754375 
Q 736.524751 174.335625 736.524751 173.549687 
Q 736.524751 172.76375 736.221626 172.346562 
Q 735.920064 171.929375 735.348189 171.929375 
z
M 735.348189 170.679375 
Q 736.759126 170.679375 737.552876 171.441875 
Q 738.346626 172.202812 738.346626 173.549687 
Q 738.346626 174.898125 737.552876 175.660625 
Q 736.759126 176.421562 735.348189 176.421562 
Q 733.932564 176.421562 733.134126 175.660625 
Q 732.335689 174.898125 732.335689 173.549687 
Q 732.335689 172.202812 733.134126 171.441875 
Q 733.932564 170.679375 735.348189 170.679375 
z
M 741.574556 170.410625 
L 741.574556 174.859062 
L 742.247994 174.859062 
Q 743.399556 174.859062 744.007369 174.287187 
Q 744.616744 173.715312 744.616744 172.62625 
Q 744.616744 171.543437 744.010494 170.977812 
Q 743.405806 170.410625 742.247994 170.410625 
L 741.574556 170.410625 
z
M 739.694869 168.98875 
L 741.676119 168.98875 
Q 743.337056 168.98875 744.149556 169.22625 
Q 744.962056 169.462187 745.543306 170.029375 
Q 746.055806 170.523125 746.304244 171.168437 
Q 746.554244 171.812187 746.554244 172.62625 
Q 746.554244 173.452812 746.304244 174.099687 
Q 746.055806 174.746562 745.543306 175.23875 
Q 744.957369 175.805937 744.137056 176.043437 
Q 743.316744 176.279375 741.676119 176.279375 
L 739.694869 176.279375 
L 739.694869 168.98875 
z
M 750.367525 173.818437 
Q 749.82065 173.818437 749.544087 174.004375 
Q 749.269087 174.18875 749.269087 174.55125 
Q 749.269087 174.8825 749.490962 175.071562 
Q 749.7144 175.259062 750.109712 175.259062 
Q 750.6019 175.259062 750.9394 174.905937 
Q 751.2769 174.55125 751.2769 174.018437 
L 751.2769 173.818437 
L 750.367525 173.818437 
z
M 753.0394 173.159062 
L 753.0394 176.279375 
L 751.2769 176.279375 
L 751.2769 175.468437 
Q 750.925337 175.966875 750.484712 176.195 
Q 750.04565 176.421562 749.415962 176.421562 
Q 748.565962 176.421562 748.036275 175.92625 
Q 747.506587 175.429375 747.506587 174.63875 
Q 747.506587 173.67625 748.167525 173.227812 
Q 748.830025 172.777812 750.24565 172.777812 
L 751.2769 172.777812 
L 751.2769 172.641875 
Q 751.2769 172.22625 750.948775 172.034062 
Q 750.622212 171.840312 749.928462 171.840312 
Q 749.367525 171.840312 748.88315 171.952812 
Q 748.400337 172.065312 747.984712 172.290312 
L 747.984712 170.9575 
Q 748.547212 170.82 749.112837 170.749687 
Q 749.680025 170.679375 750.24565 170.679375 
Q 751.725337 170.679375 752.381587 171.262187 
Q 753.0394 171.845 753.0394 173.159062 
z
M 756.573384 169.2575 
L 756.573384 170.810625 
L 758.376509 170.810625 
L 758.376509 172.060625 
L 756.573384 172.060625 
L 756.573384 174.379375 
Q 756.573384 174.760625 756.724947 174.895 
Q 756.876509 175.029375 757.326509 175.029375 
L 758.224947 175.029375 
L 758.224947 176.279375 
L 756.724947 176.279375 
Q 755.690572 176.279375 755.257759 175.848125 
Q 754.826509 175.415312 754.826509 174.379375 
L 754.826509 172.060625 
L 753.956197 172.060625 
L 753.956197 170.810625 
L 754.826509 170.810625 
L 754.826509 169.2575 
L 756.573384 169.2575 
z
M 761.895845 173.818437 
Q 761.34897 173.818437 761.072408 174.004375 
Q 760.797408 174.18875 760.797408 174.55125 
Q 760.797408 174.8825 761.019283 175.071562 
Q 761.24272 175.259062 761.638033 175.259062 
Q 762.13022 175.259062 762.46772 174.905937 
Q 762.80522 174.55125 762.80522 174.018437 
L 762.80522 173.818437 
L 761.895845 173.818437 
z
M 764.56772 173.159062 
L 764.56772 176.279375 
L 762.80522 176.279375 
L 762.80522 175.468437 
Q 762.453658 175.966875 762.013033 176.195 
Q 761.57397 176.421562 760.944283 176.421562 
Q 760.094283 176.421562 759.564595 175.92625 
Q 759.034908 175.429375 759.034908 174.63875 
Q 759.034908 173.67625 759.695845 173.227812 
Q 760.358345 172.777812 761.77397 172.777812 
L 762.80522 172.777812 
L 762.80522 172.641875 
Q 762.80522 172.22625 762.477095 172.034062 
Q 762.150533 171.840312 761.456783 171.840312 
Q 760.895845 171.840312 760.41147 171.952812 
Q 759.928658 172.065312 759.513033 172.290312 
L 759.513033 170.9575 
Q 760.075533 170.82 760.641158 170.749687 
Q 761.208345 170.679375 761.77397 170.679375 
Q 763.253658 170.679375 763.909908 171.262187 
Q 764.56772 171.845 764.56772 173.159062 
z
"/>
   </g>
   <g id="text_16">
    <path d="M 502.695611 279.86875 
L 504.794048 279.86875 
L 507.445611 284.86875 
L 507.445611 279.86875 
L 509.228423 279.86875 
L 509.228423 287.159375 
L 507.128423 287.159375 
L 504.476861 282.159375 
L 504.476861 287.159375 
L 502.695611 287.159375 
L 502.695611 279.86875 
z
M 513.588189 282.809375 
Q 513.006939 282.809375 512.702251 283.226562 
Q 512.397564 283.64375 512.397564 284.429687 
Q 512.397564 285.215625 512.702251 285.634375 
Q 513.006939 286.051562 513.588189 286.051562 
Q 514.160064 286.051562 514.461626 285.634375 
Q 514.764751 285.215625 514.764751 284.429687 
Q 514.764751 283.64375 514.461626 283.226562 
Q 514.160064 282.809375 513.588189 282.809375 
z
M 513.588189 281.559375 
Q 514.999126 281.559375 515.792876 282.321875 
Q 516.586626 283.082812 516.586626 284.429687 
Q 516.586626 285.778125 515.792876 286.540625 
Q 514.999126 287.301562 513.588189 287.301562 
Q 512.172564 287.301562 511.374126 286.540625 
Q 510.575689 285.778125 510.575689 284.429687 
Q 510.575689 283.082812 511.374126 282.321875 
Q 512.172564 281.559375 513.588189 281.559375 
z
M 519.814556 281.290625 
L 519.814556 285.739062 
L 520.487994 285.739062 
Q 521.639556 285.739062 522.247369 285.167187 
Q 522.856744 284.595312 522.856744 283.50625 
Q 522.856744 282.423437 522.250494 281.857812 
Q 521.645806 281.290625 520.487994 281.290625 
L 519.814556 281.290625 
z
M 517.934869 279.86875 
L 519.916119 279.86875 
Q 521.577056 279.86875 522.389556 280.10625 
Q 523.202056 280.342187 523.783306 280.909375 
Q 524.295806 281.403125 524.544244 282.048437 
Q 524.794244 282.692187 524.794244 283.50625 
Q 524.794244 284.332812 524.544244 284.979687 
Q 524.295806 285.626562 523.783306 286.11875 
Q 523.197369 286.685937 522.377056 286.923437 
Q 521.556744 287.159375 519.916119 287.159375 
L 517.934869 287.159375 
L 517.934869 279.86875 
z
M 528.607525 284.698437 
Q 528.06065 284.698437 527.784087 284.884375 
Q 527.509087 285.06875 527.509087 285.43125 
Q 527.509087 285.7625 527.730962 285.951562 
Q 527.9544 286.139062 528.349712 286.139062 
Q 528.8419 286.139062 529.1794 285.785937 
Q 529.5169 285.43125 529.5169 284.898437 
L 529.5169 284.698437 
L 528.607525 284.698437 
z
M 531.2794 284.039062 
L 531.2794 287.159375 
L 529.5169 287.159375 
L 529.5169 286.348437 
Q 529.165337 286.846875 528.724712 287.075 
Q 528.28565 287.301562 527.655962 287.301562 
Q 526.805962 287.301562 526.276275 286.80625 
Q 525.746587 286.309375 525.746587 285.51875 
Q 525.746587 284.55625 526.407525 284.107812 
Q 527.070025 283.657812 528.48565 283.657812 
L 529.5169 283.657812 
L 529.5169 283.521875 
Q 529.5169 283.10625 529.188775 282.914062 
Q 528.862212 282.720312 528.168462 282.720312 
Q 527.607525 282.720312 527.12315 282.832812 
Q 526.640337 282.945312 526.224712 283.170312 
L 526.224712 281.8375 
Q 526.787212 281.7 527.352837 281.629687 
Q 527.920025 281.559375 528.48565 281.559375 
Q 529.965337 281.559375 530.621587 282.142187 
Q 531.2794 282.725 531.2794 284.039062 
z
M 534.813384 280.1375 
L 534.813384 281.690625 
L 536.616509 281.690625 
L 536.616509 282.940625 
L 534.813384 282.940625 
L 534.813384 285.259375 
Q 534.813384 285.640625 534.964947 285.775 
Q 535.116509 285.909375 535.566509 285.909375 
L 536.464947 285.909375 
L 536.464947 287.159375 
L 534.964947 287.159375 
Q 533.930572 287.159375 533.497759 286.728125 
Q 533.066509 286.295312 533.066509 285.259375 
L 533.066509 282.940625 
L 532.196197 282.940625 
L 532.196197 281.690625 
L 533.066509 281.690625 
L 533.066509 280.1375 
L 534.813384 280.1375 
z
M 540.135845 284.698437 
Q 539.58897 284.698437 539.312408 284.884375 
Q 539.037408 285.06875 539.037408 285.43125 
Q 539.037408 285.7625 539.259283 285.951562 
Q 539.48272 286.139062 539.878033 286.139062 
Q 540.37022 286.139062 540.70772 285.785937 
Q 541.04522 285.43125 541.04522 284.898437 
L 541.04522 284.698437 
L 540.135845 284.698437 
z
M 542.80772 284.039062 
L 542.80772 287.159375 
L 541.04522 287.159375 
L 541.04522 286.348437 
Q 540.693658 286.846875 540.253033 287.075 
Q 539.81397 287.301562 539.184283 287.301562 
Q 538.334283 287.301562 537.804595 286.80625 
Q 537.274908 286.309375 537.274908 285.51875 
Q 537.274908 284.55625 537.935845 284.107812 
Q 538.598345 283.657812 540.01397 283.657812 
L 541.04522 283.657812 
L 541.04522 283.521875 
Q 541.04522 283.10625 540.717095 282.914062 
Q 540.390533 282.720312 539.696783 282.720312 
Q 539.135845 282.720312 538.65147 282.832812 
Q 538.168658 282.945312 537.753033 283.170312 
L 537.753033 281.8375 
Q 538.315533 281.7 538.881158 281.629687 
Q 539.448345 281.559375 540.01397 281.559375 
Q 541.493658 281.559375 542.149908 282.142187 
Q 542.80772 282.725 542.80772 284.039062 
z
" style="stroke: #ffffff; stroke-width: 3"/>
    <path d="M 502.695611 279.86875 
L 504.794048 279.86875 
L 507.445611 284.86875 
L 507.445611 279.86875 
L 509.228423 279.86875 
L 509.228423 287.159375 
L 507.128423 287.159375 
L 504.476861 282.159375 
L 504.476861 287.159375 
L 502.695611 287.159375 
L 502.695611 279.86875 
z
M 513.588189 282.809375 
Q 513.006939 282.809375 512.702251 283.226562 
Q 512.397564 283.64375 512.397564 284.429687 
Q 512.397564 285.215625 512.702251 285.634375 
Q 513.006939 286.051562 513.588189 286.051562 
Q 514.160064 286.051562 514.461626 285.634375 
Q 514.764751 285.215625 514.764751 284.429687 
Q 514.764751 283.64375 514.461626 283.226562 
Q 514.160064 282.809375 513.588189 282.809375 
z
M 513.588189 281.559375 
Q 514.999126 281.559375 515.792876 282.321875 
Q 516.586626 283.082812 516.586626 284.429687 
Q 516.586626 285.778125 515.792876 286.540625 
Q 514.999126 287.301562 513.588189 287.301562 
Q 512.172564 287.301562 511.374126 286.540625 
Q 510.575689 285.778125 510.575689 284.429687 
Q 510.575689 283.082812 511.374126 282.321875 
Q 512.172564 281.559375 513.588189 281.559375 
z
M 519.814556 281.290625 
L 519.814556 285.739062 
L 520.487994 285.739062 
Q 521.639556 285.739062 522.247369 285.167187 
Q 522.856744 284.595312 522.856744 283.50625 
Q 522.856744 282.423437 522.250494 281.857812 
Q 521.645806 281.290625 520.487994 281.290625 
L 519.814556 281.290625 
z
M 517.934869 279.86875 
L 519.916119 279.86875 
Q 521.577056 279.86875 522.389556 280.10625 
Q 523.202056 280.342187 523.783306 280.909375 
Q 524.295806 281.403125 524.544244 282.048437 
Q 524.794244 282.692187 524.794244 283.50625 
Q 524.794244 284.332812 524.544244 284.979687 
Q 524.295806 285.626562 523.783306 286.11875 
Q 523.197369 286.685937 522.377056 286.923437 
Q 521.556744 287.159375 519.916119 287.159375 
L 517.934869 287.159375 
L 517.934869 279.86875 
z
M 528.607525 284.698437 
Q 528.06065 284.698437 527.784087 284.884375 
Q 527.509087 285.06875 527.509087 285.43125 
Q 527.509087 285.7625 527.730962 285.951562 
Q 527.9544 286.139062 528.349712 286.139062 
Q 528.8419 286.139062 529.1794 285.785937 
Q 529.5169 285.43125 529.5169 284.898437 
L 529.5169 284.698437 
L 528.607525 284.698437 
z
M 531.2794 284.039062 
L 531.2794 287.159375 
L 529.5169 287.159375 
L 529.5169 286.348437 
Q 529.165337 286.846875 528.724712 287.075 
Q 528.28565 287.301562 527.655962 287.301562 
Q 526.805962 287.301562 526.276275 286.80625 
Q 525.746587 286.309375 525.746587 285.51875 
Q 525.746587 284.55625 526.407525 284.107812 
Q 527.070025 283.657812 528.48565 283.657812 
L 529.5169 283.657812 
L 529.5169 283.521875 
Q 529.5169 283.10625 529.188775 282.914062 
Q 528.862212 282.720312 528.168462 282.720312 
Q 527.607525 282.720312 527.12315 282.832812 
Q 526.640337 282.945312 526.224712 283.170312 
L 526.224712 281.8375 
Q 526.787212 281.7 527.352837 281.629687 
Q 527.920025 281.559375 528.48565 281.559375 
Q 529.965337 281.559375 530.621587 282.142187 
Q 531.2794 282.725 531.2794 284.039062 
z
M 534.813384 280.1375 
L 534.813384 281.690625 
L 536.616509 281.690625 
L 536.616509 282.940625 
L 534.813384 282.940625 
L 534.813384 285.259375 
Q 534.813384 285.640625 534.964947 285.775 
Q 535.116509 285.909375 535.566509 285.909375 
L 536.464947 285.909375 
L 536.464947 287.159375 
L 534.964947 287.159375 
Q 533.930572 287.159375 533.497759 286.728125 
Q 533.066509 286.295312 533.066509 285.259375 
L 533.066509 282.940625 
L 532.196197 282.940625 
L 532.196197 281.690625 
L 533.066509 281.690625 
L 533.066509 280.1375 
L 534.813384 280.1375 
z
M 540.135845 284.698437 
Q 539.58897 284.698437 539.312408 284.884375 
Q 539.037408 285.06875 539.037408 285.43125 
Q 539.037408 285.7625 539.259283 285.951562 
Q 539.48272 286.139062 539.878033 286.139062 
Q 540.37022 286.139062 540.70772 285.785937 
Q 541.04522 285.43125 541.04522 284.898437 
L 541.04522 284.698437 
L 540.135845 284.698437 
z
M 542.80772 284.039062 
L 542.80772 287.159375 
L 541.04522 287.159375 
L 541.04522 286.348437 
Q 540.693658 286.846875 540.253033 287.075 
Q 539.81397 287.301562 539.184283 287.301562 
Q 538.334283 287.301562 537.804595 286.80625 
Q 537.274908 286.309375 537.274908 285.51875 
Q 537.274908 284.55625 537.935845 284.107812 
Q 538.598345 283.657812 540.01397 283.657812 
L 541.04522 283.657812 
L 541.04522 283.521875 
Q 541.04522 283.10625 540.717095 282.914062 
Q 540.390533 282.720312 539.696783 282.720312 
Q 539.135845 282.720312 538.65147 282.832812 
Q 538.168658 282.945312 537.753033 283.170312 
L 537.753033 281.8375 
Q 538.315533 281.7 538.881158 281.629687 
Q 539.448345 281.559375 540.01397 281.559375 
Q 541.493658 281.559375 542.149908 282.142187 
Q 542.80772 282.725 542.80772 284.039062 
z
"/>
   </g>
   <g id="text_17">
    <path d="M 624.300611 285.860937 
L 625.961548 285.860937 
L 625.961548 281.148437 
L 624.256861 281.5 
L 624.256861 280.220312 
L 625.950611 279.86875 
L 627.738111 279.86875 
L 627.738111 285.860937 
L 629.399048 285.860937 
L 629.399048 287.159375 
L 624.300611 287.159375 
L 624.300611 285.860937 
z
M 634.686744 283.50625 
Q 634.686744 282.139062 634.430494 281.58125 
Q 634.174244 281.021875 633.567994 281.021875 
Q 632.963306 281.021875 632.703931 281.58125 
Q 632.444556 282.139062 632.444556 283.50625 
Q 632.444556 284.889062 632.703931 285.45625 
Q 632.963306 286.021875 633.567994 286.021875 
Q 634.169556 286.021875 634.427369 285.45625 
Q 634.686744 284.889062 634.686744 283.50625 
z
M 636.566431 283.521875 
Q 636.566431 285.332812 635.785181 286.317187 
Q 635.003931 287.301562 633.567994 287.301562 
Q 632.127369 287.301562 631.346119 286.317187 
Q 630.564869 285.332812 630.564869 283.521875 
Q 630.564869 281.704687 631.346119 280.721875 
Q 632.127369 279.7375 633.567994 279.7375 
Q 635.003931 279.7375 635.785181 280.721875 
Q 636.566431 281.704687 636.566431 283.521875 
z
M 639.926001 285.778125 
L 643.133814 285.778125 
L 643.133814 287.159375 
L 637.835376 287.159375 
L 637.835376 285.778125 
L 640.496314 283.428125 
Q 640.854126 283.10625 641.024439 282.798437 
Q 641.194751 282.490625 641.194751 282.159375 
Q 641.194751 281.646875 640.851001 281.334375 
Q 640.507251 281.021875 639.935376 281.021875 
Q 639.496314 281.021875 638.972876 281.209375 
Q 638.451001 281.396875 637.855689 281.76875 
L 637.855689 280.167187 
Q 638.490064 279.957812 639.110376 279.848437 
Q 639.730689 279.7375 640.326001 279.7375 
Q 641.635376 279.7375 642.360376 280.314062 
Q 643.085376 280.889062 643.085376 281.920312 
Q 643.085376 282.515625 642.777564 283.03125 
Q 642.469751 283.545312 641.483814 284.410937 
L 639.926001 285.778125 
z
" style="stroke: #ffffff; stroke-width: 3"/>
    <path d="M 624.300611 285.860937 
L 625.961548 285.860937 
L 625.961548 281.148437 
L 624.256861 281.5 
L 624.256861 280.220312 
L 625.950611 279.86875 
L 627.738111 279.86875 
L 627.738111 285.860937 
L 629.399048 285.860937 
L 629.399048 287.159375 
L 624.300611 287.159375 
L 624.300611 285.860937 
z
M 634.686744 283.50625 
Q 634.686744 282.139062 634.430494 281.58125 
Q 634.174244 281.021875 633.567994 281.021875 
Q 632.963306 281.021875 632.703931 281.58125 
Q 632.444556 282.139062 632.444556 283.50625 
Q 632.444556 284.889062 632.703931 285.45625 
Q 632.963306 286.021875 633.567994 286.021875 
Q 634.169556 286.021875 634.427369 285.45625 
Q 634.686744 284.889062 634.686744 283.50625 
z
M 636.566431 283.521875 
Q 636.566431 285.332812 635.785181 286.317187 
Q 635.003931 287.301562 633.567994 287.301562 
Q 632.127369 287.301562 631.346119 286.317187 
Q 630.564869 285.332812 630.564869 283.521875 
Q 630.564869 281.704687 631.346119 280.721875 
Q 632.127369 279.7375 633.567994 279.7375 
Q 635.003931 279.7375 635.785181 280.721875 
Q 636.566431 281.704687 636.566431 283.521875 
z
M 639.926001 285.778125 
L 643.133814 285.778125 
L 643.133814 287.159375 
L 637.835376 287.159375 
L 637.835376 285.778125 
L 640.496314 283.428125 
Q 640.854126 283.10625 641.024439 282.798437 
Q 641.194751 282.490625 641.194751 282.159375 
Q 641.194751 281.646875 640.851001 281.334375 
Q 640.507251 281.021875 639.935376 281.021875 
Q 639.496314 281.021875 638.972876 281.209375 
Q 638.451001 281.396875 637.855689 281.76875 
L 637.855689 280.167187 
Q 638.490064 279.957812 639.110376 279.848437 
Q 639.730689 279.7375 640.326001 279.7375 
Q 641.635376 279.7375 642.360376 280.314062 
Q 643.085376 280.889062 643.085376 281.920312 
Q 643.085376 282.515625 642.777564 283.03125 
Q 642.469751 283.545312 641.483814 284.410937 
L 639.926001 285.778125 
z
"/>
   </g>
   <g id="text_18">
    <path d="M 735.180611 285.860937 
L 736.841548 285.860937 
L 736.841548 281.148437 
L 735.136861 281.5 
L 735.136861 280.220312 
L 736.830611 279.86875 
L 738.618111 279.86875 
L 738.618111 285.860937 
L 740.279048 285.860937 
L 740.279048 287.159375 
L 735.180611 287.159375 
L 735.180611 285.860937 
z
M 745.566744 283.50625 
Q 745.566744 282.139062 745.310494 281.58125 
Q 745.054244 281.021875 744.447994 281.021875 
Q 743.843306 281.021875 743.583931 281.58125 
Q 743.324556 282.139062 743.324556 283.50625 
Q 743.324556 284.889062 743.583931 285.45625 
Q 743.843306 286.021875 744.447994 286.021875 
Q 745.049556 286.021875 745.307369 285.45625 
Q 745.566744 284.889062 745.566744 283.50625 
z
M 747.446431 283.521875 
Q 747.446431 285.332812 746.665181 286.317187 
Q 745.883931 287.301562 744.447994 287.301562 
Q 743.007369 287.301562 742.226119 286.317187 
Q 741.444869 285.332812 741.444869 283.521875 
Q 741.444869 281.704687 742.226119 280.721875 
Q 743.007369 279.7375 744.447994 279.7375 
Q 745.883931 279.7375 746.665181 280.721875 
Q 747.446431 281.704687 747.446431 283.521875 
z
M 752.582564 283.228125 
Q 753.320064 283.41875 753.702876 283.890625 
Q 754.087251 284.360937 754.087251 285.089062 
Q 754.087251 286.173437 753.256001 286.7375 
Q 752.426314 287.301562 750.835689 287.301562 
Q 750.273189 287.301562 749.709126 287.210937 
Q 749.145064 287.120312 748.593501 286.939062 
L 748.593501 285.489062 
Q 749.121626 285.753125 749.640376 285.8875 
Q 750.160689 286.021875 750.663814 286.021875 
Q 751.410689 286.021875 751.809126 285.764062 
Q 752.207564 285.504687 752.207564 285.020312 
Q 752.207564 284.521875 751.799751 284.265625 
Q 751.391939 284.009375 750.595064 284.009375 
L 749.843501 284.009375 
L 749.843501 282.798437 
L 750.634126 282.798437 
Q 751.343501 282.798437 751.688814 282.576562 
Q 752.035689 282.354687 752.035689 281.9 
Q 752.035689 281.48125 751.698189 281.251562 
Q 751.362251 281.021875 750.746626 281.021875 
Q 750.293501 281.021875 749.829439 281.125 
Q 749.365376 281.226562 748.906001 281.426562 
L 748.906001 280.05 
Q 749.462251 279.89375 750.009126 279.815625 
Q 750.556001 279.7375 751.084126 279.7375 
Q 752.504439 279.7375 753.209126 280.204687 
Q 753.915376 280.670312 753.915376 281.607812 
Q 753.915376 282.246875 753.577876 282.654687 
Q 753.241939 283.0625 752.582564 283.228125 
z
" style="stroke: #ffffff; stroke-width: 3"/>
    <path d="M 735.180611 285.860937 
L 736.841548 285.860937 
L 736.841548 281.148437 
L 735.136861 281.5 
L 735.136861 280.220312 
L 736.830611 279.86875 
L 738.618111 279.86875 
L 738.618111 285.860937 
L 740.279048 285.860937 
L 740.279048 287.159375 
L 735.180611 287.159375 
L 735.180611 285.860937 
z
M 745.566744 283.50625 
Q 745.566744 282.139062 745.310494 281.58125 
Q 745.054244 281.021875 744.447994 281.021875 
Q 743.843306 281.021875 743.583931 281.58125 
Q 743.324556 282.139062 743.324556 283.50625 
Q 743.324556 284.889062 743.583931 285.45625 
Q 743.843306 286.021875 744.447994 286.021875 
Q 745.049556 286.021875 745.307369 285.45625 
Q 745.566744 284.889062 745.566744 283.50625 
z
M 747.446431 283.521875 
Q 747.446431 285.332812 746.665181 286.317187 
Q 745.883931 287.301562 744.447994 287.301562 
Q 743.007369 287.301562 742.226119 286.317187 
Q 741.444869 285.332812 741.444869 283.521875 
Q 741.444869 281.704687 742.226119 280.721875 
Q 743.007369 279.7375 744.447994 279.7375 
Q 745.883931 279.7375 746.665181 280.721875 
Q 747.446431 281.704687 747.446431 283.521875 
z
M 752.582564 283.228125 
Q 753.320064 283.41875 753.702876 283.890625 
Q 754.087251 284.360937 754.087251 285.089062 
Q 754.087251 286.173437 753.256001 286.7375 
Q 752.426314 287.301562 750.835689 287.301562 
Q 750.273189 287.301562 749.709126 287.210937 
Q 749.145064 287.120312 748.593501 286.939062 
L 748.593501 285.489062 
Q 749.121626 285.753125 749.640376 285.8875 
Q 750.160689 286.021875 750.663814 286.021875 
Q 751.410689 286.021875 751.809126 285.764062 
Q 752.207564 285.504687 752.207564 285.020312 
Q 752.207564 284.521875 751.799751 284.265625 
Q 751.391939 284.009375 750.595064 284.009375 
L 749.843501 284.009375 
L 749.843501 282.798437 
L 750.634126 282.798437 
Q 751.343501 282.798437 751.688814 282.576562 
Q 752.035689 282.354687 752.035689 281.9 
Q 752.035689 281.48125 751.698189 281.251562 
Q 751.362251 281.021875 750.746626 281.021875 
Q 750.293501 281.021875 749.829439 281.125 
Q 749.365376 281.226562 748.906001 281.426562 
L 748.906001 280.05 
Q 749.462251 279.89375 750.009126 279.815625 
Q 750.556001 279.7375 751.084126 279.7375 
Q 752.504439 279.7375 753.209126 280.204687 
Q 753.915376 280.670312 753.915376 281.607812 
Q 753.915376 282.246875 753.577876 282.654687 
Q 753.241939 283.0625 752.582564 283.228125 
z
"/>
   </g>
  </g>
 </g>
 <defs>
  <clipPath id="p8f6a5d8ca8">
   <rect x="10.7" y="7.2" width="332.64" height="332.64"/>
  </clipPath>
  <clipPath id="p2417c40c73">
   <rect x="467.245455" y="7.2" width="332.64" height="332.64"/>
  </clipPath>
 </defs>
</svg>
