<?xml version="1.0" encoding="UTF-8" standalone="no"?>
<!DOCTYPE svg PUBLIC "-//W3C//DTD SVG 1.1//EN"
 "http://www.w3.org/Graphics/SVG/1.1/DTD/svg11.dtd">
<!-- Generated by graphviz version 14.1.2 (0)
 -->
<!-- Title: GDALG Workflow Pages: 1 -->
<svg width="543pt" height="146pt"
 viewBox="0.00 0.00 543.00 146.00" xmlns="http://www.w3.org/2000/svg" xmlns:xlink="http://www.w3.org/1999/xlink">
<g id="graph0" class="graph" transform="scale(1 1) rotate(0) translate(4 141.5)">
<title>GDALG Workflow</title>
<polygon fill="white" stroke="none" points="-4,4 -4,-141.5 539.25,-141.5 539.25,4 -4,4"/>
<!-- 0 -->
<g id="node1" class="node">
<title>0</title>
<polygon fill="#cfe2ff" stroke="none" points="0,-107.75 0,-137.5 50.75,-137.5 50.75,-107.75 0,-107.75"/>
<polygon fill="none" stroke="black" points="0,-107.75 0,-137.5 50.75,-137.5 50.75,-107.75 0,-107.75"/>
<text xml:space="preserve" text-anchor="start" x="11.12" y="-118.2" font-family="Helvetica,sans-Serif" font-weight="bold" font-size="14.00">read</text>
<polygon fill="none" stroke="black" points="0,-78 0,-107.75 50.75,-107.75 50.75,-78 0,-78"/>
<text xml:space="preserve" text-anchor="start" x="7" y="-87.45" font-family="Helvetica,sans-Serif" font-size="14.00">n43.tif</text>
</g>
<!-- 1 -->
<g id="node2" class="node">
<title>1</title>
<g id="a_node2"><a xlink:href="../programs/gdal_raster_color_map.html" xlink:title="../programs/gdal_raster_color_map.html" target="_blank">
<polygon fill="#cfe2ff" stroke="none" points="86.75,-107.75 86.75,-137.5 246.25,-137.5 246.25,-107.75 86.75,-107.75"/>
<polygon fill="none" stroke="black" points="86.75,-107.75 86.75,-137.5 246.25,-137.5 246.25,-107.75 86.75,-107.75"/>
<text xml:space="preserve" text-anchor="start" x="133.5" y="-118.2" font-family="Helvetica,sans-Serif" font-weight="bold" font-size="14.00">color&#45;map</text>
<polygon fill="none" stroke="black" points="86.75,-78 86.75,-107.75 246.25,-107.75 246.25,-78 86.75,-78"/>
<text xml:space="preserve" text-anchor="start" x="93.75" y="-87.45" font-family="Helvetica,sans-Serif" font-size="14.00">&#45;&#45;color&#45;map color_file.txt</text>
</a>
</g>
</g>
<!-- 0&#45;&gt;1 -->
<g id="edge1" class="edge">
<title>0&#45;&gt;1</title>
<path fill="none" stroke="black" d="M50.61,-107.75C57.97,-107.75 66.53,-107.75 75.6,-107.75"/>
<polygon fill="black" stroke="black" points="75.35,-111.25 85.35,-107.75 75.35,-104.25 75.35,-111.25"/>
</g>
<!-- 2 -->
<g id="node3" class="node">
<title>2</title>
<g id="a_node3"><a xlink:href="../programs/gdal_raster_blend.html" xlink:title="../programs/gdal_raster_blend.html" target="_blank">
<polygon fill="#cfe2ff" stroke="none" points="282.25,-83.62 282.25,-113.38 421.5,-113.38 421.5,-83.62 282.25,-83.62"/>
<polygon fill="none" stroke="black" points="282.25,-83.62 282.25,-113.38 421.5,-113.38 421.5,-83.62 282.25,-83.62"/>
<text xml:space="preserve" text-anchor="start" x="333.88" y="-94.08" font-family="Helvetica,sans-Serif" font-weight="bold" font-size="14.00">blend</text>
<polygon fill="none" stroke="black" points="282.25,-53.88 282.25,-83.62 421.5,-83.62 421.5,-53.88 282.25,-53.88"/>
<text xml:space="preserve" text-anchor="start" x="289.25" y="-63.33" font-family="Helvetica,sans-Serif" font-size="14.00">&#45;&#45;operator=hsv&#45;value</text>
<polygon fill="none" stroke="black" points="282.25,-24.12 282.25,-53.88 421.5,-53.88 421.5,-24.12 282.25,-24.12"/>
<text xml:space="preserve" text-anchor="start" x="289.25" y="-33.58" font-family="Helvetica,sans-Serif" font-size="14.00">&#45;&#45;overlay</text>
</a>
</g>
</g>
<!-- 1&#45;&gt;2 -->
<g id="edge2" class="edge">
<title>1&#45;&gt;2</title>
<path fill="none" stroke="black" d="M246.07,-91.04C254.35,-89.28 262.79,-87.48 271.09,-85.72"/>
<polygon fill="black" stroke="black" points="271.76,-89.15 280.82,-83.65 270.31,-82.31 271.76,-89.15"/>
</g>
<!-- 5 -->
<g id="node6" class="node">
<title>5</title>
<polygon fill="#cfe2ff" stroke="none" points="457.5,-83.62 457.5,-113.38 535.25,-113.38 535.25,-83.62 457.5,-83.62"/>
<polygon fill="none" stroke="black" points="457.5,-83.62 457.5,-113.38 535.25,-113.38 535.25,-83.62 457.5,-83.62"/>
<text xml:space="preserve" text-anchor="start" x="480.25" y="-94.08" font-family="Helvetica,sans-Serif" font-weight="bold" font-size="14.00">write</text>
<polygon fill="none" stroke="black" points="457.5,-53.88 457.5,-83.62 535.25,-83.62 535.25,-53.88 457.5,-53.88"/>
<text xml:space="preserve" text-anchor="start" x="464.5" y="-63.33" font-family="Helvetica,sans-Serif" font-size="14.00">out.tif</text>
<polygon fill="none" stroke="black" points="457.5,-24.12 457.5,-53.88 535.25,-53.88 535.25,-24.12 457.5,-24.12"/>
<text xml:space="preserve" text-anchor="start" x="464.5" y="-33.58" font-family="Helvetica,sans-Serif" font-size="14.00">&#45;&#45;overwrite</text>
</g>
<!-- 2&#45;&gt;5 -->
<g id="edge5" class="edge">
<title>2&#45;&gt;5</title>
<path fill="none" stroke="black" d="M421.2,-68.75C429.65,-68.75 438.15,-68.75 446.23,-68.75"/>
<polygon fill="black" stroke="black" points="446.2,-72.25 456.2,-68.75 446.2,-65.25 446.2,-72.25"/>
</g>
<!-- 3 -->
<g id="node4" class="node">
<title>3</title>
<polygon fill="#cfe2ff" stroke="none" points="0,-29.75 0,-59.5 50.75,-59.5 50.75,-29.75 0,-29.75"/>
<polygon fill="none" stroke="black" points="0,-29.75 0,-59.5 50.75,-59.5 50.75,-29.75 0,-29.75"/>
<text xml:space="preserve" text-anchor="start" x="11.12" y="-40.2" font-family="Helvetica,sans-Serif" font-weight="bold" font-size="14.00">read</text>
<polygon fill="none" stroke="black" points="0,0 0,-29.75 50.75,-29.75 50.75,0 0,0"/>
<text xml:space="preserve" text-anchor="start" x="7" y="-9.45" font-family="Helvetica,sans-Serif" font-size="14.00">n43.tif</text>
</g>
<!-- 4 -->
<g id="node5" class="node">
<title>4</title>
<g id="a_node5"><a xlink:href="../programs/gdal_raster_hillshade.html" xlink:title="../programs/gdal_raster_hillshade.html" target="_blank">
<polygon fill="#cfe2ff" stroke="none" points="130.25,-29.75 130.25,-59.5 202.75,-59.5 202.75,-29.75 130.25,-29.75"/>
<polygon fill="none" stroke="black" points="130.25,-29.75 130.25,-59.5 202.75,-59.5 202.75,-29.75 130.25,-29.75"/>
<text xml:space="preserve" text-anchor="start" x="137.25" y="-40.2" font-family="Helvetica,sans-Serif" font-weight="bold" font-size="14.00">hillshade</text>
<polygon fill="none" stroke="black" points="130.25,0 130.25,-29.75 202.75,-29.75 202.75,0 130.25,0"/>
<text xml:space="preserve" text-anchor="start" x="137.25" y="-9.45" font-family="Helvetica,sans-Serif" font-size="14.00">&#45;z 30</text>
</a>
</g>
</g>
<!-- 3&#45;&gt;4 -->
<g id="edge3" class="edge">
<title>3&#45;&gt;4</title>
<path fill="none" stroke="black" d="M50.61,-29.75C69.46,-29.75 96.17,-29.75 119.09,-29.75"/>
<polygon fill="black" stroke="black" points="118.82,-33.25 128.82,-29.75 118.82,-26.25 118.82,-33.25"/>
</g>
<!-- 4&#45;&gt;2 -->
<g id="edge4" class="edge">
<title>4&#45;&gt;2</title>
<path fill="none" stroke="black" d="M202.42,-37.18C221.98,-41.34 247.21,-46.7 271.31,-51.83"/>
<polygon fill="black" stroke="black" points="270.29,-55.19 280.8,-53.85 271.74,-48.34 270.29,-55.19"/>
</g>
</g>
</svg>
