<?xml version="1.0" encoding="UTF-8" standalone="no"?>
<!DOCTYPE svg PUBLIC "-//W3C//DTD SVG 1.1//EN"
 "http://www.w3.org/Graphics/SVG/1.1/DTD/svg11.dtd">
<!-- Generated by graphviz version 14.1.2 (0)
 -->
<!-- Title: GDALG Workflow Pages: 1 -->
<svg width="665pt" height="311pt"
 viewBox="0.00 0.00 665.00 311.00" xmlns="http://www.w3.org/2000/svg" xmlns:xlink="http://www.w3.org/1999/xlink">
<g id="graph0" class="graph" transform="scale(1 1) rotate(0) translate(4 307.25)">
<title>GDALG Workflow</title>
<polygon fill="white" stroke="none" points="-4,4 -4,-307.25 661.25,-307.25 661.25,4 -4,4"/>
<!-- 0 -->
<g id="node1" class="node">
<title>0</title>
<polygon fill="#cfe2ff" stroke="none" points="0,-197.62 0,-227.38 50.75,-227.38 50.75,-197.62 0,-197.62"/>
<polygon fill="none" stroke="black" points="0,-197.62 0,-227.38 50.75,-227.38 50.75,-197.62 0,-197.62"/>
<text xml:space="preserve" text-anchor="start" x="11.12" y="-208.07" font-family="Helvetica,sans-Serif" font-weight="bold" font-size="14.00">read</text>
<polygon fill="none" stroke="black" points="0,-167.88 0,-197.62 50.75,-197.62 50.75,-167.88 0,-167.88"/>
<text xml:space="preserve" text-anchor="start" x="7" y="-177.32" font-family="Helvetica,sans-Serif" font-size="14.00">n43.tif</text>
</g>
<!-- 1 -->
<g id="node2" class="node">
<title>1</title>
<g id="a_node2"><a xlink:href="../programs/gdal_raster_color_map.html" xlink:title="../programs/gdal_raster_color_map.html" target="_blank">
<polygon fill="#cfe2ff" stroke="none" points="86.75,-197.62 86.75,-227.38 246.25,-227.38 246.25,-197.62 86.75,-197.62"/>
<polygon fill="none" stroke="black" points="86.75,-197.62 86.75,-227.38 246.25,-227.38 246.25,-197.62 86.75,-197.62"/>
<text xml:space="preserve" text-anchor="start" x="133.5" y="-208.07" font-family="Helvetica,sans-Serif" font-weight="bold" font-size="14.00">color&#45;map</text>
<polygon fill="none" stroke="black" points="86.75,-167.88 86.75,-197.62 246.25,-197.62 246.25,-167.88 86.75,-167.88"/>
<text xml:space="preserve" text-anchor="start" x="93.75" y="-177.32" font-family="Helvetica,sans-Serif" font-size="14.00">&#45;&#45;color&#45;map color_file.txt</text>
</a>
</g>
</g>
<!-- 0&#45;&gt;1 -->
<g id="edge1" class="edge">
<title>0&#45;&gt;1</title>
<path fill="none" stroke="black" d="M50.61,-197.62C57.97,-197.62 66.53,-197.62 75.6,-197.62"/>
<polygon fill="black" stroke="black" points="75.35,-201.13 85.35,-197.63 75.35,-194.13 75.35,-201.13"/>
</g>
<!-- 2 -->
<g id="node3" class="node">
<title>2</title>
<polygon fill="#cfe2ff" stroke="none" points="282.25,-182.75 282.25,-212.5 315.75,-212.5 315.75,-182.75 282.25,-182.75"/>
<polygon fill="none" stroke="black" points="282.25,-182.75 282.25,-212.5 315.75,-212.5 315.75,-182.75 282.25,-182.75"/>
<text xml:space="preserve" text-anchor="start" x="289.25" y="-193.2" font-family="Helvetica,sans-Serif" font-weight="bold" font-size="14.00">tee</text>
</g>
<!-- 1&#45;&gt;2 -->
<g id="edge2" class="edge">
<title>1&#45;&gt;2</title>
<path fill="none" stroke="black" d="M246.05,-197.62C254.9,-197.62 263.41,-197.62 270.89,-197.62"/>
<polygon fill="black" stroke="black" points="270.87,-201.13 280.87,-197.63 270.87,-194.13 270.87,-201.13"/>
</g>
<!-- 3 -->
<g id="node4" class="node">
<title>3</title>
<polygon fill="#cfe2ff" stroke="none" points="382.5,-273.5 382.5,-303.25 460.25,-303.25 460.25,-273.5 382.5,-273.5"/>
<polygon fill="none" stroke="black" points="382.5,-273.5 382.5,-303.25 460.25,-303.25 460.25,-273.5 382.5,-273.5"/>
<text xml:space="preserve" text-anchor="start" x="405.25" y="-283.95" font-family="Helvetica,sans-Serif" font-weight="bold" font-size="14.00">write</text>
<polygon fill="none" stroke="black" points="382.5,-243.75 382.5,-273.5 460.25,-273.5 460.25,-243.75 382.5,-243.75"/>
<text xml:space="preserve" text-anchor="start" x="389.5" y="-253.2" font-family="Helvetica,sans-Serif" font-size="14.00">colored.tif</text>
<polygon fill="none" stroke="black" points="382.5,-214 382.5,-243.75 460.25,-243.75 460.25,-214 382.5,-214"/>
<text xml:space="preserve" text-anchor="start" x="389.5" y="-223.45" font-family="Helvetica,sans-Serif" font-size="14.00">&#45;&#45;overwrite</text>
</g>
<!-- 2&#45;&gt;3 -->
<g id="edge3" class="edge">
<title>2&#45;&gt;3</title>
<path fill="none" stroke="black" d="M315.74,-205.6C330.18,-212.92 352.35,-224.15 372.57,-234.4"/>
<polygon fill="black" stroke="black" points="370.75,-237.4 381.25,-238.8 373.92,-231.16 370.75,-237.4"/>
</g>
<!-- 4 -->
<g id="node5" class="node">
<title>4</title>
<g id="a_node5"><a xlink:href="../programs/gdal_raster_blend.html" xlink:title="../programs/gdal_raster_blend.html" target="_blank">
<polygon fill="#cfe2ff" stroke="none" points="351.75,-166.5 351.75,-196.25 491,-196.25 491,-166.5 351.75,-166.5"/>
<polygon fill="none" stroke="black" points="351.75,-166.5 351.75,-196.25 491,-196.25 491,-166.5 351.75,-166.5"/>
<text xml:space="preserve" text-anchor="start" x="403.38" y="-176.95" font-family="Helvetica,sans-Serif" font-weight="bold" font-size="14.00">blend</text>
<polygon fill="none" stroke="black" points="351.75,-136.75 351.75,-166.5 491,-166.5 491,-136.75 351.75,-136.75"/>
<text xml:space="preserve" text-anchor="start" x="358.75" y="-146.2" font-family="Helvetica,sans-Serif" font-size="14.00">&#45;&#45;operator=hsv&#45;value</text>
<polygon fill="none" stroke="black" points="351.75,-107 351.75,-136.75 491,-136.75 491,-107 351.75,-107"/>
<text xml:space="preserve" text-anchor="start" x="358.75" y="-116.45" font-family="Helvetica,sans-Serif" font-size="14.00">&#45;&#45;overlay</text>
</a>
</g>
</g>
<!-- 2&#45;&gt;4 -->
<g id="edge4" class="edge">
<title>2&#45;&gt;4</title>
<path fill="none" stroke="black" d="M315.74,-191.61C322.76,-188.93 331.6,-185.55 341.16,-181.9"/>
<polygon fill="black" stroke="black" points="342.25,-185.23 350.34,-178.39 339.75,-178.69 342.25,-185.23"/>
</g>
<!-- 9 -->
<g id="node10" class="node">
<title>9</title>
<polygon fill="#cfe2ff" stroke="none" points="527,-166.5 527,-196.25 657.25,-196.25 657.25,-166.5 527,-166.5"/>
<polygon fill="none" stroke="black" points="527,-166.5 527,-196.25 657.25,-196.25 657.25,-166.5 527,-166.5"/>
<text xml:space="preserve" text-anchor="start" x="576" y="-176.95" font-family="Helvetica,sans-Serif" font-weight="bold" font-size="14.00">write</text>
<polygon fill="none" stroke="black" points="527,-136.75 527,-166.5 657.25,-166.5 657.25,-136.75 527,-136.75"/>
<text xml:space="preserve" text-anchor="start" x="534" y="-146.2" font-family="Helvetica,sans-Serif" font-size="14.00">colored&#45;hillshade.tif</text>
<polygon fill="none" stroke="black" points="527,-107 527,-136.75 657.25,-136.75 657.25,-107 527,-107"/>
<text xml:space="preserve" text-anchor="start" x="534" y="-116.45" font-family="Helvetica,sans-Serif" font-size="14.00">&#45;&#45;overwrite</text>
</g>
<!-- 4&#45;&gt;9 -->
<g id="edge9" class="edge">
<title>4&#45;&gt;9</title>
<path fill="none" stroke="black" d="M490.53,-151.62C498.83,-151.62 507.35,-151.62 515.74,-151.62"/>
<polygon fill="black" stroke="black" points="515.58,-155.13 525.58,-151.63 515.58,-148.13 515.58,-155.13"/>
</g>
<!-- 5 -->
<g id="node6" class="node">
<title>5</title>
<polygon fill="#cfe2ff" stroke="none" points="0,-105.62 0,-135.38 50.75,-135.38 50.75,-105.62 0,-105.62"/>
<polygon fill="none" stroke="black" points="0,-105.62 0,-135.38 50.75,-135.38 50.75,-105.62 0,-105.62"/>
<text xml:space="preserve" text-anchor="start" x="11.12" y="-116.08" font-family="Helvetica,sans-Serif" font-weight="bold" font-size="14.00">read</text>
<polygon fill="none" stroke="black" points="0,-75.88 0,-105.62 50.75,-105.62 50.75,-75.88 0,-75.88"/>
<text xml:space="preserve" text-anchor="start" x="7" y="-85.33" font-family="Helvetica,sans-Serif" font-size="14.00">n43.tif</text>
</g>
<!-- 6 -->
<g id="node7" class="node">
<title>6</title>
<g id="a_node7"><a xlink:href="../programs/gdal_raster_hillshade.html" xlink:title="../programs/gdal_raster_hillshade.html" target="_blank">
<polygon fill="#cfe2ff" stroke="none" points="130.25,-105.62 130.25,-135.38 202.75,-135.38 202.75,-105.62 130.25,-105.62"/>
<polygon fill="none" stroke="black" points="130.25,-105.62 130.25,-135.38 202.75,-135.38 202.75,-105.62 130.25,-105.62"/>
<text xml:space="preserve" text-anchor="start" x="137.25" y="-116.08" font-family="Helvetica,sans-Serif" font-weight="bold" font-size="14.00">hillshade</text>
<polygon fill="none" stroke="black" points="130.25,-75.88 130.25,-105.62 202.75,-105.62 202.75,-75.88 130.25,-75.88"/>
<text xml:space="preserve" text-anchor="start" x="137.25" y="-85.33" font-family="Helvetica,sans-Serif" font-size="14.00">&#45;z 30</text>
</a>
</g>
</g>
<!-- 5&#45;&gt;6 -->
<g id="edge5" class="edge">
<title>5&#45;&gt;6</title>
<path fill="none" stroke="black" d="M50.61,-105.62C69.46,-105.62 96.17,-105.62 119.09,-105.62"/>
<polygon fill="black" stroke="black" points="118.82,-109.13 128.82,-105.63 118.82,-102.13 118.82,-109.13"/>
</g>
<!-- 7 -->
<g id="node8" class="node">
<title>7</title>
<polygon fill="#cfe2ff" stroke="none" points="282.25,-90.75 282.25,-120.5 315.75,-120.5 315.75,-90.75 282.25,-90.75"/>
<polygon fill="none" stroke="black" points="282.25,-90.75 282.25,-120.5 315.75,-120.5 315.75,-90.75 282.25,-90.75"/>
<text xml:space="preserve" text-anchor="start" x="289.25" y="-101.2" font-family="Helvetica,sans-Serif" font-weight="bold" font-size="14.00">tee</text>
</g>
<!-- 6&#45;&gt;7 -->
<g id="edge6" class="edge">
<title>6&#45;&gt;7</title>
<path fill="none" stroke="black" d="M202.47,-105.62C223.98,-105.62 251.13,-105.62 270.98,-105.62"/>
<polygon fill="black" stroke="black" points="270.77,-109.13 280.77,-105.63 270.77,-102.13 270.77,-109.13"/>
</g>
<!-- 7&#45;&gt;4 -->
<g id="edge8" class="edge">
<title>7&#45;&gt;4</title>
<path fill="none" stroke="black" d="M315.74,-111.64C322.76,-114.32 331.6,-117.7 341.16,-121.35"/>
<polygon fill="black" stroke="black" points="339.75,-124.56 350.34,-124.86 342.25,-118.02 339.75,-124.56"/>
</g>
<!-- 8 -->
<g id="node9" class="node">
<title>8</title>
<polygon fill="#cfe2ff" stroke="none" points="380.62,-59.5 380.62,-89.25 462.12,-89.25 462.12,-59.5 380.62,-59.5"/>
<polygon fill="none" stroke="black" points="380.62,-59.5 380.62,-89.25 462.12,-89.25 462.12,-59.5 380.62,-59.5"/>
<text xml:space="preserve" text-anchor="start" x="405.25" y="-69.95" font-family="Helvetica,sans-Serif" font-weight="bold" font-size="14.00">write</text>
<polygon fill="none" stroke="black" points="380.62,-29.75 380.62,-59.5 462.12,-59.5 462.12,-29.75 380.62,-29.75"/>
<text xml:space="preserve" text-anchor="start" x="387.62" y="-39.2" font-family="Helvetica,sans-Serif" font-size="14.00">hillshade.tif</text>
<polygon fill="none" stroke="black" points="380.62,0 380.62,-29.75 462.12,-29.75 462.12,0 380.62,0"/>
<text xml:space="preserve" text-anchor="start" x="387.62" y="-9.45" font-family="Helvetica,sans-Serif" font-size="14.00">&#45;&#45;overwrite</text>
</g>
<!-- 7&#45;&gt;8 -->
<g id="edge7" class="edge">
<title>7&#45;&gt;8</title>
<path fill="none" stroke="black" d="M315.74,-97.65C329.74,-90.56 350.99,-79.79 370.69,-69.8"/>
<polygon fill="black" stroke="black" points="372.12,-73 379.46,-65.36 368.96,-66.76 372.12,-73"/>
</g>
</g>
</svg>
