<?xml version="1.0" encoding="utf-8" standalone="no"?>
<!DOCTYPE svg PUBLIC "-//W3C//DTD SVG 1.1//EN"
  "http://www.w3.org/Graphics/SVG/1.1/DTD/svg11.dtd">
<svg xmlns:xlink="http://www.w3.org/1999/xlink" width="803.585455pt" height="347.04pt" viewBox="0 0 803.585455 347.04" xmlns="http://www.w3.org/2000/svg" version="1.1">
 <metadata>
  <rdf:RDF xmlns:dc="http://purl.org/dc/elements/1.1/" xmlns:cc="http://creativecommons.org/ns#" xmlns:rdf="http://www.w3.org/1999/02/22-rdf-syntax-ns#">
   <cc:Work>
    <dc:type rdf:resource="http://purl.org/dc/dcmitype/StillImage"/>
    <dc:date>2026-01-09T14:51:20.613194</dc:date>
    <dc:format>image/svg+xml</dc:format>
    <dc:creator>
     <cc:Agent>
      <dc:title>Matplotlib v3.10.8, https://matplotlib.org/</dc:title>
     </cc:Agent>
    </dc:creator>
   </cc:Work>
  </rdf:RDF>
 </metadata>
 <defs>
  <style type="text/css">*{stroke-linejoin: round; stroke-linecap: butt}</style>
 </defs>
 <g id="figure_1">
  <g id="patch_1">
   <path d="M 0 347.04 
L 803.585455 347.04 
L 803.585455 -0 
L 0 -0 
L 0 347.04 
z
" style="fill: none"/>
  </g>
  <g id="axes_1">
   <g id="patch_2">
    <path d="M 7.2 339.84 
L 339.84 339.84 
L 339.84 7.2 
L 7.2 7.2 
L 7.2 339.84 
z
" style="fill: none"/>
   </g>
   <g id="PolyQuadMesh_1">
    <path d="M 7.2 7.2 
L 7.2 118.08 
L 118.08 118.08 
L 118.08 7.2 
L 7.2 7.2 
z
" clip-path="url(#p4430f57cc6)" style="fill: #fcfbfd"/>
    <path d="M 118.08 7.2 
L 118.08 118.08 
L 228.96 118.08 
L 228.96 7.2 
L 118.08 7.2 
z
" clip-path="url(#p4430f57cc6)" style="fill: #ecebf4"/>
    <path d="M 228.96 7.2 
L 228.96 118.08 
L 339.84 118.08 
L 339.84 7.2 
L 228.96 7.2 
z
" clip-path="url(#p4430f57cc6)" style="fill: #d1d2e7"/>
    <path d="M 7.2 118.08 
L 7.2 228.96 
L 118.08 228.96 
L 118.08 118.08 
L 7.2 118.08 
z
" clip-path="url(#p4430f57cc6)" style="fill: #afaed4"/>
    <path d="M 118.08 118.08 
L 118.08 228.96 
L 228.96 228.96 
L 228.96 118.08 
L 118.08 118.08 
z
" clip-path="url(#p4430f57cc6)" style="fill: #8d89c0"/>
    <path d="M 228.96 118.08 
L 228.96 228.96 
L 339.84 228.96 
L 339.84 118.08 
L 228.96 118.08 
z
" clip-path="url(#p4430f57cc6)" style="fill: #705eaa"/>
    <path d="M 7.2 228.96 
L 7.2 339.84 
L 118.08 339.84 
L 118.08 228.96 
L 7.2 228.96 
z
" clip-path="url(#p4430f57cc6)" style="fill: #572c92"/>
    <path d="M 118.08 228.96 
L 118.08 339.84 
L 228.96 339.84 
L 228.96 228.96 
L 118.08 228.96 
z
" clip-path="url(#p4430f57cc6)" style="fill: #3f007d"/>
   </g>
   <g id="matplotlib.axis_1"/>
   <g id="matplotlib.axis_2"/>
   <g id="patch_3">
    <path d="M 7.2 339.84 
L 7.2 7.2 
" style="fill: none; stroke: #000000; stroke-width: 0.8; stroke-linejoin: miter; stroke-linecap: square"/>
   </g>
   <g id="patch_4">
    <path d="M 339.84 339.84 
L 339.84 7.2 
" style="fill: none; stroke: #000000; stroke-width: 0.8; stroke-linejoin: miter; stroke-linecap: square"/>
   </g>
   <g id="patch_5">
    <path d="M 7.2 339.84 
L 339.84 339.84 
" style="fill: none; stroke: #000000; stroke-width: 0.8; stroke-linejoin: miter; stroke-linecap: square"/>
   </g>
   <g id="patch_6">
    <path d="M 7.2 7.2 
L 339.84 7.2 
" style="fill: none; stroke: #000000; stroke-width: 0.8; stroke-linejoin: miter; stroke-linecap: square"/>
   </g>
   <g id="text_1">
    <path d="M 63.761094 61.74625 
Q 63.761094 60.379062 63.504844 59.82125 
Q 63.248594 59.261875 62.642344 59.261875 
Q 62.037656 59.261875 61.778281 59.82125 
Q 61.518906 60.379062 61.518906 61.74625 
Q 61.518906 63.129062 61.778281 63.69625 
Q 62.037656 64.261875 62.642344 64.261875 
Q 63.243906 64.261875 63.501719 63.69625 
Q 63.761094 63.129062 63.761094 61.74625 
z
M 65.640781 61.761875 
Q 65.640781 63.572812 64.859531 64.557187 
Q 64.078281 65.541562 62.642344 65.541562 
Q 61.201719 65.541562 60.420469 64.557187 
Q 59.639219 63.572812 59.639219 61.761875 
Q 59.639219 59.944687 60.420469 58.961875 
Q 61.201719 57.9775 62.642344 57.9775 
Q 64.078281 57.9775 64.859531 58.961875 
Q 65.640781 59.944687 65.640781 61.761875 
z
" style="stroke: #ffffff; stroke-width: 3"/>
    <path d="M 63.761094 61.74625 
Q 63.761094 60.379062 63.504844 59.82125 
Q 63.248594 59.261875 62.642344 59.261875 
Q 62.037656 59.261875 61.778281 59.82125 
Q 61.518906 60.379062 61.518906 61.74625 
Q 61.518906 63.129062 61.778281 63.69625 
Q 62.037656 64.261875 62.642344 64.261875 
Q 63.243906 64.261875 63.501719 63.69625 
Q 63.761094 63.129062 63.761094 61.74625 
z
M 65.640781 61.761875 
Q 65.640781 63.572812 64.859531 64.557187 
Q 64.078281 65.541562 62.642344 65.541562 
Q 61.201719 65.541562 60.420469 64.557187 
Q 59.639219 63.572812 59.639219 61.761875 
Q 59.639219 59.944687 60.420469 58.961875 
Q 61.201719 57.9775 62.642344 57.9775 
Q 64.078281 57.9775 64.859531 58.961875 
Q 65.640781 59.944687 65.640781 61.761875 
z
"/>
   </g>
   <g id="text_2">
    <path d="M 171.212969 64.100937 
L 172.873906 64.100937 
L 172.873906 59.388437 
L 171.169219 59.74 
L 171.169219 58.460312 
L 172.862969 58.10875 
L 174.650469 58.10875 
L 174.650469 64.100937 
L 176.311406 64.100937 
L 176.311406 65.399375 
L 171.212969 65.399375 
L 171.212969 64.100937 
z
" style="stroke: #ffffff; stroke-width: 3"/>
    <path d="M 171.212969 64.100937 
L 172.873906 64.100937 
L 172.873906 59.388437 
L 171.169219 59.74 
L 171.169219 58.460312 
L 172.862969 58.10875 
L 174.650469 58.10875 
L 174.650469 64.100937 
L 176.311406 64.100937 
L 176.311406 65.399375 
L 171.212969 65.399375 
L 171.212969 64.100937 
z
"/>
   </g>
   <g id="text_3">
    <path d="M 283.802344 64.018125 
L 287.010156 64.018125 
L 287.010156 65.399375 
L 281.711719 65.399375 
L 281.711719 64.018125 
L 284.372656 61.668125 
Q 284.730469 61.34625 284.900781 61.038437 
Q 285.071094 60.730625 285.071094 60.399375 
Q 285.071094 59.886875 284.727344 59.574375 
Q 284.383594 59.261875 283.811719 59.261875 
Q 283.372656 59.261875 282.849219 59.449375 
Q 282.327344 59.636875 281.732031 60.00875 
L 281.732031 58.407187 
Q 282.366406 58.197812 282.986719 58.088437 
Q 283.607031 57.9775 284.202344 57.9775 
Q 285.511719 57.9775 286.236719 58.554062 
Q 286.961719 59.129062 286.961719 60.160312 
Q 286.961719 60.755625 286.653906 61.27125 
Q 286.346094 61.785312 285.360156 62.650937 
L 283.802344 64.018125 
z
" style="stroke: #ffffff; stroke-width: 3"/>
    <path d="M 283.802344 64.018125 
L 287.010156 64.018125 
L 287.010156 65.399375 
L 281.711719 65.399375 
L 281.711719 64.018125 
L 284.372656 61.668125 
Q 284.730469 61.34625 284.900781 61.038437 
Q 285.071094 60.730625 285.071094 60.399375 
Q 285.071094 59.886875 284.727344 59.574375 
Q 284.383594 59.261875 283.811719 59.261875 
Q 283.372656 59.261875 282.849219 59.449375 
Q 282.327344 59.636875 281.732031 60.00875 
L 281.732031 58.407187 
Q 282.366406 58.197812 282.986719 58.088437 
Q 283.607031 57.9775 284.202344 57.9775 
Q 285.511719 57.9775 286.236719 58.554062 
Q 286.961719 59.129062 286.961719 60.160312 
Q 286.961719 60.755625 286.653906 61.27125 
Q 286.346094 61.785312 285.360156 62.650937 
L 283.802344 64.018125 
z
"/>
   </g>
   <g id="text_4">
    <path d="M 63.818906 172.348125 
Q 64.556406 172.53875 64.939219 173.010625 
Q 65.323594 173.480938 65.323594 174.209063 
Q 65.323594 175.293438 64.492344 175.8575 
Q 63.662656 176.421563 62.072031 176.421563 
Q 61.509531 176.421563 60.945469 176.330938 
Q 60.381406 176.240313 59.829844 176.059063 
L 59.829844 174.609063 
Q 60.357969 174.873125 60.876719 175.0075 
Q 61.397031 175.141875 61.900156 175.141875 
Q 62.647031 175.141875 63.045469 174.884063 
Q 63.443906 174.624688 63.443906 174.140313 
Q 63.443906 173.641875 63.036094 173.385625 
Q 62.628281 173.129375 61.831406 173.129375 
L 61.079844 173.129375 
L 61.079844 171.918438 
L 61.870469 171.918438 
Q 62.579844 171.918438 62.925156 171.696563 
Q 63.272031 171.474688 63.272031 171.02 
Q 63.272031 170.60125 62.934531 170.371563 
Q 62.598594 170.141875 61.982969 170.141875 
Q 61.529844 170.141875 61.065781 170.245 
Q 60.601719 170.346563 60.142344 170.546563 
L 60.142344 169.17 
Q 60.698594 169.01375 61.245469 168.935625 
Q 61.792344 168.8575 62.320469 168.8575 
Q 63.740781 168.8575 64.445469 169.324688 
Q 65.151719 169.790313 65.151719 170.727813 
Q 65.151719 171.366875 64.814219 171.774688 
Q 64.478281 172.1825 63.818906 172.348125 
z
" style="stroke: #ffffff; stroke-width: 3"/>
    <path d="M 63.818906 172.348125 
Q 64.556406 172.53875 64.939219 173.010625 
Q 65.323594 173.480938 65.323594 174.209063 
Q 65.323594 175.293438 64.492344 175.8575 
Q 63.662656 176.421563 62.072031 176.421563 
Q 61.509531 176.421563 60.945469 176.330938 
Q 60.381406 176.240313 59.829844 176.059063 
L 59.829844 174.609063 
Q 60.357969 174.873125 60.876719 175.0075 
Q 61.397031 175.141875 61.900156 175.141875 
Q 62.647031 175.141875 63.045469 174.884063 
Q 63.443906 174.624688 63.443906 174.140313 
Q 63.443906 173.641875 63.036094 173.385625 
Q 62.628281 173.129375 61.831406 173.129375 
L 61.079844 173.129375 
L 61.079844 171.918438 
L 61.870469 171.918438 
Q 62.579844 171.918438 62.925156 171.696563 
Q 63.272031 171.474688 63.272031 171.02 
Q 63.272031 170.60125 62.934531 170.371563 
Q 62.598594 170.141875 61.982969 170.141875 
Q 61.529844 170.141875 61.065781 170.245 
Q 60.601719 170.346563 60.142344 170.546563 
L 60.142344 169.17 
Q 60.698594 169.01375 61.245469 168.935625 
Q 61.792344 168.8575 62.320469 168.8575 
Q 63.740781 168.8575 64.445469 169.324688 
Q 65.151719 169.790313 65.151719 170.727813 
Q 65.151719 171.366875 64.814219 171.774688 
Q 64.478281 172.1825 63.818906 172.348125 
z
"/>
   </g>
   <g id="text_5">
    <path d="M 173.722344 170.537188 
L 171.662969 173.58875 
L 173.722344 173.58875 
L 173.722344 170.537188 
z
M 173.409844 168.98875 
L 175.500469 168.98875 
L 175.500469 173.58875 
L 176.539531 173.58875 
L 176.539531 174.95125 
L 175.500469 174.95125 
L 175.500469 176.279375 
L 173.722344 176.279375 
L 173.722344 174.95125 
L 170.491094 174.95125 
L 170.491094 173.340313 
L 173.409844 168.98875 
z
" style="stroke: #ffffff; stroke-width: 3"/>
    <path d="M 173.722344 170.537188 
L 171.662969 173.58875 
L 173.722344 173.58875 
L 173.722344 170.537188 
z
M 173.409844 168.98875 
L 175.500469 168.98875 
L 175.500469 173.58875 
L 176.539531 173.58875 
L 176.539531 174.95125 
L 175.500469 174.95125 
L 175.500469 176.279375 
L 173.722344 176.279375 
L 173.722344 174.95125 
L 170.491094 174.95125 
L 170.491094 173.340313 
L 173.409844 168.98875 
z
"/>
   </g>
   <g id="text_6">
    <path d="M 281.980469 168.98875 
L 286.653906 168.98875 
L 286.653906 170.371563 
L 283.480469 170.371563 
L 283.480469 171.499688 
Q 283.694531 171.440313 283.911719 171.409063 
Q 284.128906 171.37625 284.363281 171.37625 
Q 285.696094 171.37625 286.438281 172.043438 
Q 287.180469 172.710625 287.180469 173.90125 
Q 287.180469 175.0825 286.372656 175.752813 
Q 285.564844 176.421563 284.128906 176.421563 
Q 283.508594 176.421563 282.900781 176.30125 
Q 282.292969 176.180938 281.692969 175.937188 
L 281.692969 174.4575 
Q 282.288281 174.799688 282.822656 174.971563 
Q 283.357031 175.141875 283.832031 175.141875 
Q 284.514844 175.141875 284.907031 174.8075 
Q 285.300781 174.473125 285.300781 173.90125 
Q 285.300781 173.324688 284.907031 172.993438 
Q 284.514844 172.660625 283.832031 172.660625 
Q 283.425781 172.660625 282.966406 172.766875 
Q 282.508594 172.871563 281.980469 173.090313 
L 281.980469 168.98875 
z
" style="stroke: #ffffff; stroke-width: 3"/>
    <path d="M 281.980469 168.98875 
L 286.653906 168.98875 
L 286.653906 170.371563 
L 283.480469 170.371563 
L 283.480469 171.499688 
Q 283.694531 171.440313 283.911719 171.409063 
Q 284.128906 171.37625 284.363281 171.37625 
Q 285.696094 171.37625 286.438281 172.043438 
Q 287.180469 172.710625 287.180469 173.90125 
Q 287.180469 175.0825 286.372656 175.752813 
Q 285.564844 176.421563 284.128906 176.421563 
Q 283.508594 176.421563 282.900781 176.30125 
Q 282.292969 176.180938 281.692969 175.937188 
L 281.692969 174.4575 
Q 282.288281 174.799688 282.822656 174.971563 
Q 283.357031 175.141875 283.832031 175.141875 
Q 284.514844 175.141875 284.907031 174.8075 
Q 285.300781 174.473125 285.300781 173.90125 
Q 285.300781 173.324688 284.907031 172.993438 
Q 284.514844 172.660625 283.832031 172.660625 
Q 283.425781 172.660625 282.966406 172.766875 
Q 282.508594 172.871563 281.980469 173.090313 
L 281.980469 168.98875 
z
"/>
   </g>
   <g id="text_7">
    <path d="M 62.779844 283.560938 
Q 62.286094 283.560938 62.039219 283.88125 
Q 61.792344 284.2 61.792344 284.840625 
Q 61.792344 285.479688 62.039219 285.8 
Q 62.286094 286.11875 62.779844 286.11875 
Q 63.276719 286.11875 63.523594 285.8 
Q 63.770469 285.479688 63.770469 284.840625 
Q 63.770469 284.2 63.523594 283.88125 
Q 63.276719 283.560938 62.779844 283.560938 
z
M 65.103281 280.059375 
L 65.103281 281.407813 
Q 64.639219 281.1875 64.228281 281.082812 
Q 63.818906 280.978125 63.428281 280.978125 
Q 62.589219 280.978125 62.120469 281.445312 
Q 61.651719 281.910937 61.573594 282.828125 
Q 61.895469 282.589063 62.270469 282.470313 
Q 62.647031 282.35 63.092344 282.35 
Q 64.209531 282.35 64.895469 283.004687 
Q 65.581406 283.657813 65.581406 284.717188 
Q 65.581406 285.889063 64.814219 286.595313 
Q 64.048594 287.301562 62.759531 287.301562 
Q 61.339219 287.301562 60.559531 286.342188 
Q 59.781406 285.38125 59.781406 283.61875 
Q 59.781406 281.8125 60.692344 280.779688 
Q 61.603281 279.746875 63.189219 279.746875 
Q 63.692344 279.746875 64.165781 279.825 
Q 64.639219 279.903125 65.103281 280.059375 
z
" style="stroke: #ffffff; stroke-width: 3"/>
    <path d="M 62.779844 283.560938 
Q 62.286094 283.560938 62.039219 283.88125 
Q 61.792344 284.2 61.792344 284.840625 
Q 61.792344 285.479688 62.039219 285.8 
Q 62.286094 286.11875 62.779844 286.11875 
Q 63.276719 286.11875 63.523594 285.8 
Q 63.770469 285.479688 63.770469 284.840625 
Q 63.770469 284.2 63.523594 283.88125 
Q 63.276719 283.560938 62.779844 283.560938 
z
M 65.103281 280.059375 
L 65.103281 281.407813 
Q 64.639219 281.1875 64.228281 281.082812 
Q 63.818906 280.978125 63.428281 280.978125 
Q 62.589219 280.978125 62.120469 281.445312 
Q 61.651719 281.910937 61.573594 282.828125 
Q 61.895469 282.589063 62.270469 282.470313 
Q 62.647031 282.35 63.092344 282.35 
Q 64.209531 282.35 64.895469 283.004687 
Q 65.581406 283.657813 65.581406 284.717188 
Q 65.581406 285.889063 64.814219 286.595313 
Q 64.048594 287.301562 62.759531 287.301562 
Q 61.339219 287.301562 60.559531 286.342188 
Q 59.781406 285.38125 59.781406 283.61875 
Q 59.781406 281.8125 60.692344 280.779688 
Q 61.603281 279.746875 63.189219 279.746875 
Q 63.692344 279.746875 64.165781 279.825 
Q 64.639219 279.903125 65.103281 280.059375 
z
"/>
   </g>
   <g id="text_8">
    <path d="M 170.709844 279.86875 
L 176.203594 279.86875 
L 176.203594 280.928125 
L 173.361406 287.159375 
L 171.530156 287.159375 
L 174.220781 281.251563 
L 170.709844 281.251563 
L 170.709844 279.86875 
z
" style="stroke: #ffffff; stroke-width: 3"/>
    <path d="M 170.709844 279.86875 
L 176.203594 279.86875 
L 176.203594 280.928125 
L 173.361406 287.159375 
L 171.530156 287.159375 
L 174.220781 281.251563 
L 170.709844 281.251563 
L 170.709844 279.86875 
z
"/>
   </g>
   <g id="text_9">
    <path d="M 264.410156 279.86875 
L 266.508594 279.86875 
L 269.160156 284.86875 
L 269.160156 279.86875 
L 270.942969 279.86875 
L 270.942969 287.159375 
L 268.842969 287.159375 
L 266.191406 282.159375 
L 266.191406 287.159375 
L 264.410156 287.159375 
L 264.410156 279.86875 
z
M 275.302734 282.809375 
Q 274.721484 282.809375 274.416797 283.226562 
Q 274.112109 283.64375 274.112109 284.429688 
Q 274.112109 285.215625 274.416797 285.634375 
Q 274.721484 286.051562 275.302734 286.051562 
Q 275.874609 286.051562 276.176172 285.634375 
Q 276.479297 285.215625 276.479297 284.429688 
Q 276.479297 283.64375 276.176172 283.226562 
Q 275.874609 282.809375 275.302734 282.809375 
z
M 275.302734 281.559375 
Q 276.713672 281.559375 277.507422 282.321875 
Q 278.301172 283.082812 278.301172 284.429688 
Q 278.301172 285.778125 277.507422 286.540625 
Q 276.713672 287.301562 275.302734 287.301562 
Q 273.887109 287.301562 273.088672 286.540625 
Q 272.290234 285.778125 272.290234 284.429688 
Q 272.290234 283.082812 273.088672 282.321875 
Q 273.887109 281.559375 275.302734 281.559375 
z
M 281.529102 281.290625 
L 281.529102 285.739062 
L 282.202539 285.739062 
Q 283.354102 285.739062 283.961914 285.167188 
Q 284.571289 284.595313 284.571289 283.50625 
Q 284.571289 282.423438 283.965039 281.857813 
Q 283.360352 281.290625 282.202539 281.290625 
L 281.529102 281.290625 
z
M 279.649414 279.86875 
L 281.630664 279.86875 
Q 283.291602 279.86875 284.104102 280.10625 
Q 284.916602 280.342188 285.497852 280.909375 
Q 286.010352 281.403125 286.258789 282.048438 
Q 286.508789 282.692187 286.508789 283.50625 
Q 286.508789 284.332812 286.258789 284.979688 
Q 286.010352 285.626563 285.497852 286.11875 
Q 284.911914 286.685938 284.091602 286.923438 
Q 283.271289 287.159375 281.630664 287.159375 
L 279.649414 287.159375 
L 279.649414 279.86875 
z
M 290.32207 284.698438 
Q 289.775195 284.698438 289.498633 284.884375 
Q 289.223633 285.06875 289.223633 285.43125 
Q 289.223633 285.7625 289.445508 285.951563 
Q 289.668945 286.139063 290.064258 286.139063 
Q 290.556445 286.139063 290.893945 285.785937 
Q 291.231445 285.43125 291.231445 284.898438 
L 291.231445 284.698438 
L 290.32207 284.698438 
z
M 292.993945 284.039062 
L 292.993945 287.159375 
L 291.231445 287.159375 
L 291.231445 286.348437 
Q 290.879883 286.846875 290.439258 287.075 
Q 290.000195 287.301562 289.370508 287.301562 
Q 288.520508 287.301562 287.99082 286.80625 
Q 287.461133 286.309375 287.461133 285.51875 
Q 287.461133 284.55625 288.12207 284.107813 
Q 288.78457 283.657813 290.200195 283.657813 
L 291.231445 283.657813 
L 291.231445 283.521875 
Q 291.231445 283.10625 290.90332 282.914062 
Q 290.576758 282.720313 289.883008 282.720313 
Q 289.32207 282.720313 288.837695 282.832812 
Q 288.354883 282.945312 287.939258 283.170313 
L 287.939258 281.8375 
Q 288.501758 281.7 289.067383 281.629687 
Q 289.63457 281.559375 290.200195 281.559375 
Q 291.679883 281.559375 292.336133 282.142188 
Q 292.993945 282.725 292.993945 284.039062 
z
M 296.52793 280.1375 
L 296.52793 281.690625 
L 298.331055 281.690625 
L 298.331055 282.940625 
L 296.52793 282.940625 
L 296.52793 285.259375 
Q 296.52793 285.640625 296.679492 285.775 
Q 296.831055 285.909375 297.281055 285.909375 
L 298.179492 285.909375 
L 298.179492 287.159375 
L 296.679492 287.159375 
Q 295.645117 287.159375 295.212305 286.728125 
Q 294.781055 286.295313 294.781055 285.259375 
L 294.781055 282.940625 
L 293.910742 282.940625 
L 293.910742 281.690625 
L 294.781055 281.690625 
L 294.781055 280.1375 
L 296.52793 280.1375 
z
M 301.850391 284.698438 
Q 301.303516 284.698438 301.026953 284.884375 
Q 300.751953 285.06875 300.751953 285.43125 
Q 300.751953 285.7625 300.973828 285.951563 
Q 301.197266 286.139063 301.592578 286.139063 
Q 302.084766 286.139063 302.422266 285.785937 
Q 302.759766 285.43125 302.759766 284.898438 
L 302.759766 284.698438 
L 301.850391 284.698438 
z
M 304.522266 284.039062 
L 304.522266 287.159375 
L 302.759766 287.159375 
L 302.759766 286.348437 
Q 302.408203 286.846875 301.967578 287.075 
Q 301.528516 287.301562 300.898828 287.301562 
Q 300.048828 287.301562 299.519141 286.80625 
Q 298.989453 286.309375 298.989453 285.51875 
Q 298.989453 284.55625 299.650391 284.107813 
Q 300.312891 283.657813 301.728516 283.657813 
L 302.759766 283.657813 
L 302.759766 283.521875 
Q 302.759766 283.10625 302.431641 282.914062 
Q 302.105078 282.720313 301.411328 282.720313 
Q 300.850391 282.720313 300.366016 282.832812 
Q 299.883203 282.945312 299.467578 283.170313 
L 299.467578 281.8375 
Q 300.030078 281.7 300.595703 281.629687 
Q 301.162891 281.559375 301.728516 281.559375 
Q 303.208203 281.559375 303.864453 282.142188 
Q 304.522266 282.725 304.522266 284.039062 
z
" style="stroke: #ffffff; stroke-width: 3"/>
    <path d="M 264.410156 279.86875 
L 266.508594 279.86875 
L 269.160156 284.86875 
L 269.160156 279.86875 
L 270.942969 279.86875 
L 270.942969 287.159375 
L 268.842969 287.159375 
L 266.191406 282.159375 
L 266.191406 287.159375 
L 264.410156 287.159375 
L 264.410156 279.86875 
z
M 275.302734 282.809375 
Q 274.721484 282.809375 274.416797 283.226562 
Q 274.112109 283.64375 274.112109 284.429688 
Q 274.112109 285.215625 274.416797 285.634375 
Q 274.721484 286.051562 275.302734 286.051562 
Q 275.874609 286.051562 276.176172 285.634375 
Q 276.479297 285.215625 276.479297 284.429688 
Q 276.479297 283.64375 276.176172 283.226562 
Q 275.874609 282.809375 275.302734 282.809375 
z
M 275.302734 281.559375 
Q 276.713672 281.559375 277.507422 282.321875 
Q 278.301172 283.082812 278.301172 284.429688 
Q 278.301172 285.778125 277.507422 286.540625 
Q 276.713672 287.301562 275.302734 287.301562 
Q 273.887109 287.301562 273.088672 286.540625 
Q 272.290234 285.778125 272.290234 284.429688 
Q 272.290234 283.082812 273.088672 282.321875 
Q 273.887109 281.559375 275.302734 281.559375 
z
M 281.529102 281.290625 
L 281.529102 285.739062 
L 282.202539 285.739062 
Q 283.354102 285.739062 283.961914 285.167188 
Q 284.571289 284.595313 284.571289 283.50625 
Q 284.571289 282.423438 283.965039 281.857813 
Q 283.360352 281.290625 282.202539 281.290625 
L 281.529102 281.290625 
z
M 279.649414 279.86875 
L 281.630664 279.86875 
Q 283.291602 279.86875 284.104102 280.10625 
Q 284.916602 280.342188 285.497852 280.909375 
Q 286.010352 281.403125 286.258789 282.048438 
Q 286.508789 282.692187 286.508789 283.50625 
Q 286.508789 284.332812 286.258789 284.979688 
Q 286.010352 285.626563 285.497852 286.11875 
Q 284.911914 286.685938 284.091602 286.923438 
Q 283.271289 287.159375 281.630664 287.159375 
L 279.649414 287.159375 
L 279.649414 279.86875 
z
M 290.32207 284.698438 
Q 289.775195 284.698438 289.498633 284.884375 
Q 289.223633 285.06875 289.223633 285.43125 
Q 289.223633 285.7625 289.445508 285.951563 
Q 289.668945 286.139063 290.064258 286.139063 
Q 290.556445 286.139063 290.893945 285.785937 
Q 291.231445 285.43125 291.231445 284.898438 
L 291.231445 284.698438 
L 290.32207 284.698438 
z
M 292.993945 284.039062 
L 292.993945 287.159375 
L 291.231445 287.159375 
L 291.231445 286.348437 
Q 290.879883 286.846875 290.439258 287.075 
Q 290.000195 287.301562 289.370508 287.301562 
Q 288.520508 287.301562 287.99082 286.80625 
Q 287.461133 286.309375 287.461133 285.51875 
Q 287.461133 284.55625 288.12207 284.107813 
Q 288.78457 283.657813 290.200195 283.657813 
L 291.231445 283.657813 
L 291.231445 283.521875 
Q 291.231445 283.10625 290.90332 282.914062 
Q 290.576758 282.720313 289.883008 282.720313 
Q 289.32207 282.720313 288.837695 282.832812 
Q 288.354883 282.945312 287.939258 283.170313 
L 287.939258 281.8375 
Q 288.501758 281.7 289.067383 281.629687 
Q 289.63457 281.559375 290.200195 281.559375 
Q 291.679883 281.559375 292.336133 282.142188 
Q 292.993945 282.725 292.993945 284.039062 
z
M 296.52793 280.1375 
L 296.52793 281.690625 
L 298.331055 281.690625 
L 298.331055 282.940625 
L 296.52793 282.940625 
L 296.52793 285.259375 
Q 296.52793 285.640625 296.679492 285.775 
Q 296.831055 285.909375 297.281055 285.909375 
L 298.179492 285.909375 
L 298.179492 287.159375 
L 296.679492 287.159375 
Q 295.645117 287.159375 295.212305 286.728125 
Q 294.781055 286.295313 294.781055 285.259375 
L 294.781055 282.940625 
L 293.910742 282.940625 
L 293.910742 281.690625 
L 294.781055 281.690625 
L 294.781055 280.1375 
L 296.52793 280.1375 
z
M 301.850391 284.698438 
Q 301.303516 284.698438 301.026953 284.884375 
Q 300.751953 285.06875 300.751953 285.43125 
Q 300.751953 285.7625 300.973828 285.951563 
Q 301.197266 286.139063 301.592578 286.139063 
Q 302.084766 286.139063 302.422266 285.785937 
Q 302.759766 285.43125 302.759766 284.898438 
L 302.759766 284.698438 
L 301.850391 284.698438 
z
M 304.522266 284.039062 
L 304.522266 287.159375 
L 302.759766 287.159375 
L 302.759766 286.348437 
Q 302.408203 286.846875 301.967578 287.075 
Q 301.528516 287.301562 300.898828 287.301562 
Q 300.048828 287.301562 299.519141 286.80625 
Q 298.989453 286.309375 298.989453 285.51875 
Q 298.989453 284.55625 299.650391 284.107813 
Q 300.312891 283.657813 301.728516 283.657813 
L 302.759766 283.657813 
L 302.759766 283.521875 
Q 302.759766 283.10625 302.431641 282.914062 
Q 302.105078 282.720313 301.411328 282.720313 
Q 300.850391 282.720313 300.366016 282.832812 
Q 299.883203 282.945312 299.467578 283.170313 
L 299.467578 281.8375 
Q 300.030078 281.7 300.595703 281.629687 
Q 301.162891 281.559375 301.728516 281.559375 
Q 303.208203 281.559375 303.864453 282.142188 
Q 304.522266 282.725 304.522266 284.039062 
z
"/>
   </g>
  </g>
  <g id="axes_2">
   <g id="patch_7">
    <path d="M 463.745455 339.84 
L 796.385455 339.84 
L 796.385455 7.2 
L 463.745455 7.2 
L 463.745455 339.84 
z
" style="fill: none"/>
   </g>
   <g id="PolyQuadMesh_2">
    <path d="M 574.625455 7.2 
L 574.625455 118.08 
L 685.505455 118.08 
L 685.505455 7.2 
L 574.625455 7.2 
z
" clip-path="url(#pd91b1a9021)" style="fill: #8dd3c7"/>
    <path d="M 685.505455 7.2 
L 685.505455 118.08 
L 796.385455 118.08 
L 796.385455 7.2 
L 685.505455 7.2 
z
" clip-path="url(#pd91b1a9021)" style="fill: #8dd3c7"/>
    <path d="M 463.745455 118.08 
L 463.745455 228.96 
L 574.625455 228.96 
L 574.625455 118.08 
L 463.745455 118.08 
z
" clip-path="url(#pd91b1a9021)" style="fill: #8dd3c7"/>
    <path d="M 574.625455 118.08 
L 574.625455 228.96 
L 685.505455 228.96 
L 685.505455 118.08 
L 574.625455 118.08 
z
" clip-path="url(#pd91b1a9021)" style="fill: #b3de69"/>
    <path d="M 685.505455 118.08 
L 685.505455 228.96 
L 796.385455 228.96 
L 796.385455 118.08 
L 685.505455 118.08 
z
" clip-path="url(#pd91b1a9021)" style="fill: #b3de69"/>
    <path d="M 574.625455 228.96 
L 574.625455 339.84 
L 685.505455 339.84 
L 685.505455 228.96 
L 574.625455 228.96 
z
" clip-path="url(#pd91b1a9021)" style="fill: #b3de69"/>
    <path d="M 685.505455 228.96 
L 685.505455 339.84 
L 796.385455 339.84 
L 796.385455 228.96 
L 685.505455 228.96 
z
" clip-path="url(#pd91b1a9021)" style="fill: #ffed6f"/>
   </g>
   <g id="matplotlib.axis_3"/>
   <g id="matplotlib.axis_4"/>
   <g id="patch_8">
    <path d="M 463.745455 339.84 
L 463.745455 7.2 
" style="fill: none; stroke: #000000; stroke-width: 0.8; stroke-linejoin: miter; stroke-linecap: square"/>
   </g>
   <g id="patch_9">
    <path d="M 796.385455 339.84 
L 796.385455 7.2 
" style="fill: none; stroke: #000000; stroke-width: 0.8; stroke-linejoin: miter; stroke-linecap: square"/>
   </g>
   <g id="patch_10">
    <path d="M 463.745455 339.84 
L 796.385455 339.84 
" style="fill: none; stroke: #000000; stroke-width: 0.8; stroke-linejoin: miter; stroke-linecap: square"/>
   </g>
   <g id="patch_11">
    <path d="M 463.745455 7.2 
L 796.385455 7.2 
" style="fill: none; stroke: #000000; stroke-width: 0.8; stroke-linejoin: miter; stroke-linecap: square"/>
   </g>
   <g id="text_10">
    <path d="M 499.195611 58.10875 
L 501.294048 58.10875 
L 503.945611 63.10875 
L 503.945611 58.10875 
L 505.728423 58.10875 
L 505.728423 65.399375 
L 503.628423 65.399375 
L 500.976861 60.399375 
L 500.976861 65.399375 
L 499.195611 65.399375 
L 499.195611 58.10875 
z
M 510.088189 61.049375 
Q 509.506939 61.049375 509.202251 61.466562 
Q 508.897564 61.88375 508.897564 62.669687 
Q 508.897564 63.455625 509.202251 63.874375 
Q 509.506939 64.291562 510.088189 64.291562 
Q 510.660064 64.291562 510.961626 63.874375 
Q 511.264751 63.455625 511.264751 62.669687 
Q 511.264751 61.88375 510.961626 61.466562 
Q 510.660064 61.049375 510.088189 61.049375 
z
M 510.088189 59.799375 
Q 511.499126 59.799375 512.292876 60.561875 
Q 513.086626 61.322812 513.086626 62.669687 
Q 513.086626 64.018125 512.292876 64.780625 
Q 511.499126 65.541562 510.088189 65.541562 
Q 508.672564 65.541562 507.874126 64.780625 
Q 507.075689 64.018125 507.075689 62.669687 
Q 507.075689 61.322812 507.874126 60.561875 
Q 508.672564 59.799375 510.088189 59.799375 
z
M 516.314556 59.530625 
L 516.314556 63.979062 
L 516.987994 63.979062 
Q 518.139556 63.979062 518.747369 63.407187 
Q 519.356744 62.835312 519.356744 61.74625 
Q 519.356744 60.663437 518.750494 60.097812 
Q 518.145806 59.530625 516.987994 59.530625 
L 516.314556 59.530625 
z
M 514.434869 58.10875 
L 516.416119 58.10875 
Q 518.077056 58.10875 518.889556 58.34625 
Q 519.702056 58.582187 520.283306 59.149375 
Q 520.795806 59.643125 521.044244 60.288437 
Q 521.294244 60.932187 521.294244 61.74625 
Q 521.294244 62.572812 521.044244 63.219687 
Q 520.795806 63.866562 520.283306 64.35875 
Q 519.697369 64.925937 518.877056 65.163437 
Q 518.056744 65.399375 516.416119 65.399375 
L 514.434869 65.399375 
L 514.434869 58.10875 
z
M 525.107525 62.938437 
Q 524.56065 62.938437 524.284087 63.124375 
Q 524.009087 63.30875 524.009087 63.67125 
Q 524.009087 64.0025 524.230962 64.191562 
Q 524.4544 64.379062 524.849712 64.379062 
Q 525.3419 64.379062 525.6794 64.025937 
Q 526.0169 63.67125 526.0169 63.138437 
L 526.0169 62.938437 
L 525.107525 62.938437 
z
M 527.7794 62.279062 
L 527.7794 65.399375 
L 526.0169 65.399375 
L 526.0169 64.588437 
Q 525.665337 65.086875 525.224712 65.315 
Q 524.78565 65.541562 524.155962 65.541562 
Q 523.305962 65.541562 522.776275 65.04625 
Q 522.246587 64.549375 522.246587 63.75875 
Q 522.246587 62.79625 522.907525 62.347812 
Q 523.570025 61.897812 524.98565 61.897812 
L 526.0169 61.897812 
L 526.0169 61.761875 
Q 526.0169 61.34625 525.688775 61.154062 
Q 525.362212 60.960312 524.668462 60.960312 
Q 524.107525 60.960312 523.62315 61.072812 
Q 523.140337 61.185312 522.724712 61.410312 
L 522.724712 60.0775 
Q 523.287212 59.94 523.852837 59.869687 
Q 524.420025 59.799375 524.98565 59.799375 
Q 526.465337 59.799375 527.121587 60.382187 
Q 527.7794 60.965 527.7794 62.279062 
z
M 531.313384 58.3775 
L 531.313384 59.930625 
L 533.116509 59.930625 
L 533.116509 61.180625 
L 531.313384 61.180625 
L 531.313384 63.499375 
Q 531.313384 63.880625 531.464947 64.015 
Q 531.616509 64.149375 532.066509 64.149375 
L 532.964947 64.149375 
L 532.964947 65.399375 
L 531.464947 65.399375 
Q 530.430572 65.399375 529.997759 64.968125 
Q 529.566509 64.535312 529.566509 63.499375 
L 529.566509 61.180625 
L 528.696197 61.180625 
L 528.696197 59.930625 
L 529.566509 59.930625 
L 529.566509 58.3775 
L 531.313384 58.3775 
z
M 536.635845 62.938437 
Q 536.08897 62.938437 535.812408 63.124375 
Q 535.537408 63.30875 535.537408 63.67125 
Q 535.537408 64.0025 535.759283 64.191562 
Q 535.98272 64.379062 536.378033 64.379062 
Q 536.87022 64.379062 537.20772 64.025937 
Q 537.54522 63.67125 537.54522 63.138437 
L 537.54522 62.938437 
L 536.635845 62.938437 
z
M 539.30772 62.279062 
L 539.30772 65.399375 
L 537.54522 65.399375 
L 537.54522 64.588437 
Q 537.193658 65.086875 536.753033 65.315 
Q 536.31397 65.541562 535.684283 65.541562 
Q 534.834283 65.541562 534.304595 65.04625 
Q 533.774908 64.549375 533.774908 63.75875 
Q 533.774908 62.79625 534.435845 62.347812 
Q 535.098345 61.897812 536.51397 61.897812 
L 537.54522 61.897812 
L 537.54522 61.761875 
Q 537.54522 61.34625 537.217095 61.154062 
Q 536.890533 60.960312 536.196783 60.960312 
Q 535.635845 60.960312 535.15147 61.072812 
Q 534.668658 61.185312 534.253033 61.410312 
L 534.253033 60.0775 
Q 534.815533 59.94 535.381158 59.869687 
Q 535.948345 59.799375 536.51397 59.799375 
Q 537.993658 59.799375 538.649908 60.382187 
Q 539.30772 60.965 539.30772 62.279062 
z
" style="stroke: #ffffff; stroke-width: 3"/>
    <path d="M 499.195611 58.10875 
L 501.294048 58.10875 
L 503.945611 63.10875 
L 503.945611 58.10875 
L 505.728423 58.10875 
L 505.728423 65.399375 
L 503.628423 65.399375 
L 500.976861 60.399375 
L 500.976861 65.399375 
L 499.195611 65.399375 
L 499.195611 58.10875 
z
M 510.088189 61.049375 
Q 509.506939 61.049375 509.202251 61.466562 
Q 508.897564 61.88375 508.897564 62.669687 
Q 508.897564 63.455625 509.202251 63.874375 
Q 509.506939 64.291562 510.088189 64.291562 
Q 510.660064 64.291562 510.961626 63.874375 
Q 511.264751 63.455625 511.264751 62.669687 
Q 511.264751 61.88375 510.961626 61.466562 
Q 510.660064 61.049375 510.088189 61.049375 
z
M 510.088189 59.799375 
Q 511.499126 59.799375 512.292876 60.561875 
Q 513.086626 61.322812 513.086626 62.669687 
Q 513.086626 64.018125 512.292876 64.780625 
Q 511.499126 65.541562 510.088189 65.541562 
Q 508.672564 65.541562 507.874126 64.780625 
Q 507.075689 64.018125 507.075689 62.669687 
Q 507.075689 61.322812 507.874126 60.561875 
Q 508.672564 59.799375 510.088189 59.799375 
z
M 516.314556 59.530625 
L 516.314556 63.979062 
L 516.987994 63.979062 
Q 518.139556 63.979062 518.747369 63.407187 
Q 519.356744 62.835312 519.356744 61.74625 
Q 519.356744 60.663437 518.750494 60.097812 
Q 518.145806 59.530625 516.987994 59.530625 
L 516.314556 59.530625 
z
M 514.434869 58.10875 
L 516.416119 58.10875 
Q 518.077056 58.10875 518.889556 58.34625 
Q 519.702056 58.582187 520.283306 59.149375 
Q 520.795806 59.643125 521.044244 60.288437 
Q 521.294244 60.932187 521.294244 61.74625 
Q 521.294244 62.572812 521.044244 63.219687 
Q 520.795806 63.866562 520.283306 64.35875 
Q 519.697369 64.925937 518.877056 65.163437 
Q 518.056744 65.399375 516.416119 65.399375 
L 514.434869 65.399375 
L 514.434869 58.10875 
z
M 525.107525 62.938437 
Q 524.56065 62.938437 524.284087 63.124375 
Q 524.009087 63.30875 524.009087 63.67125 
Q 524.009087 64.0025 524.230962 64.191562 
Q 524.4544 64.379062 524.849712 64.379062 
Q 525.3419 64.379062 525.6794 64.025937 
Q 526.0169 63.67125 526.0169 63.138437 
L 526.0169 62.938437 
L 525.107525 62.938437 
z
M 527.7794 62.279062 
L 527.7794 65.399375 
L 526.0169 65.399375 
L 526.0169 64.588437 
Q 525.665337 65.086875 525.224712 65.315 
Q 524.78565 65.541562 524.155962 65.541562 
Q 523.305962 65.541562 522.776275 65.04625 
Q 522.246587 64.549375 522.246587 63.75875 
Q 522.246587 62.79625 522.907525 62.347812 
Q 523.570025 61.897812 524.98565 61.897812 
L 526.0169 61.897812 
L 526.0169 61.761875 
Q 526.0169 61.34625 525.688775 61.154062 
Q 525.362212 60.960312 524.668462 60.960312 
Q 524.107525 60.960312 523.62315 61.072812 
Q 523.140337 61.185312 522.724712 61.410312 
L 522.724712 60.0775 
Q 523.287212 59.94 523.852837 59.869687 
Q 524.420025 59.799375 524.98565 59.799375 
Q 526.465337 59.799375 527.121587 60.382187 
Q 527.7794 60.965 527.7794 62.279062 
z
M 531.313384 58.3775 
L 531.313384 59.930625 
L 533.116509 59.930625 
L 533.116509 61.180625 
L 531.313384 61.180625 
L 531.313384 63.499375 
Q 531.313384 63.880625 531.464947 64.015 
Q 531.616509 64.149375 532.066509 64.149375 
L 532.964947 64.149375 
L 532.964947 65.399375 
L 531.464947 65.399375 
Q 530.430572 65.399375 529.997759 64.968125 
Q 529.566509 64.535312 529.566509 63.499375 
L 529.566509 61.180625 
L 528.696197 61.180625 
L 528.696197 59.930625 
L 529.566509 59.930625 
L 529.566509 58.3775 
L 531.313384 58.3775 
z
M 536.635845 62.938437 
Q 536.08897 62.938437 535.812408 63.124375 
Q 535.537408 63.30875 535.537408 63.67125 
Q 535.537408 64.0025 535.759283 64.191562 
Q 535.98272 64.379062 536.378033 64.379062 
Q 536.87022 64.379062 537.20772 64.025937 
Q 537.54522 63.67125 537.54522 63.138437 
L 537.54522 62.938437 
L 536.635845 62.938437 
z
M 539.30772 62.279062 
L 539.30772 65.399375 
L 537.54522 65.399375 
L 537.54522 64.588437 
Q 537.193658 65.086875 536.753033 65.315 
Q 536.31397 65.541562 535.684283 65.541562 
Q 534.834283 65.541562 534.304595 65.04625 
Q 533.774908 64.549375 533.774908 63.75875 
Q 533.774908 62.79625 534.435845 62.347812 
Q 535.098345 61.897812 536.51397 61.897812 
L 537.54522 61.897812 
L 537.54522 61.761875 
Q 537.54522 61.34625 537.217095 61.154062 
Q 536.890533 60.960312 536.196783 60.960312 
Q 535.635845 60.960312 535.15147 61.072812 
Q 534.668658 61.185312 534.253033 61.410312 
L 534.253033 60.0775 
Q 534.815533 59.94 535.381158 59.869687 
Q 535.948345 59.799375 536.51397 59.799375 
Q 537.993658 59.799375 538.649908 60.382187 
Q 539.30772 60.965 539.30772 62.279062 
z
"/>
   </g>
   <g id="text_11">
    <path d="M 620.800611 64.100937 
L 622.461548 64.100937 
L 622.461548 59.388437 
L 620.756861 59.74 
L 620.756861 58.460312 
L 622.450611 58.10875 
L 624.238111 58.10875 
L 624.238111 64.100937 
L 625.899048 64.100937 
L 625.899048 65.399375 
L 620.800611 65.399375 
L 620.800611 64.100937 
z
M 631.186744 61.74625 
Q 631.186744 60.379062 630.930494 59.82125 
Q 630.674244 59.261875 630.067994 59.261875 
Q 629.463306 59.261875 629.203931 59.82125 
Q 628.944556 60.379062 628.944556 61.74625 
Q 628.944556 63.129062 629.203931 63.69625 
Q 629.463306 64.261875 630.067994 64.261875 
Q 630.669556 64.261875 630.927369 63.69625 
Q 631.186744 63.129062 631.186744 61.74625 
z
M 633.066431 61.761875 
Q 633.066431 63.572812 632.285181 64.557187 
Q 631.503931 65.541562 630.067994 65.541562 
Q 628.627369 65.541562 627.846119 64.557187 
Q 627.064869 63.572812 627.064869 61.761875 
Q 627.064869 59.944687 627.846119 58.961875 
Q 628.627369 57.9775 630.067994 57.9775 
Q 631.503931 57.9775 632.285181 58.961875 
Q 633.066431 59.944687 633.066431 61.761875 
z
M 634.716626 64.100937 
L 636.377564 64.100937 
L 636.377564 59.388437 
L 634.672876 59.74 
L 634.672876 58.460312 
L 636.366626 58.10875 
L 638.154126 58.10875 
L 638.154126 64.100937 
L 639.815064 64.100937 
L 639.815064 65.399375 
L 634.716626 65.399375 
L 634.716626 64.100937 
z
" style="stroke: #ffffff; stroke-width: 3"/>
    <path d="M 620.800611 64.100937 
L 622.461548 64.100937 
L 622.461548 59.388437 
L 620.756861 59.74 
L 620.756861 58.460312 
L 622.450611 58.10875 
L 624.238111 58.10875 
L 624.238111 64.100937 
L 625.899048 64.100937 
L 625.899048 65.399375 
L 620.800611 65.399375 
L 620.800611 64.100937 
z
M 631.186744 61.74625 
Q 631.186744 60.379062 630.930494 59.82125 
Q 630.674244 59.261875 630.067994 59.261875 
Q 629.463306 59.261875 629.203931 59.82125 
Q 628.944556 60.379062 628.944556 61.74625 
Q 628.944556 63.129062 629.203931 63.69625 
Q 629.463306 64.261875 630.067994 64.261875 
Q 630.669556 64.261875 630.927369 63.69625 
Q 631.186744 63.129062 631.186744 61.74625 
z
M 633.066431 61.761875 
Q 633.066431 63.572812 632.285181 64.557187 
Q 631.503931 65.541562 630.067994 65.541562 
Q 628.627369 65.541562 627.846119 64.557187 
Q 627.064869 63.572812 627.064869 61.761875 
Q 627.064869 59.944687 627.846119 58.961875 
Q 628.627369 57.9775 630.067994 57.9775 
Q 631.503931 57.9775 632.285181 58.961875 
Q 633.066431 59.944687 633.066431 61.761875 
z
M 634.716626 64.100937 
L 636.377564 64.100937 
L 636.377564 59.388437 
L 634.672876 59.74 
L 634.672876 58.460312 
L 636.366626 58.10875 
L 638.154126 58.10875 
L 638.154126 64.100937 
L 639.815064 64.100937 
L 639.815064 65.399375 
L 634.716626 65.399375 
L 634.716626 64.100937 
z
"/>
   </g>
   <g id="text_12">
    <path d="M 731.680611 64.100937 
L 733.341548 64.100937 
L 733.341548 59.388437 
L 731.636861 59.74 
L 731.636861 58.460312 
L 733.330611 58.10875 
L 735.118111 58.10875 
L 735.118111 64.100937 
L 736.779048 64.100937 
L 736.779048 65.399375 
L 731.680611 65.399375 
L 731.680611 64.100937 
z
M 742.066744 61.74625 
Q 742.066744 60.379062 741.810494 59.82125 
Q 741.554244 59.261875 740.947994 59.261875 
Q 740.343306 59.261875 740.083931 59.82125 
Q 739.824556 60.379062 739.824556 61.74625 
Q 739.824556 63.129062 740.083931 63.69625 
Q 740.343306 64.261875 740.947994 64.261875 
Q 741.549556 64.261875 741.807369 63.69625 
Q 742.066744 63.129062 742.066744 61.74625 
z
M 743.946431 61.761875 
Q 743.946431 63.572812 743.165181 64.557187 
Q 742.383931 65.541562 740.947994 65.541562 
Q 739.507369 65.541562 738.726119 64.557187 
Q 737.944869 63.572812 737.944869 61.761875 
Q 737.944869 59.944687 738.726119 58.961875 
Q 739.507369 57.9775 740.947994 57.9775 
Q 742.383931 57.9775 743.165181 58.961875 
Q 743.946431 59.944687 743.946431 61.761875 
z
M 745.596626 64.100937 
L 747.257564 64.100937 
L 747.257564 59.388437 
L 745.552876 59.74 
L 745.552876 58.460312 
L 747.246626 58.10875 
L 749.034126 58.10875 
L 749.034126 64.100937 
L 750.695064 64.100937 
L 750.695064 65.399375 
L 745.596626 65.399375 
L 745.596626 64.100937 
z
" style="stroke: #ffffff; stroke-width: 3"/>
    <path d="M 731.680611 64.100937 
L 733.341548 64.100937 
L 733.341548 59.388437 
L 731.636861 59.74 
L 731.636861 58.460312 
L 733.330611 58.10875 
L 735.118111 58.10875 
L 735.118111 64.100937 
L 736.779048 64.100937 
L 736.779048 65.399375 
L 731.680611 65.399375 
L 731.680611 64.100937 
z
M 742.066744 61.74625 
Q 742.066744 60.379062 741.810494 59.82125 
Q 741.554244 59.261875 740.947994 59.261875 
Q 740.343306 59.261875 740.083931 59.82125 
Q 739.824556 60.379062 739.824556 61.74625 
Q 739.824556 63.129062 740.083931 63.69625 
Q 740.343306 64.261875 740.947994 64.261875 
Q 741.549556 64.261875 741.807369 63.69625 
Q 742.066744 63.129062 742.066744 61.74625 
z
M 743.946431 61.761875 
Q 743.946431 63.572812 743.165181 64.557187 
Q 742.383931 65.541562 740.947994 65.541562 
Q 739.507369 65.541562 738.726119 64.557187 
Q 737.944869 63.572812 737.944869 61.761875 
Q 737.944869 59.944687 738.726119 58.961875 
Q 739.507369 57.9775 740.947994 57.9775 
Q 742.383931 57.9775 743.165181 58.961875 
Q 743.946431 59.944687 743.946431 61.761875 
z
M 745.596626 64.100937 
L 747.257564 64.100937 
L 747.257564 59.388437 
L 745.552876 59.74 
L 745.552876 58.460312 
L 747.246626 58.10875 
L 749.034126 58.10875 
L 749.034126 64.100937 
L 750.695064 64.100937 
L 750.695064 65.399375 
L 745.596626 65.399375 
L 745.596626 64.100937 
z
"/>
   </g>
   <g id="text_13">
    <path d="M 509.920611 174.980938 
L 511.581548 174.980938 
L 511.581548 170.268438 
L 509.876861 170.62 
L 509.876861 169.340313 
L 511.570611 168.98875 
L 513.358111 168.98875 
L 513.358111 174.980938 
L 515.019048 174.980938 
L 515.019048 176.279375 
L 509.920611 176.279375 
L 509.920611 174.980938 
z
M 520.306744 172.62625 
Q 520.306744 171.259063 520.050494 170.70125 
Q 519.794244 170.141875 519.187994 170.141875 
Q 518.583306 170.141875 518.323931 170.70125 
Q 518.064556 171.259063 518.064556 172.62625 
Q 518.064556 174.009063 518.323931 174.57625 
Q 518.583306 175.141875 519.187994 175.141875 
Q 519.789556 175.141875 520.047369 174.57625 
Q 520.306744 174.009063 520.306744 172.62625 
z
M 522.186431 172.641875 
Q 522.186431 174.452813 521.405181 175.437188 
Q 520.623931 176.421563 519.187994 176.421563 
Q 517.747369 176.421563 516.966119 175.437188 
Q 516.184869 174.452813 516.184869 172.641875 
Q 516.184869 170.824688 516.966119 169.841875 
Q 517.747369 168.8575 519.187994 168.8575 
Q 520.623931 168.8575 521.405181 169.841875 
Q 522.186431 170.824688 522.186431 172.641875 
z
M 523.836626 174.980938 
L 525.497564 174.980938 
L 525.497564 170.268438 
L 523.792876 170.62 
L 523.792876 169.340313 
L 525.486626 168.98875 
L 527.274126 168.98875 
L 527.274126 174.980938 
L 528.935064 174.980938 
L 528.935064 176.279375 
L 523.836626 176.279375 
L 523.836626 174.980938 
z
" style="stroke: #ffffff; stroke-width: 3"/>
    <path d="M 509.920611 174.980938 
L 511.581548 174.980938 
L 511.581548 170.268438 
L 509.876861 170.62 
L 509.876861 169.340313 
L 511.570611 168.98875 
L 513.358111 168.98875 
L 513.358111 174.980938 
L 515.019048 174.980938 
L 515.019048 176.279375 
L 509.920611 176.279375 
L 509.920611 174.980938 
z
M 520.306744 172.62625 
Q 520.306744 171.259063 520.050494 170.70125 
Q 519.794244 170.141875 519.187994 170.141875 
Q 518.583306 170.141875 518.323931 170.70125 
Q 518.064556 171.259063 518.064556 172.62625 
Q 518.064556 174.009063 518.323931 174.57625 
Q 518.583306 175.141875 519.187994 175.141875 
Q 519.789556 175.141875 520.047369 174.57625 
Q 520.306744 174.009063 520.306744 172.62625 
z
M 522.186431 172.641875 
Q 522.186431 174.452813 521.405181 175.437188 
Q 520.623931 176.421563 519.187994 176.421563 
Q 517.747369 176.421563 516.966119 175.437188 
Q 516.184869 174.452813 516.184869 172.641875 
Q 516.184869 170.824688 516.966119 169.841875 
Q 517.747369 168.8575 519.187994 168.8575 
Q 520.623931 168.8575 521.405181 169.841875 
Q 522.186431 170.824688 522.186431 172.641875 
z
M 523.836626 174.980938 
L 525.497564 174.980938 
L 525.497564 170.268438 
L 523.792876 170.62 
L 523.792876 169.340313 
L 525.486626 168.98875 
L 527.274126 168.98875 
L 527.274126 174.980938 
L 528.935064 174.980938 
L 528.935064 176.279375 
L 523.836626 176.279375 
L 523.836626 174.980938 
z
"/>
   </g>
   <g id="text_14">
    <path d="M 620.800611 174.980938 
L 622.461548 174.980938 
L 622.461548 170.268438 
L 620.756861 170.62 
L 620.756861 169.340313 
L 622.450611 168.98875 
L 624.238111 168.98875 
L 624.238111 174.980938 
L 625.899048 174.980938 
L 625.899048 176.279375 
L 620.800611 176.279375 
L 620.800611 174.980938 
z
M 631.186744 172.62625 
Q 631.186744 171.259063 630.930494 170.70125 
Q 630.674244 170.141875 630.067994 170.141875 
Q 629.463306 170.141875 629.203931 170.70125 
Q 628.944556 171.259063 628.944556 172.62625 
Q 628.944556 174.009063 629.203931 174.57625 
Q 629.463306 175.141875 630.067994 175.141875 
Q 630.669556 175.141875 630.927369 174.57625 
Q 631.186744 174.009063 631.186744 172.62625 
z
M 633.066431 172.641875 
Q 633.066431 174.452813 632.285181 175.437188 
Q 631.503931 176.421563 630.067994 176.421563 
Q 628.627369 176.421563 627.846119 175.437188 
Q 627.064869 174.452813 627.064869 172.641875 
Q 627.064869 170.824688 627.846119 169.841875 
Q 628.627369 168.8575 630.067994 168.8575 
Q 631.503931 168.8575 632.285181 169.841875 
Q 633.066431 170.824688 633.066431 172.641875 
z
M 636.426001 174.898125 
L 639.633814 174.898125 
L 639.633814 176.279375 
L 634.335376 176.279375 
L 634.335376 174.898125 
L 636.996314 172.548125 
Q 637.354126 172.22625 637.524439 171.918438 
Q 637.694751 171.610625 637.694751 171.279375 
Q 637.694751 170.766875 637.351001 170.454375 
Q 637.007251 170.141875 636.435376 170.141875 
Q 635.996314 170.141875 635.472876 170.329375 
Q 634.951001 170.516875 634.355689 170.88875 
L 634.355689 169.287188 
Q 634.990064 169.077813 635.610376 168.968438 
Q 636.230689 168.8575 636.826001 168.8575 
Q 638.135376 168.8575 638.860376 169.434063 
Q 639.585376 170.009063 639.585376 171.040313 
Q 639.585376 171.635625 639.277564 172.15125 
Q 638.969751 172.665313 637.983814 173.530938 
L 636.426001 174.898125 
z
" style="stroke: #ffffff; stroke-width: 3"/>
    <path d="M 620.800611 174.980938 
L 622.461548 174.980938 
L 622.461548 170.268438 
L 620.756861 170.62 
L 620.756861 169.340313 
L 622.450611 168.98875 
L 624.238111 168.98875 
L 624.238111 174.980938 
L 625.899048 174.980938 
L 625.899048 176.279375 
L 620.800611 176.279375 
L 620.800611 174.980938 
z
M 631.186744 172.62625 
Q 631.186744 171.259063 630.930494 170.70125 
Q 630.674244 170.141875 630.067994 170.141875 
Q 629.463306 170.141875 629.203931 170.70125 
Q 628.944556 171.259063 628.944556 172.62625 
Q 628.944556 174.009063 629.203931 174.57625 
Q 629.463306 175.141875 630.067994 175.141875 
Q 630.669556 175.141875 630.927369 174.57625 
Q 631.186744 174.009063 631.186744 172.62625 
z
M 633.066431 172.641875 
Q 633.066431 174.452813 632.285181 175.437188 
Q 631.503931 176.421563 630.067994 176.421563 
Q 628.627369 176.421563 627.846119 175.437188 
Q 627.064869 174.452813 627.064869 172.641875 
Q 627.064869 170.824688 627.846119 169.841875 
Q 628.627369 168.8575 630.067994 168.8575 
Q 631.503931 168.8575 632.285181 169.841875 
Q 633.066431 170.824688 633.066431 172.641875 
z
M 636.426001 174.898125 
L 639.633814 174.898125 
L 639.633814 176.279375 
L 634.335376 176.279375 
L 634.335376 174.898125 
L 636.996314 172.548125 
Q 637.354126 172.22625 637.524439 171.918438 
Q 637.694751 171.610625 637.694751 171.279375 
Q 637.694751 170.766875 637.351001 170.454375 
Q 637.007251 170.141875 636.435376 170.141875 
Q 635.996314 170.141875 635.472876 170.329375 
Q 634.951001 170.516875 634.355689 170.88875 
L 634.355689 169.287188 
Q 634.990064 169.077813 635.610376 168.968438 
Q 636.230689 168.8575 636.826001 168.8575 
Q 638.135376 168.8575 638.860376 169.434063 
Q 639.585376 170.009063 639.585376 171.040313 
Q 639.585376 171.635625 639.277564 172.15125 
Q 638.969751 172.665313 637.983814 173.530938 
L 636.426001 174.898125 
z
"/>
   </g>
   <g id="text_15">
    <path d="M 731.680611 174.980938 
L 733.341548 174.980938 
L 733.341548 170.268438 
L 731.636861 170.62 
L 731.636861 169.340313 
L 733.330611 168.98875 
L 735.118111 168.98875 
L 735.118111 174.980938 
L 736.779048 174.980938 
L 736.779048 176.279375 
L 731.680611 176.279375 
L 731.680611 174.980938 
z
M 742.066744 172.62625 
Q 742.066744 171.259063 741.810494 170.70125 
Q 741.554244 170.141875 740.947994 170.141875 
Q 740.343306 170.141875 740.083931 170.70125 
Q 739.824556 171.259063 739.824556 172.62625 
Q 739.824556 174.009063 740.083931 174.57625 
Q 740.343306 175.141875 740.947994 175.141875 
Q 741.549556 175.141875 741.807369 174.57625 
Q 742.066744 174.009063 742.066744 172.62625 
z
M 743.946431 172.641875 
Q 743.946431 174.452813 743.165181 175.437188 
Q 742.383931 176.421563 740.947994 176.421563 
Q 739.507369 176.421563 738.726119 175.437188 
Q 737.944869 174.452813 737.944869 172.641875 
Q 737.944869 170.824688 738.726119 169.841875 
Q 739.507369 168.8575 740.947994 168.8575 
Q 742.383931 168.8575 743.165181 169.841875 
Q 743.946431 170.824688 743.946431 172.641875 
z
M 747.306001 174.898125 
L 750.513814 174.898125 
L 750.513814 176.279375 
L 745.215376 176.279375 
L 745.215376 174.898125 
L 747.876314 172.548125 
Q 748.234126 172.22625 748.404439 171.918438 
Q 748.574751 171.610625 748.574751 171.279375 
Q 748.574751 170.766875 748.231001 170.454375 
Q 747.887251 170.141875 747.315376 170.141875 
Q 746.876314 170.141875 746.352876 170.329375 
Q 745.831001 170.516875 745.235689 170.88875 
L 745.235689 169.287188 
Q 745.870064 169.077813 746.490376 168.968438 
Q 747.110689 168.8575 747.706001 168.8575 
Q 749.015376 168.8575 749.740376 169.434063 
Q 750.465376 170.009063 750.465376 171.040313 
Q 750.465376 171.635625 750.157564 172.15125 
Q 749.849751 172.665313 748.863814 173.530938 
L 747.306001 174.898125 
z
" style="stroke: #ffffff; stroke-width: 3"/>
    <path d="M 731.680611 174.980938 
L 733.341548 174.980938 
L 733.341548 170.268438 
L 731.636861 170.62 
L 731.636861 169.340313 
L 733.330611 168.98875 
L 735.118111 168.98875 
L 735.118111 174.980938 
L 736.779048 174.980938 
L 736.779048 176.279375 
L 731.680611 176.279375 
L 731.680611 174.980938 
z
M 742.066744 172.62625 
Q 742.066744 171.259063 741.810494 170.70125 
Q 741.554244 170.141875 740.947994 170.141875 
Q 740.343306 170.141875 740.083931 170.70125 
Q 739.824556 171.259063 739.824556 172.62625 
Q 739.824556 174.009063 740.083931 174.57625 
Q 740.343306 175.141875 740.947994 175.141875 
Q 741.549556 175.141875 741.807369 174.57625 
Q 742.066744 174.009063 742.066744 172.62625 
z
M 743.946431 172.641875 
Q 743.946431 174.452813 743.165181 175.437188 
Q 742.383931 176.421563 740.947994 176.421563 
Q 739.507369 176.421563 738.726119 175.437188 
Q 737.944869 174.452813 737.944869 172.641875 
Q 737.944869 170.824688 738.726119 169.841875 
Q 739.507369 168.8575 740.947994 168.8575 
Q 742.383931 168.8575 743.165181 169.841875 
Q 743.946431 170.824688 743.946431 172.641875 
z
M 747.306001 174.898125 
L 750.513814 174.898125 
L 750.513814 176.279375 
L 745.215376 176.279375 
L 745.215376 174.898125 
L 747.876314 172.548125 
Q 748.234126 172.22625 748.404439 171.918438 
Q 748.574751 171.610625 748.574751 171.279375 
Q 748.574751 170.766875 748.231001 170.454375 
Q 747.887251 170.141875 747.315376 170.141875 
Q 746.876314 170.141875 746.352876 170.329375 
Q 745.831001 170.516875 745.235689 170.88875 
L 745.235689 169.287188 
Q 745.870064 169.077813 746.490376 168.968438 
Q 747.110689 168.8575 747.706001 168.8575 
Q 749.015376 168.8575 749.740376 169.434063 
Q 750.465376 170.009063 750.465376 171.040313 
Q 750.465376 171.635625 750.157564 172.15125 
Q 749.849751 172.665313 748.863814 173.530938 
L 747.306001 174.898125 
z
"/>
   </g>
   <g id="text_16">
    <path d="M 499.195611 279.86875 
L 501.294048 279.86875 
L 503.945611 284.86875 
L 503.945611 279.86875 
L 505.728423 279.86875 
L 505.728423 287.159375 
L 503.628423 287.159375 
L 500.976861 282.159375 
L 500.976861 287.159375 
L 499.195611 287.159375 
L 499.195611 279.86875 
z
M 510.088189 282.809375 
Q 509.506939 282.809375 509.202251 283.226562 
Q 508.897564 283.64375 508.897564 284.429688 
Q 508.897564 285.215625 509.202251 285.634375 
Q 509.506939 286.051562 510.088189 286.051562 
Q 510.660064 286.051562 510.961626 285.634375 
Q 511.264751 285.215625 511.264751 284.429688 
Q 511.264751 283.64375 510.961626 283.226562 
Q 510.660064 282.809375 510.088189 282.809375 
z
M 510.088189 281.559375 
Q 511.499126 281.559375 512.292876 282.321875 
Q 513.086626 283.082812 513.086626 284.429688 
Q 513.086626 285.778125 512.292876 286.540625 
Q 511.499126 287.301562 510.088189 287.301562 
Q 508.672564 287.301562 507.874126 286.540625 
Q 507.075689 285.778125 507.075689 284.429688 
Q 507.075689 283.082812 507.874126 282.321875 
Q 508.672564 281.559375 510.088189 281.559375 
z
M 516.314556 281.290625 
L 516.314556 285.739062 
L 516.987994 285.739062 
Q 518.139556 285.739062 518.747369 285.167188 
Q 519.356744 284.595313 519.356744 283.50625 
Q 519.356744 282.423438 518.750494 281.857813 
Q 518.145806 281.290625 516.987994 281.290625 
L 516.314556 281.290625 
z
M 514.434869 279.86875 
L 516.416119 279.86875 
Q 518.077056 279.86875 518.889556 280.10625 
Q 519.702056 280.342188 520.283306 280.909375 
Q 520.795806 281.403125 521.044244 282.048438 
Q 521.294244 282.692187 521.294244 283.50625 
Q 521.294244 284.332812 521.044244 284.979688 
Q 520.795806 285.626563 520.283306 286.11875 
Q 519.697369 286.685938 518.877056 286.923438 
Q 518.056744 287.159375 516.416119 287.159375 
L 514.434869 287.159375 
L 514.434869 279.86875 
z
M 525.107525 284.698438 
Q 524.56065 284.698438 524.284087 284.884375 
Q 524.009087 285.06875 524.009087 285.43125 
Q 524.009087 285.7625 524.230962 285.951563 
Q 524.4544 286.139063 524.849712 286.139063 
Q 525.3419 286.139063 525.6794 285.785937 
Q 526.0169 285.43125 526.0169 284.898438 
L 526.0169 284.698438 
L 525.107525 284.698438 
z
M 527.7794 284.039062 
L 527.7794 287.159375 
L 526.0169 287.159375 
L 526.0169 286.348437 
Q 525.665337 286.846875 525.224712 287.075 
Q 524.78565 287.301562 524.155962 287.301562 
Q 523.305962 287.301562 522.776275 286.80625 
Q 522.246587 286.309375 522.246587 285.51875 
Q 522.246587 284.55625 522.907525 284.107813 
Q 523.570025 283.657813 524.98565 283.657813 
L 526.0169 283.657813 
L 526.0169 283.521875 
Q 526.0169 283.10625 525.688775 282.914062 
Q 525.362212 282.720313 524.668462 282.720313 
Q 524.107525 282.720313 523.62315 282.832812 
Q 523.140337 282.945312 522.724712 283.170313 
L 522.724712 281.8375 
Q 523.287212 281.7 523.852837 281.629687 
Q 524.420025 281.559375 524.98565 281.559375 
Q 526.465337 281.559375 527.121587 282.142188 
Q 527.7794 282.725 527.7794 284.039062 
z
M 531.313384 280.1375 
L 531.313384 281.690625 
L 533.116509 281.690625 
L 533.116509 282.940625 
L 531.313384 282.940625 
L 531.313384 285.259375 
Q 531.313384 285.640625 531.464947 285.775 
Q 531.616509 285.909375 532.066509 285.909375 
L 532.964947 285.909375 
L 532.964947 287.159375 
L 531.464947 287.159375 
Q 530.430572 287.159375 529.997759 286.728125 
Q 529.566509 286.295313 529.566509 285.259375 
L 529.566509 282.940625 
L 528.696197 282.940625 
L 528.696197 281.690625 
L 529.566509 281.690625 
L 529.566509 280.1375 
L 531.313384 280.1375 
z
M 536.635845 284.698438 
Q 536.08897 284.698438 535.812408 284.884375 
Q 535.537408 285.06875 535.537408 285.43125 
Q 535.537408 285.7625 535.759283 285.951563 
Q 535.98272 286.139063 536.378033 286.139063 
Q 536.87022 286.139063 537.20772 285.785937 
Q 537.54522 285.43125 537.54522 284.898438 
L 537.54522 284.698438 
L 536.635845 284.698438 
z
M 539.30772 284.039062 
L 539.30772 287.159375 
L 537.54522 287.159375 
L 537.54522 286.348437 
Q 537.193658 286.846875 536.753033 287.075 
Q 536.31397 287.301562 535.684283 287.301562 
Q 534.834283 287.301562 534.304595 286.80625 
Q 533.774908 286.309375 533.774908 285.51875 
Q 533.774908 284.55625 534.435845 284.107813 
Q 535.098345 283.657813 536.51397 283.657813 
L 537.54522 283.657813 
L 537.54522 283.521875 
Q 537.54522 283.10625 537.217095 282.914062 
Q 536.890533 282.720313 536.196783 282.720313 
Q 535.635845 282.720313 535.15147 282.832812 
Q 534.668658 282.945312 534.253033 283.170313 
L 534.253033 281.8375 
Q 534.815533 281.7 535.381158 281.629687 
Q 535.948345 281.559375 536.51397 281.559375 
Q 537.993658 281.559375 538.649908 282.142188 
Q 539.30772 282.725 539.30772 284.039062 
z
" style="stroke: #ffffff; stroke-width: 3"/>
    <path d="M 499.195611 279.86875 
L 501.294048 279.86875 
L 503.945611 284.86875 
L 503.945611 279.86875 
L 505.728423 279.86875 
L 505.728423 287.159375 
L 503.628423 287.159375 
L 500.976861 282.159375 
L 500.976861 287.159375 
L 499.195611 287.159375 
L 499.195611 279.86875 
z
M 510.088189 282.809375 
Q 509.506939 282.809375 509.202251 283.226562 
Q 508.897564 283.64375 508.897564 284.429688 
Q 508.897564 285.215625 509.202251 285.634375 
Q 509.506939 286.051562 510.088189 286.051562 
Q 510.660064 286.051562 510.961626 285.634375 
Q 511.264751 285.215625 511.264751 284.429688 
Q 511.264751 283.64375 510.961626 283.226562 
Q 510.660064 282.809375 510.088189 282.809375 
z
M 510.088189 281.559375 
Q 511.499126 281.559375 512.292876 282.321875 
Q 513.086626 283.082812 513.086626 284.429688 
Q 513.086626 285.778125 512.292876 286.540625 
Q 511.499126 287.301562 510.088189 287.301562 
Q 508.672564 287.301562 507.874126 286.540625 
Q 507.075689 285.778125 507.075689 284.429688 
Q 507.075689 283.082812 507.874126 282.321875 
Q 508.672564 281.559375 510.088189 281.559375 
z
M 516.314556 281.290625 
L 516.314556 285.739062 
L 516.987994 285.739062 
Q 518.139556 285.739062 518.747369 285.167188 
Q 519.356744 284.595313 519.356744 283.50625 
Q 519.356744 282.423438 518.750494 281.857813 
Q 518.145806 281.290625 516.987994 281.290625 
L 516.314556 281.290625 
z
M 514.434869 279.86875 
L 516.416119 279.86875 
Q 518.077056 279.86875 518.889556 280.10625 
Q 519.702056 280.342188 520.283306 280.909375 
Q 520.795806 281.403125 521.044244 282.048438 
Q 521.294244 282.692187 521.294244 283.50625 
Q 521.294244 284.332812 521.044244 284.979688 
Q 520.795806 285.626563 520.283306 286.11875 
Q 519.697369 286.685938 518.877056 286.923438 
Q 518.056744 287.159375 516.416119 287.159375 
L 514.434869 287.159375 
L 514.434869 279.86875 
z
M 525.107525 284.698438 
Q 524.56065 284.698438 524.284087 284.884375 
Q 524.009087 285.06875 524.009087 285.43125 
Q 524.009087 285.7625 524.230962 285.951563 
Q 524.4544 286.139063 524.849712 286.139063 
Q 525.3419 286.139063 525.6794 285.785937 
Q 526.0169 285.43125 526.0169 284.898438 
L 526.0169 284.698438 
L 525.107525 284.698438 
z
M 527.7794 284.039062 
L 527.7794 287.159375 
L 526.0169 287.159375 
L 526.0169 286.348437 
Q 525.665337 286.846875 525.224712 287.075 
Q 524.78565 287.301562 524.155962 287.301562 
Q 523.305962 287.301562 522.776275 286.80625 
Q 522.246587 286.309375 522.246587 285.51875 
Q 522.246587 284.55625 522.907525 284.107813 
Q 523.570025 283.657813 524.98565 283.657813 
L 526.0169 283.657813 
L 526.0169 283.521875 
Q 526.0169 283.10625 525.688775 282.914062 
Q 525.362212 282.720313 524.668462 282.720313 
Q 524.107525 282.720313 523.62315 282.832812 
Q 523.140337 282.945312 522.724712 283.170313 
L 522.724712 281.8375 
Q 523.287212 281.7 523.852837 281.629687 
Q 524.420025 281.559375 524.98565 281.559375 
Q 526.465337 281.559375 527.121587 282.142188 
Q 527.7794 282.725 527.7794 284.039062 
z
M 531.313384 280.1375 
L 531.313384 281.690625 
L 533.116509 281.690625 
L 533.116509 282.940625 
L 531.313384 282.940625 
L 531.313384 285.259375 
Q 531.313384 285.640625 531.464947 285.775 
Q 531.616509 285.909375 532.066509 285.909375 
L 532.964947 285.909375 
L 532.964947 287.159375 
L 531.464947 287.159375 
Q 530.430572 287.159375 529.997759 286.728125 
Q 529.566509 286.295313 529.566509 285.259375 
L 529.566509 282.940625 
L 528.696197 282.940625 
L 528.696197 281.690625 
L 529.566509 281.690625 
L 529.566509 280.1375 
L 531.313384 280.1375 
z
M 536.635845 284.698438 
Q 536.08897 284.698438 535.812408 284.884375 
Q 535.537408 285.06875 535.537408 285.43125 
Q 535.537408 285.7625 535.759283 285.951563 
Q 535.98272 286.139063 536.378033 286.139063 
Q 536.87022 286.139063 537.20772 285.785937 
Q 537.54522 285.43125 537.54522 284.898438 
L 537.54522 284.698438 
L 536.635845 284.698438 
z
M 539.30772 284.039062 
L 539.30772 287.159375 
L 537.54522 287.159375 
L 537.54522 286.348437 
Q 537.193658 286.846875 536.753033 287.075 
Q 536.31397 287.301562 535.684283 287.301562 
Q 534.834283 287.301562 534.304595 286.80625 
Q 533.774908 286.309375 533.774908 285.51875 
Q 533.774908 284.55625 534.435845 284.107813 
Q 535.098345 283.657813 536.51397 283.657813 
L 537.54522 283.657813 
L 537.54522 283.521875 
Q 537.54522 283.10625 537.217095 282.914062 
Q 536.890533 282.720313 536.196783 282.720313 
Q 535.635845 282.720313 535.15147 282.832812 
Q 534.668658 282.945312 534.253033 283.170313 
L 534.253033 281.8375 
Q 534.815533 281.7 535.381158 281.629687 
Q 535.948345 281.559375 536.51397 281.559375 
Q 537.993658 281.559375 538.649908 282.142188 
Q 539.30772 282.725 539.30772 284.039062 
z
"/>
   </g>
   <g id="text_17">
    <path d="M 620.800611 285.860938 
L 622.461548 285.860938 
L 622.461548 281.148438 
L 620.756861 281.5 
L 620.756861 280.220313 
L 622.450611 279.86875 
L 624.238111 279.86875 
L 624.238111 285.860938 
L 625.899048 285.860938 
L 625.899048 287.159375 
L 620.800611 287.159375 
L 620.800611 285.860938 
z
M 631.186744 283.50625 
Q 631.186744 282.139063 630.930494 281.58125 
Q 630.674244 281.021875 630.067994 281.021875 
Q 629.463306 281.021875 629.203931 281.58125 
Q 628.944556 282.139063 628.944556 283.50625 
Q 628.944556 284.889063 629.203931 285.45625 
Q 629.463306 286.021875 630.067994 286.021875 
Q 630.669556 286.021875 630.927369 285.45625 
Q 631.186744 284.889063 631.186744 283.50625 
z
M 633.066431 283.521875 
Q 633.066431 285.332812 632.285181 286.317187 
Q 631.503931 287.301562 630.067994 287.301562 
Q 628.627369 287.301562 627.846119 286.317187 
Q 627.064869 285.332812 627.064869 283.521875 
Q 627.064869 281.704688 627.846119 280.721875 
Q 628.627369 279.7375 630.067994 279.7375 
Q 631.503931 279.7375 632.285181 280.721875 
Q 633.066431 281.704688 633.066431 283.521875 
z
M 636.426001 285.778125 
L 639.633814 285.778125 
L 639.633814 287.159375 
L 634.335376 287.159375 
L 634.335376 285.778125 
L 636.996314 283.428125 
Q 637.354126 283.10625 637.524439 282.798438 
Q 637.694751 282.490625 637.694751 282.159375 
Q 637.694751 281.646875 637.351001 281.334375 
Q 637.007251 281.021875 636.435376 281.021875 
Q 635.996314 281.021875 635.472876 281.209375 
Q 634.951001 281.396875 634.355689 281.76875 
L 634.355689 280.167188 
Q 634.990064 279.957812 635.610376 279.848437 
Q 636.230689 279.7375 636.826001 279.7375 
Q 638.135376 279.7375 638.860376 280.314063 
Q 639.585376 280.889063 639.585376 281.920313 
Q 639.585376 282.515625 639.277564 283.03125 
Q 638.969751 283.545313 637.983814 284.410937 
L 636.426001 285.778125 
z
" style="stroke: #ffffff; stroke-width: 3"/>
    <path d="M 620.800611 285.860938 
L 622.461548 285.860938 
L 622.461548 281.148438 
L 620.756861 281.5 
L 620.756861 280.220313 
L 622.450611 279.86875 
L 624.238111 279.86875 
L 624.238111 285.860938 
L 625.899048 285.860938 
L 625.899048 287.159375 
L 620.800611 287.159375 
L 620.800611 285.860938 
z
M 631.186744 283.50625 
Q 631.186744 282.139063 630.930494 281.58125 
Q 630.674244 281.021875 630.067994 281.021875 
Q 629.463306 281.021875 629.203931 281.58125 
Q 628.944556 282.139063 628.944556 283.50625 
Q 628.944556 284.889063 629.203931 285.45625 
Q 629.463306 286.021875 630.067994 286.021875 
Q 630.669556 286.021875 630.927369 285.45625 
Q 631.186744 284.889063 631.186744 283.50625 
z
M 633.066431 283.521875 
Q 633.066431 285.332812 632.285181 286.317187 
Q 631.503931 287.301562 630.067994 287.301562 
Q 628.627369 287.301562 627.846119 286.317187 
Q 627.064869 285.332812 627.064869 283.521875 
Q 627.064869 281.704688 627.846119 280.721875 
Q 628.627369 279.7375 630.067994 279.7375 
Q 631.503931 279.7375 632.285181 280.721875 
Q 633.066431 281.704688 633.066431 283.521875 
z
M 636.426001 285.778125 
L 639.633814 285.778125 
L 639.633814 287.159375 
L 634.335376 287.159375 
L 634.335376 285.778125 
L 636.996314 283.428125 
Q 637.354126 283.10625 637.524439 282.798438 
Q 637.694751 282.490625 637.694751 282.159375 
Q 637.694751 281.646875 637.351001 281.334375 
Q 637.007251 281.021875 636.435376 281.021875 
Q 635.996314 281.021875 635.472876 281.209375 
Q 634.951001 281.396875 634.355689 281.76875 
L 634.355689 280.167188 
Q 634.990064 279.957812 635.610376 279.848437 
Q 636.230689 279.7375 636.826001 279.7375 
Q 638.135376 279.7375 638.860376 280.314063 
Q 639.585376 280.889063 639.585376 281.920313 
Q 639.585376 282.515625 639.277564 283.03125 
Q 638.969751 283.545313 637.983814 284.410937 
L 636.426001 285.778125 
z
"/>
   </g>
   <g id="text_18">
    <path d="M 731.680611 285.860938 
L 733.341548 285.860938 
L 733.341548 281.148438 
L 731.636861 281.5 
L 731.636861 280.220313 
L 733.330611 279.86875 
L 735.118111 279.86875 
L 735.118111 285.860938 
L 736.779048 285.860938 
L 736.779048 287.159375 
L 731.680611 287.159375 
L 731.680611 285.860938 
z
M 742.066744 283.50625 
Q 742.066744 282.139063 741.810494 281.58125 
Q 741.554244 281.021875 740.947994 281.021875 
Q 740.343306 281.021875 740.083931 281.58125 
Q 739.824556 282.139063 739.824556 283.50625 
Q 739.824556 284.889063 740.083931 285.45625 
Q 740.343306 286.021875 740.947994 286.021875 
Q 741.549556 286.021875 741.807369 285.45625 
Q 742.066744 284.889063 742.066744 283.50625 
z
M 743.946431 283.521875 
Q 743.946431 285.332812 743.165181 286.317187 
Q 742.383931 287.301562 740.947994 287.301562 
Q 739.507369 287.301562 738.726119 286.317187 
Q 737.944869 285.332812 737.944869 283.521875 
Q 737.944869 281.704688 738.726119 280.721875 
Q 739.507369 279.7375 740.947994 279.7375 
Q 742.383931 279.7375 743.165181 280.721875 
Q 743.946431 281.704688 743.946431 283.521875 
z
M 749.082564 283.228125 
Q 749.820064 283.41875 750.202876 283.890625 
Q 750.587251 284.360938 750.587251 285.089063 
Q 750.587251 286.173438 749.756001 286.7375 
Q 748.926314 287.301562 747.335689 287.301562 
Q 746.773189 287.301562 746.209126 287.210938 
Q 745.645064 287.120313 745.093501 286.939063 
L 745.093501 285.489062 
Q 745.621626 285.753125 746.140376 285.8875 
Q 746.660689 286.021875 747.163814 286.021875 
Q 747.910689 286.021875 748.309126 285.764063 
Q 748.707564 285.504687 748.707564 285.020312 
Q 748.707564 284.521875 748.299751 284.265625 
Q 747.891939 284.009375 747.095064 284.009375 
L 746.343501 284.009375 
L 746.343501 282.798438 
L 747.134126 282.798438 
Q 747.843501 282.798438 748.188814 282.576563 
Q 748.535689 282.354688 748.535689 281.9 
Q 748.535689 281.48125 748.198189 281.251563 
Q 747.862251 281.021875 747.246626 281.021875 
Q 746.793501 281.021875 746.329439 281.125 
Q 745.865376 281.226562 745.406001 281.426562 
L 745.406001 280.05 
Q 745.962251 279.89375 746.509126 279.815625 
Q 747.056001 279.7375 747.584126 279.7375 
Q 749.004439 279.7375 749.709126 280.204688 
Q 750.415376 280.670313 750.415376 281.607813 
Q 750.415376 282.246875 750.077876 282.654688 
Q 749.741939 283.0625 749.082564 283.228125 
z
" style="stroke: #ffffff; stroke-width: 3"/>
    <path d="M 731.680611 285.860938 
L 733.341548 285.860938 
L 733.341548 281.148438 
L 731.636861 281.5 
L 731.636861 280.220313 
L 733.330611 279.86875 
L 735.118111 279.86875 
L 735.118111 285.860938 
L 736.779048 285.860938 
L 736.779048 287.159375 
L 731.680611 287.159375 
L 731.680611 285.860938 
z
M 742.066744 283.50625 
Q 742.066744 282.139063 741.810494 281.58125 
Q 741.554244 281.021875 740.947994 281.021875 
Q 740.343306 281.021875 740.083931 281.58125 
Q 739.824556 282.139063 739.824556 283.50625 
Q 739.824556 284.889063 740.083931 285.45625 
Q 740.343306 286.021875 740.947994 286.021875 
Q 741.549556 286.021875 741.807369 285.45625 
Q 742.066744 284.889063 742.066744 283.50625 
z
M 743.946431 283.521875 
Q 743.946431 285.332812 743.165181 286.317187 
Q 742.383931 287.301562 740.947994 287.301562 
Q 739.507369 287.301562 738.726119 286.317187 
Q 737.944869 285.332812 737.944869 283.521875 
Q 737.944869 281.704688 738.726119 280.721875 
Q 739.507369 279.7375 740.947994 279.7375 
Q 742.383931 279.7375 743.165181 280.721875 
Q 743.946431 281.704688 743.946431 283.521875 
z
M 749.082564 283.228125 
Q 749.820064 283.41875 750.202876 283.890625 
Q 750.587251 284.360938 750.587251 285.089063 
Q 750.587251 286.173438 749.756001 286.7375 
Q 748.926314 287.301562 747.335689 287.301562 
Q 746.773189 287.301562 746.209126 287.210938 
Q 745.645064 287.120313 745.093501 286.939063 
L 745.093501 285.489062 
Q 745.621626 285.753125 746.140376 285.8875 
Q 746.660689 286.021875 747.163814 286.021875 
Q 747.910689 286.021875 748.309126 285.764063 
Q 748.707564 285.504687 748.707564 285.020312 
Q 748.707564 284.521875 748.299751 284.265625 
Q 747.891939 284.009375 747.095064 284.009375 
L 746.343501 284.009375 
L 746.343501 282.798438 
L 747.134126 282.798438 
Q 747.843501 282.798438 748.188814 282.576563 
Q 748.535689 282.354688 748.535689 281.9 
Q 748.535689 281.48125 748.198189 281.251563 
Q 747.862251 281.021875 747.246626 281.021875 
Q 746.793501 281.021875 746.329439 281.125 
Q 745.865376 281.226562 745.406001 281.426562 
L 745.406001 280.05 
Q 745.962251 279.89375 746.509126 279.815625 
Q 747.056001 279.7375 747.584126 279.7375 
Q 749.004439 279.7375 749.709126 280.204688 
Q 750.415376 280.670313 750.415376 281.607813 
Q 750.415376 282.246875 750.077876 282.654688 
Q 749.741939 283.0625 749.082564 283.228125 
z
"/>
   </g>
  </g>
 </g>
 <defs>
  <clipPath id="p4430f57cc6">
   <rect x="7.2" y="7.2" width="332.64" height="332.64"/>
  </clipPath>
  <clipPath id="pd91b1a9021">
   <rect x="463.745455" y="7.2" width="332.64" height="332.64"/>
  </clipPath>
 </defs>
</svg>
