<?xml version="1.0" encoding="utf-8" standalone="no"?>
<!DOCTYPE svg PUBLIC "-//W3C//DTD SVG 1.1//EN"
  "http://www.w3.org/Graphics/SVG/1.1/DTD/svg11.dtd">
<svg xmlns:xlink="http://www.w3.org/1999/xlink" width="851.4pt" height="260.576471pt" viewBox="0 0 851.4 260.576471" xmlns="http://www.w3.org/2000/svg" version="1.1">
 <metadata>
  <rdf:RDF xmlns:dc="http://purl.org/dc/elements/1.1/" xmlns:cc="http://creativecommons.org/ns#" xmlns:rdf="http://www.w3.org/1999/02/22-rdf-syntax-ns#">
   <cc:Work>
    <dc:type rdf:resource="http://purl.org/dc/dcmitype/StillImage"/>
    <dc:date>2025-07-07T16:42:23.786263</dc:date>
    <dc:format>image/svg+xml</dc:format>
    <dc:creator>
     <cc:Agent>
      <dc:title>Matplotlib v3.6.3, https://matplotlib.org/</dc:title>
     </cc:Agent>
    </dc:creator>
   </cc:Work>
  </rdf:RDF>
 </metadata>
 <defs>
  <style type="text/css">*{stroke-linejoin: round; stroke-linecap: butt}</style>
 </defs>
 <g id="figure_1">
  <g id="patch_1">
   <path d="M 0 260.576471 
L 851.4 260.576471 
L 851.4 0 
L 0 0 
L 0 260.576471 
z
" style="fill: none"/>
  </g>
  <g id="axes_1">
   <g id="patch_2">
    <path d="M 7.2 253.376471 
L 253.376471 253.376471 
L 253.376471 7.2 
L 7.2 7.2 
L 7.2 253.376471 
z
" style="fill: none"/>
   </g>
   <g id="PolyCollection_1">
    <path d="M 7.2 7.2 
L 7.2 89.258824 
L 89.258824 89.258824 
L 89.258824 7.2 
L 7.2 7.2 
z
" clip-path="url(#p9640dc455f)" style="fill: #b3b3b3"/>
    <path d="M 89.258824 7.2 
L 89.258824 89.258824 
L 171.317647 89.258824 
L 171.317647 7.2 
L 89.258824 7.2 
z
" clip-path="url(#p9640dc455f)" style="fill: #66c2a5"/>
    <path d="M 171.317647 7.2 
L 171.317647 89.258824 
L 253.376471 89.258824 
L 253.376471 7.2 
L 171.317647 7.2 
z
" clip-path="url(#p9640dc455f)" style="fill: #b3b3b3"/>
    <path d="M 89.258824 89.258824 
L 89.258824 171.317647 
L 171.317647 171.317647 
L 171.317647 89.258824 
L 89.258824 89.258824 
z
" clip-path="url(#p9640dc455f)" style="fill: #b3b3b3"/>
    <path d="M 171.317647 89.258824 
L 171.317647 171.317647 
L 253.376471 171.317647 
L 253.376471 89.258824 
L 171.317647 89.258824 
z
" clip-path="url(#p9640dc455f)" style="fill: #8da0cb"/>
    <path d="M 7.2 171.317647 
L 7.2 253.376471 
L 89.258824 253.376471 
L 89.258824 171.317647 
L 7.2 171.317647 
z
" clip-path="url(#p9640dc455f)" style="fill: #66c2a5"/>
    <path d="M 89.258824 171.317647 
L 89.258824 253.376471 
L 171.317647 253.376471 
L 171.317647 171.317647 
L 89.258824 171.317647 
z
" clip-path="url(#p9640dc455f)" style="fill: #8da0cb"/>
    <path d="M 171.317647 171.317647 
L 171.317647 253.376471 
L 253.376471 253.376471 
L 253.376471 171.317647 
L 171.317647 171.317647 
z
" clip-path="url(#p9640dc455f)" style="fill: #8da0cb"/>
   </g>
   <g id="matplotlib.axis_1">
    <g id="xtick_1">
     <g id="line2d_1">
      <path d="M 7.2 253.376471 
L 7.2 7.2 
" clip-path="url(#p9640dc455f)" style="fill: none; stroke: #000000; stroke-width: 2; stroke-linecap: square"/>
     </g>
     <g id="line2d_2"/>
    </g>
    <g id="xtick_2">
     <g id="line2d_3">
      <path d="M 89.258824 253.376471 
L 89.258824 7.2 
" clip-path="url(#p9640dc455f)" style="fill: none; stroke: #000000; stroke-width: 2; stroke-linecap: square"/>
     </g>
     <g id="line2d_4"/>
    </g>
    <g id="xtick_3">
     <g id="line2d_5">
      <path d="M 171.317647 253.376471 
L 171.317647 7.2 
" clip-path="url(#p9640dc455f)" style="fill: none; stroke: #000000; stroke-width: 2; stroke-linecap: square"/>
     </g>
     <g id="line2d_6"/>
    </g>
    <g id="xtick_4">
     <g id="line2d_7">
      <path d="M 253.376471 253.376471 
L 253.376471 7.2 
" clip-path="url(#p9640dc455f)" style="fill: none; stroke: #000000; stroke-width: 2; stroke-linecap: square"/>
     </g>
     <g id="line2d_8"/>
    </g>
   </g>
   <g id="matplotlib.axis_2">
    <g id="ytick_1">
     <g id="line2d_9">
      <path d="M 7.2 7.2 
L 253.376471 7.2 
" clip-path="url(#p9640dc455f)" style="fill: none; stroke: #000000; stroke-width: 2; stroke-linecap: square"/>
     </g>
     <g id="line2d_10"/>
    </g>
    <g id="ytick_2">
     <g id="line2d_11">
      <path d="M 7.2 89.258824 
L 253.376471 89.258824 
" clip-path="url(#p9640dc455f)" style="fill: none; stroke: #000000; stroke-width: 2; stroke-linecap: square"/>
     </g>
     <g id="line2d_12"/>
    </g>
    <g id="ytick_3">
     <g id="line2d_13">
      <path d="M 7.2 171.317647 
L 253.376471 171.317647 
" clip-path="url(#p9640dc455f)" style="fill: none; stroke: #000000; stroke-width: 2; stroke-linecap: square"/>
     </g>
     <g id="line2d_14"/>
    </g>
    <g id="ytick_4">
     <g id="line2d_15">
      <path d="M 7.2 253.376471 
L 253.376471 253.376471 
" clip-path="url(#p9640dc455f)" style="fill: none; stroke: #000000; stroke-width: 2; stroke-linecap: square"/>
     </g>
     <g id="line2d_16"/>
    </g>
   </g>
   <g id="patch_3">
    <path d="M 7.2 253.376471 
L 7.2 7.2 
" style="fill: none; stroke: #000000; stroke-width: 0.8; stroke-linejoin: miter; stroke-linecap: square"/>
   </g>
   <g id="patch_4">
    <path d="M 253.376471 253.376471 
L 253.376471 7.2 
" style="fill: none; stroke: #000000; stroke-width: 0.8; stroke-linejoin: miter; stroke-linecap: square"/>
   </g>
   <g id="patch_5">
    <path d="M 7.2 253.376471 
L 253.376471 253.376471 
" style="fill: none; stroke: #000000; stroke-width: 0.8; stroke-linejoin: miter; stroke-linecap: square"/>
   </g>
   <g id="patch_6">
    <path d="M 7.2 7.2 
L 253.376471 7.2 
" style="fill: none; stroke: #000000; stroke-width: 0.8; stroke-linejoin: miter; stroke-linecap: square"/>
   </g>
   <g id="text_1">
    <path d="M 48.431756 45.246599 
L 46.372381 48.298162 
L 48.431756 48.298162 
L 48.431756 45.246599 
z
M 48.119256 43.698162 
L 50.209881 43.698162 
L 50.209881 48.298162 
L 51.248943 48.298162 
L 51.248943 49.660662 
L 50.209881 49.660662 
L 50.209881 50.988787 
L 48.431756 50.988787 
L 48.431756 49.660662 
L 45.200506 49.660662 
L 45.200506 48.049724 
L 48.119256 43.698162 
z
" style="stroke: #ffffff; stroke-width: 3"/>
    <path d="M 48.431756 45.246599 
L 46.372381 48.298162 
L 48.431756 48.298162 
L 48.431756 45.246599 
z
M 48.119256 43.698162 
L 50.209881 43.698162 
L 50.209881 48.298162 
L 51.248943 48.298162 
L 51.248943 49.660662 
L 50.209881 49.660662 
L 50.209881 50.988787 
L 48.431756 50.988787 
L 48.431756 49.660662 
L 45.200506 49.660662 
L 45.200506 48.049724 
L 48.119256 43.698162 
z
"/>
   </g>
   <g id="text_2">
    <path d="M 127.981204 49.690349 
L 129.642142 49.690349 
L 129.642142 44.977849 
L 127.937454 45.329412 
L 127.937454 44.049724 
L 129.631204 43.698162 
L 131.418704 43.698162 
L 131.418704 49.690349 
L 133.079642 49.690349 
L 133.079642 50.988787 
L 127.981204 50.988787 
L 127.981204 49.690349 
z
" style="stroke: #ffffff; stroke-width: 3"/>
    <path d="M 127.981204 49.690349 
L 129.642142 49.690349 
L 129.642142 44.977849 
L 127.937454 45.329412 
L 127.937454 44.049724 
L 129.631204 43.698162 
L 131.418704 43.698162 
L 131.418704 49.690349 
L 133.079642 49.690349 
L 133.079642 50.988787 
L 127.981204 50.988787 
L 127.981204 49.690349 
z
"/>
   </g>
   <g id="text_3">
    <path d="M 212.549403 45.246599 
L 210.490028 48.298162 
L 212.549403 48.298162 
L 212.549403 45.246599 
z
M 212.236903 43.698162 
L 214.327528 43.698162 
L 214.327528 48.298162 
L 215.36659 48.298162 
L 215.36659 49.660662 
L 214.327528 49.660662 
L 214.327528 50.988787 
L 212.549403 50.988787 
L 212.549403 49.660662 
L 209.318153 49.660662 
L 209.318153 48.049724 
L 212.236903 43.698162 
z
" style="stroke: #ffffff; stroke-width: 3"/>
    <path d="M 212.549403 45.246599 
L 210.490028 48.298162 
L 212.549403 48.298162 
L 212.549403 45.246599 
z
M 212.236903 43.698162 
L 214.327528 43.698162 
L 214.327528 48.298162 
L 215.36659 48.298162 
L 215.36659 49.660662 
L 214.327528 49.660662 
L 214.327528 50.988787 
L 212.549403 50.988787 
L 212.549403 49.660662 
L 209.318153 49.660662 
L 209.318153 48.049724 
L 212.236903 43.698162 
z
"/>
   </g>
   <g id="text_4">
    <path d="M 28.239568 125.756985 
L 30.338006 125.756985 
L 32.989568 130.756985 
L 32.989568 125.756985 
L 34.772381 125.756985 
L 34.772381 133.04761 
L 32.672381 133.04761 
L 30.020818 128.04761 
L 30.020818 133.04761 
L 28.239568 133.04761 
L 28.239568 125.756985 
z
M 39.132146 128.69761 
Q 38.550896 128.69761 38.246209 129.114798 
Q 37.941521 129.531985 37.941521 130.317923 
Q 37.941521 131.10386 38.246209 131.52261 
Q 38.550896 131.939798 39.132146 131.939798 
Q 39.704021 131.939798 40.005584 131.52261 
Q 40.308709 131.10386 40.308709 130.317923 
Q 40.308709 129.531985 40.005584 129.114798 
Q 39.704021 128.69761 39.132146 128.69761 
z
M 39.132146 127.44761 
Q 40.543084 127.44761 41.336834 128.21011 
Q 42.130584 128.971048 42.130584 130.317923 
Q 42.130584 131.66636 41.336834 132.42886 
Q 40.543084 133.189798 39.132146 133.189798 
Q 37.716521 133.189798 36.918084 132.42886 
Q 36.119646 131.66636 36.119646 130.317923 
Q 36.119646 128.971048 36.918084 128.21011 
Q 37.716521 127.44761 39.132146 127.44761 
z
M 45.358513 127.17886 
L 45.358513 131.627298 
L 46.031951 131.627298 
Q 47.183513 131.627298 47.791326 131.055423 
Q 48.400701 130.483548 48.400701 129.394485 
Q 48.400701 128.311673 47.794451 127.746048 
Q 47.189763 127.17886 46.031951 127.17886 
L 45.358513 127.17886 
z
M 43.478826 125.756985 
L 45.460076 125.756985 
Q 47.121013 125.756985 47.933513 125.994485 
Q 48.746013 126.230423 49.327263 126.79761 
Q 49.839763 127.29136 50.088201 127.936673 
Q 50.338201 128.580423 50.338201 129.394485 
Q 50.338201 130.221048 50.088201 130.867923 
Q 49.839763 131.514798 49.327263 132.006985 
Q 48.741326 132.574173 47.921013 132.811673 
Q 47.100701 133.04761 45.460076 133.04761 
L 43.478826 133.04761 
L 43.478826 125.756985 
z
M 54.151482 130.586673 
Q 53.604607 130.586673 53.328045 130.77261 
Q 53.053045 130.956985 53.053045 131.319485 
Q 53.053045 131.650735 53.27492 131.839798 
Q 53.498357 132.027298 53.89367 132.027298 
Q 54.385857 132.027298 54.723357 131.674173 
Q 55.060857 131.319485 55.060857 130.786673 
L 55.060857 130.586673 
L 54.151482 130.586673 
z
M 56.823357 129.927298 
L 56.823357 133.04761 
L 55.060857 133.04761 
L 55.060857 132.236673 
Q 54.709295 132.73511 54.26867 132.963235 
Q 53.829607 133.189798 53.19992 133.189798 
Q 52.34992 133.189798 51.820232 132.694485 
Q 51.290545 132.19761 51.290545 131.406985 
Q 51.290545 130.444485 51.951482 129.996048 
Q 52.613982 129.546048 54.029607 129.546048 
L 55.060857 129.546048 
L 55.060857 129.41011 
Q 55.060857 128.994485 54.732732 128.802298 
Q 54.40617 128.608548 53.71242 128.608548 
Q 53.151482 128.608548 52.667107 128.721048 
Q 52.184295 128.833548 51.76867 129.058548 
L 51.76867 127.725735 
Q 52.33117 127.588235 52.896795 127.517923 
Q 53.463982 127.44761 54.029607 127.44761 
Q 55.509295 127.44761 56.165545 128.030423 
Q 56.823357 128.613235 56.823357 129.927298 
z
M 60.357341 126.025735 
L 60.357341 127.57886 
L 62.160466 127.57886 
L 62.160466 128.82886 
L 60.357341 128.82886 
L 60.357341 131.14761 
Q 60.357341 131.52886 60.508904 131.663235 
Q 60.660466 131.79761 61.110466 131.79761 
L 62.008904 131.79761 
L 62.008904 133.04761 
L 60.508904 133.04761 
Q 59.474529 133.04761 59.041716 132.61636 
Q 58.610466 132.183548 58.610466 131.14761 
L 58.610466 128.82886 
L 57.740154 128.82886 
L 57.740154 127.57886 
L 58.610466 127.57886 
L 58.610466 126.025735 
L 60.357341 126.025735 
z
M 65.679802 130.586673 
Q 65.132927 130.586673 64.856365 130.77261 
Q 64.581365 130.956985 64.581365 131.319485 
Q 64.581365 131.650735 64.80324 131.839798 
Q 65.026677 132.027298 65.42199 132.027298 
Q 65.914177 132.027298 66.251677 131.674173 
Q 66.589177 131.319485 66.589177 130.786673 
L 66.589177 130.586673 
L 65.679802 130.586673 
z
M 68.351677 129.927298 
L 68.351677 133.04761 
L 66.589177 133.04761 
L 66.589177 132.236673 
Q 66.237615 132.73511 65.79699 132.963235 
Q 65.357927 133.189798 64.72824 133.189798 
Q 63.87824 133.189798 63.348552 132.694485 
Q 62.818865 132.19761 62.818865 131.406985 
Q 62.818865 130.444485 63.479802 129.996048 
Q 64.142302 129.546048 65.557927 129.546048 
L 66.589177 129.546048 
L 66.589177 129.41011 
Q 66.589177 128.994485 66.261052 128.802298 
Q 65.93449 128.608548 65.24074 128.608548 
Q 64.679802 128.608548 64.195427 128.721048 
Q 63.712615 128.833548 63.29699 129.058548 
L 63.29699 127.725735 
Q 63.85949 127.588235 64.425115 127.517923 
Q 64.992302 127.44761 65.557927 127.44761 
Q 67.037615 127.44761 67.693865 128.030423 
Q 68.351677 128.613235 68.351677 129.927298 
z
" style="stroke: #ffffff; stroke-width: 3"/>
    <path d="M 28.239568 125.756985 
L 30.338006 125.756985 
L 32.989568 130.756985 
L 32.989568 125.756985 
L 34.772381 125.756985 
L 34.772381 133.04761 
L 32.672381 133.04761 
L 30.020818 128.04761 
L 30.020818 133.04761 
L 28.239568 133.04761 
L 28.239568 125.756985 
z
M 39.132146 128.69761 
Q 38.550896 128.69761 38.246209 129.114798 
Q 37.941521 129.531985 37.941521 130.317923 
Q 37.941521 131.10386 38.246209 131.52261 
Q 38.550896 131.939798 39.132146 131.939798 
Q 39.704021 131.939798 40.005584 131.52261 
Q 40.308709 131.10386 40.308709 130.317923 
Q 40.308709 129.531985 40.005584 129.114798 
Q 39.704021 128.69761 39.132146 128.69761 
z
M 39.132146 127.44761 
Q 40.543084 127.44761 41.336834 128.21011 
Q 42.130584 128.971048 42.130584 130.317923 
Q 42.130584 131.66636 41.336834 132.42886 
Q 40.543084 133.189798 39.132146 133.189798 
Q 37.716521 133.189798 36.918084 132.42886 
Q 36.119646 131.66636 36.119646 130.317923 
Q 36.119646 128.971048 36.918084 128.21011 
Q 37.716521 127.44761 39.132146 127.44761 
z
M 45.358513 127.17886 
L 45.358513 131.627298 
L 46.031951 131.627298 
Q 47.183513 131.627298 47.791326 131.055423 
Q 48.400701 130.483548 48.400701 129.394485 
Q 48.400701 128.311673 47.794451 127.746048 
Q 47.189763 127.17886 46.031951 127.17886 
L 45.358513 127.17886 
z
M 43.478826 125.756985 
L 45.460076 125.756985 
Q 47.121013 125.756985 47.933513 125.994485 
Q 48.746013 126.230423 49.327263 126.79761 
Q 49.839763 127.29136 50.088201 127.936673 
Q 50.338201 128.580423 50.338201 129.394485 
Q 50.338201 130.221048 50.088201 130.867923 
Q 49.839763 131.514798 49.327263 132.006985 
Q 48.741326 132.574173 47.921013 132.811673 
Q 47.100701 133.04761 45.460076 133.04761 
L 43.478826 133.04761 
L 43.478826 125.756985 
z
M 54.151482 130.586673 
Q 53.604607 130.586673 53.328045 130.77261 
Q 53.053045 130.956985 53.053045 131.319485 
Q 53.053045 131.650735 53.27492 131.839798 
Q 53.498357 132.027298 53.89367 132.027298 
Q 54.385857 132.027298 54.723357 131.674173 
Q 55.060857 131.319485 55.060857 130.786673 
L 55.060857 130.586673 
L 54.151482 130.586673 
z
M 56.823357 129.927298 
L 56.823357 133.04761 
L 55.060857 133.04761 
L 55.060857 132.236673 
Q 54.709295 132.73511 54.26867 132.963235 
Q 53.829607 133.189798 53.19992 133.189798 
Q 52.34992 133.189798 51.820232 132.694485 
Q 51.290545 132.19761 51.290545 131.406985 
Q 51.290545 130.444485 51.951482 129.996048 
Q 52.613982 129.546048 54.029607 129.546048 
L 55.060857 129.546048 
L 55.060857 129.41011 
Q 55.060857 128.994485 54.732732 128.802298 
Q 54.40617 128.608548 53.71242 128.608548 
Q 53.151482 128.608548 52.667107 128.721048 
Q 52.184295 128.833548 51.76867 129.058548 
L 51.76867 127.725735 
Q 52.33117 127.588235 52.896795 127.517923 
Q 53.463982 127.44761 54.029607 127.44761 
Q 55.509295 127.44761 56.165545 128.030423 
Q 56.823357 128.613235 56.823357 129.927298 
z
M 60.357341 126.025735 
L 60.357341 127.57886 
L 62.160466 127.57886 
L 62.160466 128.82886 
L 60.357341 128.82886 
L 60.357341 131.14761 
Q 60.357341 131.52886 60.508904 131.663235 
Q 60.660466 131.79761 61.110466 131.79761 
L 62.008904 131.79761 
L 62.008904 133.04761 
L 60.508904 133.04761 
Q 59.474529 133.04761 59.041716 132.61636 
Q 58.610466 132.183548 58.610466 131.14761 
L 58.610466 128.82886 
L 57.740154 128.82886 
L 57.740154 127.57886 
L 58.610466 127.57886 
L 58.610466 126.025735 
L 60.357341 126.025735 
z
M 65.679802 130.586673 
Q 65.132927 130.586673 64.856365 130.77261 
Q 64.581365 130.956985 64.581365 131.319485 
Q 64.581365 131.650735 64.80324 131.839798 
Q 65.026677 132.027298 65.42199 132.027298 
Q 65.914177 132.027298 66.251677 131.674173 
Q 66.589177 131.319485 66.589177 130.786673 
L 66.589177 130.586673 
L 65.679802 130.586673 
z
M 68.351677 129.927298 
L 68.351677 133.04761 
L 66.589177 133.04761 
L 66.589177 132.236673 
Q 66.237615 132.73511 65.79699 132.963235 
Q 65.357927 133.189798 64.72824 133.189798 
Q 63.87824 133.189798 63.348552 132.694485 
Q 62.818865 132.19761 62.818865 131.406985 
Q 62.818865 130.444485 63.479802 129.996048 
Q 64.142302 129.546048 65.557927 129.546048 
L 66.589177 129.546048 
L 66.589177 129.41011 
Q 66.589177 128.994485 66.261052 128.802298 
Q 65.93449 128.608548 65.24074 128.608548 
Q 64.679802 128.608548 64.195427 128.721048 
Q 63.712615 128.833548 63.29699 129.058548 
L 63.29699 127.725735 
Q 63.85949 127.588235 64.425115 127.517923 
Q 64.992302 127.44761 65.557927 127.44761 
Q 67.037615 127.44761 67.693865 128.030423 
Q 68.351677 128.613235 68.351677 129.927298 
z
"/>
   </g>
   <g id="text_5">
    <path d="M 130.490579 127.305423 
L 128.431204 130.356985 
L 130.490579 130.356985 
L 130.490579 127.305423 
z
M 130.178079 125.756985 
L 132.268704 125.756985 
L 132.268704 130.356985 
L 133.307767 130.356985 
L 133.307767 131.719485 
L 132.268704 131.719485 
L 132.268704 133.04761 
L 130.490579 133.04761 
L 130.490579 131.719485 
L 127.259329 131.719485 
L 127.259329 130.108548 
L 130.178079 125.756985 
z
" style="stroke: #ffffff; stroke-width: 3"/>
    <path d="M 130.490579 127.305423 
L 128.431204 130.356985 
L 130.490579 130.356985 
L 130.490579 127.305423 
z
M 130.178079 125.756985 
L 132.268704 125.756985 
L 132.268704 130.356985 
L 133.307767 130.356985 
L 133.307767 131.719485 
L 132.268704 131.719485 
L 132.268704 133.04761 
L 130.490579 133.04761 
L 130.490579 131.719485 
L 127.259329 131.719485 
L 127.259329 130.108548 
L 130.178079 125.756985 
z
"/>
   </g>
   <g id="text_6">
    <path d="M 211.749403 131.66636 
L 214.957215 131.66636 
L 214.957215 133.04761 
L 209.658778 133.04761 
L 209.658778 131.66636 
L 212.319715 129.31636 
Q 212.677528 128.994485 212.84784 128.686673 
Q 213.018153 128.37886 213.018153 128.04761 
Q 213.018153 127.53511 212.674403 127.22261 
Q 212.330653 126.91011 211.758778 126.91011 
Q 211.319715 126.91011 210.796278 127.09761 
Q 210.274403 127.28511 209.67909 127.656985 
L 209.67909 126.055423 
Q 210.313465 125.846048 210.933778 125.736673 
Q 211.55409 125.625735 212.149403 125.625735 
Q 213.458778 125.625735 214.183778 126.202298 
Q 214.908778 126.777298 214.908778 127.808548 
Q 214.908778 128.40386 214.600965 128.919485 
Q 214.293153 129.433548 213.307215 130.299173 
L 211.749403 131.66636 
z
" style="stroke: #ffffff; stroke-width: 3"/>
    <path d="M 211.749403 131.66636 
L 214.957215 131.66636 
L 214.957215 133.04761 
L 209.658778 133.04761 
L 209.658778 131.66636 
L 212.319715 129.31636 
Q 212.677528 128.994485 212.84784 128.686673 
Q 213.018153 128.37886 213.018153 128.04761 
Q 213.018153 127.53511 212.674403 127.22261 
Q 212.330653 126.91011 211.758778 126.91011 
Q 211.319715 126.91011 210.796278 127.09761 
Q 210.274403 127.28511 209.67909 127.656985 
L 209.67909 126.055423 
Q 210.313465 125.846048 210.933778 125.736673 
Q 211.55409 125.625735 212.149403 125.625735 
Q 213.458778 125.625735 214.183778 126.202298 
Q 214.908778 126.777298 214.908778 127.808548 
Q 214.908778 128.40386 214.600965 128.919485 
Q 214.293153 129.433548 213.307215 130.299173 
L 211.749403 131.66636 
z
"/>
   </g>
   <g id="text_7">
    <path d="M 45.922381 213.807996 
L 47.583318 213.807996 
L 47.583318 209.095496 
L 45.878631 209.447059 
L 45.878631 208.167371 
L 47.572381 207.815809 
L 49.359881 207.815809 
L 49.359881 213.807996 
L 51.020818 213.807996 
L 51.020818 215.106434 
L 45.922381 215.106434 
L 45.922381 213.807996 
z
" style="stroke: #ffffff; stroke-width: 3"/>
    <path d="M 45.922381 213.807996 
L 47.583318 213.807996 
L 47.583318 209.095496 
L 45.878631 209.447059 
L 45.878631 208.167371 
L 47.572381 207.815809 
L 49.359881 207.815809 
L 49.359881 213.807996 
L 51.020818 213.807996 
L 51.020818 215.106434 
L 45.922381 215.106434 
L 45.922381 213.807996 
z
"/>
   </g>
   <g id="text_8">
    <path d="M 129.690579 213.725184 
L 132.898392 213.725184 
L 132.898392 215.106434 
L 127.599954 215.106434 
L 127.599954 213.725184 
L 130.260892 211.375184 
Q 130.618704 211.053309 130.789017 210.745496 
Q 130.959329 210.437684 130.959329 210.106434 
Q 130.959329 209.593934 130.615579 209.281434 
Q 130.271829 208.968934 129.699954 208.968934 
Q 129.260892 208.968934 128.737454 209.156434 
Q 128.215579 209.343934 127.620267 209.715809 
L 127.620267 208.114246 
Q 128.254642 207.904871 128.874954 207.795496 
Q 129.495267 207.684559 130.090579 207.684559 
Q 131.399954 207.684559 132.124954 208.261121 
Q 132.849954 208.836121 132.849954 209.867371 
Q 132.849954 210.462684 132.542142 210.978309 
Q 132.234329 211.492371 131.248392 212.357996 
L 129.690579 213.725184 
z
" style="stroke: #ffffff; stroke-width: 3"/>
    <path d="M 129.690579 213.725184 
L 132.898392 213.725184 
L 132.898392 215.106434 
L 127.599954 215.106434 
L 127.599954 213.725184 
L 130.260892 211.375184 
Q 130.618704 211.053309 130.789017 210.745496 
Q 130.959329 210.437684 130.959329 210.106434 
Q 130.959329 209.593934 130.615579 209.281434 
Q 130.271829 208.968934 129.699954 208.968934 
Q 129.260892 208.968934 128.737454 209.156434 
Q 128.215579 209.343934 127.620267 209.715809 
L 127.620267 208.114246 
Q 128.254642 207.904871 128.874954 207.795496 
Q 129.495267 207.684559 130.090579 207.684559 
Q 131.399954 207.684559 132.124954 208.261121 
Q 132.849954 208.836121 132.849954 209.867371 
Q 132.849954 210.462684 132.542142 210.978309 
Q 132.234329 211.492371 131.248392 212.357996 
L 129.690579 213.725184 
z
"/>
   </g>
   <g id="text_9">
    <path d="M 211.749403 213.725184 
L 214.957215 213.725184 
L 214.957215 215.106434 
L 209.658778 215.106434 
L 209.658778 213.725184 
L 212.319715 211.375184 
Q 212.677528 211.053309 212.84784 210.745496 
Q 213.018153 210.437684 213.018153 210.106434 
Q 213.018153 209.593934 212.674403 209.281434 
Q 212.330653 208.968934 211.758778 208.968934 
Q 211.319715 208.968934 210.796278 209.156434 
Q 210.274403 209.343934 209.67909 209.715809 
L 209.67909 208.114246 
Q 210.313465 207.904871 210.933778 207.795496 
Q 211.55409 207.684559 212.149403 207.684559 
Q 213.458778 207.684559 214.183778 208.261121 
Q 214.908778 208.836121 214.908778 209.867371 
Q 214.908778 210.462684 214.600965 210.978309 
Q 214.293153 211.492371 213.307215 212.357996 
L 211.749403 213.725184 
z
" style="stroke: #ffffff; stroke-width: 3"/>
    <path d="M 211.749403 213.725184 
L 214.957215 213.725184 
L 214.957215 215.106434 
L 209.658778 215.106434 
L 209.658778 213.725184 
L 212.319715 211.375184 
Q 212.677528 211.053309 212.84784 210.745496 
Q 213.018153 210.437684 213.018153 210.106434 
Q 213.018153 209.593934 212.674403 209.281434 
Q 212.330653 208.968934 211.758778 208.968934 
Q 211.319715 208.968934 210.796278 209.156434 
Q 210.274403 209.343934 209.67909 209.715809 
L 209.67909 208.114246 
Q 210.313465 207.904871 210.933778 207.795496 
Q 211.55409 207.684559 212.149403 207.684559 
Q 213.458778 207.684559 214.183778 208.261121 
Q 214.908778 208.836121 214.908778 209.867371 
Q 214.908778 210.462684 214.600965 210.978309 
Q 214.293153 211.492371 213.307215 212.357996 
L 211.749403 213.725184 
z
"/>
   </g>
  </g>
  <g id="axes_2">
   <g id="PatchCollection_1">
    <path d="M 384.670588 7.2 
L 384.670588 89.258824 
L 466.729412 89.258824 
L 466.729412 7.2 
L 384.670588 7.2 
" clip-path="url(#p23224f4f51)" style="fill: #8dd3c7; stroke: #000000; stroke-width: 2"/>
    <path d="M 302.611765 171.317647 
L 302.611765 253.376471 
L 384.670588 253.376471 
L 384.670588 171.317647 
L 302.611765 171.317647 
" clip-path="url(#p23224f4f51)" style="fill: #ffffb3; stroke: #000000; stroke-width: 2"/>
    <path d="M 466.729412 89.258824 
L 466.729412 171.317647 
L 384.670588 171.317647 
L 384.670588 253.376471 
L 548.788235 253.376471 
L 548.788235 89.258824 
L 466.729412 89.258824 
" clip-path="url(#p23224f4f51)" style="fill: #bebada; stroke: #000000; stroke-width: 2"/>
    <path d="M 302.611765 7.2 
L 302.611765 89.258824 
L 384.670588 89.258824 
L 384.670588 7.2 
L 302.611765 7.2 
" clip-path="url(#p23224f4f51)" style="fill: #fb8072; stroke: #000000; stroke-width: 2"/>
    <path d="M 466.729412 7.2 
L 466.729412 89.258824 
L 548.788235 89.258824 
L 548.788235 7.2 
L 466.729412 7.2 
" clip-path="url(#p23224f4f51)" style="fill: #80b1d3; stroke: #000000; stroke-width: 2"/>
    <path d="M 384.670588 89.258824 
L 384.670588 171.317647 
L 466.729412 171.317647 
L 466.729412 89.258824 
L 384.670588 89.258824 
" clip-path="url(#p23224f4f51)" style="fill: #fdb462; stroke: #000000; stroke-width: 2"/>
   </g>
  </g>
  <g id="axes_3">
   <g id="PatchCollection_2">
    <path d="M 680.082353 7.2 
L 680.082353 89.258824 
L 762.141176 89.258824 
L 762.141176 7.2 
L 680.082353 7.2 
" clip-path="url(#pa99198ddf6)" style="fill: #8dd3c7; stroke: #000000; stroke-width: 2"/>
    <path d="M 598.023529 171.317647 
L 598.023529 253.376471 
L 680.082353 253.376471 
L 680.082353 171.317647 
L 598.023529 171.317647 
" clip-path="url(#pa99198ddf6)" style="fill: #ffffb3; stroke: #000000; stroke-width: 2"/>
    <path d="M 762.141176 89.258824 
L 762.141176 171.317647 
L 680.082353 171.317647 
L 680.082353 253.376471 
L 844.2 253.376471 
L 844.2 89.258824 
L 762.141176 89.258824 
" clip-path="url(#pa99198ddf6)" style="fill: #bebada; stroke: #000000; stroke-width: 2"/>
    <path d="M 598.023529 7.2 
L 598.023529 89.258824 
L 680.082353 89.258824 
L 680.082353 171.317647 
L 762.141176 171.317647 
L 762.141176 89.258824 
L 844.2 89.258824 
L 844.2 7.2 
L 762.141176 7.2 
L 762.141176 89.258824 
L 680.082353 89.258824 
L 680.082353 7.2 
L 598.023529 7.2 
" clip-path="url(#pa99198ddf6)" style="fill: #fb8072; stroke: #000000; stroke-width: 2"/>
   </g>
  </g>
 </g>
 <defs>
  <clipPath id="p9640dc455f">
   <rect x="7.2" y="7.2" width="246.176471" height="246.176471"/>
  </clipPath>
  <clipPath id="p23224f4f51">
   <rect x="302.611765" y="7.2" width="246.176471" height="246.176471"/>
  </clipPath>
  <clipPath id="pa99198ddf6">
   <rect x="598.023529" y="7.2" width="246.176471" height="246.176471"/>
  </clipPath>
 </defs>
</svg>
