<?xml version="1.0" encoding="UTF-8" standalone="no"?>
<!DOCTYPE svg PUBLIC "-//W3C//DTD SVG 1.1//EN"
 "http://www.w3.org/Graphics/SVG/1.1/DTD/svg11.dtd">
<!-- Generated by graphviz version 14.1.2 (0)
 -->
<!-- Title: GDALG Workflow Pages: 1 -->
<svg width="424pt" height="634pt"
 viewBox="0.00 0.00 424.00 634.00" xmlns="http://www.w3.org/2000/svg" xmlns:xlink="http://www.w3.org/1999/xlink">
<g id="graph0" class="graph" transform="scale(1 1) rotate(0) translate(4 630.25)">
<title>GDALG Workflow</title>
<polygon fill="white" stroke="none" points="-4,4 -4,-630.25 419.62,-630.25 419.62,4 -4,4"/>
<!-- 0 -->
<g id="node1" class="node">
<title>0</title>
<polygon fill="#cfe2ff" stroke="none" points="0,-471.25 0,-501 195.5,-501 195.5,-471.25 0,-471.25"/>
<polygon fill="none" stroke="black" points="0,-471.25 0,-501 195.5,-501 195.5,-471.25 0,-471.25"/>
<text xml:space="preserve" text-anchor="start" x="83.5" y="-481.7" font-family="Helvetica,sans-Serif" font-weight="bold" font-size="14.00">read</text>
<polygon fill="none" stroke="black" points="0,-441.5 0,-471.25 195.5,-471.25 195.5,-441.5 0,-441.5"/>
<text xml:space="preserve" text-anchor="start" x="7" y="-450.95" font-family="Helvetica,sans-Serif" font-size="14.00">natural_earth_vector.gpkg</text>
<polygon fill="none" stroke="black" points="0,-411.75 0,-441.5 195.5,-441.5 195.5,-411.75 0,-411.75"/>
<text xml:space="preserve" text-anchor="start" x="7" y="-421.2" font-family="Helvetica,sans-Serif" font-size="14.00">&#45;&#45;layer ne_10m_rivers_europe</text>
</g>
<!-- 1 -->
<g id="node2" class="node">
<title>1</title>
<g id="a_node2"><a xlink:href="../programs/gdal_raster_reproject.html" xlink:title="../programs/gdal_raster_reproject.html" target="_blank">
<polygon fill="#cfe2ff" stroke="none" points="31.38,-346 31.38,-375.75 190.12,-375.75 190.12,-346 31.38,-346"/>
<polygon fill="none" stroke="black" points="31.38,-346 31.38,-375.75 190.12,-375.75 190.12,-346 31.38,-346"/>
<text xml:space="preserve" text-anchor="start" x="81.88" y="-356.45" font-family="Helvetica,sans-Serif" font-weight="bold" font-size="14.00">reproject</text>
<polygon fill="none" stroke="black" points="31.38,-316.25 31.38,-346 190.12,-346 190.12,-316.25 31.38,-316.25"/>
<text xml:space="preserve" text-anchor="start" x="38.38" y="-325.7" font-family="Helvetica,sans-Serif" font-size="14.00">&#45;&#45;output&#45;crs EPSG:3844</text>
</a>
</g>
</g>
<!-- 0&#45;&gt;1 -->
<g id="edge1" class="edge">
<title>0&#45;&gt;1</title>
<path fill="none" stroke="black" d="M102.96,-411.92C103.96,-403.59 105,-394.92 105.99,-386.72"/>
<polygon fill="black" stroke="black" points="109.43,-387.38 107.15,-377.03 102.48,-386.54 109.43,-387.38"/>
</g>
<!-- 2 -->
<g id="node3" class="node">
<title>2</title>
<g id="a_node3"><a xlink:href="../programs/gdal_raster_clip.html" xlink:title="../programs/gdal_raster_clip.html" target="_blank">
<polygon fill="#cfe2ff" stroke="none" points="177.12,-250.5 177.12,-280.25 220.38,-280.25 220.38,-250.5 177.12,-250.5"/>
<polygon fill="none" stroke="black" points="177.12,-250.5 177.12,-280.25 220.38,-280.25 220.38,-250.5 177.12,-250.5"/>
<text xml:space="preserve" text-anchor="start" x="187.12" y="-260.95" font-family="Helvetica,sans-Serif" font-weight="bold" font-size="14.00">clip</text>
<polygon fill="none" stroke="black" points="177.12,-220.75 177.12,-250.5 220.38,-250.5 220.38,-220.75 177.12,-220.75"/>
<text xml:space="preserve" text-anchor="start" x="184.12" y="-230.2" font-family="Helvetica,sans-Serif" font-size="14.00">&#45;&#45;like</text>
</a>
</g>
</g>
<!-- 1&#45;&gt;2 -->
<g id="edge2" class="edge">
<title>1&#45;&gt;2</title>
<path fill="none" stroke="black" d="M137.63,-316.44C147.78,-305.65 159.37,-293.34 169.71,-282.35"/>
<polygon fill="black" stroke="black" points="171.99,-285.04 176.29,-275.36 166.89,-280.25 171.99,-285.04"/>
</g>
<!-- 6 -->
<g id="node7" class="node">
<title>6</title>
<g id="a_node7"><a xlink:href="../programs/gdal_vector_set_geom_type.html" xlink:title="../programs/gdal_vector_set_geom_type.html" target="_blank">
<polygon fill="#cfe2ff" stroke="none" points="80.75,-155 80.75,-184.75 316.75,-184.75 316.75,-155 80.75,-155"/>
<polygon fill="none" stroke="black" points="80.75,-155 80.75,-184.75 316.75,-184.75 316.75,-155 80.75,-155"/>
<text xml:space="preserve" text-anchor="start" x="152.25" y="-165.45" font-family="Helvetica,sans-Serif" font-weight="bold" font-size="14.00">set&#45;geom&#45;type</text>
<polygon fill="none" stroke="black" points="80.75,-125.25 80.75,-155 316.75,-155 316.75,-125.25 80.75,-125.25"/>
<text xml:space="preserve" text-anchor="start" x="87.75" y="-134.7" font-family="Helvetica,sans-Serif" font-size="14.00">&#45;&#45;geometry&#45;type MULTILINESTRING</text>
</a>
</g>
</g>
<!-- 2&#45;&gt;6 -->
<g id="edge6" class="edge">
<title>2&#45;&gt;6</title>
<path fill="none" stroke="black" d="M198.75,-220.94C198.75,-213.13 198.75,-204.51 198.75,-196.18"/>
<polygon fill="black" stroke="black" points="202.25,-196.22 198.75,-186.22 195.25,-196.22 202.25,-196.22"/>
</g>
<!-- 3 -->
<g id="node4" class="node">
<title>3</title>
<polygon fill="#cfe2ff" stroke="none" points="187.88,-596.5 187.88,-626.25 415.62,-626.25 415.62,-596.5 187.88,-596.5"/>
<polygon fill="none" stroke="black" points="187.88,-596.5 187.88,-626.25 415.62,-626.25 415.62,-596.5 187.88,-596.5"/>
<text xml:space="preserve" text-anchor="start" x="287.5" y="-606.95" font-family="Helvetica,sans-Serif" font-weight="bold" font-size="14.00">read</text>
<polygon fill="none" stroke="black" points="187.88,-566.75 187.88,-596.5 415.62,-596.5 415.62,-566.75 187.88,-566.75"/>
<text xml:space="preserve" text-anchor="start" x="194.88" y="-576.2" font-family="Helvetica,sans-Serif" font-size="14.00">natural_earth_vector.gpkg</text>
<polygon fill="none" stroke="black" points="187.88,-537 187.88,-566.75 415.62,-566.75 415.62,-537 187.88,-537"/>
<text xml:space="preserve" text-anchor="start" x="194.88" y="-546.45" font-family="Helvetica,sans-Serif" font-size="14.00">&#45;&#45;layer ne_50m_admin_0_countries</text>
</g>
<!-- 4 -->
<g id="node5" class="node">
<title>4</title>
<g id="a_node5"><a xlink:href="../programs/gdal_vector_filter.html" xlink:title="../programs/gdal_vector_filter.html" target="_blank">
<polygon fill="#cfe2ff" stroke="none" points="213.75,-456.38 213.75,-486.12 389.75,-486.12 389.75,-456.38 213.75,-456.38"/>
<polygon fill="none" stroke="black" points="213.75,-456.38 213.75,-486.12 389.75,-486.12 389.75,-456.38 213.75,-456.38"/>
<text xml:space="preserve" text-anchor="start" x="287.12" y="-466.82" font-family="Helvetica,sans-Serif" font-weight="bold" font-size="14.00">filter</text>
<polygon fill="none" stroke="black" points="213.75,-426.62 213.75,-456.38 389.75,-456.38 389.75,-426.62 213.75,-426.62"/>
<text xml:space="preserve" text-anchor="start" x="220.75" y="-436.07" font-family="Helvetica,sans-Serif" font-size="14.00">&#45;&#45;where ADMIN=&#39;Romania&#39;</text>
</a>
</g>
</g>
<!-- 3&#45;&gt;4 -->
<g id="edge3" class="edge">
<title>3&#45;&gt;4</title>
<path fill="none" stroke="black" d="M301.75,-537.17C301.75,-524.12 301.75,-509.87 301.75,-497.07"/>
<polygon fill="black" stroke="black" points="305.25,-497.32 301.75,-487.32 298.25,-497.32 305.25,-497.32"/>
</g>
<!-- 5 -->
<g id="node6" class="node">
<title>5</title>
<g id="a_node6"><a xlink:href="../programs/gdal_raster_reproject.html" xlink:title="../programs/gdal_raster_reproject.html" target="_blank">
<polygon fill="#cfe2ff" stroke="none" points="215.38,-346 215.38,-375.75 374.12,-375.75 374.12,-346 215.38,-346"/>
<polygon fill="none" stroke="black" points="215.38,-346 215.38,-375.75 374.12,-375.75 374.12,-346 215.38,-346"/>
<text xml:space="preserve" text-anchor="start" x="265.88" y="-356.45" font-family="Helvetica,sans-Serif" font-weight="bold" font-size="14.00">reproject</text>
<polygon fill="none" stroke="black" points="215.38,-316.25 215.38,-346 374.12,-346 374.12,-316.25 215.38,-316.25"/>
<text xml:space="preserve" text-anchor="start" x="222.38" y="-325.7" font-family="Helvetica,sans-Serif" font-size="14.00">&#45;&#45;output&#45;crs EPSG:3844</text>
</a>
</g>
</g>
<!-- 4&#45;&gt;5 -->
<g id="edge4" class="edge">
<title>4&#45;&gt;5</title>
<path fill="none" stroke="black" d="M299.91,-426.9C299.12,-414.68 298.19,-400.18 297.33,-386.91"/>
<polygon fill="black" stroke="black" points="300.84,-386.92 296.7,-377.17 293.85,-387.38 300.84,-386.92"/>
</g>
<!-- 5&#45;&gt;2 -->
<g id="edge5" class="edge">
<title>5&#45;&gt;2</title>
<path fill="none" stroke="black" d="M265.43,-316.44C253.71,-305.03 240.24,-291.91 228.49,-280.46"/>
<polygon fill="black" stroke="black" points="230.97,-277.99 221.36,-273.52 226.09,-283.01 230.97,-277.99"/>
</g>
<!-- 7 -->
<g id="node8" class="node">
<title>7</title>
<polygon fill="#cfe2ff" stroke="none" points="131.75,-59.5 131.75,-89.25 265.75,-89.25 265.75,-59.5 131.75,-59.5"/>
<polygon fill="none" stroke="black" points="131.75,-59.5 131.75,-89.25 265.75,-89.25 265.75,-59.5 131.75,-59.5"/>
<text xml:space="preserve" text-anchor="start" x="182.62" y="-69.95" font-family="Helvetica,sans-Serif" font-weight="bold" font-size="14.00">write</text>
<polygon fill="none" stroke="black" points="131.75,-29.75 131.75,-59.5 265.75,-59.5 265.75,-29.75 131.75,-29.75"/>
<text xml:space="preserve" text-anchor="start" x="138.75" y="-39.2" font-family="Helvetica,sans-Serif" font-size="14.00">romania&#45;rivers.gpkg</text>
<polygon fill="none" stroke="black" points="131.75,0 131.75,-29.75 265.75,-29.75 265.75,0 131.75,0"/>
<text xml:space="preserve" text-anchor="start" x="138.75" y="-9.45" font-family="Helvetica,sans-Serif" font-size="14.00">&#45;&#45;overwrite</text>
</g>
<!-- 6&#45;&gt;7 -->
<g id="edge7" class="edge">
<title>6&#45;&gt;7</title>
<path fill="none" stroke="black" d="M198.75,-125.53C198.75,-117.76 198.75,-109.09 198.75,-100.39"/>
<polygon fill="black" stroke="black" points="202.25,-100.53 198.75,-90.53 195.25,-100.53 202.25,-100.53"/>
</g>
</g>
</svg>
