<?xml version="1.0" encoding="utf-8" standalone="no"?>
<!DOCTYPE svg PUBLIC "-//W3C//DTD SVG 1.1//EN"
  "http://www.w3.org/Graphics/SVG/1.1/DTD/svg11.dtd">
<svg xmlns:xlink="http://www.w3.org/1999/xlink" width="684pt" height="242.68142pt" viewBox="0 0 684 242.68142" xmlns="http://www.w3.org/2000/svg" version="1.1">
 <metadata>
  <rdf:RDF xmlns:dc="http://purl.org/dc/elements/1.1/" xmlns:cc="http://creativecommons.org/ns#" xmlns:rdf="http://www.w3.org/1999/02/22-rdf-syntax-ns#">
   <cc:Work>
    <dc:type rdf:resource="http://purl.org/dc/dcmitype/StillImage"/>
    <dc:date>2025-05-20T19:16:03.641483</dc:date>
    <dc:format>image/svg+xml</dc:format>
    <dc:creator>
     <cc:Agent>
      <dc:title>Matplotlib v3.10.3, https://matplotlib.org/</dc:title>
     </cc:Agent>
    </dc:creator>
   </cc:Work>
  </rdf:RDF>
 </metadata>
 <defs>
  <style type="text/css">*{stroke-linejoin: round; stroke-linecap: butt}</style>
 </defs>
 <g id="figure_1">
  <g id="patch_1">
   <path d="M 0 242.68142 
L 684 242.68142 
L 684 0 
L 0 0 
L 0 242.68142 
z
" style="fill: none"/>
  </g>
  <g id="axes_1">
   <g id="PatchCollection_1">
    <path d="M 21.034711 190.516898 
L 21.034711 52.164522 
L 159.381818 52.164522 
L 159.381818 190.516898 
L 21.034711 190.516898 
" clip-path="url(#p521b4fe5b3)" style="fill: #0000ff; fill-opacity: 0.5; stroke: #000000; stroke-opacity: 0.5"/>
    <path d="M 159.381818 190.516898 
L 159.381818 52.164522 
L 297.728926 52.164522 
L 297.728926 190.516898 
L 159.381818 190.516898 
" clip-path="url(#p521b4fe5b3)" style="fill: #0000ff; fill-opacity: 0.5; stroke: #000000; stroke-opacity: 0.5"/>
   </g>
   <g id="PatchCollection_2">
    <defs>
     <path id="m94c0c898b8" d="M 263.142149 -121.34071 
L 263.086594 -117.945638 
L 262.91999 -114.554201 
L 262.642514 -111.170032 
L 262.254465 -107.796753 
L 261.756256 -104.437978 
L 261.148423 -101.097303 
L 260.431615 -97.778304 
L 259.606601 -94.484537 
L 258.674264 -91.219529 
L 257.635601 -87.986775 
L 256.491727 -84.789737 
L 255.243864 -81.631838 
L 253.89335 -78.516461 
L 252.44163 -75.446942 
L 250.89026 -72.426566 
L 249.2409 -69.458569 
L 247.495317 -66.546129 
L 245.65538 -63.692364 
L 243.723059 -60.90033 
L 241.700423 -58.173017 
L 239.589638 -55.513346 
L 237.392965 -52.924165 
L 235.112756 -50.408246 
L 232.751452 -47.968283 
L 230.311581 -45.606889 
L 227.795758 -43.326592 
L 225.206675 -41.129835 
L 222.547105 -39.01897 
L 219.819897 -36.996257 
L 217.027969 -35.063863 
L 214.174313 -33.223855 
L 211.261983 -31.478206 
L 208.294099 -29.828783 
L 205.273839 -28.277354 
L 202.204436 -26.825579 
L 199.089178 -25.475014 
L 195.9314 -24.227104 
L 192.734483 -23.083185 
L 189.501852 -22.044483 
L 186.236968 -21.11211 
L 182.943326 -20.287065 
L 179.624454 -19.57023 
L 176.283906 -18.962373 
L 172.925259 -18.464146 
L 169.552109 -18.076082 
L 166.168068 -17.798595 
L 162.776761 -17.631985 
L 159.381818 -17.576428 
L 155.986875 -17.631985 
L 152.595568 -17.798595 
L 149.211527 -18.076082 
L 145.838377 -18.464146 
L 142.47973 -18.962373 
L 139.139182 -19.57023 
L 135.82031 -20.287065 
L 132.526669 -21.11211 
L 129.261784 -22.044483 
L 126.029153 -23.083185 
L 122.832237 -24.227104 
L 119.674459 -25.475014 
L 116.5592 -26.825579 
L 113.489797 -28.277354 
L 110.469537 -29.828783 
L 107.501653 -31.478206 
L 104.589323 -33.223855 
L 101.735667 -35.063863 
L 98.94374 -36.996257 
L 96.216531 -39.01897 
L 93.556961 -41.129835 
L 90.967878 -43.326592 
L 88.452055 -45.606889 
L 86.012185 -47.968283 
L 83.650881 -50.408246 
L 81.370671 -52.924165 
L 79.173998 -55.513346 
L 77.063213 -58.173017 
L 75.040577 -60.90033 
L 73.108256 -63.692364 
L 71.268319 -66.546129 
L 69.522736 -69.458569 
L 67.873376 -72.426566 
L 66.322006 -75.446942 
L 64.870287 -78.516461 
L 63.519772 -81.631838 
L 62.27191 -84.789737 
L 61.128035 -87.986775 
L 60.089373 -91.219529 
L 59.157035 -94.484537 
L 58.332021 -97.778304 
L 57.615213 -101.097303 
L 57.00738 -104.437978 
L 56.509172 -107.796753 
L 56.121122 -111.170032 
L 55.843646 -114.554201 
L 55.677042 -117.945638 
L 55.621488 -121.34071 
L 55.677042 -124.735782 
L 55.843646 -128.127218 
L 56.121122 -131.511388 
L 56.509172 -134.884666 
L 57.00738 -138.243442 
L 57.615213 -141.584117 
L 58.332021 -144.903115 
L 59.157035 -148.196882 
L 60.089373 -151.461891 
L 61.128035 -154.694645 
L 62.27191 -157.891683 
L 63.519772 -161.049581 
L 64.870287 -164.164958 
L 66.322006 -167.234478 
L 67.873376 -170.254854 
L 69.522736 -173.222851 
L 71.268319 -176.135291 
L 73.108256 -178.989056 
L 75.040577 -181.78109 
L 77.063213 -184.508402 
L 79.173998 -187.168073 
L 81.370671 -189.757255 
L 83.650881 -192.273174 
L 86.012185 -194.713137 
L 88.452055 -197.074531 
L 90.967878 -199.354827 
L 93.556961 -201.551584 
L 96.216531 -203.662449 
L 98.94374 -205.685162 
L 101.735667 -207.617557 
L 104.589323 -209.457564 
L 107.501653 -211.203214 
L 110.469537 -212.852636 
L 113.489797 -214.404065 
L 116.5592 -215.85584 
L 119.674459 -217.206406 
L 122.832237 -218.454316 
L 126.029153 -219.598234 
L 129.261784 -220.636936 
L 132.526669 -221.569309 
L 135.82031 -222.394355 
L 139.139182 -223.11119 
L 142.47973 -223.719046 
L 145.838377 -224.217274 
L 149.211527 -224.605338 
L 152.595568 -224.882824 
L 155.986875 -225.049435 
L 159.381818 -225.104991 
L 162.776761 -225.049435 
L 166.168068 -224.882824 
L 169.552109 -224.605338 
L 172.925259 -224.217274 
L 176.283906 -223.719046 
L 179.624454 -223.11119 
L 182.943326 -222.394355 
L 186.236968 -221.569309 
L 189.501852 -220.636936 
L 192.734483 -219.598234 
L 195.9314 -218.454316 
L 199.089178 -217.206406 
L 202.204436 -215.85584 
L 205.273839 -214.404065 
L 208.294099 -212.852636 
L 211.261983 -211.203214 
L 214.174313 -209.457564 
L 217.027969 -207.617557 
L 219.819897 -205.685162 
L 222.547105 -203.662449 
L 225.206675 -201.551584 
L 227.795758 -199.354827 
L 230.311581 -197.074531 
L 232.751452 -194.713137 
L 235.112756 -192.273174 
L 237.392965 -189.757255 
L 239.589638 -187.168073 
L 241.700423 -184.508402 
L 243.723059 -181.78109 
L 245.65538 -178.989056 
L 247.495317 -176.135291 
L 249.2409 -173.222851 
L 250.89026 -170.254854 
L 252.44163 -167.234478 
L 253.89335 -164.164958 
L 255.243864 -161.049581 
L 256.491727 -157.891683 
L 257.635601 -154.694645 
L 258.674264 -151.461891 
L 259.606601 -148.196882 
L 260.431615 -144.903115 
L 261.148423 -141.584117 
L 261.756256 -138.243442 
L 262.254465 -134.884666 
L 262.642514 -131.511388 
L 262.91999 -128.127218 
L 263.086594 -124.735782 
L 263.142149 -121.34071 
" style="stroke: #000000; stroke-opacity: 0.5"/>
    </defs>
    <g clip-path="url(#p521b4fe5b3)">
     <use xlink:href="#m94c0c898b8" x="0" y="242.68142" style="fill: #ff0000; fill-opacity: 0.5; stroke: #000000; stroke-opacity: 0.5"/>
    </g>
   </g>
  </g>
  <g id="axes_2">
   <g id="LineCollection_1">
    <path d="M 524.618182 52.164522 
L 524.618182 190.516898 
L 447.295509 190.516898 
L 446.607035 189.757255 
L 444.410362 187.168073 
L 442.299577 184.508402 
L 440.276941 181.78109 
L 438.34462 178.989056 
L 436.504683 176.135291 
L 434.7591 173.222851 
L 433.10974 170.254854 
L 431.55837 167.234478 
L 430.10665 164.164958 
L 428.756136 161.049581 
L 427.508273 157.891683 
L 426.364399 154.694645 
L 425.325736 151.461891 
L 424.393399 148.196882 
L 423.568385 144.903115 
L 422.851577 141.584117 
L 422.243744 138.243442 
L 421.745535 134.884666 
L 421.357486 131.511388 
L 421.08001 128.127218 
L 420.913406 124.735782 
L 420.857851 121.34071 
L 420.913406 117.945638 
L 421.08001 114.554201 
L 421.357486 111.170032 
L 421.745535 107.796753 
L 422.243744 104.437978 
L 422.851577 101.097303 
L 423.568385 97.778304 
L 424.393399 94.484537 
L 425.325736 91.219529 
L 426.364399 87.986775 
L 427.508273 84.789737 
L 428.756136 81.631838 
L 430.10665 78.516461 
L 431.55837 75.446942 
L 433.10974 72.426566 
L 434.7591 69.458569 
L 436.504683 66.546129 
L 438.34462 63.692364 
L 440.276941 60.90033 
L 442.299577 58.173017 
L 444.410362 55.513346 
L 446.607035 52.924165 
L 447.295509 52.164522 
L 524.618182 52.164522 
" clip-path="url(#pb2bffb195c)" style="fill: #ffff00; fill-opacity: 0.3; stroke: #000000; stroke-opacity: 0.3; stroke-width: 1.5"/>
    <path d="M 386.271074 52.164522 
L 447.295509 52.164522 
L 446.607035 52.924165 
L 444.410362 55.513346 
L 442.299577 58.173017 
L 440.276941 60.90033 
L 438.34462 63.692364 
L 436.504683 66.546129 
L 434.7591 69.458569 
L 433.10974 72.426566 
L 431.55837 75.446942 
L 430.10665 78.516461 
L 428.756136 81.631838 
L 427.508273 84.789737 
L 426.364399 87.986775 
L 425.325736 91.219529 
L 424.393399 94.484537 
L 423.568385 97.778304 
L 422.851577 101.097303 
L 422.243744 104.437978 
L 421.745535 107.796753 
L 421.357486 111.170032 
L 421.08001 114.554201 
L 420.913406 117.945638 
L 420.857851 121.34071 
L 420.913406 124.735782 
L 421.08001 128.127218 
L 421.357486 131.511388 
L 421.745535 134.884666 
L 422.243744 138.243442 
L 422.851577 141.584117 
L 423.568385 144.903115 
L 424.393399 148.196882 
L 425.325736 151.461891 
L 426.364399 154.694645 
L 427.508273 157.891683 
L 428.756136 161.049581 
L 430.10665 164.164958 
L 431.55837 167.234478 
L 433.10974 170.254854 
L 434.7591 173.222851 
L 436.504683 176.135291 
L 438.34462 178.989056 
L 440.276941 181.78109 
L 442.299577 184.508402 
L 444.410362 187.168073 
L 446.607035 189.757255 
L 447.295509 190.516898 
L 386.271074 190.516898 
L 386.271074 52.164522 
" clip-path="url(#pb2bffb195c)" style="fill: #ffff00; fill-opacity: 0.3; stroke: #000000; stroke-opacity: 0.3; stroke-width: 1.5"/>
    <path d="M 524.618182 52.164522 
L 601.940855 52.164522 
L 602.629329 52.924165 
L 604.826002 55.513346 
L 606.936787 58.173017 
L 608.959423 60.90033 
L 610.891744 63.692364 
L 612.731681 66.546129 
L 614.477264 69.458569 
L 616.126624 72.426566 
L 617.677994 75.446942 
L 619.129713 78.516461 
L 620.480228 81.631838 
L 621.72809 84.789737 
L 622.871965 87.986775 
L 623.910627 91.219529 
L 624.842965 94.484537 
L 625.667979 97.778304 
L 626.384787 101.097303 
L 626.99262 104.437978 
L 627.490828 107.796753 
L 627.878878 111.170032 
L 628.156354 114.554201 
L 628.322958 117.945638 
L 628.378512 121.34071 
L 628.322958 124.735782 
L 628.156354 128.127218 
L 627.878878 131.511388 
L 627.490828 134.884666 
L 626.99262 138.243442 
L 626.384787 141.584117 
L 625.667979 144.903115 
L 624.842965 148.196882 
L 623.910627 151.461891 
L 622.871965 154.694645 
L 621.72809 157.891683 
L 620.480228 161.049581 
L 619.129713 164.164958 
L 617.677994 167.234478 
L 616.126624 170.254854 
L 614.477264 173.222851 
L 612.731681 176.135291 
L 610.891744 178.989056 
L 608.959423 181.78109 
L 606.936787 184.508402 
L 604.826002 187.168073 
L 602.629329 189.757255 
L 601.940855 190.516898 
L 524.618182 190.516898 
L 524.618182 52.164522 
" clip-path="url(#pb2bffb195c)" style="fill: #ffff00; fill-opacity: 0.3; stroke: #000000; stroke-opacity: 0.3; stroke-width: 1.5"/>
    <path d="M 662.965289 52.164522 
L 662.965289 190.516898 
L 601.940855 190.516898 
L 602.629329 189.757255 
L 604.826002 187.168073 
L 606.936787 184.508402 
L 608.959423 181.78109 
L 610.891744 178.989056 
L 612.731681 176.135291 
L 614.477264 173.222851 
L 616.126624 170.254854 
L 617.677994 167.234478 
L 619.129713 164.164958 
L 620.480228 161.049581 
L 621.72809 157.891683 
L 622.871965 154.694645 
L 623.910627 151.461891 
L 624.842965 148.196882 
L 625.667979 144.903115 
L 626.384787 141.584117 
L 626.99262 138.243442 
L 627.490828 134.884666 
L 627.878878 131.511388 
L 628.156354 128.127218 
L 628.322958 124.735782 
L 628.378512 121.34071 
L 628.322958 117.945638 
L 628.156354 114.554201 
L 627.878878 111.170032 
L 627.490828 107.796753 
L 626.99262 104.437978 
L 626.384787 101.097303 
L 625.667979 97.778304 
L 624.842965 94.484537 
L 623.910627 91.219529 
L 622.871965 87.986775 
L 621.72809 84.789737 
L 620.480228 81.631838 
L 619.129713 78.516461 
L 617.677994 75.446942 
L 616.126624 72.426566 
L 614.477264 69.458569 
L 612.731681 66.546129 
L 610.891744 63.692364 
L 608.959423 60.90033 
L 606.936787 58.173017 
L 604.826002 55.513346 
L 602.629329 52.924165 
L 601.940855 52.164522 
L 662.965289 52.164522 
" clip-path="url(#pb2bffb195c)" style="fill: #ffff00; fill-opacity: 0.3; stroke: #000000; stroke-opacity: 0.3; stroke-width: 1.5"/>
    <path d="M 600.349119 192.273174 
L 597.987815 194.713137 
L 595.547945 197.074531 
L 593.032122 199.354827 
L 590.443039 201.551584 
L 587.783469 203.662449 
L 585.05626 205.685162 
L 582.264333 207.617557 
L 579.410677 209.457564 
L 576.498347 211.203214 
L 573.530463 212.852636 
L 570.510203 214.404065 
L 567.4408 215.85584 
L 564.325541 217.206406 
L 561.167763 218.454316 
L 557.970847 219.598234 
L 554.738216 220.636936 
L 551.473331 221.569309 
L 548.17969 222.394355 
L 544.860818 223.11119 
L 541.52027 223.719046 
L 538.161623 224.217274 
L 534.788473 224.605338 
L 531.404432 224.882824 
L 528.013125 225.049435 
L 524.618182 225.104991 
L 521.223239 225.049435 
L 517.831932 224.882824 
L 514.447891 224.605338 
L 511.074741 224.217274 
L 507.716094 223.719046 
L 504.375546 223.11119 
L 501.056674 222.394355 
L 497.763032 221.569309 
L 494.498148 220.636936 
L 491.265517 219.598234 
L 488.0686 218.454316 
L 484.910822 217.206406 
L 481.795564 215.85584 
L 478.726161 214.404065 
L 475.705901 212.852636 
L 472.738017 211.203214 
L 469.825687 209.457564 
L 466.972031 207.617557 
L 464.180103 205.685162 
L 461.452895 203.662449 
L 458.793325 201.551584 
L 456.204242 199.354827 
L 453.688419 197.074531 
L 451.248548 194.713137 
L 448.887244 192.273174 
L 447.295509 190.516898 
L 524.618182 190.516898 
L 601.940855 190.516898 
L 600.349119 192.273174 
" clip-path="url(#pb2bffb195c)" style="fill: #ffff00; fill-opacity: 0.3; stroke: #000000; stroke-opacity: 0.3; stroke-width: 1.5"/>
    <path d="M 447.295509 52.164522 
L 448.887244 50.408246 
L 451.248548 47.968283 
L 453.688419 45.606889 
L 456.204242 43.326592 
L 458.793325 41.129835 
L 461.452895 39.01897 
L 464.180103 36.996257 
L 466.972031 35.063863 
L 469.825687 33.223855 
L 472.738017 31.478206 
L 475.705901 29.828783 
L 478.726161 28.277354 
L 481.795564 26.825579 
L 484.910822 25.475014 
L 488.0686 24.227104 
L 491.265517 23.083185 
L 494.498148 22.044483 
L 497.763032 21.11211 
L 501.056674 20.287065 
L 504.375546 19.57023 
L 507.716094 18.962373 
L 511.074741 18.464146 
L 514.447891 18.076082 
L 517.831932 17.798595 
L 521.223239 17.631985 
L 524.618182 17.576428 
L 528.013125 17.631985 
L 531.404432 17.798595 
L 534.788473 18.076082 
L 538.161623 18.464146 
L 541.52027 18.962373 
L 544.860818 19.57023 
L 548.17969 20.287065 
L 551.473331 21.11211 
L 554.738216 22.044483 
L 557.970847 23.083185 
L 561.167763 24.227104 
L 564.325541 25.475014 
L 567.4408 26.825579 
L 570.510203 28.277354 
L 573.530463 29.828783 
L 576.498347 31.478206 
L 579.410677 33.223855 
L 582.264333 35.063863 
L 585.05626 36.996257 
L 587.783469 39.01897 
L 590.443039 41.129835 
L 593.032122 43.326592 
L 595.547945 45.606889 
L 597.987815 47.968283 
L 600.349119 50.408246 
L 601.940855 52.164522 
L 524.618182 52.164522 
L 447.295509 52.164522 
" clip-path="url(#pb2bffb195c)" style="fill: #ffff00; fill-opacity: 0.3; stroke: #000000; stroke-opacity: 0.3; stroke-width: 1.5"/>
   </g>
  </g>
 </g>
 <defs>
  <clipPath id="p521b4fe5b3">
   <rect x="7.2" y="7.2" width="304.363636" height="228.28142"/>
  </clipPath>
  <clipPath id="pb2bffb195c">
   <rect x="372.436364" y="7.2" width="304.363636" height="228.28142"/>
  </clipPath>
 </defs>
</svg>
