<?xml version="1.0" encoding="UTF-8" standalone="no"?>
<!DOCTYPE svg PUBLIC "-//W3C//DTD SVG 1.1//EN"
 "http://www.w3.org/Graphics/SVG/1.1/DTD/svg11.dtd">
<!-- Generated by graphviz version 14.1.2 (0)
 -->
<!-- Title: GDALG Workflow Pages: 1 -->
<svg width="318pt" height="634pt"
 viewBox="0.00 0.00 318.00 634.00" xmlns="http://www.w3.org/2000/svg" xmlns:xlink="http://www.w3.org/1999/xlink">
<g id="graph0" class="graph" transform="scale(1 1) rotate(0) translate(4 630.25)">
<title>GDALG Workflow</title>
<polygon fill="white" stroke="none" points="-4,4 -4,-630.25 313.62,-630.25 313.62,4 -4,4"/>
<!-- 0 -->
<g id="node1" class="node">
<title>0</title>
<polygon fill="#cfe2ff" stroke="none" points="0,-375.75 0,-405.5 135.5,-405.5 135.5,-375.75 0,-375.75"/>
<polygon fill="none" stroke="black" points="0,-375.75 0,-405.5 135.5,-405.5 135.5,-375.75 0,-375.75"/>
<text xml:space="preserve" text-anchor="start" x="53.5" y="-386.2" font-family="Helvetica,sans-Serif" font-weight="bold" font-size="14.00">read</text>
<polygon fill="none" stroke="black" points="0,-346 0,-375.75 135.5,-375.75 135.5,-346 0,-346"/>
<text xml:space="preserve" text-anchor="start" x="7" y="-355.45" font-family="Helvetica,sans-Serif" font-size="14.00">NE2_50M_SR_W.tif</text>
</g>
<!-- 1 -->
<g id="node2" class="node">
<title>1</title>
<g id="a_node2"><a xlink:href="../programs/gdal_raster_clip.html" xlink:title="../programs/gdal_raster_clip.html" target="_blank">
<polygon fill="#cfe2ff" stroke="none" points="110.12,-280.25 110.12,-310 153.38,-310 153.38,-280.25 110.12,-280.25"/>
<polygon fill="none" stroke="black" points="110.12,-280.25 110.12,-310 153.38,-310 153.38,-280.25 110.12,-280.25"/>
<text xml:space="preserve" text-anchor="start" x="120.12" y="-290.7" font-family="Helvetica,sans-Serif" font-weight="bold" font-size="14.00">clip</text>
<polygon fill="none" stroke="black" points="110.12,-250.5 110.12,-280.25 153.38,-280.25 153.38,-250.5 110.12,-250.5"/>
<text xml:space="preserve" text-anchor="start" x="117.12" y="-259.95" font-family="Helvetica,sans-Serif" font-size="14.00">&#45;&#45;like</text>
</a>
</g>
</g>
<!-- 0&#45;&gt;1 -->
<g id="edge1" class="edge">
<title>0&#45;&gt;1</title>
<path fill="none" stroke="black" d="M87.3,-346.19C93.08,-337.75 99.5,-328.37 105.62,-319.43"/>
<polygon fill="black" stroke="black" points="108.48,-321.44 111.24,-311.21 102.71,-317.48 108.48,-321.44"/>
</g>
<!-- 5 -->
<g id="node6" class="node">
<title>5</title>
<g id="a_node6"><a xlink:href="../programs/gdal_raster_resize.html" xlink:title="../programs/gdal_raster_resize.html" target="_blank">
<polygon fill="#cfe2ff" stroke="none" points="76.75,-184.75 76.75,-214.5 186.75,-214.5 186.75,-184.75 76.75,-184.75"/>
<polygon fill="none" stroke="black" points="76.75,-184.75 76.75,-214.5 186.75,-214.5 186.75,-184.75 76.75,-184.75"/>
<text xml:space="preserve" text-anchor="start" x="112.62" y="-195.2" font-family="Helvetica,sans-Serif" font-weight="bold" font-size="14.00">resize</text>
<polygon fill="none" stroke="black" points="76.75,-155 76.75,-184.75 186.75,-184.75 186.75,-155 76.75,-155"/>
<text xml:space="preserve" text-anchor="start" x="83.75" y="-164.45" font-family="Helvetica,sans-Serif" font-size="14.00">&#45;&#45;size 70%,70%</text>
<polygon fill="none" stroke="black" points="76.75,-125.25 76.75,-155 186.75,-155 186.75,-125.25 76.75,-125.25"/>
<text xml:space="preserve" text-anchor="start" x="83.75" y="-134.7" font-family="Helvetica,sans-Serif" font-size="14.00">&#45;r average</text>
</a>
</g>
</g>
<!-- 1&#45;&gt;5 -->
<g id="edge5" class="edge">
<title>1&#45;&gt;5</title>
<path fill="none" stroke="black" d="M131.75,-250.78C131.75,-243.01 131.75,-234.34 131.75,-225.64"/>
<polygon fill="black" stroke="black" points="135.25,-225.78 131.75,-215.78 128.25,-225.78 135.25,-225.78"/>
</g>
<!-- 2 -->
<g id="node3" class="node">
<title>2</title>
<polygon fill="#cfe2ff" stroke="none" points="81.88,-596.5 81.88,-626.25 309.62,-626.25 309.62,-596.5 81.88,-596.5"/>
<polygon fill="none" stroke="black" points="81.88,-596.5 81.88,-626.25 309.62,-626.25 309.62,-596.5 81.88,-596.5"/>
<text xml:space="preserve" text-anchor="start" x="181.5" y="-606.95" font-family="Helvetica,sans-Serif" font-weight="bold" font-size="14.00">read</text>
<polygon fill="none" stroke="black" points="81.88,-566.75 81.88,-596.5 309.62,-596.5 309.62,-566.75 81.88,-566.75"/>
<text xml:space="preserve" text-anchor="start" x="88.88" y="-576.2" font-family="Helvetica,sans-Serif" font-size="14.00">natural_earth_vector.gpkg</text>
<polygon fill="none" stroke="black" points="81.88,-537 81.88,-566.75 309.62,-566.75 309.62,-537 81.88,-537"/>
<text xml:space="preserve" text-anchor="start" x="88.88" y="-546.45" font-family="Helvetica,sans-Serif" font-size="14.00">&#45;&#45;layer ne_50m_admin_0_countries</text>
</g>
<!-- 3 -->
<g id="node4" class="node">
<title>3</title>
<g id="a_node4"><a xlink:href="../programs/gdal_vector_filter.html" xlink:title="../programs/gdal_vector_filter.html" target="_blank">
<polygon fill="#cfe2ff" stroke="none" points="107.75,-471.25 107.75,-501 283.75,-501 283.75,-471.25 107.75,-471.25"/>
<polygon fill="none" stroke="black" points="107.75,-471.25 107.75,-501 283.75,-501 283.75,-471.25 107.75,-471.25"/>
<text xml:space="preserve" text-anchor="start" x="181.12" y="-481.7" font-family="Helvetica,sans-Serif" font-weight="bold" font-size="14.00">filter</text>
<polygon fill="none" stroke="black" points="107.75,-441.5 107.75,-471.25 283.75,-471.25 283.75,-441.5 107.75,-441.5"/>
<text xml:space="preserve" text-anchor="start" x="114.75" y="-450.95" font-family="Helvetica,sans-Serif" font-size="14.00">&#45;&#45;where ADMIN=&#39;Romania&#39;</text>
</a>
</g>
</g>
<!-- 2&#45;&gt;3 -->
<g id="edge2" class="edge">
<title>2&#45;&gt;3</title>
<path fill="none" stroke="black" d="M195.75,-537.17C195.75,-528.94 195.75,-520.37 195.75,-512.25"/>
<polygon fill="black" stroke="black" points="199.25,-512.29 195.75,-502.29 192.25,-512.29 199.25,-512.29"/>
</g>
<!-- 4 -->
<g id="node5" class="node">
<title>4</title>
<g id="a_node5"><a xlink:href="../programs/gdal_vector_buffer.html" xlink:title="../programs/gdal_vector_buffer.html" target="_blank">
<polygon fill="#cfe2ff" stroke="none" points="153.5,-375.75 153.5,-405.5 238,-405.5 238,-375.75 153.5,-375.75"/>
<polygon fill="none" stroke="black" points="153.5,-375.75 153.5,-405.5 238,-405.5 238,-375.75 153.5,-375.75"/>
<text xml:space="preserve" text-anchor="start" x="176.62" y="-386.2" font-family="Helvetica,sans-Serif" font-weight="bold" font-size="14.00">buffer</text>
<polygon fill="none" stroke="black" points="153.5,-346 153.5,-375.75 238,-375.75 238,-346 153.5,-346"/>
<text xml:space="preserve" text-anchor="start" x="160.5" y="-355.45" font-family="Helvetica,sans-Serif" font-size="14.00">&#45;&#45;distance 1</text>
</a>
</g>
</g>
<!-- 3&#45;&gt;4 -->
<g id="edge3" class="edge">
<title>3&#45;&gt;4</title>
<path fill="none" stroke="black" d="M195.75,-441.69C195.75,-433.88 195.75,-425.26 195.75,-416.93"/>
<polygon fill="black" stroke="black" points="199.25,-416.97 195.75,-406.97 192.25,-416.97 199.25,-416.97"/>
</g>
<!-- 4&#45;&gt;1 -->
<g id="edge4" class="edge">
<title>4&#45;&gt;1</title>
<path fill="none" stroke="black" d="M176.2,-346.19C170.42,-337.75 164,-328.37 157.88,-319.43"/>
<polygon fill="black" stroke="black" points="160.79,-317.48 152.26,-311.21 155.02,-321.44 160.79,-317.48"/>
</g>
<!-- 6 -->
<g id="node7" class="node">
<title>6</title>
<polygon fill="#cfe2ff" stroke="none" points="86.88,-59.5 86.88,-89.25 176.62,-89.25 176.62,-59.5 86.88,-59.5"/>
<polygon fill="none" stroke="black" points="86.88,-59.5 86.88,-89.25 176.62,-89.25 176.62,-59.5 86.88,-59.5"/>
<text xml:space="preserve" text-anchor="start" x="115.62" y="-69.95" font-family="Helvetica,sans-Serif" font-weight="bold" font-size="14.00">write</text>
<polygon fill="none" stroke="black" points="86.88,-29.75 86.88,-59.5 176.62,-59.5 176.62,-29.75 86.88,-29.75"/>
<text xml:space="preserve" text-anchor="start" x="93.88" y="-39.2" font-family="Helvetica,sans-Serif" font-size="14.00">romania.png</text>
<polygon fill="none" stroke="black" points="86.88,0 86.88,-29.75 176.62,-29.75 176.62,0 86.88,0"/>
<text xml:space="preserve" text-anchor="start" x="93.88" y="-9.45" font-family="Helvetica,sans-Serif" font-size="14.00">&#45;&#45;overwrite</text>
</g>
<!-- 5&#45;&gt;6 -->
<g id="edge6" class="edge">
<title>5&#45;&gt;6</title>
<path fill="none" stroke="black" d="M131.75,-125.42C131.75,-117.32 131.75,-108.76 131.75,-100.37"/>
<polygon fill="black" stroke="black" points="135.25,-100.61 131.75,-90.61 128.25,-100.61 135.25,-100.61"/>
</g>
</g>
</svg>
