<?xml version="1.0" encoding="UTF-8" standalone="no"?>
<!DOCTYPE svg PUBLIC "-//W3C//DTD SVG 1.1//EN"
 "http://www.w3.org/Graphics/SVG/1.1/DTD/svg11.dtd">
<!-- Generated by graphviz version 14.1.2 (0)
 -->
<!-- Title: GDALG Workflow Pages: 1 -->
<svg width="1190pt" height="97pt"
 viewBox="0.00 0.00 1190.00 97.00" xmlns="http://www.w3.org/2000/svg" xmlns:xlink="http://www.w3.org/1999/xlink">
<g id="graph0" class="graph" transform="scale(1 1) rotate(0) translate(4 93.25)">
<title>GDALG Workflow</title>
<polygon fill="white" stroke="none" points="-4,4 -4,-93.25 1186,-93.25 1186,4 -4,4"/>
<!-- 0 -->
<g id="node1" class="node">
<title>0</title>
<polygon fill="#cfe2ff" stroke="none" points="0,-44.62 0,-74.38 253.25,-74.38 253.25,-44.62 0,-44.62"/>
<polygon fill="none" stroke="black" points="0,-44.62 0,-74.38 253.25,-74.38 253.25,-44.62 0,-44.62"/>
<text xml:space="preserve" text-anchor="start" x="112.38" y="-55.08" font-family="Helvetica,sans-Serif" font-weight="bold" font-size="14.00">read</text>
<polygon fill="none" stroke="black" points="0,-14.88 0,-44.62 253.25,-44.62 253.25,-14.88 0,-14.88"/>
<text xml:space="preserve" text-anchor="start" x="7" y="-24.32" font-family="Helvetica,sans-Serif" font-size="14.00">ne_110m_populated_places_simple.fgb</text>
</g>
<!-- 1 -->
<g id="node2" class="node">
<title>1</title>
<g id="a_node2"><a xlink:href="../programs/gdal_vector_filter.html" xlink:title="../programs/gdal_vector_filter.html" target="_blank">
<polygon fill="#cfe2ff" stroke="none" points="289.25,-44.62 289.25,-74.38 428.5,-74.38 428.5,-44.62 289.25,-44.62"/>
<polygon fill="none" stroke="black" points="289.25,-44.62 289.25,-74.38 428.5,-74.38 428.5,-44.62 289.25,-44.62"/>
<text xml:space="preserve" text-anchor="start" x="344.25" y="-55.08" font-family="Helvetica,sans-Serif" font-weight="bold" font-size="14.00">filter</text>
<polygon fill="none" stroke="black" points="289.25,-14.88 289.25,-44.62 428.5,-44.62 428.5,-14.88 289.25,-14.88"/>
<text xml:space="preserve" text-anchor="start" x="296.25" y="-24.32" font-family="Helvetica,sans-Serif" font-size="14.00">&#45;&#45;where worldcity = 1</text>
</a>
</g>
</g>
<!-- 0&#45;&gt;1 -->
<g id="edge1" class="edge">
<title>0&#45;&gt;1</title>
<path fill="none" stroke="black" d="M253.19,-44.62C261.63,-44.62 270,-44.62 278.1,-44.62"/>
<polygon fill="black" stroke="black" points="277.86,-48.13 287.86,-44.63 277.86,-41.13 277.86,-48.13"/>
</g>
<!-- 2 -->
<g id="node3" class="node">
<title>2</title>
<g id="a_node3"><a xlink:href="../programs/gdal_raster_select.html" xlink:title="../programs/gdal_raster_select.html" target="_blank">
<polygon fill="#cfe2ff" stroke="none" points="464.5,-44.62 464.5,-74.38 660,-74.38 660,-44.62 464.5,-44.62"/>
<polygon fill="none" stroke="black" points="464.5,-44.62 464.5,-74.38 660,-74.38 660,-44.62 464.5,-44.62"/>
<text xml:space="preserve" text-anchor="start" x="543.12" y="-55.08" font-family="Helvetica,sans-Serif" font-weight="bold" font-size="14.00">select</text>
<polygon fill="none" stroke="black" points="464.5,-14.88 464.5,-44.62 660,-44.62 660,-14.88 464.5,-14.88"/>
<text xml:space="preserve" text-anchor="start" x="471.5" y="-24.32" font-family="Helvetica,sans-Serif" font-size="14.00">&#45;&#45;fields _ogr_geometry_,name</text>
</a>
</g>
</g>
<!-- 1&#45;&gt;2 -->
<g id="edge2" class="edge">
<title>1&#45;&gt;2</title>
<path fill="none" stroke="black" d="M428.33,-44.62C436.5,-44.62 444.98,-44.62 453.53,-44.62"/>
<polygon fill="black" stroke="black" points="453.28,-48.13 463.27,-44.63 453.27,-41.13 453.28,-48.13"/>
</g>
<!-- 3 -->
<g id="node4" class="node">
<title>3</title>
<g id="a_node4"><a xlink:href="../programs/gdal_vector_set_geom_type.html" xlink:title="../programs/gdal_vector_set_geom_type.html" target="_blank">
<polygon fill="#cfe2ff" stroke="none" points="696,-44.62 696,-74.38 803,-74.38 803,-44.62 696,-44.62"/>
<polygon fill="none" stroke="black" points="696,-44.62 696,-74.38 803,-74.38 803,-44.62 696,-44.62"/>
<text xml:space="preserve" text-anchor="start" x="703" y="-55.08" font-family="Helvetica,sans-Serif" font-weight="bold" font-size="14.00">set&#45;geom&#45;type</text>
<polygon fill="none" stroke="black" points="696,-14.88 696,-44.62 803,-44.62 803,-14.88 696,-14.88"/>
<text xml:space="preserve" text-anchor="start" x="703" y="-24.32" font-family="Helvetica,sans-Serif" font-size="14.00">&#45;&#45;single</text>
</a>
</g>
</g>
<!-- 2&#45;&gt;3 -->
<g id="edge3" class="edge">
<title>2&#45;&gt;3</title>
<path fill="none" stroke="black" d="M659.94,-44.62C668.31,-44.62 676.64,-44.62 684.65,-44.62"/>
<polygon fill="black" stroke="black" points="684.6,-48.13 694.6,-44.63 684.6,-41.13 684.6,-48.13"/>
</g>
<!-- 4 -->
<g id="node5" class="node">
<title>4</title>
<g id="a_node5"><a xlink:href="../programs/gdal_raster_reproject.html" xlink:title="../programs/gdal_raster_reproject.html" target="_blank">
<polygon fill="#cfe2ff" stroke="none" points="839,-44.62 839,-74.38 983.5,-74.38 983.5,-44.62 839,-44.62"/>
<polygon fill="none" stroke="black" points="839,-44.62 839,-74.38 983.5,-74.38 983.5,-44.62 839,-44.62"/>
<text xml:space="preserve" text-anchor="start" x="882.38" y="-55.08" font-family="Helvetica,sans-Serif" font-weight="bold" font-size="14.00">reproject</text>
<polygon fill="none" stroke="black" points="839,-14.88 839,-44.62 983.5,-44.62 983.5,-14.88 839,-14.88"/>
<text xml:space="preserve" text-anchor="start" x="846" y="-24.32" font-family="Helvetica,sans-Serif" font-size="14.00">&#45;&#45;dst&#45;crs=ESRI:53009</text>
</a>
</g>
</g>
<!-- 3&#45;&gt;4 -->
<g id="edge4" class="edge">
<title>3&#45;&gt;4</title>
<path fill="none" stroke="black" d="M802.81,-44.62C810.91,-44.62 819.44,-44.62 828,-44.62"/>
<polygon fill="black" stroke="black" points="827.74,-48.13 837.74,-44.63 827.74,-41.13 827.74,-48.13"/>
</g>
<!-- 5 -->
<g id="node6" class="node">
<title>5</title>
<polygon fill="#cfe2ff" stroke="none" points="1019.5,-59.5 1019.5,-89.25 1182,-89.25 1182,-59.5 1019.5,-59.5"/>
<polygon fill="none" stroke="black" points="1019.5,-59.5 1019.5,-89.25 1182,-89.25 1182,-59.5 1019.5,-59.5"/>
<text xml:space="preserve" text-anchor="start" x="1084.62" y="-69.95" font-family="Helvetica,sans-Serif" font-weight="bold" font-size="14.00">write</text>
<polygon fill="none" stroke="black" points="1019.5,-29.75 1019.5,-59.5 1182,-59.5 1182,-29.75 1019.5,-29.75"/>
<text xml:space="preserve" text-anchor="start" x="1026.5" y="-39.2" font-family="Helvetica,sans-Serif" font-size="14.00">worldcity_53009.geojson</text>
<polygon fill="none" stroke="black" points="1019.5,0 1019.5,-29.75 1182,-29.75 1182,0 1019.5,0"/>
<text xml:space="preserve" text-anchor="start" x="1026.5" y="-9.45" font-family="Helvetica,sans-Serif" font-size="14.00">&#45;&#45;overwrite</text>
</g>
<!-- 4&#45;&gt;5 -->
<g id="edge5" class="edge">
<title>4&#45;&gt;5</title>
<path fill="none" stroke="black" d="M983.4,-44.62C991.52,-44.62 999.88,-44.62 1008.22,-44.62"/>
<polygon fill="black" stroke="black" points="1008.03,-48.13 1018.03,-44.63 1008.03,-41.13 1008.03,-48.13"/>
</g>
</g>
</svg>
