<?xml version="1.0" encoding="utf-8" standalone="no"?>
<!DOCTYPE svg PUBLIC "-//W3C//DTD SVG 1.1//EN"
  "http://www.w3.org/Graphics/SVG/1.1/DTD/svg11.dtd">
<svg xmlns:xlink="http://www.w3.org/1999/xlink" width="684pt" height="264.641942pt" viewBox="0 0 684 264.641942" xmlns="http://www.w3.org/2000/svg" version="1.1">
 <metadata>
  <rdf:RDF xmlns:dc="http://purl.org/dc/elements/1.1/" xmlns:cc="http://creativecommons.org/ns#" xmlns:rdf="http://www.w3.org/1999/02/22-rdf-syntax-ns#">
   <cc:Work>
    <dc:type rdf:resource="http://purl.org/dc/dcmitype/StillImage"/>
    <dc:date>2025-05-18T10:19:44.280578</dc:date>
    <dc:format>image/svg+xml</dc:format>
    <dc:creator>
     <cc:Agent>
      <dc:title>Matplotlib v3.10.3, https://matplotlib.org/</dc:title>
     </cc:Agent>
    </dc:creator>
   </cc:Work>
  </rdf:RDF>
 </metadata>
 <defs>
  <style type="text/css">*{stroke-linejoin: round; stroke-linecap: butt}</style>
 </defs>
 <g id="figure_1">
  <g id="patch_1">
   <path d="M 0 264.641942 
L 684 264.641942 
L 684 0 
L 0 0 
L 0 264.641942 
z
" style="fill: none"/>
  </g>
  <g id="axes_1">
   <g id="LineCollection_1">
    <path d="M 146.038288 54.625449 
L 135.264266 48.060801 
L 131.675522 38.920151 
L 138.603719 36.34415 
L 164.252071 24.793693 
L 163.945651 23.214853 
L 174.286011 18.893819 
L 177.817626 29.57176 
L 191.339035 68.336424 
L 193.390488 73.779265 
L 172.141074 81.548817 
L 167.679814 71.327909 
L 167.903137 65.511132 
L 168.388734 58.032419 
L 165.986717 49.722737 
L 162.647263 43.074992 
L 159.364939 35.596279 
L 153.519598 38.878603 
L 149.364757 47.188284 
L 146.038288 54.625449 
" clip-path="url(#p58459cba9d)" style="fill: none; stroke: #1f77b4; stroke-width: 1.5"/>
    <path d="M 163.945651 23.214853 
L 164.252071 24.793693 
L 138.603719 36.34415 
L 131.675522 38.920151 
L 135.264266 48.060801 
L 146.038288 54.625449 
L 142.714415 60.525323 
L 134.565734 74.610233 
L 116.801193 74.402491 
L 112.101029 74.568685 
L 107.245059 74.651782 
L 95.250553 79.3883 
L 94.266375 79.679139 
L 88.156163 68.377972 
L 81.778482 59.902097 
L 80.381417 60.442226 
L 79.153142 57.367644 
L 90.371212 52.963513 
L 131.062683 36.427247 
L 163.945651 23.214853 
" clip-path="url(#p58459cba9d)" style="fill: none; stroke: #1f77b4; stroke-width: 1.5"/>
    <path d="M 146.038288 54.625449 
L 149.364757 47.188284 
L 153.519598 38.878603 
L 159.364939 35.596279 
L 162.647263 43.074992 
L 165.986717 49.722737 
L 168.388734 58.032419 
L 167.903137 65.511132 
L 161.032069 66.051261 
L 155.604808 67.962488 
L 152.29392 69.624424 
L 138.936107 80.842494 
L 134.441088 81.922753 
L 131.491151 83.958625 
L 130.917264 85.994497 
L 129.200795 89.56766 
L 126.713085 93.057726 
L 123.451535 95.093598 
L 119.867984 102.07373 
L 97.839538 110.757347 
L 87.701727 82.338237 
L 94.266375 79.679139 
L 95.250553 79.3883 
L 107.245059 74.651782 
L 112.101029 74.568685 
L 116.801193 74.402491 
L 134.565734 74.610233 
L 142.714415 60.525323 
L 146.038288 54.625449 
" clip-path="url(#p58459cba9d)" style="fill: none; stroke: #1f77b4; stroke-width: 1.5"/>
    <path d="M 79.153142 57.367644 
L 80.381417 60.442226 
L 87.701727 82.338237 
L 97.839538 110.757347 
L 103.329122 122.723289 
L 99.187265 126.587291 
L 96.268489 135.063166 
L 87.426469 138.262393 
L 79.430997 117.945222 
L 69.347718 121.892321 
L 57.039002 127.085872 
L 36.615363 134.606133 
L 33.185023 124.676064 
L 31.704861 119.440965 
L 32.026861 114.995285 
L 32.099571 108.555282 
L 36.545251 107.724314 
L 51.570193 92.019016 
L 46.420788 87.199401 
L 44.452432 89.02753 
L 39.064123 94.927404 
L 33.049991 101.616698 
L 28.723763 98.375922 
L 21.034711 79.928429 
L 68.708911 61.314743 
L 79.153142 57.367644 
" clip-path="url(#p58459cba9d)" style="fill: none; stroke: #1f77b4; stroke-width: 1.5"/>
    <path d="M 80.381417 60.442226 
L 81.778482 59.902097 
L 88.156163 68.377972 
L 94.266375 79.679139 
L 87.701727 82.338237 
L 80.381417 60.442226 
" clip-path="url(#p58459cba9d)" style="fill: none; stroke: #1f77b4; stroke-width: 1.5"/>
    <path d="M 167.903137 65.511132 
L 167.679814 71.327909 
L 172.141074 81.548817 
L 158.388552 87.240949 
L 140.291623 94.387275 
L 139.063349 90.232434 
L 131.101635 92.808436 
L 132.638926 97.046373 
L 119.867984 102.07373 
L 123.451535 95.093598 
L 126.713085 93.057726 
L 129.200795 89.56766 
L 130.917264 85.994497 
L 131.491151 83.958625 
L 134.441088 81.922753 
L 138.936107 80.842494 
L 152.29392 69.624424 
L 155.604808 67.962488 
L 161.032069 66.051261 
L 167.903137 65.511132 
" clip-path="url(#p58459cba9d)" style="fill: none; stroke: #1f77b4; stroke-width: 1.5"/>
    <path d="M 193.390488 73.779265 
L 205.644671 68.461069 
L 208.205092 76.438363 
L 211.282271 83.335399 
L 219.264759 91.39579 
L 220.028211 95.342888 
L 209.918964 91.188048 
L 205.940704 91.146499 
L 203.813945 94.968953 
L 221.807002 106.062377 
L 218.527274 115.036833 
L 217.335354 116.241737 
L 215.465676 119.690255 
L 209.568399 123.388063 
L 202.590863 125.590129 
L 190.801503 129.703421 
L 176.989254 137.514522 
L 174.065285 130.575938 
L 180.47932 127.459807 
L 185.034064 123.761999 
L 187.267291 119.897997 
L 189.557647 113.084058 
L 189.570631 108.472185 
L 182.450273 88.985982 
L 175.729818 91.063402 
L 168.799024 94.304178 
L 161.922763 96.672437 
L 159.767439 91.894371 
L 158.388552 87.240949 
L 172.141074 81.548817 
L 193.390488 73.779265 
" clip-path="url(#p58459cba9d)" style="fill: none; stroke: #1f77b4; stroke-width: 1.5"/>
    <path d="M 219.264759 91.39579 
L 224.284325 88.071917 
L 229.560973 84.581851 
L 237.626558 82.047398 
L 238.348461 81.922753 
L 242.796738 80.011526 
L 251.433613 74.94262 
L 255.476792 70.081457 
L 267.481685 79.886881 
L 268.294476 85.412819 
L 282.820838 80.219268 
L 282.111918 74.859524 
L 286.456323 72.366619 
L 288.886905 71.078619 
L 291.886181 69.665973 
L 294.140182 76.646105 
L 296.443522 83.792431 
L 297.728926 86.451529 
L 296.95249 86.617723 
L 263.659232 98.708309 
L 261.540263 100.079407 
L 260.659956 100.910375 
L 259.519972 102.281472 
L 257.395809 104.525086 
L 255.778018 110.300315 
L 255.874099 112.793219 
L 260.711892 137.763812 
L 256.024712 151.848722 
L 254.934066 154.424724 
L 247.424192 161.903437 
L 234.357217 180.143188 
L 229.65186 181.763575 
L 222.931405 183.591705 
L 215.39037 183.674802 
L 210.851206 180.974156 
L 184.436806 187.91274 
L 179.414642 191.485903 
L 177.602093 193.521775 
L 177.220367 200.086423 
L 183.751257 210.431976 
L 186.742743 230.541406 
L 177.781271 238.934184 
L 148.985628 245.748123 
L 148.422127 244.377025 
L 138.479074 217.744496 
L 118.852645 165.185761 
L 123.620325 159.410532 
L 170.998493 137.057489 
L 176.989254 137.514522 
L 190.801503 129.703421 
L 202.590863 125.590129 
L 209.568399 123.388063 
L 215.465676 119.690255 
L 217.335354 116.241737 
L 218.527274 115.036833 
L 221.807002 106.062377 
L 203.813945 94.968953 
L 205.940704 91.146499 
L 209.918964 91.188048 
L 220.028211 95.342888 
L 219.264759 91.39579 
" clip-path="url(#p58459cba9d)" style="fill: none; stroke: #1f77b4; stroke-width: 1.5"/>
    <path d="M 140.291623 94.387275 
L 158.388552 87.240949 
L 159.767439 91.894371 
L 161.922763 96.672437 
L 168.799024 94.304178 
L 175.729818 91.063402 
L 182.450273 88.985982 
L 189.570631 108.472185 
L 189.557647 113.084058 
L 187.267291 119.897997 
L 185.034064 123.761999 
L 180.47932 127.459807 
L 174.065285 130.575938 
L 176.989254 137.514522 
L 170.998493 137.057489 
L 123.620325 159.410532 
L 118.852645 165.185761 
L 118.442355 163.980857 
L 114.702998 153.552207 
L 114.142095 150.810012 
L 111.062319 144.411557 
L 106.964607 133.608971 
L 103.329122 122.723289 
L 97.839538 110.757347 
L 119.867984 102.07373 
L 132.638926 97.046373 
L 140.291623 94.387275 
" clip-path="url(#p58459cba9d)" style="fill: none; stroke: #1f77b4; stroke-width: 1.5"/>
    <path d="M 140.291623 94.387275 
L 132.638926 97.046373 
L 131.101635 92.808436 
L 139.063349 90.232434 
L 140.291623 94.387275 
" clip-path="url(#p58459cba9d)" style="fill: none; stroke: #1f77b4; stroke-width: 1.5"/>
   </g>
  </g>
  <g id="axes_2">
   <g id="LineCollection_2">
    <path d="M 511.626413 54.406813 
L 497.223231 38.65732 
L 529.584168 22.907828 
L 539.953625 18.574634 
L 559.111863 73.614528 
L 537.802653 81.405944 
L 533.55279 65.323128 
L 524.990566 35.324094 
L 511.626413 54.406813 
" clip-path="url(#p07d3865e51)" style="fill: none; stroke: #1f77b4; stroke-width: 1.5"/>
    <path d="M 529.584168 22.907828 
L 497.223231 38.65732 
L 511.626413 54.406813 
L 500.121575 74.447834 
L 459.708814 79.531004 
L 445.784783 60.239959 
L 444.553052 57.156725 
L 529.584168 22.907828 
" clip-path="url(#p07d3865e51)" style="fill: none; stroke: #1f77b4; stroke-width: 1.5"/>
    <path d="M 511.626413 54.406813 
L 524.990566 35.324094 
L 533.55279 65.323128 
L 497.038341 83.822533 
L 485.382466 101.988614 
L 463.292032 110.696667 
L 453.125692 82.197585 
L 459.708814 79.531004 
L 500.121575 74.447834 
L 511.626413 54.406813 
" clip-path="url(#p07d3865e51)" style="fill: none; stroke: #1f77b4; stroke-width: 1.5"/>
    <path d="M 444.553052 57.156725 
L 445.784783 60.239959 
L 453.125692 82.197585 
L 463.292032 110.696667 
L 468.797063 122.696281 
L 452.84966 138.279112 
L 444.831689 117.904768 
L 401.895571 134.612564 
L 396.971251 119.40472 
L 416.892484 91.905606 
L 398.320166 101.530296 
L 386.271074 79.780996 
L 444.553052 57.156725 
" clip-path="url(#p07d3865e51)" style="fill: none; stroke: #1f77b4; stroke-width: 1.5"/>
    <path d="M 445.784783 60.239959 
L 459.708814 79.531004 
L 453.125692 82.197585 
L 445.784783 60.239959 
" clip-path="url(#p07d3865e51)" style="fill: none; stroke: #1f77b4; stroke-width: 1.5"/>
    <path d="M 533.55279 65.323128 
L 537.802653 81.405944 
L 524.011431 87.114093 
L 505.863577 94.280529 
L 496.647728 92.697247 
L 498.189345 96.94711 
L 485.382466 101.988614 
L 497.038341 83.822533 
L 533.55279 65.323128 
" clip-path="url(#p07d3865e51)" style="fill: none; stroke: #1f77b4; stroke-width: 1.5"/>
    <path d="M 559.111863 73.614528 
L 571.400529 68.281366 
L 585.058944 91.280626 
L 569.564651 94.863844 
L 587.608341 105.988485 
L 581.249171 119.654712 
L 542.664476 137.529136 
L 555.281257 108.405074 
L 548.140862 88.864037 
L 527.555587 96.572122 
L 524.011431 87.114093 
L 537.802653 81.405944 
L 559.111863 73.614528 
" clip-path="url(#p07d3865e51)" style="fill: none; stroke: #1f77b4; stroke-width: 1.5"/>
    <path d="M 585.058944 91.280626 
L 621.372879 69.906314 
L 634.226631 85.280819 
L 657.884724 69.489661 
L 662.965289 86.489113 
L 629.578344 98.613723 
L 621.771303 112.738268 
L 626.62271 137.779128 
L 620.828625 154.486924 
L 600.193873 180.27776 
L 550.132985 188.069176 
L 542.896239 200.277116 
L 552.445411 230.817799 
L 543.458721 239.234195 
L 514.582047 246.067308 
L 484.36427 165.278243 
L 489.145366 159.486763 
L 542.664476 137.529136 
L 581.249171 119.654712 
L 587.608341 105.988485 
L 569.564651 94.863844 
L 585.058944 91.280626 
" clip-path="url(#p07d3865e51)" style="fill: none; stroke: #1f77b4; stroke-width: 1.5"/>
    <path d="M 505.863577 94.280529 
L 524.011431 87.114093 
L 527.555587 96.572122 
L 548.140862 88.864037 
L 555.281257 108.405074 
L 542.664476 137.529136 
L 489.145366 159.486763 
L 484.36427 165.278243 
L 468.797063 122.696281 
L 463.292032 110.696667 
L 485.382466 101.988614 
L 498.189345 96.94711 
L 505.863577 94.280529 
" clip-path="url(#p07d3865e51)" style="fill: none; stroke: #1f77b4; stroke-width: 1.5"/>
    <path d="M 498.189345 96.94711 
L 496.647728 92.697247 
L 505.863577 94.280529 
L 498.189345 96.94711 
" clip-path="url(#p07d3865e51)" style="fill: none; stroke: #1f77b4; stroke-width: 1.5"/>
   </g>
  </g>
 </g>
 <defs>
  <clipPath id="p58459cba9d">
   <rect x="7.2" y="7.551104" width="304.363636" height="249.539734"/>
  </clipPath>
  <clipPath id="p07d3865e51">
   <rect x="372.436364" y="7.2" width="304.363636" height="250.241942"/>
  </clipPath>
 </defs>
</svg>
