<?xml version="1.0" encoding="UTF-8" standalone="no"?>
<!DOCTYPE svg PUBLIC "-//W3C//DTD SVG 1.1//EN"
 "http://www.w3.org/Graphics/SVG/1.1/DTD/svg11.dtd">
<!-- Generated by graphviz version 14.1.2 (0)
 -->
<!-- Title: GDALG Workflow Pages: 1 -->
<svg width="281pt" height="509pt"
 viewBox="0.00 0.00 281.00 509.00" xmlns="http://www.w3.org/2000/svg" xmlns:xlink="http://www.w3.org/1999/xlink">
<g id="graph0" class="graph" transform="scale(1 1) rotate(0) translate(4 505)">
<title>GDALG Workflow</title>
<polygon fill="white" stroke="none" points="-4,4 -4,-505 276.75,-505 276.75,4 -4,4"/>
<!-- 0 -->
<g id="node1" class="node">
<title>0</title>
<polygon fill="#cfe2ff" stroke="none" points="0,-471.25 0,-501 272.75,-501 272.75,-471.25 0,-471.25"/>
<polygon fill="none" stroke="black" points="0,-471.25 0,-501 272.75,-501 272.75,-471.25 0,-471.25"/>
<text xml:space="preserve" text-anchor="start" x="122.12" y="-481.7" font-family="Helvetica,sans-Serif" font-weight="bold" font-size="14.00">read</text>
<polygon fill="none" stroke="black" points="0,-441.5 0,-471.25 272.75,-471.25 272.75,-441.5 0,-441.5"/>
<text xml:space="preserve" text-anchor="start" x="7" y="-450.95" font-family="Helvetica,sans-Serif" font-size="14.00">natural_earth_vector.gpkg</text>
<polygon fill="none" stroke="black" points="0,-411.75 0,-441.5 272.75,-441.5 272.75,-411.75 0,-411.75"/>
<text xml:space="preserve" text-anchor="start" x="7" y="-421.2" font-family="Helvetica,sans-Serif" font-size="14.00">&#45;&#45;layer ne_110m_populated_places_simple</text>
</g>
<!-- 1 -->
<g id="node2" class="node">
<title>1</title>
<g id="a_node2"><a xlink:href="../programs/gdal_vector_filter.html" xlink:title="../programs/gdal_vector_filter.html" target="_blank">
<polygon fill="#cfe2ff" stroke="none" points="66.75,-346 66.75,-375.75 206,-375.75 206,-346 66.75,-346"/>
<polygon fill="none" stroke="black" points="66.75,-346 66.75,-375.75 206,-375.75 206,-346 66.75,-346"/>
<text xml:space="preserve" text-anchor="start" x="121.75" y="-356.45" font-family="Helvetica,sans-Serif" font-weight="bold" font-size="14.00">filter</text>
<polygon fill="none" stroke="black" points="66.75,-316.25 66.75,-346 206,-346 206,-316.25 66.75,-316.25"/>
<text xml:space="preserve" text-anchor="start" x="73.75" y="-325.7" font-family="Helvetica,sans-Serif" font-size="14.00">&#45;&#45;where worldcity = 1</text>
</a>
</g>
</g>
<!-- 0&#45;&gt;1 -->
<g id="edge1" class="edge">
<title>0&#45;&gt;1</title>
<path fill="none" stroke="black" d="M136.38,-411.92C136.38,-403.69 136.38,-395.12 136.38,-387"/>
<polygon fill="black" stroke="black" points="139.88,-387.04 136.38,-377.04 132.88,-387.04 139.88,-387.04"/>
</g>
<!-- 2 -->
<g id="node3" class="node">
<title>2</title>
<g id="a_node3"><a xlink:href="../programs/gdal_raster_select.html" xlink:title="../programs/gdal_raster_select.html" target="_blank">
<polygon fill="#cfe2ff" stroke="none" points="38.62,-250.5 38.62,-280.25 234.12,-280.25 234.12,-250.5 38.62,-250.5"/>
<polygon fill="none" stroke="black" points="38.62,-250.5 38.62,-280.25 234.12,-280.25 234.12,-250.5 38.62,-250.5"/>
<text xml:space="preserve" text-anchor="start" x="117.25" y="-260.95" font-family="Helvetica,sans-Serif" font-weight="bold" font-size="14.00">select</text>
<polygon fill="none" stroke="black" points="38.62,-220.75 38.62,-250.5 234.12,-250.5 234.12,-220.75 38.62,-220.75"/>
<text xml:space="preserve" text-anchor="start" x="45.62" y="-230.2" font-family="Helvetica,sans-Serif" font-size="14.00">&#45;&#45;fields _ogr_geometry_,name</text>
</a>
</g>
</g>
<!-- 1&#45;&gt;2 -->
<g id="edge2" class="edge">
<title>1&#45;&gt;2</title>
<path fill="none" stroke="black" d="M136.38,-316.44C136.38,-308.63 136.38,-300.01 136.38,-291.68"/>
<polygon fill="black" stroke="black" points="139.88,-291.72 136.38,-281.72 132.88,-291.72 139.88,-291.72"/>
</g>
<!-- 3 -->
<g id="node4" class="node">
<title>3</title>
<g id="a_node4"><a xlink:href="../programs/gdal_raster_reproject.html" xlink:title="../programs/gdal_raster_reproject.html" target="_blank">
<polygon fill="#cfe2ff" stroke="none" points="64.12,-155 64.12,-184.75 208.62,-184.75 208.62,-155 64.12,-155"/>
<polygon fill="none" stroke="black" points="64.12,-155 64.12,-184.75 208.62,-184.75 208.62,-155 64.12,-155"/>
<text xml:space="preserve" text-anchor="start" x="107.5" y="-165.45" font-family="Helvetica,sans-Serif" font-weight="bold" font-size="14.00">reproject</text>
<polygon fill="none" stroke="black" points="64.12,-125.25 64.12,-155 208.62,-155 208.62,-125.25 64.12,-125.25"/>
<text xml:space="preserve" text-anchor="start" x="71.12" y="-134.7" font-family="Helvetica,sans-Serif" font-size="14.00">&#45;&#45;dst&#45;crs=ESRI:53009</text>
</a>
</g>
</g>
<!-- 2&#45;&gt;3 -->
<g id="edge3" class="edge">
<title>2&#45;&gt;3</title>
<path fill="none" stroke="black" d="M136.38,-220.94C136.38,-213.13 136.38,-204.51 136.38,-196.18"/>
<polygon fill="black" stroke="black" points="139.88,-196.22 136.38,-186.22 132.88,-196.22 139.88,-196.22"/>
</g>
<!-- 4 -->
<g id="node5" class="node">
<title>4</title>
<polygon fill="#cfe2ff" stroke="none" points="55.12,-59.5 55.12,-89.25 217.62,-89.25 217.62,-59.5 55.12,-59.5"/>
<polygon fill="none" stroke="black" points="55.12,-59.5 55.12,-89.25 217.62,-89.25 217.62,-59.5 55.12,-59.5"/>
<text xml:space="preserve" text-anchor="start" x="120.25" y="-69.95" font-family="Helvetica,sans-Serif" font-weight="bold" font-size="14.00">write</text>
<polygon fill="none" stroke="black" points="55.12,-29.75 55.12,-59.5 217.62,-59.5 217.62,-29.75 55.12,-29.75"/>
<text xml:space="preserve" text-anchor="start" x="62.12" y="-39.2" font-family="Helvetica,sans-Serif" font-size="14.00">worldcity_53009.geojson</text>
<polygon fill="none" stroke="black" points="55.12,0 55.12,-29.75 217.62,-29.75 217.62,0 55.12,0"/>
<text xml:space="preserve" text-anchor="start" x="62.12" y="-9.45" font-family="Helvetica,sans-Serif" font-size="14.00">&#45;&#45;overwrite</text>
</g>
<!-- 3&#45;&gt;4 -->
<g id="edge4" class="edge">
<title>3&#45;&gt;4</title>
<path fill="none" stroke="black" d="M136.38,-125.53C136.38,-117.76 136.38,-109.09 136.38,-100.39"/>
<polygon fill="black" stroke="black" points="139.88,-100.53 136.38,-90.53 132.88,-100.53 139.88,-100.53"/>
</g>
</g>
</svg>
