<?xml version="1.0" encoding="utf-8" standalone="no"?>
<!DOCTYPE svg PUBLIC "-//W3C//DTD SVG 1.1//EN"
  "http://www.w3.org/Graphics/SVG/1.1/DTD/svg11.dtd">
<svg xmlns:xlink="http://www.w3.org/1999/xlink" width="595.236364pt" height="291.6pt" viewBox="0 0 595.236364 291.6" xmlns="http://www.w3.org/2000/svg" version="1.1">
 <metadata>
  <rdf:RDF xmlns:dc="http://purl.org/dc/elements/1.1/" xmlns:cc="http://creativecommons.org/ns#" xmlns:rdf="http://www.w3.org/1999/02/22-rdf-syntax-ns#">
   <cc:Work>
    <dc:type rdf:resource="http://purl.org/dc/dcmitype/StillImage"/>
    <dc:date>2026-01-19T18:07:14.007355</dc:date>
    <dc:format>image/svg+xml</dc:format>
    <dc:creator>
     <cc:Agent>
      <dc:title>Matplotlib v3.10.1+dfsg1, https://matplotlib.org/</dc:title>
     </cc:Agent>
    </dc:creator>
   </cc:Work>
  </rdf:RDF>
 </metadata>
 <defs>
  <style type="text/css">*{stroke-linejoin: round; stroke-linecap: butt}</style>
 </defs>
 <g id="figure_1">
  <g id="patch_1">
   <path d="M 0 291.6 
L 595.236364 291.6 
L 595.236364 0 
L 0 0 
L 0 291.6 
z
" style="fill: none"/>
  </g>
  <g id="axes_1">
   <g id="PatchCollection_1">
    <path d="M 19.8 271.8 
L 19.8 19.8 
L 145.8 19.8 
L 145.8 45 
L 133.2 145.8 
L 145.8 171 
L 145.8 271.8 
L 19.8 271.8 
" clip-path="url(#p0483c40c2f)" style="fill: #71c9f1; fill-opacity: 0.5; stroke: #000000; stroke-opacity: 0.5"/>
    <path d="M 145.8 271.8 
L 133.2 271.8 
L 145.8 196.2 
L 145.8 45 
L 148.32 19.8 
L 271.8 19.8 
L 271.8 271.8 
L 145.8 271.8 
" clip-path="url(#p0483c40c2f)" style="fill: #359946; fill-opacity: 0.5; stroke: #000000; stroke-opacity: 0.5"/>
   </g>
  </g>
  <g id="axes_2">
   <g id="LineCollection_1">
    <path d="M 567.036364 131.8 
L 581.036364 159.8 
L 581.036364 271.8 
L 441.036364 271.8 
" clip-path="url(#p3318f56793)" style="fill: none; stroke: #71c9f1; stroke-opacity: 0.5; stroke-width: 1.5"/>
    <path d="M 581.036364 271.8 
L 567.036364 271.8 
L 581.036364 187.8 
L 581.036364 19.8 
" clip-path="url(#p3318f56793)" style="fill: none; stroke: #359946; stroke-opacity: 0.5; stroke-width: 1.5"/>
   </g>
  </g>
 </g>
 <defs>
  <clipPath id="p0483c40c2f">
   <rect x="7.2" y="7.2" width="277.2" height="277.2"/>
  </clipPath>
  <clipPath id="p3318f56793">
   <rect x="434.036364" y="7.2" width="154" height="277.2"/>
  </clipPath>
 </defs>
</svg>
