<?xml version="1.0" encoding="utf-8" standalone="no"?>
<!DOCTYPE svg PUBLIC "-//W3C//DTD SVG 1.1//EN"
  "http://www.w3.org/Graphics/SVG/1.1/DTD/svg11.dtd">
<svg xmlns:xlink="http://www.w3.org/1999/xlink" width="803.585455pt" height="347.04pt" viewBox="0 0 803.585455 347.04" xmlns="http://www.w3.org/2000/svg" version="1.1">
 <metadata>
  <rdf:RDF xmlns:dc="http://purl.org/dc/elements/1.1/" xmlns:cc="http://creativecommons.org/ns#" xmlns:rdf="http://www.w3.org/1999/02/22-rdf-syntax-ns#">
   <cc:Work>
    <dc:type rdf:resource="http://purl.org/dc/dcmitype/StillImage"/>
    <dc:date>2025-10-28T08:43:51.193577</dc:date>
    <dc:format>image/svg+xml</dc:format>
    <dc:creator>
     <cc:Agent>
      <dc:title>Matplotlib v3.10.3, https://matplotlib.org/</dc:title>
     </cc:Agent>
    </dc:creator>
   </cc:Work>
  </rdf:RDF>
 </metadata>
 <defs>
  <style type="text/css">*{stroke-linejoin: round; stroke-linecap: butt}</style>
 </defs>
 <g id="figure_1">
  <g id="patch_1">
   <path d="M 0 347.04 
L 803.585455 347.04 
L 803.585455 -0 
L 0 -0 
L 0 347.04 
z
" style="fill: none"/>
  </g>
  <g id="axes_1">
   <g id="patch_2">
    <path d="M 7.2 339.84 
L 339.84 339.84 
L 339.84 7.2 
L 7.2 7.2 
L 7.2 339.84 
z
" style="fill: none"/>
   </g>
   <g id="PolyQuadMesh_1">
    <path d="M 7.2 7.2 
L 7.2 118.08 
L 118.08 118.08 
L 118.08 7.2 
L 7.2 7.2 
z
" clip-path="url(#p89df409bfb)" style="fill: #440154"/>
    <path d="M 118.08 7.2 
L 118.08 118.08 
L 228.96 118.08 
L 228.96 7.2 
L 118.08 7.2 
z
" clip-path="url(#p89df409bfb)" style="fill: #46327e"/>
    <path d="M 228.96 7.2 
L 228.96 118.08 
L 339.84 118.08 
L 339.84 7.2 
L 228.96 7.2 
z
" clip-path="url(#p89df409bfb)" style="fill: #365c8d"/>
    <path d="M 7.2 118.08 
L 7.2 228.96 
L 118.08 228.96 
L 118.08 118.08 
L 7.2 118.08 
z
" clip-path="url(#p89df409bfb)" style="fill: #277f8e"/>
    <path d="M 118.08 118.08 
L 118.08 228.96 
L 228.96 228.96 
L 228.96 118.08 
L 118.08 118.08 
z
" clip-path="url(#p89df409bfb)" style="fill: #1fa187"/>
    <path d="M 228.96 118.08 
L 228.96 228.96 
L 339.84 228.96 
L 339.84 118.08 
L 228.96 118.08 
z
" clip-path="url(#p89df409bfb)" style="fill: #4ac16d"/>
    <path d="M 7.2 228.96 
L 7.2 339.84 
L 118.08 339.84 
L 118.08 228.96 
L 7.2 228.96 
z
" clip-path="url(#p89df409bfb)" style="fill: #a0da39"/>
    <path d="M 118.08 228.96 
L 118.08 339.84 
L 228.96 339.84 
L 228.96 228.96 
L 118.08 228.96 
z
" clip-path="url(#p89df409bfb)" style="fill: #fde725"/>
   </g>
   <g id="matplotlib.axis_1"/>
   <g id="matplotlib.axis_2"/>
   <g id="patch_3">
    <path d="M 7.2 339.84 
L 7.2 7.2 
" style="fill: none; stroke: #000000; stroke-width: 0.8; stroke-linejoin: miter; stroke-linecap: square"/>
   </g>
   <g id="patch_4">
    <path d="M 339.84 339.84 
L 339.84 7.2 
" style="fill: none; stroke: #000000; stroke-width: 0.8; stroke-linejoin: miter; stroke-linecap: square"/>
   </g>
   <g id="patch_5">
    <path d="M 7.2 339.84 
L 339.84 339.84 
" style="fill: none; stroke: #000000; stroke-width: 0.8; stroke-linejoin: miter; stroke-linecap: square"/>
   </g>
   <g id="patch_6">
    <path d="M 7.2 7.2 
L 339.84 7.2 
" style="fill: none; stroke: #000000; stroke-width: 0.8; stroke-linejoin: miter; stroke-linecap: square"/>
   </g>
   <g id="text_1">
    <path d="M 63.761094 61.74625 
Q 63.761094 60.379062 63.504844 59.82125 
Q 63.248594 59.261875 62.642344 59.261875 
Q 62.037656 59.261875 61.778281 59.82125 
Q 61.518906 60.379062 61.518906 61.74625 
Q 61.518906 63.129062 61.778281 63.69625 
Q 62.037656 64.261875 62.642344 64.261875 
Q 63.243906 64.261875 63.501719 63.69625 
Q 63.761094 63.129062 63.761094 61.74625 
z
M 65.640781 61.761875 
Q 65.640781 63.572812 64.859531 64.557187 
Q 64.078281 65.541562 62.642344 65.541562 
Q 61.201719 65.541562 60.420469 64.557187 
Q 59.639219 63.572812 59.639219 61.761875 
Q 59.639219 59.944687 60.420469 58.961875 
Q 61.201719 57.9775 62.642344 57.9775 
Q 64.078281 57.9775 64.859531 58.961875 
Q 65.640781 59.944687 65.640781 61.761875 
z
" style="stroke: #ffffff; stroke-width: 3"/>
    <path d="M 63.761094 61.74625 
Q 63.761094 60.379062 63.504844 59.82125 
Q 63.248594 59.261875 62.642344 59.261875 
Q 62.037656 59.261875 61.778281 59.82125 
Q 61.518906 60.379062 61.518906 61.74625 
Q 61.518906 63.129062 61.778281 63.69625 
Q 62.037656 64.261875 62.642344 64.261875 
Q 63.243906 64.261875 63.501719 63.69625 
Q 63.761094 63.129062 63.761094 61.74625 
z
M 65.640781 61.761875 
Q 65.640781 63.572812 64.859531 64.557187 
Q 64.078281 65.541562 62.642344 65.541562 
Q 61.201719 65.541562 60.420469 64.557187 
Q 59.639219 63.572812 59.639219 61.761875 
Q 59.639219 59.944687 60.420469 58.961875 
Q 61.201719 57.9775 62.642344 57.9775 
Q 64.078281 57.9775 64.859531 58.961875 
Q 65.640781 59.944687 65.640781 61.761875 
z
"/>
   </g>
   <g id="text_2">
    <path d="M 171.212969 64.100937 
L 172.873906 64.100937 
L 172.873906 59.388437 
L 171.169219 59.74 
L 171.169219 58.460312 
L 172.862969 58.10875 
L 174.650469 58.10875 
L 174.650469 64.100937 
L 176.311406 64.100937 
L 176.311406 65.399375 
L 171.212969 65.399375 
L 171.212969 64.100937 
z
" style="stroke: #ffffff; stroke-width: 3"/>
    <path d="M 171.212969 64.100937 
L 172.873906 64.100937 
L 172.873906 59.388437 
L 171.169219 59.74 
L 171.169219 58.460312 
L 172.862969 58.10875 
L 174.650469 58.10875 
L 174.650469 64.100937 
L 176.311406 64.100937 
L 176.311406 65.399375 
L 171.212969 65.399375 
L 171.212969 64.100937 
z
"/>
   </g>
   <g id="text_3">
    <path d="M 283.802344 64.018125 
L 287.010156 64.018125 
L 287.010156 65.399375 
L 281.711719 65.399375 
L 281.711719 64.018125 
L 284.372656 61.668125 
Q 284.730469 61.34625 284.900781 61.038437 
Q 285.071094 60.730625 285.071094 60.399375 
Q 285.071094 59.886875 284.727344 59.574375 
Q 284.383594 59.261875 283.811719 59.261875 
Q 283.372656 59.261875 282.849219 59.449375 
Q 282.327344 59.636875 281.732031 60.00875 
L 281.732031 58.407187 
Q 282.366406 58.197812 282.986719 58.088437 
Q 283.607031 57.9775 284.202344 57.9775 
Q 285.511719 57.9775 286.236719 58.554062 
Q 286.961719 59.129062 286.961719 60.160312 
Q 286.961719 60.755625 286.653906 61.27125 
Q 286.346094 61.785312 285.360156 62.650937 
L 283.802344 64.018125 
z
" style="stroke: #ffffff; stroke-width: 3"/>
    <path d="M 283.802344 64.018125 
L 287.010156 64.018125 
L 287.010156 65.399375 
L 281.711719 65.399375 
L 281.711719 64.018125 
L 284.372656 61.668125 
Q 284.730469 61.34625 284.900781 61.038437 
Q 285.071094 60.730625 285.071094 60.399375 
Q 285.071094 59.886875 284.727344 59.574375 
Q 284.383594 59.261875 283.811719 59.261875 
Q 283.372656 59.261875 282.849219 59.449375 
Q 282.327344 59.636875 281.732031 60.00875 
L 281.732031 58.407187 
Q 282.366406 58.197812 282.986719 58.088437 
Q 283.607031 57.9775 284.202344 57.9775 
Q 285.511719 57.9775 286.236719 58.554062 
Q 286.961719 59.129062 286.961719 60.160312 
Q 286.961719 60.755625 286.653906 61.27125 
Q 286.346094 61.785312 285.360156 62.650937 
L 283.802344 64.018125 
z
"/>
   </g>
   <g id="text_4">
    <path d="M 63.818906 172.348125 
Q 64.556406 172.53875 64.939219 173.010625 
Q 65.323594 173.480938 65.323594 174.209063 
Q 65.323594 175.293438 64.492344 175.8575 
Q 63.662656 176.421563 62.072031 176.421563 
Q 61.509531 176.421563 60.945469 176.330938 
Q 60.381406 176.240313 59.829844 176.059063 
L 59.829844 174.609063 
Q 60.357969 174.873125 60.876719 175.0075 
Q 61.397031 175.141875 61.900156 175.141875 
Q 62.647031 175.141875 63.045469 174.884063 
Q 63.443906 174.624688 63.443906 174.140313 
Q 63.443906 173.641875 63.036094 173.385625 
Q 62.628281 173.129375 61.831406 173.129375 
L 61.079844 173.129375 
L 61.079844 171.918438 
L 61.870469 171.918438 
Q 62.579844 171.918438 62.925156 171.696563 
Q 63.272031 171.474688 63.272031 171.02 
Q 63.272031 170.60125 62.934531 170.371563 
Q 62.598594 170.141875 61.982969 170.141875 
Q 61.529844 170.141875 61.065781 170.245 
Q 60.601719 170.346563 60.142344 170.546563 
L 60.142344 169.17 
Q 60.698594 169.01375 61.245469 168.935625 
Q 61.792344 168.8575 62.320469 168.8575 
Q 63.740781 168.8575 64.445469 169.324688 
Q 65.151719 169.790313 65.151719 170.727813 
Q 65.151719 171.366875 64.814219 171.774688 
Q 64.478281 172.1825 63.818906 172.348125 
z
" style="stroke: #ffffff; stroke-width: 3"/>
    <path d="M 63.818906 172.348125 
Q 64.556406 172.53875 64.939219 173.010625 
Q 65.323594 173.480938 65.323594 174.209063 
Q 65.323594 175.293438 64.492344 175.8575 
Q 63.662656 176.421563 62.072031 176.421563 
Q 61.509531 176.421563 60.945469 176.330938 
Q 60.381406 176.240313 59.829844 176.059063 
L 59.829844 174.609063 
Q 60.357969 174.873125 60.876719 175.0075 
Q 61.397031 175.141875 61.900156 175.141875 
Q 62.647031 175.141875 63.045469 174.884063 
Q 63.443906 174.624688 63.443906 174.140313 
Q 63.443906 173.641875 63.036094 173.385625 
Q 62.628281 173.129375 61.831406 173.129375 
L 61.079844 173.129375 
L 61.079844 171.918438 
L 61.870469 171.918438 
Q 62.579844 171.918438 62.925156 171.696563 
Q 63.272031 171.474688 63.272031 171.02 
Q 63.272031 170.60125 62.934531 170.371563 
Q 62.598594 170.141875 61.982969 170.141875 
Q 61.529844 170.141875 61.065781 170.245 
Q 60.601719 170.346563 60.142344 170.546563 
L 60.142344 169.17 
Q 60.698594 169.01375 61.245469 168.935625 
Q 61.792344 168.8575 62.320469 168.8575 
Q 63.740781 168.8575 64.445469 169.324688 
Q 65.151719 169.790313 65.151719 170.727813 
Q 65.151719 171.366875 64.814219 171.774688 
Q 64.478281 172.1825 63.818906 172.348125 
z
"/>
   </g>
   <g id="text_5">
    <path d="M 173.722344 170.537188 
L 171.662969 173.58875 
L 173.722344 173.58875 
L 173.722344 170.537188 
z
M 173.409844 168.98875 
L 175.500469 168.98875 
L 175.500469 173.58875 
L 176.539531 173.58875 
L 176.539531 174.95125 
L 175.500469 174.95125 
L 175.500469 176.279375 
L 173.722344 176.279375 
L 173.722344 174.95125 
L 170.491094 174.95125 
L 170.491094 173.340313 
L 173.409844 168.98875 
z
" style="stroke: #ffffff; stroke-width: 3"/>
    <path d="M 173.722344 170.537188 
L 171.662969 173.58875 
L 173.722344 173.58875 
L 173.722344 170.537188 
z
M 173.409844 168.98875 
L 175.500469 168.98875 
L 175.500469 173.58875 
L 176.539531 173.58875 
L 176.539531 174.95125 
L 175.500469 174.95125 
L 175.500469 176.279375 
L 173.722344 176.279375 
L 173.722344 174.95125 
L 170.491094 174.95125 
L 170.491094 173.340313 
L 173.409844 168.98875 
z
"/>
   </g>
   <g id="text_6">
    <path d="M 281.980469 168.98875 
L 286.653906 168.98875 
L 286.653906 170.371563 
L 283.480469 170.371563 
L 283.480469 171.499688 
Q 283.694531 171.440313 283.911719 171.409063 
Q 284.128906 171.37625 284.363281 171.37625 
Q 285.696094 171.37625 286.438281 172.043438 
Q 287.180469 172.710625 287.180469 173.90125 
Q 287.180469 175.0825 286.372656 175.752813 
Q 285.564844 176.421563 284.128906 176.421563 
Q 283.508594 176.421563 282.900781 176.30125 
Q 282.292969 176.180938 281.692969 175.937188 
L 281.692969 174.4575 
Q 282.288281 174.799688 282.822656 174.971563 
Q 283.357031 175.141875 283.832031 175.141875 
Q 284.514844 175.141875 284.907031 174.8075 
Q 285.300781 174.473125 285.300781 173.90125 
Q 285.300781 173.324688 284.907031 172.993438 
Q 284.514844 172.660625 283.832031 172.660625 
Q 283.425781 172.660625 282.966406 172.766875 
Q 282.508594 172.871563 281.980469 173.090313 
L 281.980469 168.98875 
z
" style="stroke: #ffffff; stroke-width: 3"/>
    <path d="M 281.980469 168.98875 
L 286.653906 168.98875 
L 286.653906 170.371563 
L 283.480469 170.371563 
L 283.480469 171.499688 
Q 283.694531 171.440313 283.911719 171.409063 
Q 284.128906 171.37625 284.363281 171.37625 
Q 285.696094 171.37625 286.438281 172.043438 
Q 287.180469 172.710625 287.180469 173.90125 
Q 287.180469 175.0825 286.372656 175.752813 
Q 285.564844 176.421563 284.128906 176.421563 
Q 283.508594 176.421563 282.900781 176.30125 
Q 282.292969 176.180938 281.692969 175.937188 
L 281.692969 174.4575 
Q 282.288281 174.799688 282.822656 174.971563 
Q 283.357031 175.141875 283.832031 175.141875 
Q 284.514844 175.141875 284.907031 174.8075 
Q 285.300781 174.473125 285.300781 173.90125 
Q 285.300781 173.324688 284.907031 172.993438 
Q 284.514844 172.660625 283.832031 172.660625 
Q 283.425781 172.660625 282.966406 172.766875 
Q 282.508594 172.871563 281.980469 173.090313 
L 281.980469 168.98875 
z
"/>
   </g>
   <g id="text_7">
    <path d="M 62.779844 283.560938 
Q 62.286094 283.560938 62.039219 283.88125 
Q 61.792344 284.2 61.792344 284.840625 
Q 61.792344 285.479688 62.039219 285.8 
Q 62.286094 286.11875 62.779844 286.11875 
Q 63.276719 286.11875 63.523594 285.8 
Q 63.770469 285.479688 63.770469 284.840625 
Q 63.770469 284.2 63.523594 283.88125 
Q 63.276719 283.560938 62.779844 283.560938 
z
M 65.103281 280.059375 
L 65.103281 281.407813 
Q 64.639219 281.1875 64.228281 281.082812 
Q 63.818906 280.978125 63.428281 280.978125 
Q 62.589219 280.978125 62.120469 281.445312 
Q 61.651719 281.910937 61.573594 282.828125 
Q 61.895469 282.589063 62.270469 282.470313 
Q 62.647031 282.35 63.092344 282.35 
Q 64.209531 282.35 64.895469 283.004687 
Q 65.581406 283.657813 65.581406 284.717188 
Q 65.581406 285.889063 64.814219 286.595313 
Q 64.048594 287.301562 62.759531 287.301562 
Q 61.339219 287.301562 60.559531 286.342188 
Q 59.781406 285.38125 59.781406 283.61875 
Q 59.781406 281.8125 60.692344 280.779688 
Q 61.603281 279.746875 63.189219 279.746875 
Q 63.692344 279.746875 64.165781 279.825 
Q 64.639219 279.903125 65.103281 280.059375 
z
" style="stroke: #ffffff; stroke-width: 3"/>
    <path d="M 62.779844 283.560938 
Q 62.286094 283.560938 62.039219 283.88125 
Q 61.792344 284.2 61.792344 284.840625 
Q 61.792344 285.479688 62.039219 285.8 
Q 62.286094 286.11875 62.779844 286.11875 
Q 63.276719 286.11875 63.523594 285.8 
Q 63.770469 285.479688 63.770469 284.840625 
Q 63.770469 284.2 63.523594 283.88125 
Q 63.276719 283.560938 62.779844 283.560938 
z
M 65.103281 280.059375 
L 65.103281 281.407813 
Q 64.639219 281.1875 64.228281 281.082812 
Q 63.818906 280.978125 63.428281 280.978125 
Q 62.589219 280.978125 62.120469 281.445312 
Q 61.651719 281.910937 61.573594 282.828125 
Q 61.895469 282.589063 62.270469 282.470313 
Q 62.647031 282.35 63.092344 282.35 
Q 64.209531 282.35 64.895469 283.004687 
Q 65.581406 283.657813 65.581406 284.717188 
Q 65.581406 285.889063 64.814219 286.595313 
Q 64.048594 287.301562 62.759531 287.301562 
Q 61.339219 287.301562 60.559531 286.342188 
Q 59.781406 285.38125 59.781406 283.61875 
Q 59.781406 281.8125 60.692344 280.779688 
Q 61.603281 279.746875 63.189219 279.746875 
Q 63.692344 279.746875 64.165781 279.825 
Q 64.639219 279.903125 65.103281 280.059375 
z
"/>
   </g>
   <g id="text_8">
    <path d="M 170.709844 279.86875 
L 176.203594 279.86875 
L 176.203594 280.928125 
L 173.361406 287.159375 
L 171.530156 287.159375 
L 174.220781 281.251563 
L 170.709844 281.251563 
L 170.709844 279.86875 
z
" style="stroke: #ffffff; stroke-width: 3"/>
    <path d="M 170.709844 279.86875 
L 176.203594 279.86875 
L 176.203594 280.928125 
L 173.361406 287.159375 
L 171.530156 287.159375 
L 174.220781 281.251563 
L 170.709844 281.251563 
L 170.709844 279.86875 
z
"/>
   </g>
   <g id="text_9">
    <path d="M 264.410156 279.86875 
L 266.508594 279.86875 
L 269.160156 284.86875 
L 269.160156 279.86875 
L 270.942969 279.86875 
L 270.942969 287.159375 
L 268.842969 287.159375 
L 266.191406 282.159375 
L 266.191406 287.159375 
L 264.410156 287.159375 
L 264.410156 279.86875 
z
M 275.302734 282.809375 
Q 274.721484 282.809375 274.416797 283.226562 
Q 274.112109 283.64375 274.112109 284.429688 
Q 274.112109 285.215625 274.416797 285.634375 
Q 274.721484 286.051562 275.302734 286.051562 
Q 275.874609 286.051562 276.176172 285.634375 
Q 276.479297 285.215625 276.479297 284.429688 
Q 276.479297 283.64375 276.176172 283.226562 
Q 275.874609 282.809375 275.302734 282.809375 
z
M 275.302734 281.559375 
Q 276.713672 281.559375 277.507422 282.321875 
Q 278.301172 283.082812 278.301172 284.429688 
Q 278.301172 285.778125 277.507422 286.540625 
Q 276.713672 287.301562 275.302734 287.301562 
Q 273.887109 287.301562 273.088672 286.540625 
Q 272.290234 285.778125 272.290234 284.429688 
Q 272.290234 283.082812 273.088672 282.321875 
Q 273.887109 281.559375 275.302734 281.559375 
z
M 281.529102 281.290625 
L 281.529102 285.739062 
L 282.202539 285.739062 
Q 283.354102 285.739062 283.961914 285.167188 
Q 284.571289 284.595313 284.571289 283.50625 
Q 284.571289 282.423438 283.965039 281.857813 
Q 283.360352 281.290625 282.202539 281.290625 
L 281.529102 281.290625 
z
M 279.649414 279.86875 
L 281.630664 279.86875 
Q 283.291602 279.86875 284.104102 280.10625 
Q 284.916602 280.342188 285.497852 280.909375 
Q 286.010352 281.403125 286.258789 282.048438 
Q 286.508789 282.692187 286.508789 283.50625 
Q 286.508789 284.332812 286.258789 284.979688 
Q 286.010352 285.626563 285.497852 286.11875 
Q 284.911914 286.685938 284.091602 286.923438 
Q 283.271289 287.159375 281.630664 287.159375 
L 279.649414 287.159375 
L 279.649414 279.86875 
z
M 290.32207 284.698438 
Q 289.775195 284.698438 289.498633 284.884375 
Q 289.223633 285.06875 289.223633 285.43125 
Q 289.223633 285.7625 289.445508 285.951563 
Q 289.668945 286.139063 290.064258 286.139063 
Q 290.556445 286.139063 290.893945 285.785937 
Q 291.231445 285.43125 291.231445 284.898438 
L 291.231445 284.698438 
L 290.32207 284.698438 
z
M 292.993945 284.039062 
L 292.993945 287.159375 
L 291.231445 287.159375 
L 291.231445 286.348437 
Q 290.879883 286.846875 290.439258 287.075 
Q 290.000195 287.301562 289.370508 287.301562 
Q 288.520508 287.301562 287.99082 286.80625 
Q 287.461133 286.309375 287.461133 285.51875 
Q 287.461133 284.55625 288.12207 284.107813 
Q 288.78457 283.657813 290.200195 283.657813 
L 291.231445 283.657813 
L 291.231445 283.521875 
Q 291.231445 283.10625 290.90332 282.914062 
Q 290.576758 282.720313 289.883008 282.720313 
Q 289.32207 282.720313 288.837695 282.832812 
Q 288.354883 282.945312 287.939258 283.170313 
L 287.939258 281.8375 
Q 288.501758 281.7 289.067383 281.629687 
Q 289.63457 281.559375 290.200195 281.559375 
Q 291.679883 281.559375 292.336133 282.142188 
Q 292.993945 282.725 292.993945 284.039062 
z
M 296.52793 280.1375 
L 296.52793 281.690625 
L 298.331055 281.690625 
L 298.331055 282.940625 
L 296.52793 282.940625 
L 296.52793 285.259375 
Q 296.52793 285.640625 296.679492 285.775 
Q 296.831055 285.909375 297.281055 285.909375 
L 298.179492 285.909375 
L 298.179492 287.159375 
L 296.679492 287.159375 
Q 295.645117 287.159375 295.212305 286.728125 
Q 294.781055 286.295313 294.781055 285.259375 
L 294.781055 282.940625 
L 293.910742 282.940625 
L 293.910742 281.690625 
L 294.781055 281.690625 
L 294.781055 280.1375 
L 296.52793 280.1375 
z
M 301.850391 284.698438 
Q 301.303516 284.698438 301.026953 284.884375 
Q 300.751953 285.06875 300.751953 285.43125 
Q 300.751953 285.7625 300.973828 285.951563 
Q 301.197266 286.139063 301.592578 286.139063 
Q 302.084766 286.139063 302.422266 285.785937 
Q 302.759766 285.43125 302.759766 284.898438 
L 302.759766 284.698438 
L 301.850391 284.698438 
z
M 304.522266 284.039062 
L 304.522266 287.159375 
L 302.759766 287.159375 
L 302.759766 286.348437 
Q 302.408203 286.846875 301.967578 287.075 
Q 301.528516 287.301562 300.898828 287.301562 
Q 300.048828 287.301562 299.519141 286.80625 
Q 298.989453 286.309375 298.989453 285.51875 
Q 298.989453 284.55625 299.650391 284.107813 
Q 300.312891 283.657813 301.728516 283.657813 
L 302.759766 283.657813 
L 302.759766 283.521875 
Q 302.759766 283.10625 302.431641 282.914062 
Q 302.105078 282.720313 301.411328 282.720313 
Q 300.850391 282.720313 300.366016 282.832812 
Q 299.883203 282.945312 299.467578 283.170313 
L 299.467578 281.8375 
Q 300.030078 281.7 300.595703 281.629687 
Q 301.162891 281.559375 301.728516 281.559375 
Q 303.208203 281.559375 303.864453 282.142188 
Q 304.522266 282.725 304.522266 284.039062 
z
" style="stroke: #ffffff; stroke-width: 3"/>
    <path d="M 264.410156 279.86875 
L 266.508594 279.86875 
L 269.160156 284.86875 
L 269.160156 279.86875 
L 270.942969 279.86875 
L 270.942969 287.159375 
L 268.842969 287.159375 
L 266.191406 282.159375 
L 266.191406 287.159375 
L 264.410156 287.159375 
L 264.410156 279.86875 
z
M 275.302734 282.809375 
Q 274.721484 282.809375 274.416797 283.226562 
Q 274.112109 283.64375 274.112109 284.429688 
Q 274.112109 285.215625 274.416797 285.634375 
Q 274.721484 286.051562 275.302734 286.051562 
Q 275.874609 286.051562 276.176172 285.634375 
Q 276.479297 285.215625 276.479297 284.429688 
Q 276.479297 283.64375 276.176172 283.226562 
Q 275.874609 282.809375 275.302734 282.809375 
z
M 275.302734 281.559375 
Q 276.713672 281.559375 277.507422 282.321875 
Q 278.301172 283.082812 278.301172 284.429688 
Q 278.301172 285.778125 277.507422 286.540625 
Q 276.713672 287.301562 275.302734 287.301562 
Q 273.887109 287.301562 273.088672 286.540625 
Q 272.290234 285.778125 272.290234 284.429688 
Q 272.290234 283.082812 273.088672 282.321875 
Q 273.887109 281.559375 275.302734 281.559375 
z
M 281.529102 281.290625 
L 281.529102 285.739062 
L 282.202539 285.739062 
Q 283.354102 285.739062 283.961914 285.167188 
Q 284.571289 284.595313 284.571289 283.50625 
Q 284.571289 282.423438 283.965039 281.857813 
Q 283.360352 281.290625 282.202539 281.290625 
L 281.529102 281.290625 
z
M 279.649414 279.86875 
L 281.630664 279.86875 
Q 283.291602 279.86875 284.104102 280.10625 
Q 284.916602 280.342188 285.497852 280.909375 
Q 286.010352 281.403125 286.258789 282.048438 
Q 286.508789 282.692187 286.508789 283.50625 
Q 286.508789 284.332812 286.258789 284.979688 
Q 286.010352 285.626563 285.497852 286.11875 
Q 284.911914 286.685938 284.091602 286.923438 
Q 283.271289 287.159375 281.630664 287.159375 
L 279.649414 287.159375 
L 279.649414 279.86875 
z
M 290.32207 284.698438 
Q 289.775195 284.698438 289.498633 284.884375 
Q 289.223633 285.06875 289.223633 285.43125 
Q 289.223633 285.7625 289.445508 285.951563 
Q 289.668945 286.139063 290.064258 286.139063 
Q 290.556445 286.139063 290.893945 285.785937 
Q 291.231445 285.43125 291.231445 284.898438 
L 291.231445 284.698438 
L 290.32207 284.698438 
z
M 292.993945 284.039062 
L 292.993945 287.159375 
L 291.231445 287.159375 
L 291.231445 286.348437 
Q 290.879883 286.846875 290.439258 287.075 
Q 290.000195 287.301562 289.370508 287.301562 
Q 288.520508 287.301562 287.99082 286.80625 
Q 287.461133 286.309375 287.461133 285.51875 
Q 287.461133 284.55625 288.12207 284.107813 
Q 288.78457 283.657813 290.200195 283.657813 
L 291.231445 283.657813 
L 291.231445 283.521875 
Q 291.231445 283.10625 290.90332 282.914062 
Q 290.576758 282.720313 289.883008 282.720313 
Q 289.32207 282.720313 288.837695 282.832812 
Q 288.354883 282.945312 287.939258 283.170313 
L 287.939258 281.8375 
Q 288.501758 281.7 289.067383 281.629687 
Q 289.63457 281.559375 290.200195 281.559375 
Q 291.679883 281.559375 292.336133 282.142188 
Q 292.993945 282.725 292.993945 284.039062 
z
M 296.52793 280.1375 
L 296.52793 281.690625 
L 298.331055 281.690625 
L 298.331055 282.940625 
L 296.52793 282.940625 
L 296.52793 285.259375 
Q 296.52793 285.640625 296.679492 285.775 
Q 296.831055 285.909375 297.281055 285.909375 
L 298.179492 285.909375 
L 298.179492 287.159375 
L 296.679492 287.159375 
Q 295.645117 287.159375 295.212305 286.728125 
Q 294.781055 286.295313 294.781055 285.259375 
L 294.781055 282.940625 
L 293.910742 282.940625 
L 293.910742 281.690625 
L 294.781055 281.690625 
L 294.781055 280.1375 
L 296.52793 280.1375 
z
M 301.850391 284.698438 
Q 301.303516 284.698438 301.026953 284.884375 
Q 300.751953 285.06875 300.751953 285.43125 
Q 300.751953 285.7625 300.973828 285.951563 
Q 301.197266 286.139063 301.592578 286.139063 
Q 302.084766 286.139063 302.422266 285.785937 
Q 302.759766 285.43125 302.759766 284.898438 
L 302.759766 284.698438 
L 301.850391 284.698438 
z
M 304.522266 284.039062 
L 304.522266 287.159375 
L 302.759766 287.159375 
L 302.759766 286.348437 
Q 302.408203 286.846875 301.967578 287.075 
Q 301.528516 287.301562 300.898828 287.301562 
Q 300.048828 287.301562 299.519141 286.80625 
Q 298.989453 286.309375 298.989453 285.51875 
Q 298.989453 284.55625 299.650391 284.107813 
Q 300.312891 283.657813 301.728516 283.657813 
L 302.759766 283.657813 
L 302.759766 283.521875 
Q 302.759766 283.10625 302.431641 282.914062 
Q 302.105078 282.720313 301.411328 282.720313 
Q 300.850391 282.720313 300.366016 282.832812 
Q 299.883203 282.945312 299.467578 283.170313 
L 299.467578 281.8375 
Q 300.030078 281.7 300.595703 281.629687 
Q 301.162891 281.559375 301.728516 281.559375 
Q 303.208203 281.559375 303.864453 282.142188 
Q 304.522266 282.725 304.522266 284.039062 
z
"/>
   </g>
  </g>
  <g id="axes_2">
   <g id="patch_7">
    <path d="M 463.745455 339.84 
L 796.385455 339.84 
L 796.385455 7.2 
L 463.745455 7.2 
L 463.745455 339.84 
z
" style="fill: none"/>
   </g>
   <g id="PolyQuadMesh_2">
    <path d="M 463.745455 7.2 
L 463.745455 118.08 
L 574.625455 118.08 
L 574.625455 7.2 
L 463.745455 7.2 
z
" clip-path="url(#pd22f47ff02)" style="fill: #440154"/>
    <path d="M 574.625455 7.2 
L 574.625455 118.08 
L 685.505455 118.08 
L 685.505455 7.2 
L 574.625455 7.2 
z
" clip-path="url(#pd22f47ff02)" style="fill: #443983"/>
    <path d="M 685.505455 7.2 
L 685.505455 118.08 
L 796.385455 118.08 
L 796.385455 7.2 
L 685.505455 7.2 
z
" clip-path="url(#pd22f47ff02)" style="fill: #31688e"/>
    <path d="M 463.745455 118.08 
L 463.745455 228.96 
L 574.625455 228.96 
L 574.625455 118.08 
L 463.745455 118.08 
z
" clip-path="url(#pd22f47ff02)" style="fill: #21918c"/>
    <path d="M 574.625455 118.08 
L 574.625455 228.96 
L 685.505455 228.96 
L 685.505455 118.08 
L 574.625455 118.08 
z
" clip-path="url(#pd22f47ff02)" style="fill: #26828e"/>
    <path d="M 685.505455 118.08 
L 685.505455 228.96 
L 796.385455 228.96 
L 796.385455 118.08 
L 685.505455 118.08 
z
" clip-path="url(#pd22f47ff02)" style="fill: #2b758e"/>
    <path d="M 463.745455 228.96 
L 463.745455 339.84 
L 574.625455 339.84 
L 574.625455 228.96 
L 463.745455 228.96 
z
" clip-path="url(#pd22f47ff02)" style="fill: #fde725"/>
    <path d="M 574.625455 228.96 
L 574.625455 339.84 
L 685.505455 339.84 
L 685.505455 228.96 
L 574.625455 228.96 
z
" clip-path="url(#pd22f47ff02)" style="fill: #4ec36b"/>
   </g>
   <g id="matplotlib.axis_3"/>
   <g id="matplotlib.axis_4"/>
   <g id="patch_8">
    <path d="M 463.745455 339.84 
L 463.745455 7.2 
" style="fill: none; stroke: #000000; stroke-width: 0.8; stroke-linejoin: miter; stroke-linecap: square"/>
   </g>
   <g id="patch_9">
    <path d="M 796.385455 339.84 
L 796.385455 7.2 
" style="fill: none; stroke: #000000; stroke-width: 0.8; stroke-linejoin: miter; stroke-linecap: square"/>
   </g>
   <g id="patch_10">
    <path d="M 463.745455 339.84 
L 796.385455 339.84 
" style="fill: none; stroke: #000000; stroke-width: 0.8; stroke-linejoin: miter; stroke-linecap: square"/>
   </g>
   <g id="patch_11">
    <path d="M 463.745455 7.2 
L 796.385455 7.2 
" style="fill: none; stroke: #000000; stroke-width: 0.8; stroke-linejoin: miter; stroke-linecap: square"/>
   </g>
   <g id="text_10">
    <path d="M 508.021392 64.100937 
L 509.68233 64.100937 
L 509.68233 59.388437 
L 507.977642 59.74 
L 507.977642 58.460312 
L 509.671392 58.10875 
L 511.458892 58.10875 
L 511.458892 64.100937 
L 513.11983 64.100937 
L 513.11983 65.399375 
L 508.021392 65.399375 
L 508.021392 64.100937 
z
M 516.688775 64.018125 
L 519.896587 64.018125 
L 519.896587 65.399375 
L 514.59815 65.399375 
L 514.59815 64.018125 
L 517.259087 61.668125 
Q 517.6169 61.34625 517.787212 61.038437 
Q 517.957525 60.730625 517.957525 60.399375 
Q 517.957525 59.886875 517.613775 59.574375 
Q 517.270025 59.261875 516.69815 59.261875 
Q 516.259087 59.261875 515.73565 59.449375 
Q 515.213775 59.636875 514.618462 60.00875 
L 514.618462 58.407187 
Q 515.252837 58.197812 515.87315 58.088437 
Q 516.493462 57.9775 517.088775 57.9775 
Q 518.39815 57.9775 519.12315 58.554062 
Q 519.84815 59.129062 519.84815 60.160312 
Q 519.84815 60.755625 519.540337 61.27125 
Q 519.232525 61.785312 518.246587 62.650937 
L 516.688775 64.018125 
z
M 521.785845 63.510312 
L 523.543658 63.510312 
L 523.543658 65.399375 
L 521.785845 65.399375 
L 521.785845 63.510312 
z
M 529.164361 61.74625 
Q 529.164361 60.379062 528.908111 59.82125 
Q 528.651861 59.261875 528.045611 59.261875 
Q 527.440923 59.261875 527.181548 59.82125 
Q 526.922173 60.379062 526.922173 61.74625 
Q 526.922173 63.129062 527.181548 63.69625 
Q 527.440923 64.261875 528.045611 64.261875 
Q 528.647173 64.261875 528.904986 63.69625 
Q 529.164361 63.129062 529.164361 61.74625 
z
M 531.044048 61.761875 
Q 531.044048 63.572812 530.262798 64.557187 
Q 529.481548 65.541562 528.045611 65.541562 
Q 526.604986 65.541562 525.823736 64.557187 
Q 525.042486 63.572812 525.042486 61.761875 
Q 525.042486 59.944687 525.823736 58.961875 
Q 526.604986 57.9775 528.045611 57.9775 
Q 529.481548 57.9775 530.262798 58.961875 
Q 531.044048 59.944687 531.044048 61.761875 
z
" style="stroke: #ffffff; stroke-width: 3"/>
    <path d="M 508.021392 64.100937 
L 509.68233 64.100937 
L 509.68233 59.388437 
L 507.977642 59.74 
L 507.977642 58.460312 
L 509.671392 58.10875 
L 511.458892 58.10875 
L 511.458892 64.100937 
L 513.11983 64.100937 
L 513.11983 65.399375 
L 508.021392 65.399375 
L 508.021392 64.100937 
z
M 516.688775 64.018125 
L 519.896587 64.018125 
L 519.896587 65.399375 
L 514.59815 65.399375 
L 514.59815 64.018125 
L 517.259087 61.668125 
Q 517.6169 61.34625 517.787212 61.038437 
Q 517.957525 60.730625 517.957525 60.399375 
Q 517.957525 59.886875 517.613775 59.574375 
Q 517.270025 59.261875 516.69815 59.261875 
Q 516.259087 59.261875 515.73565 59.449375 
Q 515.213775 59.636875 514.618462 60.00875 
L 514.618462 58.407187 
Q 515.252837 58.197812 515.87315 58.088437 
Q 516.493462 57.9775 517.088775 57.9775 
Q 518.39815 57.9775 519.12315 58.554062 
Q 519.84815 59.129062 519.84815 60.160312 
Q 519.84815 60.755625 519.540337 61.27125 
Q 519.232525 61.785312 518.246587 62.650937 
L 516.688775 64.018125 
z
M 521.785845 63.510312 
L 523.543658 63.510312 
L 523.543658 65.399375 
L 521.785845 65.399375 
L 521.785845 63.510312 
z
M 529.164361 61.74625 
Q 529.164361 60.379062 528.908111 59.82125 
Q 528.651861 59.261875 528.045611 59.261875 
Q 527.440923 59.261875 527.181548 59.82125 
Q 526.922173 60.379062 526.922173 61.74625 
Q 526.922173 63.129062 527.181548 63.69625 
Q 527.440923 64.261875 528.045611 64.261875 
Q 528.647173 64.261875 528.904986 63.69625 
Q 529.164361 63.129062 529.164361 61.74625 
z
M 531.044048 61.761875 
Q 531.044048 63.572812 530.262798 64.557187 
Q 529.481548 65.541562 528.045611 65.541562 
Q 526.604986 65.541562 525.823736 64.557187 
Q 525.042486 63.572812 525.042486 61.761875 
Q 525.042486 59.944687 525.823736 58.961875 
Q 526.604986 57.9775 528.045611 57.9775 
Q 529.481548 57.9775 530.262798 58.961875 
Q 531.044048 59.944687 531.044048 61.761875 
z
"/>
   </g>
   <g id="text_11">
    <path d="M 618.901392 64.100937 
L 620.56233 64.100937 
L 620.56233 59.388437 
L 618.857642 59.74 
L 618.857642 58.460312 
L 620.551392 58.10875 
L 622.338892 58.10875 
L 622.338892 64.100937 
L 623.99983 64.100937 
L 623.99983 65.399375 
L 618.901392 65.399375 
L 618.901392 64.100937 
z
M 628.168775 62.136875 
Q 627.642212 62.136875 627.357837 62.425937 
Q 627.075025 62.713437 627.075025 63.250937 
Q 627.075025 63.788437 627.357837 64.074375 
Q 627.642212 64.35875 628.168775 64.35875 
Q 628.692212 64.35875 628.970337 64.074375 
Q 629.248462 63.788437 629.248462 63.250937 
Q 629.248462 62.70875 628.970337 62.422812 
Q 628.692212 62.136875 628.168775 62.136875 
z
M 626.7969 61.518125 
Q 626.132837 61.316562 625.795337 60.9025 
Q 625.4594 60.486875 625.4594 59.866562 
Q 625.4594 58.944687 626.1469 58.461875 
Q 626.835962 57.9775 628.168775 57.9775 
Q 629.492212 57.9775 630.179712 58.45875 
Q 630.868775 58.94 630.868775 59.866562 
Q 630.868775 60.486875 630.529712 60.9025 
Q 630.19065 61.316562 629.526587 61.518125 
Q 630.268775 61.722812 630.6469 62.18375 
Q 631.025025 62.644687 631.025025 63.347812 
Q 631.025025 64.432187 630.304712 64.986875 
Q 629.5844 65.541562 628.168775 65.541562 
Q 626.748462 65.541562 626.023462 64.986875 
Q 625.298462 64.432187 625.298462 63.347812 
Q 625.298462 62.644687 625.676587 62.18375 
Q 626.054712 61.722812 626.7969 61.518125 
z
M 627.235962 60.057187 
Q 627.235962 60.491562 627.47815 60.725937 
Q 627.720337 60.960312 628.168775 60.960312 
Q 628.607837 60.960312 628.8469 60.725937 
Q 629.087525 60.491562 629.087525 60.057187 
Q 629.087525 59.622812 628.8469 59.391562 
Q 628.607837 59.15875 628.168775 59.15875 
Q 627.720337 59.15875 627.47815 59.393125 
Q 627.235962 59.6275 627.235962 60.057187 
z
M 632.665845 63.510312 
L 634.423658 63.510312 
L 634.423658 65.399375 
L 632.665845 65.399375 
L 632.665845 63.510312 
z
M 640.044361 61.74625 
Q 640.044361 60.379062 639.788111 59.82125 
Q 639.531861 59.261875 638.925611 59.261875 
Q 638.320923 59.261875 638.061548 59.82125 
Q 637.802173 60.379062 637.802173 61.74625 
Q 637.802173 63.129062 638.061548 63.69625 
Q 638.320923 64.261875 638.925611 64.261875 
Q 639.527173 64.261875 639.784986 63.69625 
Q 640.044361 63.129062 640.044361 61.74625 
z
M 641.924048 61.761875 
Q 641.924048 63.572812 641.142798 64.557187 
Q 640.361548 65.541562 638.925611 65.541562 
Q 637.484986 65.541562 636.703736 64.557187 
Q 635.922486 63.572812 635.922486 61.761875 
Q 635.922486 59.944687 636.703736 58.961875 
Q 637.484986 57.9775 638.925611 57.9775 
Q 640.361548 57.9775 641.142798 58.961875 
Q 641.924048 59.944687 641.924048 61.761875 
z
" style="stroke: #ffffff; stroke-width: 3"/>
    <path d="M 618.901392 64.100937 
L 620.56233 64.100937 
L 620.56233 59.388437 
L 618.857642 59.74 
L 618.857642 58.460312 
L 620.551392 58.10875 
L 622.338892 58.10875 
L 622.338892 64.100937 
L 623.99983 64.100937 
L 623.99983 65.399375 
L 618.901392 65.399375 
L 618.901392 64.100937 
z
M 628.168775 62.136875 
Q 627.642212 62.136875 627.357837 62.425937 
Q 627.075025 62.713437 627.075025 63.250937 
Q 627.075025 63.788437 627.357837 64.074375 
Q 627.642212 64.35875 628.168775 64.35875 
Q 628.692212 64.35875 628.970337 64.074375 
Q 629.248462 63.788437 629.248462 63.250937 
Q 629.248462 62.70875 628.970337 62.422812 
Q 628.692212 62.136875 628.168775 62.136875 
z
M 626.7969 61.518125 
Q 626.132837 61.316562 625.795337 60.9025 
Q 625.4594 60.486875 625.4594 59.866562 
Q 625.4594 58.944687 626.1469 58.461875 
Q 626.835962 57.9775 628.168775 57.9775 
Q 629.492212 57.9775 630.179712 58.45875 
Q 630.868775 58.94 630.868775 59.866562 
Q 630.868775 60.486875 630.529712 60.9025 
Q 630.19065 61.316562 629.526587 61.518125 
Q 630.268775 61.722812 630.6469 62.18375 
Q 631.025025 62.644687 631.025025 63.347812 
Q 631.025025 64.432187 630.304712 64.986875 
Q 629.5844 65.541562 628.168775 65.541562 
Q 626.748462 65.541562 626.023462 64.986875 
Q 625.298462 64.432187 625.298462 63.347812 
Q 625.298462 62.644687 625.676587 62.18375 
Q 626.054712 61.722812 626.7969 61.518125 
z
M 627.235962 60.057187 
Q 627.235962 60.491562 627.47815 60.725937 
Q 627.720337 60.960312 628.168775 60.960312 
Q 628.607837 60.960312 628.8469 60.725937 
Q 629.087525 60.491562 629.087525 60.057187 
Q 629.087525 59.622812 628.8469 59.391562 
Q 628.607837 59.15875 628.168775 59.15875 
Q 627.720337 59.15875 627.47815 59.393125 
Q 627.235962 59.6275 627.235962 60.057187 
z
M 632.665845 63.510312 
L 634.423658 63.510312 
L 634.423658 65.399375 
L 632.665845 65.399375 
L 632.665845 63.510312 
z
M 640.044361 61.74625 
Q 640.044361 60.379062 639.788111 59.82125 
Q 639.531861 59.261875 638.925611 59.261875 
Q 638.320923 59.261875 638.061548 59.82125 
Q 637.802173 60.379062 637.802173 61.74625 
Q 637.802173 63.129062 638.061548 63.69625 
Q 638.320923 64.261875 638.925611 64.261875 
Q 639.527173 64.261875 639.784986 63.69625 
Q 640.044361 63.129062 640.044361 61.74625 
z
M 641.924048 61.761875 
Q 641.924048 63.572812 641.142798 64.557187 
Q 640.361548 65.541562 638.925611 65.541562 
Q 637.484986 65.541562 636.703736 64.557187 
Q 635.922486 63.572812 635.922486 61.761875 
Q 635.922486 59.944687 636.703736 58.961875 
Q 637.484986 57.9775 638.925611 57.9775 
Q 640.361548 57.9775 641.142798 58.961875 
Q 641.924048 59.944687 641.924048 61.761875 
z
"/>
   </g>
   <g id="text_12">
    <path d="M 731.490767 64.018125 
L 734.69858 64.018125 
L 734.69858 65.399375 
L 729.400142 65.399375 
L 729.400142 64.018125 
L 732.06108 61.668125 
Q 732.418892 61.34625 732.589205 61.038437 
Q 732.759517 60.730625 732.759517 60.399375 
Q 732.759517 59.886875 732.415767 59.574375 
Q 732.072017 59.261875 731.500142 59.261875 
Q 731.06108 59.261875 730.537642 59.449375 
Q 730.015767 59.636875 729.420455 60.00875 
L 729.420455 58.407187 
Q 730.05483 58.197812 730.675142 58.088437 
Q 731.295455 57.9775 731.890767 57.9775 
Q 733.200142 57.9775 733.925142 58.554062 
Q 734.650142 59.129062 734.650142 60.160312 
Q 734.650142 60.755625 734.34233 61.27125 
Q 734.034517 61.785312 733.04858 62.650937 
L 731.490767 64.018125 
z
M 739.248775 59.657187 
L 737.1894 62.70875 
L 739.248775 62.70875 
L 739.248775 59.657187 
z
M 738.936275 58.10875 
L 741.0269 58.10875 
L 741.0269 62.70875 
L 742.065962 62.70875 
L 742.065962 64.07125 
L 741.0269 64.07125 
L 741.0269 65.399375 
L 739.248775 65.399375 
L 739.248775 64.07125 
L 736.017525 64.07125 
L 736.017525 62.460312 
L 738.936275 58.10875 
z
M 743.545845 63.510312 
L 745.303658 63.510312 
L 745.303658 65.399375 
L 743.545845 65.399375 
L 743.545845 63.510312 
z
M 750.924361 61.74625 
Q 750.924361 60.379062 750.668111 59.82125 
Q 750.411861 59.261875 749.805611 59.261875 
Q 749.200923 59.261875 748.941548 59.82125 
Q 748.682173 60.379062 748.682173 61.74625 
Q 748.682173 63.129062 748.941548 63.69625 
Q 749.200923 64.261875 749.805611 64.261875 
Q 750.407173 64.261875 750.664986 63.69625 
Q 750.924361 63.129062 750.924361 61.74625 
z
M 752.804048 61.761875 
Q 752.804048 63.572812 752.022798 64.557187 
Q 751.241548 65.541562 749.805611 65.541562 
Q 748.364986 65.541562 747.583736 64.557187 
Q 746.802486 63.572812 746.802486 61.761875 
Q 746.802486 59.944687 747.583736 58.961875 
Q 748.364986 57.9775 749.805611 57.9775 
Q 751.241548 57.9775 752.022798 58.961875 
Q 752.804048 59.944687 752.804048 61.761875 
z
" style="stroke: #ffffff; stroke-width: 3"/>
    <path d="M 731.490767 64.018125 
L 734.69858 64.018125 
L 734.69858 65.399375 
L 729.400142 65.399375 
L 729.400142 64.018125 
L 732.06108 61.668125 
Q 732.418892 61.34625 732.589205 61.038437 
Q 732.759517 60.730625 732.759517 60.399375 
Q 732.759517 59.886875 732.415767 59.574375 
Q 732.072017 59.261875 731.500142 59.261875 
Q 731.06108 59.261875 730.537642 59.449375 
Q 730.015767 59.636875 729.420455 60.00875 
L 729.420455 58.407187 
Q 730.05483 58.197812 730.675142 58.088437 
Q 731.295455 57.9775 731.890767 57.9775 
Q 733.200142 57.9775 733.925142 58.554062 
Q 734.650142 59.129062 734.650142 60.160312 
Q 734.650142 60.755625 734.34233 61.27125 
Q 734.034517 61.785312 733.04858 62.650937 
L 731.490767 64.018125 
z
M 739.248775 59.657187 
L 737.1894 62.70875 
L 739.248775 62.70875 
L 739.248775 59.657187 
z
M 738.936275 58.10875 
L 741.0269 58.10875 
L 741.0269 62.70875 
L 742.065962 62.70875 
L 742.065962 64.07125 
L 741.0269 64.07125 
L 741.0269 65.399375 
L 739.248775 65.399375 
L 739.248775 64.07125 
L 736.017525 64.07125 
L 736.017525 62.460312 
L 738.936275 58.10875 
z
M 743.545845 63.510312 
L 745.303658 63.510312 
L 745.303658 65.399375 
L 743.545845 65.399375 
L 743.545845 63.510312 
z
M 750.924361 61.74625 
Q 750.924361 60.379062 750.668111 59.82125 
Q 750.411861 59.261875 749.805611 59.261875 
Q 749.200923 59.261875 748.941548 59.82125 
Q 748.682173 60.379062 748.682173 61.74625 
Q 748.682173 63.129062 748.941548 63.69625 
Q 749.200923 64.261875 749.805611 64.261875 
Q 750.407173 64.261875 750.664986 63.69625 
Q 750.924361 63.129062 750.924361 61.74625 
z
M 752.804048 61.761875 
Q 752.804048 63.572812 752.022798 64.557187 
Q 751.241548 65.541562 749.805611 65.541562 
Q 748.364986 65.541562 747.583736 64.557187 
Q 746.802486 63.572812 746.802486 61.761875 
Q 746.802486 59.944687 747.583736 58.961875 
Q 748.364986 57.9775 749.805611 57.9775 
Q 751.241548 57.9775 752.022798 58.961875 
Q 752.804048 59.944687 752.804048 61.761875 
z
"/>
   </g>
   <g id="text_13">
    <path d="M 511.50733 172.348125 
Q 512.24483 172.53875 512.627642 173.010625 
Q 513.012017 173.480938 513.012017 174.209063 
Q 513.012017 175.293438 512.180767 175.8575 
Q 511.35108 176.421563 509.760455 176.421563 
Q 509.197955 176.421563 508.633892 176.330938 
Q 508.06983 176.240313 507.518267 176.059063 
L 507.518267 174.609063 
Q 508.046392 174.873125 508.565142 175.0075 
Q 509.085455 175.141875 509.58858 175.141875 
Q 510.335455 175.141875 510.733892 174.884063 
Q 511.13233 174.624688 511.13233 174.140313 
Q 511.13233 173.641875 510.724517 173.385625 
Q 510.316705 173.129375 509.51983 173.129375 
L 508.768267 173.129375 
L 508.768267 171.918438 
L 509.558892 171.918438 
Q 510.268267 171.918438 510.61358 171.696563 
Q 510.960455 171.474688 510.960455 171.02 
Q 510.960455 170.60125 510.622955 170.371563 
Q 510.287017 170.141875 509.671392 170.141875 
Q 509.218267 170.141875 508.754205 170.245 
Q 508.290142 170.346563 507.830767 170.546563 
L 507.830767 169.17 
Q 508.387017 169.01375 508.933892 168.935625 
Q 509.480767 168.8575 510.008892 168.8575 
Q 511.429205 168.8575 512.133892 169.324688 
Q 512.840142 169.790313 512.840142 170.727813 
Q 512.840142 171.366875 512.502642 171.774688 
Q 512.166705 172.1825 511.50733 172.348125 
z
M 518.407525 172.62625 
Q 518.407525 171.259063 518.151275 170.70125 
Q 517.895025 170.141875 517.288775 170.141875 
Q 516.684087 170.141875 516.424712 170.70125 
Q 516.165337 171.259063 516.165337 172.62625 
Q 516.165337 174.009063 516.424712 174.57625 
Q 516.684087 175.141875 517.288775 175.141875 
Q 517.890337 175.141875 518.14815 174.57625 
Q 518.407525 174.009063 518.407525 172.62625 
z
M 520.287212 172.641875 
Q 520.287212 174.452813 519.505962 175.437188 
Q 518.724712 176.421563 517.288775 176.421563 
Q 515.84815 176.421563 515.0669 175.437188 
Q 514.28565 174.452813 514.28565 172.641875 
Q 514.28565 170.824688 515.0669 169.841875 
Q 515.84815 168.8575 517.288775 168.8575 
Q 518.724712 168.8575 519.505962 169.841875 
Q 520.287212 170.824688 520.287212 172.641875 
z
M 521.785845 174.390313 
L 523.543658 174.390313 
L 523.543658 176.279375 
L 521.785845 176.279375 
L 521.785845 174.390313 
z
M 529.164361 172.62625 
Q 529.164361 171.259063 528.908111 170.70125 
Q 528.651861 170.141875 528.045611 170.141875 
Q 527.440923 170.141875 527.181548 170.70125 
Q 526.922173 171.259063 526.922173 172.62625 
Q 526.922173 174.009063 527.181548 174.57625 
Q 527.440923 175.141875 528.045611 175.141875 
Q 528.647173 175.141875 528.904986 174.57625 
Q 529.164361 174.009063 529.164361 172.62625 
z
M 531.044048 172.641875 
Q 531.044048 174.452813 530.262798 175.437188 
Q 529.481548 176.421563 528.045611 176.421563 
Q 526.604986 176.421563 525.823736 175.437188 
Q 525.042486 174.452813 525.042486 172.641875 
Q 525.042486 170.824688 525.823736 169.841875 
Q 526.604986 168.8575 528.045611 168.8575 
Q 529.481548 168.8575 530.262798 169.841875 
Q 531.044048 170.824688 531.044048 172.641875 
z
" style="stroke: #ffffff; stroke-width: 3"/>
    <path d="M 511.50733 172.348125 
Q 512.24483 172.53875 512.627642 173.010625 
Q 513.012017 173.480938 513.012017 174.209063 
Q 513.012017 175.293438 512.180767 175.8575 
Q 511.35108 176.421563 509.760455 176.421563 
Q 509.197955 176.421563 508.633892 176.330938 
Q 508.06983 176.240313 507.518267 176.059063 
L 507.518267 174.609063 
Q 508.046392 174.873125 508.565142 175.0075 
Q 509.085455 175.141875 509.58858 175.141875 
Q 510.335455 175.141875 510.733892 174.884063 
Q 511.13233 174.624688 511.13233 174.140313 
Q 511.13233 173.641875 510.724517 173.385625 
Q 510.316705 173.129375 509.51983 173.129375 
L 508.768267 173.129375 
L 508.768267 171.918438 
L 509.558892 171.918438 
Q 510.268267 171.918438 510.61358 171.696563 
Q 510.960455 171.474688 510.960455 171.02 
Q 510.960455 170.60125 510.622955 170.371563 
Q 510.287017 170.141875 509.671392 170.141875 
Q 509.218267 170.141875 508.754205 170.245 
Q 508.290142 170.346563 507.830767 170.546563 
L 507.830767 169.17 
Q 508.387017 169.01375 508.933892 168.935625 
Q 509.480767 168.8575 510.008892 168.8575 
Q 511.429205 168.8575 512.133892 169.324688 
Q 512.840142 169.790313 512.840142 170.727813 
Q 512.840142 171.366875 512.502642 171.774688 
Q 512.166705 172.1825 511.50733 172.348125 
z
M 518.407525 172.62625 
Q 518.407525 171.259063 518.151275 170.70125 
Q 517.895025 170.141875 517.288775 170.141875 
Q 516.684087 170.141875 516.424712 170.70125 
Q 516.165337 171.259063 516.165337 172.62625 
Q 516.165337 174.009063 516.424712 174.57625 
Q 516.684087 175.141875 517.288775 175.141875 
Q 517.890337 175.141875 518.14815 174.57625 
Q 518.407525 174.009063 518.407525 172.62625 
z
M 520.287212 172.641875 
Q 520.287212 174.452813 519.505962 175.437188 
Q 518.724712 176.421563 517.288775 176.421563 
Q 515.84815 176.421563 515.0669 175.437188 
Q 514.28565 174.452813 514.28565 172.641875 
Q 514.28565 170.824688 515.0669 169.841875 
Q 515.84815 168.8575 517.288775 168.8575 
Q 518.724712 168.8575 519.505962 169.841875 
Q 520.287212 170.824688 520.287212 172.641875 
z
M 521.785845 174.390313 
L 523.543658 174.390313 
L 523.543658 176.279375 
L 521.785845 176.279375 
L 521.785845 174.390313 
z
M 529.164361 172.62625 
Q 529.164361 171.259063 528.908111 170.70125 
Q 528.651861 170.141875 528.045611 170.141875 
Q 527.440923 170.141875 527.181548 170.70125 
Q 526.922173 171.259063 526.922173 172.62625 
Q 526.922173 174.009063 527.181548 174.57625 
Q 527.440923 175.141875 528.045611 175.141875 
Q 528.647173 175.141875 528.904986 174.57625 
Q 529.164361 174.009063 529.164361 172.62625 
z
M 531.044048 172.641875 
Q 531.044048 174.452813 530.262798 175.437188 
Q 529.481548 176.421563 528.045611 176.421563 
Q 526.604986 176.421563 525.823736 175.437188 
Q 525.042486 174.452813 525.042486 172.641875 
Q 525.042486 170.824688 525.823736 169.841875 
Q 526.604986 168.8575 528.045611 168.8575 
Q 529.481548 168.8575 530.262798 169.841875 
Q 531.044048 170.824688 531.044048 172.641875 
z
"/>
   </g>
   <g id="text_14">
    <path d="M 620.610767 174.898125 
L 623.81858 174.898125 
L 623.81858 176.279375 
L 618.520142 176.279375 
L 618.520142 174.898125 
L 621.18108 172.548125 
Q 621.538892 172.22625 621.709205 171.918438 
Q 621.879517 171.610625 621.879517 171.279375 
Q 621.879517 170.766875 621.535767 170.454375 
Q 621.192017 170.141875 620.620142 170.141875 
Q 620.18108 170.141875 619.657642 170.329375 
Q 619.135767 170.516875 618.540455 170.88875 
L 618.540455 169.287188 
Q 619.17483 169.077813 619.795142 168.968438 
Q 620.415455 168.8575 621.010767 168.8575 
Q 622.320142 168.8575 623.045142 169.434063 
Q 623.770142 170.009063 623.770142 171.040313 
Q 623.770142 171.635625 623.46233 172.15125 
Q 623.154517 172.665313 622.16858 173.530938 
L 620.610767 174.898125 
z
M 628.168775 173.016875 
Q 627.642212 173.016875 627.357837 173.305938 
Q 627.075025 173.593438 627.075025 174.130938 
Q 627.075025 174.668438 627.357837 174.954375 
Q 627.642212 175.23875 628.168775 175.23875 
Q 628.692212 175.23875 628.970337 174.954375 
Q 629.248462 174.668438 629.248462 174.130938 
Q 629.248462 173.58875 628.970337 173.302813 
Q 628.692212 173.016875 628.168775 173.016875 
z
M 626.7969 172.398125 
Q 626.132837 172.196563 625.795337 171.7825 
Q 625.4594 171.366875 625.4594 170.746563 
Q 625.4594 169.824688 626.1469 169.341875 
Q 626.835962 168.8575 628.168775 168.8575 
Q 629.492212 168.8575 630.179712 169.33875 
Q 630.868775 169.82 630.868775 170.746563 
Q 630.868775 171.366875 630.529712 171.7825 
Q 630.19065 172.196563 629.526587 172.398125 
Q 630.268775 172.602813 630.6469 173.06375 
Q 631.025025 173.524688 631.025025 174.227813 
Q 631.025025 175.312188 630.304712 175.866875 
Q 629.5844 176.421563 628.168775 176.421563 
Q 626.748462 176.421563 626.023462 175.866875 
Q 625.298462 175.312188 625.298462 174.227813 
Q 625.298462 173.524688 625.676587 173.06375 
Q 626.054712 172.602813 626.7969 172.398125 
z
M 627.235962 170.937188 
Q 627.235962 171.371563 627.47815 171.605938 
Q 627.720337 171.840313 628.168775 171.840313 
Q 628.607837 171.840313 628.8469 171.605938 
Q 629.087525 171.371563 629.087525 170.937188 
Q 629.087525 170.502813 628.8469 170.271563 
Q 628.607837 170.03875 628.168775 170.03875 
Q 627.720337 170.03875 627.47815 170.273125 
Q 627.235962 170.5075 627.235962 170.937188 
z
M 632.665845 174.390313 
L 634.423658 174.390313 
L 634.423658 176.279375 
L 632.665845 176.279375 
L 632.665845 174.390313 
z
M 640.044361 172.62625 
Q 640.044361 171.259063 639.788111 170.70125 
Q 639.531861 170.141875 638.925611 170.141875 
Q 638.320923 170.141875 638.061548 170.70125 
Q 637.802173 171.259063 637.802173 172.62625 
Q 637.802173 174.009063 638.061548 174.57625 
Q 638.320923 175.141875 638.925611 175.141875 
Q 639.527173 175.141875 639.784986 174.57625 
Q 640.044361 174.009063 640.044361 172.62625 
z
M 641.924048 172.641875 
Q 641.924048 174.452813 641.142798 175.437188 
Q 640.361548 176.421563 638.925611 176.421563 
Q 637.484986 176.421563 636.703736 175.437188 
Q 635.922486 174.452813 635.922486 172.641875 
Q 635.922486 170.824688 636.703736 169.841875 
Q 637.484986 168.8575 638.925611 168.8575 
Q 640.361548 168.8575 641.142798 169.841875 
Q 641.924048 170.824688 641.924048 172.641875 
z
" style="stroke: #ffffff; stroke-width: 3"/>
    <path d="M 620.610767 174.898125 
L 623.81858 174.898125 
L 623.81858 176.279375 
L 618.520142 176.279375 
L 618.520142 174.898125 
L 621.18108 172.548125 
Q 621.538892 172.22625 621.709205 171.918438 
Q 621.879517 171.610625 621.879517 171.279375 
Q 621.879517 170.766875 621.535767 170.454375 
Q 621.192017 170.141875 620.620142 170.141875 
Q 620.18108 170.141875 619.657642 170.329375 
Q 619.135767 170.516875 618.540455 170.88875 
L 618.540455 169.287188 
Q 619.17483 169.077813 619.795142 168.968438 
Q 620.415455 168.8575 621.010767 168.8575 
Q 622.320142 168.8575 623.045142 169.434063 
Q 623.770142 170.009063 623.770142 171.040313 
Q 623.770142 171.635625 623.46233 172.15125 
Q 623.154517 172.665313 622.16858 173.530938 
L 620.610767 174.898125 
z
M 628.168775 173.016875 
Q 627.642212 173.016875 627.357837 173.305938 
Q 627.075025 173.593438 627.075025 174.130938 
Q 627.075025 174.668438 627.357837 174.954375 
Q 627.642212 175.23875 628.168775 175.23875 
Q 628.692212 175.23875 628.970337 174.954375 
Q 629.248462 174.668438 629.248462 174.130938 
Q 629.248462 173.58875 628.970337 173.302813 
Q 628.692212 173.016875 628.168775 173.016875 
z
M 626.7969 172.398125 
Q 626.132837 172.196563 625.795337 171.7825 
Q 625.4594 171.366875 625.4594 170.746563 
Q 625.4594 169.824688 626.1469 169.341875 
Q 626.835962 168.8575 628.168775 168.8575 
Q 629.492212 168.8575 630.179712 169.33875 
Q 630.868775 169.82 630.868775 170.746563 
Q 630.868775 171.366875 630.529712 171.7825 
Q 630.19065 172.196563 629.526587 172.398125 
Q 630.268775 172.602813 630.6469 173.06375 
Q 631.025025 173.524688 631.025025 174.227813 
Q 631.025025 175.312188 630.304712 175.866875 
Q 629.5844 176.421563 628.168775 176.421563 
Q 626.748462 176.421563 626.023462 175.866875 
Q 625.298462 175.312188 625.298462 174.227813 
Q 625.298462 173.524688 625.676587 173.06375 
Q 626.054712 172.602813 626.7969 172.398125 
z
M 627.235962 170.937188 
Q 627.235962 171.371563 627.47815 171.605938 
Q 627.720337 171.840313 628.168775 171.840313 
Q 628.607837 171.840313 628.8469 171.605938 
Q 629.087525 171.371563 629.087525 170.937188 
Q 629.087525 170.502813 628.8469 170.271563 
Q 628.607837 170.03875 628.168775 170.03875 
Q 627.720337 170.03875 627.47815 170.273125 
Q 627.235962 170.5075 627.235962 170.937188 
z
M 632.665845 174.390313 
L 634.423658 174.390313 
L 634.423658 176.279375 
L 632.665845 176.279375 
L 632.665845 174.390313 
z
M 640.044361 172.62625 
Q 640.044361 171.259063 639.788111 170.70125 
Q 639.531861 170.141875 638.925611 170.141875 
Q 638.320923 170.141875 638.061548 170.70125 
Q 637.802173 171.259063 637.802173 172.62625 
Q 637.802173 174.009063 638.061548 174.57625 
Q 638.320923 175.141875 638.925611 175.141875 
Q 639.527173 175.141875 639.784986 174.57625 
Q 640.044361 174.009063 640.044361 172.62625 
z
M 641.924048 172.641875 
Q 641.924048 174.452813 641.142798 175.437188 
Q 640.361548 176.421563 638.925611 176.421563 
Q 637.484986 176.421563 636.703736 175.437188 
Q 635.922486 174.452813 635.922486 172.641875 
Q 635.922486 170.824688 636.703736 169.841875 
Q 637.484986 168.8575 638.925611 168.8575 
Q 640.361548 168.8575 641.142798 169.841875 
Q 641.924048 170.824688 641.924048 172.641875 
z
"/>
   </g>
   <g id="text_15">
    <path d="M 731.490767 174.898125 
L 734.69858 174.898125 
L 734.69858 176.279375 
L 729.400142 176.279375 
L 729.400142 174.898125 
L 732.06108 172.548125 
Q 732.418892 172.22625 732.589205 171.918438 
Q 732.759517 171.610625 732.759517 171.279375 
Q 732.759517 170.766875 732.415767 170.454375 
Q 732.072017 170.141875 731.500142 170.141875 
Q 731.06108 170.141875 730.537642 170.329375 
Q 730.015767 170.516875 729.420455 170.88875 
L 729.420455 169.287188 
Q 730.05483 169.077813 730.675142 168.968438 
Q 731.295455 168.8575 731.890767 168.8575 
Q 733.200142 168.8575 733.925142 169.434063 
Q 734.650142 170.009063 734.650142 171.040313 
Q 734.650142 171.635625 734.34233 172.15125 
Q 734.034517 172.665313 733.04858 173.530938 
L 731.490767 174.898125 
z
M 739.186275 172.680938 
Q 738.692525 172.680938 738.44565 173.00125 
Q 738.198775 173.32 738.198775 173.960625 
Q 738.198775 174.599688 738.44565 174.92 
Q 738.692525 175.23875 739.186275 175.23875 
Q 739.68315 175.23875 739.930025 174.92 
Q 740.1769 174.599688 740.1769 173.960625 
Q 740.1769 173.32 739.930025 173.00125 
Q 739.68315 172.680938 739.186275 172.680938 
z
M 741.509712 169.179375 
L 741.509712 170.527813 
Q 741.04565 170.3075 740.634712 170.202813 
Q 740.225337 170.098125 739.834712 170.098125 
Q 738.99565 170.098125 738.5269 170.565313 
Q 738.05815 171.030938 737.980025 171.948125 
Q 738.3019 171.709063 738.6769 171.590313 
Q 739.053462 171.47 739.498775 171.47 
Q 740.615962 171.47 741.3019 172.124688 
Q 741.987837 172.777813 741.987837 173.837188 
Q 741.987837 175.009063 741.22065 175.715313 
Q 740.455025 176.421563 739.165962 176.421563 
Q 737.74565 176.421563 736.965962 175.462188 
Q 736.187837 174.50125 736.187837 172.73875 
Q 736.187837 170.9325 737.098775 169.899688 
Q 738.009712 168.866875 739.59565 168.866875 
Q 740.098775 168.866875 740.572212 168.945 
Q 741.04565 169.023125 741.509712 169.179375 
z
M 743.545845 174.390313 
L 745.303658 174.390313 
L 745.303658 176.279375 
L 743.545845 176.279375 
L 743.545845 174.390313 
z
M 750.924361 172.62625 
Q 750.924361 171.259063 750.668111 170.70125 
Q 750.411861 170.141875 749.805611 170.141875 
Q 749.200923 170.141875 748.941548 170.70125 
Q 748.682173 171.259063 748.682173 172.62625 
Q 748.682173 174.009063 748.941548 174.57625 
Q 749.200923 175.141875 749.805611 175.141875 
Q 750.407173 175.141875 750.664986 174.57625 
Q 750.924361 174.009063 750.924361 172.62625 
z
M 752.804048 172.641875 
Q 752.804048 174.452813 752.022798 175.437188 
Q 751.241548 176.421563 749.805611 176.421563 
Q 748.364986 176.421563 747.583736 175.437188 
Q 746.802486 174.452813 746.802486 172.641875 
Q 746.802486 170.824688 747.583736 169.841875 
Q 748.364986 168.8575 749.805611 168.8575 
Q 751.241548 168.8575 752.022798 169.841875 
Q 752.804048 170.824688 752.804048 172.641875 
z
" style="stroke: #ffffff; stroke-width: 3"/>
    <path d="M 731.490767 174.898125 
L 734.69858 174.898125 
L 734.69858 176.279375 
L 729.400142 176.279375 
L 729.400142 174.898125 
L 732.06108 172.548125 
Q 732.418892 172.22625 732.589205 171.918438 
Q 732.759517 171.610625 732.759517 171.279375 
Q 732.759517 170.766875 732.415767 170.454375 
Q 732.072017 170.141875 731.500142 170.141875 
Q 731.06108 170.141875 730.537642 170.329375 
Q 730.015767 170.516875 729.420455 170.88875 
L 729.420455 169.287188 
Q 730.05483 169.077813 730.675142 168.968438 
Q 731.295455 168.8575 731.890767 168.8575 
Q 733.200142 168.8575 733.925142 169.434063 
Q 734.650142 170.009063 734.650142 171.040313 
Q 734.650142 171.635625 734.34233 172.15125 
Q 734.034517 172.665313 733.04858 173.530938 
L 731.490767 174.898125 
z
M 739.186275 172.680938 
Q 738.692525 172.680938 738.44565 173.00125 
Q 738.198775 173.32 738.198775 173.960625 
Q 738.198775 174.599688 738.44565 174.92 
Q 738.692525 175.23875 739.186275 175.23875 
Q 739.68315 175.23875 739.930025 174.92 
Q 740.1769 174.599688 740.1769 173.960625 
Q 740.1769 173.32 739.930025 173.00125 
Q 739.68315 172.680938 739.186275 172.680938 
z
M 741.509712 169.179375 
L 741.509712 170.527813 
Q 741.04565 170.3075 740.634712 170.202813 
Q 740.225337 170.098125 739.834712 170.098125 
Q 738.99565 170.098125 738.5269 170.565313 
Q 738.05815 171.030938 737.980025 171.948125 
Q 738.3019 171.709063 738.6769 171.590313 
Q 739.053462 171.47 739.498775 171.47 
Q 740.615962 171.47 741.3019 172.124688 
Q 741.987837 172.777813 741.987837 173.837188 
Q 741.987837 175.009063 741.22065 175.715313 
Q 740.455025 176.421563 739.165962 176.421563 
Q 737.74565 176.421563 736.965962 175.462188 
Q 736.187837 174.50125 736.187837 172.73875 
Q 736.187837 170.9325 737.098775 169.899688 
Q 738.009712 168.866875 739.59565 168.866875 
Q 740.098775 168.866875 740.572212 168.945 
Q 741.04565 169.023125 741.509712 169.179375 
z
M 743.545845 174.390313 
L 745.303658 174.390313 
L 745.303658 176.279375 
L 743.545845 176.279375 
L 743.545845 174.390313 
z
M 750.924361 172.62625 
Q 750.924361 171.259063 750.668111 170.70125 
Q 750.411861 170.141875 749.805611 170.141875 
Q 749.200923 170.141875 748.941548 170.70125 
Q 748.682173 171.259063 748.682173 172.62625 
Q 748.682173 174.009063 748.941548 174.57625 
Q 749.200923 175.141875 749.805611 175.141875 
Q 750.407173 175.141875 750.664986 174.57625 
Q 750.924361 174.009063 750.924361 172.62625 
z
M 752.804048 172.641875 
Q 752.804048 174.452813 752.022798 175.437188 
Q 751.241548 176.421563 749.805611 176.421563 
Q 748.364986 176.421563 747.583736 175.437188 
Q 746.802486 174.452813 746.802486 172.641875 
Q 746.802486 170.824688 747.583736 169.841875 
Q 748.364986 168.8575 749.805611 168.8575 
Q 751.241548 168.8575 752.022798 169.841875 
Q 752.804048 170.824688 752.804048 172.641875 
z
"/>
   </g>
   <g id="text_16">
    <path d="M 510.530767 281.417188 
L 508.471392 284.46875 
L 510.530767 284.46875 
L 510.530767 281.417188 
z
M 510.218267 279.86875 
L 512.308892 279.86875 
L 512.308892 284.46875 
L 513.347955 284.46875 
L 513.347955 285.83125 
L 512.308892 285.83125 
L 512.308892 287.159375 
L 510.530767 287.159375 
L 510.530767 285.83125 
L 507.299517 285.83125 
L 507.299517 284.220313 
L 510.218267 279.86875 
z
M 517.288775 283.896875 
Q 516.762212 283.896875 516.477837 284.185938 
Q 516.195025 284.473437 516.195025 285.010938 
Q 516.195025 285.548438 516.477837 285.834375 
Q 516.762212 286.11875 517.288775 286.11875 
Q 517.812212 286.11875 518.090337 285.834375 
Q 518.368462 285.548438 518.368462 285.010938 
Q 518.368462 284.46875 518.090337 284.182813 
Q 517.812212 283.896875 517.288775 283.896875 
z
M 515.9169 283.278125 
Q 515.252837 283.076563 514.915337 282.6625 
Q 514.5794 282.246875 514.5794 281.626563 
Q 514.5794 280.704688 515.2669 280.221875 
Q 515.955962 279.7375 517.288775 279.7375 
Q 518.612212 279.7375 519.299712 280.21875 
Q 519.988775 280.7 519.988775 281.626563 
Q 519.988775 282.246875 519.649712 282.6625 
Q 519.31065 283.076563 518.646587 283.278125 
Q 519.388775 283.482813 519.7669 283.94375 
Q 520.145025 284.404688 520.145025 285.107813 
Q 520.145025 286.192187 519.424712 286.746875 
Q 518.7044 287.301562 517.288775 287.301562 
Q 515.868462 287.301562 515.143462 286.746875 
Q 514.418462 286.192187 514.418462 285.107813 
Q 514.418462 284.404688 514.796587 283.94375 
Q 515.174712 283.482813 515.9169 283.278125 
z
M 516.355962 281.817187 
Q 516.355962 282.251563 516.59815 282.485938 
Q 516.840337 282.720313 517.288775 282.720313 
Q 517.727837 282.720313 517.9669 282.485938 
Q 518.207525 282.251563 518.207525 281.817187 
Q 518.207525 281.382812 517.9669 281.151563 
Q 517.727837 280.91875 517.288775 280.91875 
Q 516.840337 280.91875 516.59815 281.153125 
Q 516.355962 281.3875 516.355962 281.817187 
z
M 521.785845 285.270312 
L 523.543658 285.270312 
L 523.543658 287.159375 
L 521.785845 287.159375 
L 521.785845 285.270312 
z
M 529.164361 283.50625 
Q 529.164361 282.139063 528.908111 281.58125 
Q 528.651861 281.021875 528.045611 281.021875 
Q 527.440923 281.021875 527.181548 281.58125 
Q 526.922173 282.139063 526.922173 283.50625 
Q 526.922173 284.889063 527.181548 285.45625 
Q 527.440923 286.021875 528.045611 286.021875 
Q 528.647173 286.021875 528.904986 285.45625 
Q 529.164361 284.889063 529.164361 283.50625 
z
M 531.044048 283.521875 
Q 531.044048 285.332812 530.262798 286.317187 
Q 529.481548 287.301562 528.045611 287.301562 
Q 526.604986 287.301562 525.823736 286.317187 
Q 525.042486 285.332812 525.042486 283.521875 
Q 525.042486 281.704688 525.823736 280.721875 
Q 526.604986 279.7375 528.045611 279.7375 
Q 529.481548 279.7375 530.262798 280.721875 
Q 531.044048 281.704688 531.044048 283.521875 
z
" style="stroke: #ffffff; stroke-width: 3"/>
    <path d="M 510.530767 281.417188 
L 508.471392 284.46875 
L 510.530767 284.46875 
L 510.530767 281.417188 
z
M 510.218267 279.86875 
L 512.308892 279.86875 
L 512.308892 284.46875 
L 513.347955 284.46875 
L 513.347955 285.83125 
L 512.308892 285.83125 
L 512.308892 287.159375 
L 510.530767 287.159375 
L 510.530767 285.83125 
L 507.299517 285.83125 
L 507.299517 284.220313 
L 510.218267 279.86875 
z
M 517.288775 283.896875 
Q 516.762212 283.896875 516.477837 284.185938 
Q 516.195025 284.473437 516.195025 285.010938 
Q 516.195025 285.548438 516.477837 285.834375 
Q 516.762212 286.11875 517.288775 286.11875 
Q 517.812212 286.11875 518.090337 285.834375 
Q 518.368462 285.548438 518.368462 285.010938 
Q 518.368462 284.46875 518.090337 284.182813 
Q 517.812212 283.896875 517.288775 283.896875 
z
M 515.9169 283.278125 
Q 515.252837 283.076563 514.915337 282.6625 
Q 514.5794 282.246875 514.5794 281.626563 
Q 514.5794 280.704688 515.2669 280.221875 
Q 515.955962 279.7375 517.288775 279.7375 
Q 518.612212 279.7375 519.299712 280.21875 
Q 519.988775 280.7 519.988775 281.626563 
Q 519.988775 282.246875 519.649712 282.6625 
Q 519.31065 283.076563 518.646587 283.278125 
Q 519.388775 283.482813 519.7669 283.94375 
Q 520.145025 284.404688 520.145025 285.107813 
Q 520.145025 286.192187 519.424712 286.746875 
Q 518.7044 287.301562 517.288775 287.301562 
Q 515.868462 287.301562 515.143462 286.746875 
Q 514.418462 286.192187 514.418462 285.107813 
Q 514.418462 284.404688 514.796587 283.94375 
Q 515.174712 283.482813 515.9169 283.278125 
z
M 516.355962 281.817187 
Q 516.355962 282.251563 516.59815 282.485938 
Q 516.840337 282.720313 517.288775 282.720313 
Q 517.727837 282.720313 517.9669 282.485938 
Q 518.207525 282.251563 518.207525 281.817187 
Q 518.207525 281.382812 517.9669 281.151563 
Q 517.727837 280.91875 517.288775 280.91875 
Q 516.840337 280.91875 516.59815 281.153125 
Q 516.355962 281.3875 516.355962 281.817187 
z
M 521.785845 285.270312 
L 523.543658 285.270312 
L 523.543658 287.159375 
L 521.785845 287.159375 
L 521.785845 285.270312 
z
M 529.164361 283.50625 
Q 529.164361 282.139063 528.908111 281.58125 
Q 528.651861 281.021875 528.045611 281.021875 
Q 527.440923 281.021875 527.181548 281.58125 
Q 526.922173 282.139063 526.922173 283.50625 
Q 526.922173 284.889063 527.181548 285.45625 
Q 527.440923 286.021875 528.045611 286.021875 
Q 528.647173 286.021875 528.904986 285.45625 
Q 529.164361 284.889063 529.164361 283.50625 
z
M 531.044048 283.521875 
Q 531.044048 285.332812 530.262798 286.317187 
Q 529.481548 287.301562 528.045611 287.301562 
Q 526.604986 287.301562 525.823736 286.317187 
Q 525.042486 285.332812 525.042486 283.521875 
Q 525.042486 281.704688 525.823736 280.721875 
Q 526.604986 279.7375 528.045611 279.7375 
Q 529.481548 279.7375 530.262798 280.721875 
Q 531.044048 281.704688 531.044048 283.521875 
z
"/>
   </g>
   <g id="text_17">
    <path d="M 622.38733 283.228125 
Q 623.12483 283.41875 623.507642 283.890625 
Q 623.892017 284.360938 623.892017 285.089063 
Q 623.892017 286.173438 623.060767 286.7375 
Q 622.23108 287.301562 620.640455 287.301562 
Q 620.077955 287.301562 619.513892 287.210938 
Q 618.94983 287.120313 618.398267 286.939063 
L 618.398267 285.489062 
Q 618.926392 285.753125 619.445142 285.8875 
Q 619.965455 286.021875 620.46858 286.021875 
Q 621.215455 286.021875 621.613892 285.764063 
Q 622.01233 285.504687 622.01233 285.020312 
Q 622.01233 284.521875 621.604517 284.265625 
Q 621.196705 284.009375 620.39983 284.009375 
L 619.648267 284.009375 
L 619.648267 282.798438 
L 620.438892 282.798438 
Q 621.148267 282.798438 621.49358 282.576563 
Q 621.840455 282.354688 621.840455 281.9 
Q 621.840455 281.48125 621.502955 281.251563 
Q 621.167017 281.021875 620.551392 281.021875 
Q 620.098267 281.021875 619.634205 281.125 
Q 619.170142 281.226562 618.710767 281.426562 
L 618.710767 280.05 
Q 619.267017 279.89375 619.813892 279.815625 
Q 620.360767 279.7375 620.888892 279.7375 
Q 622.309205 279.7375 623.013892 280.204688 
Q 623.720142 280.670313 623.720142 281.607813 
Q 623.720142 282.246875 623.382642 282.654688 
Q 623.046705 283.0625 622.38733 283.228125 
z
M 628.168775 283.896875 
Q 627.642212 283.896875 627.357837 284.185938 
Q 627.075025 284.473437 627.075025 285.010938 
Q 627.075025 285.548438 627.357837 285.834375 
Q 627.642212 286.11875 628.168775 286.11875 
Q 628.692212 286.11875 628.970337 285.834375 
Q 629.248462 285.548438 629.248462 285.010938 
Q 629.248462 284.46875 628.970337 284.182813 
Q 628.692212 283.896875 628.168775 283.896875 
z
M 626.7969 283.278125 
Q 626.132837 283.076563 625.795337 282.6625 
Q 625.4594 282.246875 625.4594 281.626563 
Q 625.4594 280.704688 626.1469 280.221875 
Q 626.835962 279.7375 628.168775 279.7375 
Q 629.492212 279.7375 630.179712 280.21875 
Q 630.868775 280.7 630.868775 281.626563 
Q 630.868775 282.246875 630.529712 282.6625 
Q 630.19065 283.076563 629.526587 283.278125 
Q 630.268775 283.482813 630.6469 283.94375 
Q 631.025025 284.404688 631.025025 285.107813 
Q 631.025025 286.192187 630.304712 286.746875 
Q 629.5844 287.301562 628.168775 287.301562 
Q 626.748462 287.301562 626.023462 286.746875 
Q 625.298462 286.192187 625.298462 285.107813 
Q 625.298462 284.404688 625.676587 283.94375 
Q 626.054712 283.482813 626.7969 283.278125 
z
M 627.235962 281.817187 
Q 627.235962 282.251563 627.47815 282.485938 
Q 627.720337 282.720313 628.168775 282.720313 
Q 628.607837 282.720313 628.8469 282.485938 
Q 629.087525 282.251563 629.087525 281.817187 
Q 629.087525 281.382812 628.8469 281.151563 
Q 628.607837 280.91875 628.168775 280.91875 
Q 627.720337 280.91875 627.47815 281.153125 
Q 627.235962 281.3875 627.235962 281.817187 
z
M 632.665845 285.270312 
L 634.423658 285.270312 
L 634.423658 287.159375 
L 632.665845 287.159375 
L 632.665845 285.270312 
z
M 640.044361 283.50625 
Q 640.044361 282.139063 639.788111 281.58125 
Q 639.531861 281.021875 638.925611 281.021875 
Q 638.320923 281.021875 638.061548 281.58125 
Q 637.802173 282.139063 637.802173 283.50625 
Q 637.802173 284.889063 638.061548 285.45625 
Q 638.320923 286.021875 638.925611 286.021875 
Q 639.527173 286.021875 639.784986 285.45625 
Q 640.044361 284.889063 640.044361 283.50625 
z
M 641.924048 283.521875 
Q 641.924048 285.332812 641.142798 286.317187 
Q 640.361548 287.301562 638.925611 287.301562 
Q 637.484986 287.301562 636.703736 286.317187 
Q 635.922486 285.332812 635.922486 283.521875 
Q 635.922486 281.704688 636.703736 280.721875 
Q 637.484986 279.7375 638.925611 279.7375 
Q 640.361548 279.7375 641.142798 280.721875 
Q 641.924048 281.704688 641.924048 283.521875 
z
" style="stroke: #ffffff; stroke-width: 3"/>
    <path d="M 622.38733 283.228125 
Q 623.12483 283.41875 623.507642 283.890625 
Q 623.892017 284.360938 623.892017 285.089063 
Q 623.892017 286.173438 623.060767 286.7375 
Q 622.23108 287.301562 620.640455 287.301562 
Q 620.077955 287.301562 619.513892 287.210938 
Q 618.94983 287.120313 618.398267 286.939063 
L 618.398267 285.489062 
Q 618.926392 285.753125 619.445142 285.8875 
Q 619.965455 286.021875 620.46858 286.021875 
Q 621.215455 286.021875 621.613892 285.764063 
Q 622.01233 285.504687 622.01233 285.020312 
Q 622.01233 284.521875 621.604517 284.265625 
Q 621.196705 284.009375 620.39983 284.009375 
L 619.648267 284.009375 
L 619.648267 282.798438 
L 620.438892 282.798438 
Q 621.148267 282.798438 621.49358 282.576563 
Q 621.840455 282.354688 621.840455 281.9 
Q 621.840455 281.48125 621.502955 281.251563 
Q 621.167017 281.021875 620.551392 281.021875 
Q 620.098267 281.021875 619.634205 281.125 
Q 619.170142 281.226562 618.710767 281.426562 
L 618.710767 280.05 
Q 619.267017 279.89375 619.813892 279.815625 
Q 620.360767 279.7375 620.888892 279.7375 
Q 622.309205 279.7375 623.013892 280.204688 
Q 623.720142 280.670313 623.720142 281.607813 
Q 623.720142 282.246875 623.382642 282.654688 
Q 623.046705 283.0625 622.38733 283.228125 
z
M 628.168775 283.896875 
Q 627.642212 283.896875 627.357837 284.185938 
Q 627.075025 284.473437 627.075025 285.010938 
Q 627.075025 285.548438 627.357837 285.834375 
Q 627.642212 286.11875 628.168775 286.11875 
Q 628.692212 286.11875 628.970337 285.834375 
Q 629.248462 285.548438 629.248462 285.010938 
Q 629.248462 284.46875 628.970337 284.182813 
Q 628.692212 283.896875 628.168775 283.896875 
z
M 626.7969 283.278125 
Q 626.132837 283.076563 625.795337 282.6625 
Q 625.4594 282.246875 625.4594 281.626563 
Q 625.4594 280.704688 626.1469 280.221875 
Q 626.835962 279.7375 628.168775 279.7375 
Q 629.492212 279.7375 630.179712 280.21875 
Q 630.868775 280.7 630.868775 281.626563 
Q 630.868775 282.246875 630.529712 282.6625 
Q 630.19065 283.076563 629.526587 283.278125 
Q 630.268775 283.482813 630.6469 283.94375 
Q 631.025025 284.404688 631.025025 285.107813 
Q 631.025025 286.192187 630.304712 286.746875 
Q 629.5844 287.301562 628.168775 287.301562 
Q 626.748462 287.301562 626.023462 286.746875 
Q 625.298462 286.192187 625.298462 285.107813 
Q 625.298462 284.404688 625.676587 283.94375 
Q 626.054712 283.482813 626.7969 283.278125 
z
M 627.235962 281.817187 
Q 627.235962 282.251563 627.47815 282.485938 
Q 627.720337 282.720313 628.168775 282.720313 
Q 628.607837 282.720313 628.8469 282.485938 
Q 629.087525 282.251563 629.087525 281.817187 
Q 629.087525 281.382812 628.8469 281.151563 
Q 628.607837 280.91875 628.168775 280.91875 
Q 627.720337 280.91875 627.47815 281.153125 
Q 627.235962 281.3875 627.235962 281.817187 
z
M 632.665845 285.270312 
L 634.423658 285.270312 
L 634.423658 287.159375 
L 632.665845 287.159375 
L 632.665845 285.270312 
z
M 640.044361 283.50625 
Q 640.044361 282.139063 639.788111 281.58125 
Q 639.531861 281.021875 638.925611 281.021875 
Q 638.320923 281.021875 638.061548 281.58125 
Q 637.802173 282.139063 637.802173 283.50625 
Q 637.802173 284.889063 638.061548 285.45625 
Q 638.320923 286.021875 638.925611 286.021875 
Q 639.527173 286.021875 639.784986 285.45625 
Q 640.044361 284.889063 640.044361 283.50625 
z
M 641.924048 283.521875 
Q 641.924048 285.332812 641.142798 286.317187 
Q 640.361548 287.301562 638.925611 287.301562 
Q 637.484986 287.301562 636.703736 286.317187 
Q 635.922486 285.332812 635.922486 283.521875 
Q 635.922486 281.704688 636.703736 280.721875 
Q 637.484986 279.7375 638.925611 279.7375 
Q 640.361548 279.7375 641.142798 280.721875 
Q 641.924048 281.704688 641.924048 283.521875 
z
"/>
   </g>
   <g id="text_18">
    <path d="M 720.955611 279.86875 
L 723.054048 279.86875 
L 725.705611 284.86875 
L 725.705611 279.86875 
L 727.488423 279.86875 
L 727.488423 287.159375 
L 725.388423 287.159375 
L 722.736861 282.159375 
L 722.736861 287.159375 
L 720.955611 287.159375 
L 720.955611 279.86875 
z
M 731.848189 282.809375 
Q 731.266939 282.809375 730.962251 283.226562 
Q 730.657564 283.64375 730.657564 284.429688 
Q 730.657564 285.215625 730.962251 285.634375 
Q 731.266939 286.051562 731.848189 286.051562 
Q 732.420064 286.051562 732.721626 285.634375 
Q 733.024751 285.215625 733.024751 284.429688 
Q 733.024751 283.64375 732.721626 283.226562 
Q 732.420064 282.809375 731.848189 282.809375 
z
M 731.848189 281.559375 
Q 733.259126 281.559375 734.052876 282.321875 
Q 734.846626 283.082812 734.846626 284.429688 
Q 734.846626 285.778125 734.052876 286.540625 
Q 733.259126 287.301562 731.848189 287.301562 
Q 730.432564 287.301562 729.634126 286.540625 
Q 728.835689 285.778125 728.835689 284.429688 
Q 728.835689 283.082812 729.634126 282.321875 
Q 730.432564 281.559375 731.848189 281.559375 
z
M 738.074556 281.290625 
L 738.074556 285.739062 
L 738.747994 285.739062 
Q 739.899556 285.739062 740.507369 285.167188 
Q 741.116744 284.595313 741.116744 283.50625 
Q 741.116744 282.423438 740.510494 281.857813 
Q 739.905806 281.290625 738.747994 281.290625 
L 738.074556 281.290625 
z
M 736.194869 279.86875 
L 738.176119 279.86875 
Q 739.837056 279.86875 740.649556 280.10625 
Q 741.462056 280.342188 742.043306 280.909375 
Q 742.555806 281.403125 742.804244 282.048438 
Q 743.054244 282.692187 743.054244 283.50625 
Q 743.054244 284.332812 742.804244 284.979688 
Q 742.555806 285.626563 742.043306 286.11875 
Q 741.457369 286.685938 740.637056 286.923438 
Q 739.816744 287.159375 738.176119 287.159375 
L 736.194869 287.159375 
L 736.194869 279.86875 
z
M 746.867525 284.698438 
Q 746.32065 284.698438 746.044087 284.884375 
Q 745.769087 285.06875 745.769087 285.43125 
Q 745.769087 285.7625 745.990962 285.951563 
Q 746.2144 286.139063 746.609712 286.139063 
Q 747.1019 286.139063 747.4394 285.785937 
Q 747.7769 285.43125 747.7769 284.898438 
L 747.7769 284.698438 
L 746.867525 284.698438 
z
M 749.5394 284.039062 
L 749.5394 287.159375 
L 747.7769 287.159375 
L 747.7769 286.348437 
Q 747.425337 286.846875 746.984712 287.075 
Q 746.54565 287.301562 745.915962 287.301562 
Q 745.065962 287.301562 744.536275 286.80625 
Q 744.006587 286.309375 744.006587 285.51875 
Q 744.006587 284.55625 744.667525 284.107813 
Q 745.330025 283.657813 746.74565 283.657813 
L 747.7769 283.657813 
L 747.7769 283.521875 
Q 747.7769 283.10625 747.448775 282.914062 
Q 747.122212 282.720313 746.428462 282.720313 
Q 745.867525 282.720313 745.38315 282.832812 
Q 744.900337 282.945312 744.484712 283.170313 
L 744.484712 281.8375 
Q 745.047212 281.7 745.612837 281.629687 
Q 746.180025 281.559375 746.74565 281.559375 
Q 748.225337 281.559375 748.881587 282.142188 
Q 749.5394 282.725 749.5394 284.039062 
z
M 753.073384 280.1375 
L 753.073384 281.690625 
L 754.876509 281.690625 
L 754.876509 282.940625 
L 753.073384 282.940625 
L 753.073384 285.259375 
Q 753.073384 285.640625 753.224947 285.775 
Q 753.376509 285.909375 753.826509 285.909375 
L 754.724947 285.909375 
L 754.724947 287.159375 
L 753.224947 287.159375 
Q 752.190572 287.159375 751.757759 286.728125 
Q 751.326509 286.295313 751.326509 285.259375 
L 751.326509 282.940625 
L 750.456197 282.940625 
L 750.456197 281.690625 
L 751.326509 281.690625 
L 751.326509 280.1375 
L 753.073384 280.1375 
z
M 758.395845 284.698438 
Q 757.84897 284.698438 757.572408 284.884375 
Q 757.297408 285.06875 757.297408 285.43125 
Q 757.297408 285.7625 757.519283 285.951563 
Q 757.74272 286.139063 758.138033 286.139063 
Q 758.63022 286.139063 758.96772 285.785937 
Q 759.30522 285.43125 759.30522 284.898438 
L 759.30522 284.698438 
L 758.395845 284.698438 
z
M 761.06772 284.039062 
L 761.06772 287.159375 
L 759.30522 287.159375 
L 759.30522 286.348437 
Q 758.953658 286.846875 758.513033 287.075 
Q 758.07397 287.301562 757.444283 287.301562 
Q 756.594283 287.301562 756.064595 286.80625 
Q 755.534908 286.309375 755.534908 285.51875 
Q 755.534908 284.55625 756.195845 284.107813 
Q 756.858345 283.657813 758.27397 283.657813 
L 759.30522 283.657813 
L 759.30522 283.521875 
Q 759.30522 283.10625 758.977095 282.914062 
Q 758.650533 282.720313 757.956783 282.720313 
Q 757.395845 282.720313 756.91147 282.832812 
Q 756.428658 282.945312 756.013033 283.170313 
L 756.013033 281.8375 
Q 756.575533 281.7 757.141158 281.629687 
Q 757.708345 281.559375 758.27397 281.559375 
Q 759.753658 281.559375 760.409908 282.142188 
Q 761.06772 282.725 761.06772 284.039062 
z
" style="stroke: #ffffff; stroke-width: 3"/>
    <path d="M 720.955611 279.86875 
L 723.054048 279.86875 
L 725.705611 284.86875 
L 725.705611 279.86875 
L 727.488423 279.86875 
L 727.488423 287.159375 
L 725.388423 287.159375 
L 722.736861 282.159375 
L 722.736861 287.159375 
L 720.955611 287.159375 
L 720.955611 279.86875 
z
M 731.848189 282.809375 
Q 731.266939 282.809375 730.962251 283.226562 
Q 730.657564 283.64375 730.657564 284.429688 
Q 730.657564 285.215625 730.962251 285.634375 
Q 731.266939 286.051562 731.848189 286.051562 
Q 732.420064 286.051562 732.721626 285.634375 
Q 733.024751 285.215625 733.024751 284.429688 
Q 733.024751 283.64375 732.721626 283.226562 
Q 732.420064 282.809375 731.848189 282.809375 
z
M 731.848189 281.559375 
Q 733.259126 281.559375 734.052876 282.321875 
Q 734.846626 283.082812 734.846626 284.429688 
Q 734.846626 285.778125 734.052876 286.540625 
Q 733.259126 287.301562 731.848189 287.301562 
Q 730.432564 287.301562 729.634126 286.540625 
Q 728.835689 285.778125 728.835689 284.429688 
Q 728.835689 283.082812 729.634126 282.321875 
Q 730.432564 281.559375 731.848189 281.559375 
z
M 738.074556 281.290625 
L 738.074556 285.739062 
L 738.747994 285.739062 
Q 739.899556 285.739062 740.507369 285.167188 
Q 741.116744 284.595313 741.116744 283.50625 
Q 741.116744 282.423438 740.510494 281.857813 
Q 739.905806 281.290625 738.747994 281.290625 
L 738.074556 281.290625 
z
M 736.194869 279.86875 
L 738.176119 279.86875 
Q 739.837056 279.86875 740.649556 280.10625 
Q 741.462056 280.342188 742.043306 280.909375 
Q 742.555806 281.403125 742.804244 282.048438 
Q 743.054244 282.692187 743.054244 283.50625 
Q 743.054244 284.332812 742.804244 284.979688 
Q 742.555806 285.626563 742.043306 286.11875 
Q 741.457369 286.685938 740.637056 286.923438 
Q 739.816744 287.159375 738.176119 287.159375 
L 736.194869 287.159375 
L 736.194869 279.86875 
z
M 746.867525 284.698438 
Q 746.32065 284.698438 746.044087 284.884375 
Q 745.769087 285.06875 745.769087 285.43125 
Q 745.769087 285.7625 745.990962 285.951563 
Q 746.2144 286.139063 746.609712 286.139063 
Q 747.1019 286.139063 747.4394 285.785937 
Q 747.7769 285.43125 747.7769 284.898438 
L 747.7769 284.698438 
L 746.867525 284.698438 
z
M 749.5394 284.039062 
L 749.5394 287.159375 
L 747.7769 287.159375 
L 747.7769 286.348437 
Q 747.425337 286.846875 746.984712 287.075 
Q 746.54565 287.301562 745.915962 287.301562 
Q 745.065962 287.301562 744.536275 286.80625 
Q 744.006587 286.309375 744.006587 285.51875 
Q 744.006587 284.55625 744.667525 284.107813 
Q 745.330025 283.657813 746.74565 283.657813 
L 747.7769 283.657813 
L 747.7769 283.521875 
Q 747.7769 283.10625 747.448775 282.914062 
Q 747.122212 282.720313 746.428462 282.720313 
Q 745.867525 282.720313 745.38315 282.832812 
Q 744.900337 282.945312 744.484712 283.170313 
L 744.484712 281.8375 
Q 745.047212 281.7 745.612837 281.629687 
Q 746.180025 281.559375 746.74565 281.559375 
Q 748.225337 281.559375 748.881587 282.142188 
Q 749.5394 282.725 749.5394 284.039062 
z
M 753.073384 280.1375 
L 753.073384 281.690625 
L 754.876509 281.690625 
L 754.876509 282.940625 
L 753.073384 282.940625 
L 753.073384 285.259375 
Q 753.073384 285.640625 753.224947 285.775 
Q 753.376509 285.909375 753.826509 285.909375 
L 754.724947 285.909375 
L 754.724947 287.159375 
L 753.224947 287.159375 
Q 752.190572 287.159375 751.757759 286.728125 
Q 751.326509 286.295313 751.326509 285.259375 
L 751.326509 282.940625 
L 750.456197 282.940625 
L 750.456197 281.690625 
L 751.326509 281.690625 
L 751.326509 280.1375 
L 753.073384 280.1375 
z
M 758.395845 284.698438 
Q 757.84897 284.698438 757.572408 284.884375 
Q 757.297408 285.06875 757.297408 285.43125 
Q 757.297408 285.7625 757.519283 285.951563 
Q 757.74272 286.139063 758.138033 286.139063 
Q 758.63022 286.139063 758.96772 285.785937 
Q 759.30522 285.43125 759.30522 284.898438 
L 759.30522 284.698438 
L 758.395845 284.698438 
z
M 761.06772 284.039062 
L 761.06772 287.159375 
L 759.30522 287.159375 
L 759.30522 286.348437 
Q 758.953658 286.846875 758.513033 287.075 
Q 758.07397 287.301562 757.444283 287.301562 
Q 756.594283 287.301562 756.064595 286.80625 
Q 755.534908 286.309375 755.534908 285.51875 
Q 755.534908 284.55625 756.195845 284.107813 
Q 756.858345 283.657813 758.27397 283.657813 
L 759.30522 283.657813 
L 759.30522 283.521875 
Q 759.30522 283.10625 758.977095 282.914062 
Q 758.650533 282.720313 757.956783 282.720313 
Q 757.395845 282.720313 756.91147 282.832812 
Q 756.428658 282.945312 756.013033 283.170313 
L 756.013033 281.8375 
Q 756.575533 281.7 757.141158 281.629687 
Q 757.708345 281.559375 758.27397 281.559375 
Q 759.753658 281.559375 760.409908 282.142188 
Q 761.06772 282.725 761.06772 284.039062 
z
"/>
   </g>
  </g>
 </g>
 <defs>
  <clipPath id="p89df409bfb">
   <rect x="7.2" y="7.2" width="332.64" height="332.64"/>
  </clipPath>
  <clipPath id="pd22f47ff02">
   <rect x="463.745455" y="7.2" width="332.64" height="332.64"/>
  </clipPath>
 </defs>
</svg>
