<?xml version="1.0" encoding="utf-8" standalone="no"?>
<!DOCTYPE svg PUBLIC "-//W3C//DTD SVG 1.1//EN"
  "http://www.w3.org/Graphics/SVG/1.1/DTD/svg11.dtd">
<svg xmlns:xlink="http://www.w3.org/1999/xlink" width="491.039983pt" height="236.16pt" viewBox="0 0 491.039983 236.16" xmlns="http://www.w3.org/2000/svg" version="1.1">
 <metadata>
  <rdf:RDF xmlns:dc="http://purl.org/dc/elements/1.1/" xmlns:cc="http://creativecommons.org/ns#" xmlns:rdf="http://www.w3.org/1999/02/22-rdf-syntax-ns#">
   <cc:Work>
    <dc:type rdf:resource="http://purl.org/dc/dcmitype/StillImage"/>
    <dc:date>2026-01-16T12:01:28.674064</dc:date>
    <dc:format>image/svg+xml</dc:format>
    <dc:creator>
     <cc:Agent>
      <dc:title>Matplotlib v3.10.8, https://matplotlib.org/</dc:title>
     </cc:Agent>
    </dc:creator>
   </cc:Work>
  </rdf:RDF>
 </metadata>
 <defs>
  <style type="text/css">*{stroke-linejoin: round; stroke-linecap: butt}</style>
 </defs>
 <g id="figure_1">
  <g id="patch_1">
   <path d="M 0 236.16 
L 491.039983 236.16 
L 491.039983 0 
L 0 0 
L 0 236.16 
z
" style="fill: none"/>
  </g>
  <g id="axes_1">
   <g id="PatchCollection_1">
    <defs>
     <path id="m66d98bded7" d="M 10.96171 -29.138824 
L 11.168225 -31.452365 
L 11.779834 -33.676999 
L 12.773032 -35.727233 
L 14.109652 -37.524278 
L 60.24857 -88.432941 
L 14.109652 -139.341604 
L 12.773032 -141.138649 
L 11.779834 -143.188884 
L 11.168225 -145.413517 
L 10.96171 -147.727059 
L 11.168225 -150.040601 
L 11.779834 -152.265234 
L 12.773032 -154.315468 
L 14.109652 -156.112513 
L 67.848372 -215.406631 
L 69.477048 -216.881428 
L 71.335191 -217.977301 
L 73.351394 -218.652136 
L 75.448175 -218.88 
L 77.544956 -218.652136 
L 79.561159 -217.977301 
L 81.419302 -216.881428 
L 83.047978 -215.406631 
L 84.384598 -213.609586 
L 85.377796 -211.559352 
L 85.989404 -209.334718 
L 86.195919 -207.021176 
L 85.989404 -204.707635 
L 85.377796 -202.483001 
L 84.384598 -200.432767 
L 83.047978 -198.635722 
L 36.90906 -147.727059 
L 83.047978 -96.818396 
L 84.384598 -95.021351 
L 85.377796 -92.971116 
L 85.989404 -90.746483 
L 86.195919 -88.432941 
L 85.989404 -86.119399 
L 85.377796 -83.894766 
L 84.384598 -81.844532 
L 83.047978 -80.047487 
L 29.309257 -20.753369 
L 27.680581 -19.278572 
L 25.822438 -18.182699 
L 23.806235 -17.507864 
L 21.709455 -17.28 
L 19.612674 -17.507864 
L 17.596471 -18.182699 
L 15.738328 -19.278572 
L 14.109652 -20.753369 
L 12.773032 -22.550414 
L 11.779834 -24.600648 
L 11.168225 -26.825282 
z
" style="stroke: #808080; stroke-opacity: 0.5; stroke-width: 0.5"/>
    </defs>
    <g clip-path="url(#p9bc0d9620d)">
     <use xlink:href="#m66d98bded7" x="0" y="236.16" style="fill: #71c9f1; fill-opacity: 0.5; stroke: #808080; stroke-opacity: 0.5; stroke-width: 0.5"/>
    </g>
   </g>
   <g id="LineCollection_1">
    <path d="M 21.709455 207.021176 
L 75.448175 147.727059 
L 21.709455 88.432941 
L 75.448175 29.138824 
" clip-path="url(#p9bc0d9620d)" style="fill: none; stroke: #000000; stroke-opacity: 0.5; stroke-width: 2"/>
   </g>
  </g>
  <g id="axes_2">
   <g id="PatchCollection_2">
    <defs>
     <path id="mb90a4be748" d="M 203.451026 -147.727059 
L 264.789549 -215.406631 
L 266.418225 -216.881428 
L 268.276368 -217.977301 
L 270.292571 -218.652136 
L 272.389352 -218.88 
L 274.486132 -218.652136 
L 276.502335 -217.977301 
L 278.360478 -216.881428 
L 279.989154 -215.406631 
L 281.325774 -213.609586 
L 282.318972 -211.559352 
L 282.930581 -209.334718 
L 283.137096 -207.021176 
L 282.930581 -204.707635 
L 282.318972 -202.483001 
L 281.325774 -200.432767 
L 279.989154 -198.635722 
L 233.850237 -147.727059 
L 287.588957 -88.432941 
L 226.250434 -20.753369 
L 224.621758 -19.278572 
L 222.763615 -18.182699 
L 220.747412 -17.507864 
L 218.650631 -17.28 
L 216.55385 -17.507864 
L 214.537647 -18.182699 
L 212.679504 -19.278572 
L 211.050828 -20.753369 
L 209.714208 -22.550414 
L 208.72101 -24.600648 
L 208.109402 -26.825282 
L 207.902887 -29.138824 
L 208.109402 -31.452365 
L 208.72101 -33.676999 
L 209.714208 -35.727233 
L 211.050828 -37.524278 
L 257.189746 -88.432941 
z
" style="stroke: #808080; stroke-opacity: 0.5; stroke-width: 0.5"/>
    </defs>
    <g clip-path="url(#p0044594aad)">
     <use xlink:href="#mb90a4be748" x="0" y="236.16" style="fill: #71c9f1; fill-opacity: 0.5; stroke: #808080; stroke-opacity: 0.5; stroke-width: 0.5"/>
    </g>
   </g>
   <g id="LineCollection_2">
    <path d="M 218.650631 207.021176 
L 272.389352 147.727059 
L 218.650631 88.432941 
L 272.389352 29.138824 
" clip-path="url(#p0044594aad)" style="fill: none; stroke: #000000; stroke-opacity: 0.5; stroke-width: 2"/>
   </g>
  </g>
  <g id="axes_3">
   <g id="PatchCollection_3">
    <defs>
     <path id="m31da3def57" d="M 404.844063 -29.138824 
L 405.050578 -31.452365 
L 405.662187 -33.676999 
L 406.655385 -35.727233 
L 407.992005 -37.524278 
L 454.130923 -88.432941 
L 407.992005 -139.341604 
L 407.992005 -156.112513 
L 461.730725 -215.406631 
L 463.359401 -216.881428 
L 465.217544 -217.977301 
L 467.233747 -218.652136 
L 469.330528 -218.88 
L 471.427309 -218.652136 
L 473.443512 -217.977301 
L 475.301655 -216.881428 
L 476.930331 -215.406631 
L 478.266951 -213.609586 
L 479.260149 -211.559352 
L 479.871757 -209.334718 
L 480.078272 -207.021176 
L 479.871757 -204.707635 
L 479.260149 -202.483001 
L 478.266951 -200.432767 
L 476.930331 -198.635722 
L 430.791413 -147.727059 
L 476.930331 -96.818396 
L 476.930331 -80.047487 
L 423.19161 -20.753369 
L 421.562934 -19.278572 
L 419.704791 -18.182699 
L 417.688588 -17.507864 
L 415.591807 -17.28 
L 413.495027 -17.507864 
L 411.478824 -18.182699 
L 409.620681 -19.278572 
L 407.992005 -20.753369 
L 406.655385 -22.550414 
L 405.662187 -24.600648 
L 405.050578 -26.825282 
z
" style="stroke: #808080; stroke-opacity: 0.5; stroke-width: 0.5"/>
    </defs>
    <g clip-path="url(#pc0c9187547)">
     <use xlink:href="#m31da3def57" x="0" y="236.16" style="fill: #71c9f1; fill-opacity: 0.5; stroke: #808080; stroke-opacity: 0.5; stroke-width: 0.5"/>
    </g>
   </g>
   <g id="LineCollection_3">
    <path d="M 415.591807 207.021176 
L 469.330528 147.727059 
L 415.591807 88.432941 
L 469.330528 29.138824 
" clip-path="url(#pc0c9187547)" style="fill: none; stroke: #000000; stroke-opacity: 0.5; stroke-width: 2"/>
   </g>
  </g>
 </g>
 <defs>
  <clipPath id="p9bc0d9620d">
   <rect x="7.2" y="7.2" width="82.75763" height="221.76"/>
  </clipPath>
  <clipPath id="p0044594aad">
   <rect x="199.244129" y="7.2" width="92.551725" height="221.76"/>
  </clipPath>
  <clipPath id="pc0c9187547">
   <rect x="401.082353" y="7.2" width="82.75763" height="221.76"/>
  </clipPath>
 </defs>
</svg>
