<?xml version="1.0" encoding="UTF-8" standalone="no"?>
<!DOCTYPE svg PUBLIC "-//W3C//DTD SVG 1.0//EN" "http://www.w3.org/TR/2001/REC-SVG-20010904/DTD/svg10.dtd">
<svg xmlns="http://www.w3.org/2000/svg" viewBox="-2 -2 244.12 121.28"><path d="M58.64,117.28A58.64,58.64,0,1,1,115,42.37a2.11,2.11,0,0,1-4,1.17,54.43,54.43,0,1,0,.15,29.67,2.11,2.11,0,0,1,4.06,1.12A58.8,58.8,0,0,1,58.64,117.28Z" fill="#009da5"/><path d="M40.84,40.83H41a6,6,0,0,1,6,6h0.12a14.33,14.33,0,0,1,12.06-6.12c11.5,0,17.56,9.24,17.56,18.3,0,8.57-6.43,17.38-17.13,17.38-7.1,0-10.65-3.61-11.93-5.75H47.54V88.21a6.69,6.69,0,0,1-6.69-6.69V40.83Zm17.89,5.65c-6.67,0-11.32,5.75-11.32,12,0,6.85,5.08,12.06,11.5,12.06A11.54,11.54,0,0,0,70.36,58.6C70.36,52.54,65.65,46.48,58.73,46.48Z" fill="#000"/><path d="M89.51,75.49H83.15V30.21h6.36V75.49Z" fill="#000"/><path d="M125.56,75.49V70.23h-0.12c-2.45,4.16-6.91,6.12-11.5,6.12-11.44,0-18-8.75-18-17.69,0-8.26,5.81-18,18-18,4.71,0,9.06,2,11.5,5.69h0.12V41.59h6.36v33.9h-6.36Zm-11.63-29c-7.83,0-11.63,6.79-11.63,12.12,0,6.12,4.83,11.93,11.57,11.93A11.84,11.84,0,0,0,125.68,58.6C125.68,51.38,120.48,46.48,113.93,46.48Z" fill="#000"/><path d="M163.8,75.49V57.07c0-2.63,0-10.59-8.44-10.59-5.32,0-8.93,3.73-8.93,10.53V75.49h-6.36V41.59H146V45.2h0.12A12,12,0,0,1,156,40.67c5.26,0,9.55,2.26,12,6.06a16.53,16.53,0,0,1,2.14,8.69V75.49H163.8Z" fill="#000"/><path d="M225.24,75.49h0a6.36,6.36,0,0,1-6.36-6.36V47.4h-4.59V41.59h4.59V30.21h0a6.36,6.36,0,0,1,6.36,6.36v5h5.57V47.4h-5.57V75.49Z" fill="#000"/><path d="M211.22,58.05a17.32,17.32,0,1,0-34.64.43q0,0.87.08,1.72h0A18.26,18.26,0,0,0,195,76.3a18.73,18.73,0,0,0,14.76-7.06l-5-2.94a13.05,13.05,0,0,1-9.8,4.29c-5.18,0-10.74-3.15-12-9.29H211C211.1,60.87,211.22,59.15,211.22,58.05ZM183,56.4a11,11,0,0,1,21.91,0H183Z" fill="#000"/><path d="M240.12,72.16a3.42,3.42,0,1,1-3.42-3.35,3.38,3.38,0,0,1,3.42,3.35" fill="#009da5"/></svg>