<!DOCTYPE svg PUBLIC "-//W3C//DTD SVG 20010904//EN" "http://www.w3.org/TR/2001/REC-SVG-20010904/DTD/svg10.dtd">
<svg version="1.0" xmlns="http://www.w3.org/2000/svg" width="1600px" height="387px" viewBox="0 0 16000 3870" preserveAspectRatio="xMidYMid meet">
<g id="layer101" fill="#000000" stroke="none">
 <path d="M1675 3729 c-94 -10 -252 -44 -340 -74 -384 -130 -718 -385 -939 -718 -313 -471 -384 -1080 -189 -1607 262 -705 936 -1178 1684 -1180 502 -1 999 222 1340 603 l43 48 -153 153 -154 154 -106 -107 c-170 -171 -387 -300 -611 -361 -102 -28 -254 -50 -342 -50 -477 1 -887 221 -1155 620 -88 131 -168 334 -199 502 -25 138 -23 363 5 498 118 562 533 969 1096 1075 98 19 321 25 344 11 8 -5 37 -8 63 -7 27 1 72 -4 101 -12 29 -8 88 -25 132 -37 96 -26 237 -91 337 -155 263 -170 459 -428 554 -726 l27 -84 225 -227 c188 -189 228 -225 240 -215 12 10 14 37 8 162 -12 280 -70 514 -186 746 -199 401 -564 733 -970 883 -122 45 -117 44 -290 86 -117 28 -389 37 -565 19z"/>
 <path d="M1969 3161 c-71 -46 -1135 -1119 -1154 -1163 -19 -48 -19 -108 0 -156 20 -45 325 -356 377 -383 44 -23 125 -25 171 -5 18 8 182 164 367 350 184 185 340 336 346 336 6 0 372 -363 814 -806 441 -443 816 -814 834 -825 42 -26 134 -26 184 0 52 27 357 338 377 383 20 48 19 104 -3 150 -23 51 -2081 2114 -2127 2134 -59 24 -135 18 -186 -15z"/>
 </g>
<g id="layer102" fill="#027fbe" stroke="none">
 <path d="M1760 3320 c-535 -56 -1000 -425 -1173 -930 -93 -271 -95 -589 -7 -859 47 -145 168 -370 191 -356 5 4 9 34 9 69 0 88 23 148 71 188 22 18 56 49 75 68 l34 34 -99 101 c-124 125 -145 163 -149 272 -7 147 -29 120 596 747 521 523 634 626 683 626 21 0 35 18 23 30 -13 13 -169 19 -254 10z"/>
 <path d="M2215 3270 c-3 -5 7 -17 22 -27 15 -9 240 -231 500 -492 306 -309 475 -472 481 -466 12 13 -26 131 -78 241 -156 334 -462 608 -809 724 -98 33 -107 35 -116 20z"/>
 <path d="M8701 3222 c-59 -59 -66 -91 -46 -227 33 -231 57 -406 70 -500 7 -55 24 -179 38 -275 35 -239 66 -455 83 -580 7 -58 17 -125 20 -149 9 -55 57 -127 112 -166 l44 -30 611 -3 c386 -1 614 1 620 7 9 9 -133 305 -195 409 l-20 32 -339 0 -339 0 -4 23 c-5 26 -22 142 -36 247 -5 41 -16 120 -24 175 -16 110 -50 343 -71 500 -8 55 -15 108 -15 118 0 16 26 17 414 17 271 0 417 4 421 10 4 6 -2 25 -13 43 -11 17 -57 106 -102 197 -46 91 -90 173 -98 183 -14 16 -53 17 -549 17 l-534 0 -48 -48z"/>
 <path d="M10139 3263 c-3 -18 3 -67 27 -243 l26 -185 162 -155 c88 -84 229 -221 311 -302 l150 -148 -262 0 c-168 0 -264 -4 -268 -10 -4 -6 0 -59 9 -118 8 -59 20 -147 26 -196 6 -49 15 -97 21 -108 9 -17 37 -18 629 -18 340 0 621 3 623 8 4 6 -13 146 -44 354 l-11 76 -222 214 c-121 117 -261 251 -309 298 l-88 85 263 5 263 5 -3 60 c-1 33 -13 132 -25 220 l-23 160 -627 3 c-345 1 -627 -1 -628 -5z"/>
 <path d="M11644 3251 c-77 -47 -99 -116 -78 -250 8 -53 19 -125 23 -161 21 -151 33 -232 51 -360 10 -74 31 -220 45 -325 15 -104 35 -208 44 -230 24 -55 66 -102 112 -125 36 -19 62 -20 524 -20 535 0 520 -2 569 63 42 54 45 95 19 272 -12 88 -30 216 -39 285 -9 69 -25 147 -36 173 -25 57 -104 132 -149 141 -17 3 -159 6 -314 6 l-282 0 -7 31 c-15 75 -48 69 353 69 220 0 362 4 366 10 3 5 -43 105 -102 222 l-108 213 -480 3 c-457 2 -482 1 -511 -17z m750 -889 c2 -4 8 -36 12 -70 l7 -62 -106 0 -106 0 -6 48 c-3 26 -7 57 -9 70 -3 22 -1 22 100 22 56 0 105 -4 108 -8z"/>
 <path d="M13053 3251 c-45 -28 -83 -97 -83 -153 0 -25 9 -105 20 -179 10 -74 38 -267 60 -429 64 -460 70 -502 81 -544 11 -42 86 -129 131 -152 22 -12 123 -14 582 -14 305 0 557 4 560 9 3 4 -43 104 -103 222 l-108 214 -290 3 -289 2 -13 93 c-7 50 -17 117 -22 147 -5 30 -15 107 -24 170 -8 63 -18 130 -20 148 l-6 32 364 0 c200 0 366 3 369 6 6 5 -193 405 -214 432 -8 9 -118 12 -487 12 -453 0 -478 -1 -508 -19z"/>
 <path d="M14356 3261 c-6 -9 1 -75 30 -271 22 -148 31 -212 43 -310 6 -47 15 -112 20 -145 18 -115 68 -470 131 -925 17 -124 34 -245 38 -270 l7 -45 254 -3 c140 -1 258 1 262 5 4 5 -8 114 -27 243 -18 129 -34 236 -34 238 0 1 133 2 295 2 330 0 332 0 379 68 46 67 47 54 -35 632 -11 80 -27 192 -34 250 -8 58 -23 168 -34 245 -10 77 -23 165 -26 195 -4 30 -11 65 -16 78 l-9 22 -250 0 c-210 0 -252 -2 -256 -15 -3 -8 6 -99 21 -202 14 -103 39 -280 55 -393 52 -370 70 -501 70 -515 0 -12 -19 -15 -104 -15 l-103 0 -7 48 c-13 88 -25 166 -41 287 -9 66 -20 147 -25 180 -20 140 -39 272 -70 504 -17 132 9 121 -280 121 -138 0 -251 -4 -254 -9z"/>
 <path d="M1851 1786 l-214 -214 31 -16 c67 -35 129 -13 167 58 11 20 23 36 27 36 11 0 10 -58 -1 -97 -10 -35 2 -53 69 -104 27 -21 34 -32 32 -55 -3 -39 81 -143 144 -180 38 -22 53 -26 94 -21 45 5 53 3 103 -34 49 -34 62 -39 111 -39 31 0 56 -2 56 -5 0 -4 -7 -19 -15 -34 -23 -46 -46 -48 -80 -7 -39 46 -80 55 -118 25 -16 -12 -25 -25 -20 -29 4 -5 45 -22 91 -40 45 -17 82 -37 82 -45 0 -7 -27 -39 -60 -71 -35 -34 -67 -75 -77 -102 l-18 -44 -53 6 c-51 6 -56 4 -113 -36 -49 -34 -69 -42 -107 -42 -42 -1 -47 2 -50 22 -2 13 3 45 12 71 14 45 14 50 -10 116 -30 83 -40 97 -68 93 -15 -2 -22 -12 -26 -37 -5 -32 -10 -36 -70 -58 -36 -13 -85 -31 -109 -39 -59 -22 -111 -69 -111 -101 0 -31 39 -70 136 -135 68 -46 74 -48 160 -54 65 -5 97 -3 114 6 23 12 23 13 5 26 -17 13 -15 14 19 14 34 0 56 9 169 67 35 18 49 8 19 -13 -26 -18 -19 -38 11 -30 12 3 29 -2 39 -11 15 -14 23 -14 65 -3 84 24 178 66 178 81 0 7 -17 25 -37 38 -21 13 -38 32 -38 41 0 27 71 116 114 144 39 25 89 33 112 18 6 -4 23 -29 39 -57 15 -27 29 -54 32 -58 9 -16 189 143 255 226 l31 39 -449 449 c-247 247 -451 449 -454 449 -3 0 -101 -96 -219 -214z"/>
 </g>
<g id="layer103" fill="#6bb23c" stroke="none">
 <path d="M4373 3251 c-17 -11 -43 -37 -57 -58 -29 -42 -34 -99 -16 -207 5 -34 28 -194 50 -356 22 -162 45 -322 50 -355 6 -33 17 -112 26 -175 8 -63 22 -160 30 -215 18 -124 20 -142 40 -290 9 -66 25 -139 36 -162 22 -46 94 -118 134 -133 31 -12 1231 -14 1238 -2 3 5 -2 22 -10 38 -9 16 -54 106 -102 199 -47 94 -92 178 -100 188 -14 16 -44 17 -354 17 -232 0 -338 3 -338 11 0 12 -84 611 -99 709 -6 36 -18 117 -26 180 -9 63 -18 130 -21 148 l-5 32 160 0 c158 0 161 0 165 -22 3 -13 12 -77 21 -143 9 -66 18 -139 22 -162 l5 -43 -86 0 c-64 0 -88 -4 -92 -14 -3 -7 5 -85 18 -172 l23 -159 348 -3 c306 -2 348 0 353 13 4 9 -8 118 -25 243 -18 125 -43 306 -56 402 -14 96 -35 249 -48 340 l-23 165 -615 3 c-592 2 -615 1 -646 -17z"/>
 <path d="M5898 3251 c-33 -21 -60 -55 -78 -99 -13 -35 -12 -53 15 -247 8 -60 19 -139 24 -175 5 -36 18 -128 29 -205 12 -77 33 -230 47 -340 15 -110 34 -220 43 -244 18 -53 84 -129 129 -147 26 -11 133 -14 520 -14 456 0 490 1 516 18 38 26 76 79 83 119 4 19 -12 158 -36 330 -43 307 -51 337 -106 402 -54 65 -58 65 -394 71 l-305 5 -3 48 -3 47 359 0 c197 0 361 3 365 6 3 4 -43 105 -104 225 l-109 219 -483 -1 c-440 0 -484 -2 -509 -18z m761 -944 c6 -35 11 -67 11 -70 0 -4 -47 -7 -105 -7 -118 0 -110 -5 -119 83 l-6 57 104 0 104 0 11 -63z"/>
 <path d="M7314 3251 c-81 -49 -100 -110 -80 -253 8 -57 33 -236 56 -398 44 -323 56 -407 71 -489 5 -30 9 -67 9 -82 0 -81 69 -193 140 -229 37 -19 61 -20 528 -20 l489 0 34 23 c19 12 44 42 57 67 27 53 26 79 -13 355 -13 94 -42 303 -65 465 -48 347 -59 416 -74 444 -26 50 -60 88 -100 111 l-43 25 -489 0 c-461 0 -491 -1 -520 -19z m695 -508 c16 -109 71 -502 71 -508 0 -3 -48 -4 -107 -3 l-108 3 -11 95 c-7 52 -17 129 -23 170 -24 165 -40 286 -41 303 0 15 11 17 104 17 l104 0 11 -77z"/>
 <path d="M1824 1628 c-14 -24 -33 -49 -42 -55 -20 -16 -73 -17 -107 -1 -25 11 -30 7 -123 -85 -120 -119 -155 -137 -272 -137 -111 0 -150 19 -252 117 l-79 77 -27 -26 c-15 -15 -50 -47 -79 -73 -62 -56 -83 -108 -83 -208 l0 -70 77 -95 c155 -191 372 -344 604 -425 127 -44 301 -77 313 -59 3 5 -25 31 -63 57 -101 68 -123 90 -119 122 4 36 45 62 160 102 104 37 128 53 128 88 0 48 28 22 53 -50 24 -68 25 -75 12 -112 -20 -56 -18 -89 5 -110 29 -27 90 -15 157 32 50 34 63 38 117 38 l60 0 26 53 c14 29 51 76 83 107 57 55 66 72 46 92 -7 7 -2 15 15 27 27 17 69 89 59 100 -4 3 -35 6 -70 6 -59 0 -69 3 -120 39 -50 37 -58 39 -103 34 -41 -5 -56 -1 -93 20 -58 34 -128 124 -125 162 2 22 -8 37 -54 76 -55 49 -56 50 -47 85 6 19 9 51 7 72 -4 54 -30 54 -64 0z m520 -541 c1 -1 14 -17 30 -34 l29 -33 -69 27 c-83 33 -82 32 -64 44 12 8 72 5 74 -4z"/>
 <path d="M2499 950 c-53 -35 -129 -133 -129 -166 0 -17 10 -29 39 -44 22 -11 42 -24 46 -30 4 -6 31 3 68 21 61 31 177 106 177 114 0 13 -55 103 -72 118 -30 26 -78 21 -129 -13z"/>
 <path d="M2145 704 c-95 -52 -127 -64 -163 -64 -44 0 -60 -13 -43 -34 6 -7 8 -16 4 -19 -14 -15 31 -18 104 -7 178 25 222 44 177 77 -10 7 -19 23 -19 36 0 28 -22 32 -60 11z"/>
 <path d="M1795 591 c-7 -12 12 -24 25 -16 11 7 4 25 -10 25 -5 0 -11 -4 -15 -9z"/>
 </g>
<g id="layer104" fill="#fefefe" stroke="none">
 <path d="M1993 3301 c-18 -5 -54 -22 -80 -39 -26 -17 -301 -284 -610 -594 -642 -643 -618 -613 -611 -761 2 -61 9 -94 27 -129 33 -66 370 -400 431 -427 63 -29 197 -29 260 0 33 15 126 100 352 327 l308 307 787 -786 c540 -539 800 -792 827 -804 51 -23 153 -31 210 -16 73 18 120 56 303 242 198 201 212 224 213 340 0 153 92 50 -1088 1231 -1161 1162 -1101 1108 -1232 1114 -36 2 -79 -1 -97 -5z m160 -145 c46 -19 2087 -2065 2109 -2114 22 -46 23 -102 3 -149 -19 -46 -305 -337 -357 -364 -45 -23 -137 -25 -176 -5 -15 8 -391 379 -837 825 -445 446 -814 811 -820 811 -6 0 -161 -151 -345 -336 -185 -186 -349 -342 -367 -350 -46 -20 -127 -18 -171 5 -52 27 -338 318 -357 364 -19 47 -19 107 0 155 19 44 1063 1097 1134 1143 51 33 127 39 184 15z"/>
 </g>

</svg>