<svg width="290" height="67" viewBox="0 0 290 67" fill="none" xmlns="http://www.w3.org/2000/svg">
<g clip-path="url(#clip0_11895_142)">
<path d="M96.9492 4.50689C94.8492 4.50689 93.0492 4.40689 90.6492 4.40689C90.6492 5.00689 90.6492 5.80689 90.6492 6.20689V16.7069C90.6492 17.8069 90.6492 20.0069 90.7492 20.8069H85.7492C85.8492 19.4069 85.9492 15.7069 85.9492 13.8069V8.80689C85.9492 7.70689 85.9492 5.80688 85.8492 4.30689C83.4492 4.30689 81.4492 4.30689 79.4492 4.40689C79.5492 3.20689 79.5492 1.70689 79.5492 0.406885C82.2492 0.506885 84.9492 0.506885 88.2492 0.506885C91.5492 0.506885 94.3492 0.406885 97.0492 0.406885C97.0492 1.90689 96.9492 3.20689 96.9492 4.50689Z" fill="#00AB9B"/>
<path d="M101.049 21.5069C97.3493 21.6069 94.1493 18.7069 94.0493 15.0069C94.0493 14.8069 94.0493 14.7069 94.0493 14.5069C94.0493 10.1069 96.9493 6.80688 101.349 6.80688C105.049 6.70688 108.249 9.60689 108.349 13.3069C108.349 13.5069 108.349 13.6069 108.349 13.8069C108.449 18.2069 105.549 21.5069 101.049 21.5069ZM101.349 10.0069C99.5493 10.0069 98.3493 11.5069 98.3493 14.0069C98.3493 17.0069 99.5493 18.2069 101.249 18.2069C103.149 18.2069 104.249 16.7069 104.249 14.2069C104.249 11.2069 102.949 10.0069 101.349 10.0069Z" fill="#00AB9B"/>
<path d="M112.849 4.70689C111.549 4.80689 110.449 3.80689 110.349 2.50689V2.40689C110.349 1.00689 111.449 0.00688539 112.849 0.00688539H112.949C114.249 -0.0931146 115.349 0.906886 115.449 2.30689C115.449 3.60689 114.349 4.70689 112.949 4.70689C112.849 4.70689 112.849 4.70689 112.849 4.70689ZM110.349 21.0069C110.449 19.4069 110.549 17.9069 110.549 16.3069V12.2069C110.549 10.5069 110.449 8.50689 110.349 7.30689C111.349 7.30689 114.149 7.10689 115.049 7.00689C114.949 7.70689 114.949 9.10688 114.949 10.1069V18.2069C114.949 19.1069 114.949 20.1069 115.049 21.0069H110.349Z" fill="#00AB9B"/>
<path d="M126.449 20.6069C125.449 21.1069 124.349 21.4069 123.249 21.4069C120.349 21.4069 118.749 20.2069 118.749 16.6069V10.1069H116.349L117.049 7.00689H118.749L119.049 4.20689L123.049 2.90689V7.10688H126.549C126.449 7.70688 126.449 9.20689 126.449 10.2069H123.049V16.2069C123.049 17.6069 123.549 18.0069 124.549 18.0069C125.249 18.0069 125.949 17.8069 126.649 17.4069L126.449 20.6069Z" fill="#00AB9B"/>
<path d="M138.249 21.0069L137.749 18.6069C136.849 20.3069 135.049 21.4069 133.049 21.5069C130.049 21.5069 128.449 19.7069 128.449 16.3069V12.1069C128.449 10.5069 128.349 8.70688 128.349 7.30688C129.949 7.30688 131.649 7.20688 132.949 7.10688C132.849 8.20688 132.749 9.20689 132.849 10.3069V15.2069C132.849 17.2069 133.349 18.1069 134.949 18.1069C136.349 18.0069 137.549 16.9069 137.649 15.4069V12.1069C137.649 10.5069 137.549 8.70688 137.449 7.30688C139.049 7.30688 140.749 7.20688 142.149 7.10688C142.049 8.20688 141.949 9.20689 141.949 10.3069V16.2069C141.949 17.8069 142.049 19.4069 142.149 21.0069H138.249ZM140.249 4.30689C138.949 4.30689 137.949 4.20689 136.849 4.20689H133.849C132.449 4.20689 131.449 4.20689 130.449 4.30689C130.549 3.60688 130.549 2.20689 130.549 1.40689C132.149 1.50689 133.349 1.50689 135.549 1.50689C137.049 1.50689 138.849 1.50689 140.449 1.40689C140.349 2.20689 140.249 3.30689 140.249 4.30689Z" fill="#00AB9B"/>
<path d="M166.149 4.50689C164.049 4.50689 162.249 4.40689 159.849 4.40689C159.849 5.00689 159.849 5.80689 159.849 6.20689V16.7069C159.849 17.8069 159.849 20.0069 159.949 20.8069H154.949C155.049 19.4069 155.149 15.7069 155.149 13.8069V8.80689C155.149 7.70689 155.149 5.80688 155.049 4.30689C152.649 4.30689 150.649 4.30689 148.649 4.40689C148.749 3.20689 148.749 1.70689 148.749 0.406885C151.449 0.506885 154.149 0.506885 157.449 0.506885C160.749 0.506885 163.549 0.406885 166.349 0.406885C166.249 1.90689 166.149 3.20689 166.149 4.50689Z" fill="#00AB9B"/>
<path d="M176.149 14.7069L168.149 14.9069C168.249 17.0069 169.549 18.1069 171.849 18.1069C173.649 18.1069 175.449 17.5069 177.049 16.5069L176.949 19.8069C175.249 20.9069 173.349 21.4069 171.349 21.4069C166.349 21.4069 163.949 18.2069 163.949 14.3069C163.949 9.90689 166.949 6.70689 171.349 6.70689C175.749 6.70689 177.549 9.70689 177.549 13.5069L176.149 14.7069ZM173.649 12.7069C173.449 10.9069 172.749 9.90689 171.149 9.90689C169.449 9.90689 168.449 11.2069 168.149 12.9069L173.649 12.7069Z" fill="#00AB9B"/>
<path d="M206.849 15.5069C205.949 18.0069 205.449 19.5069 204.949 21.2069L201.949 21.5069L197.349 8.20688L194.649 16.2069C194.149 17.8069 193.449 19.5069 192.849 21.4069H189.849L184.749 6.70688C184.149 4.90689 183.349 2.60688 182.649 0.806885L187.649 0.606885L191.749 14.2069L194.549 5.40689C194.949 4.20689 195.749 1.80688 196.149 0.606885L198.949 0.306885L203.549 14.0069L206.049 5.40689L207.449 0.706885H212.249L206.849 15.5069Z" fill="#00AB9B"/>
<path d="M221.949 21.0069C222.049 19.8069 222.149 17.8069 222.149 16.1069V12.9069C222.149 11.2069 221.749 10.3069 220.349 10.3069C218.749 10.3069 217.449 11.6069 217.349 13.2069V18.2069C217.349 19.2069 217.349 20.1069 217.449 21.1069H212.849C212.949 19.9069 213.049 18.0069 213.049 16.3069V5.30689C213.049 3.60689 212.949 1.90689 212.849 0.706886C213.849 0.606886 216.649 0.406886 217.449 0.206886C217.349 1.00689 217.349 3.50689 217.349 4.00689V10.0069C218.349 8.20689 220.249 7.10689 222.349 6.90689C225.249 6.90689 226.549 8.70689 226.549 11.8069V18.1069C226.549 19.1069 226.649 20.3069 226.649 21.1069H221.949V21.0069Z" fill="#00AB9B"/>
<path d="M240.749 14.7069L232.749 14.9069C232.849 17.0069 234.149 18.1069 236.449 18.1069C238.349 18.1069 240.149 17.5069 241.649 16.5069L241.549 19.8069C239.849 20.9069 237.949 21.4069 235.949 21.4069C230.949 21.4069 228.549 18.2069 228.549 14.3069C228.549 9.90689 231.549 6.70689 235.949 6.70689C240.349 6.70689 242.149 9.70689 242.149 13.5069L240.749 14.7069ZM238.249 12.7069C238.049 10.9069 237.349 9.90689 235.749 9.90689C234.049 9.90689 233.049 11.2069 232.749 12.9069L238.249 12.7069Z" fill="#00AB9B"/>
<path d="M253.149 21.0069C253.249 19.8069 253.349 17.8069 253.349 16.1069V12.9069C253.349 11.2069 252.949 10.3069 251.549 10.3069C249.949 10.4069 248.649 11.6069 248.549 13.2069V18.1069C248.549 19.1069 248.549 20.1069 248.649 21.1069H244.049C244.149 19.9069 244.249 17.9069 244.249 16.2069V12.2069C244.249 10.5069 244.149 8.70689 244.049 7.40689C245.049 7.40689 247.449 7.10689 248.349 7.00689L248.549 9.90688C249.549 8.10688 251.449 6.90688 253.549 6.80688C256.449 6.80688 257.749 8.60688 257.749 11.7069V18.0069C257.749 19.0069 257.849 20.2069 257.849 21.0069H253.149Z" fill="#00AB9B"/>
<path d="M270.149 21.0069L269.649 18.6069C268.749 20.3069 266.949 21.4069 264.949 21.5069C261.949 21.5069 260.449 19.7069 260.449 16.3069V12.1069C260.449 10.5069 260.349 8.70689 260.349 7.30689C261.949 7.30689 263.649 7.20689 264.949 7.10689C264.849 8.20689 264.749 9.20689 264.849 10.3069V15.2069C264.849 17.2069 265.349 18.1069 266.949 18.1069C268.349 18.0069 269.549 16.9069 269.649 15.4069V12.1069C269.649 10.5069 269.549 8.70689 269.449 7.30689C271.049 7.30689 272.749 7.20689 274.149 7.10689C274.049 8.20689 273.949 9.20689 273.949 10.3069V16.2069C273.949 17.8069 274.049 19.4069 274.149 21.0069H270.149Z" fill="#00AB9B"/>
<path d="M275.949 17.5069C275.949 14.8069 278.349 12.9069 283.049 12.9069C283.349 12.9069 283.749 12.9069 284.149 13.0069V12.6069C284.249 11.1069 283.549 10.3069 281.749 10.3069C280.249 10.3069 278.849 10.8069 277.549 11.6069L276.949 8.40688C278.649 7.40688 280.649 6.90689 282.549 6.90689C286.549 6.90689 288.349 8.80688 288.249 12.4069L288.149 17.4069C288.149 18.2069 288.349 18.5069 288.949 18.5069C289.249 18.5069 289.549 18.4069 289.849 18.3069L289.649 20.9069C288.949 21.2069 288.149 21.3069 287.349 21.4069C285.949 21.4069 284.749 20.8069 284.349 19.1069C283.449 20.5069 281.849 21.4069 280.149 21.4069C277.549 21.3069 275.949 19.9069 275.949 17.5069ZM284.049 16.2069V14.9069C283.749 14.9069 283.449 14.8069 283.149 14.8069C280.849 14.8069 279.949 15.7069 279.949 16.9069C279.849 17.8069 280.549 18.5069 281.449 18.6069C281.549 18.6069 281.649 18.6069 281.749 18.6069C283.049 18.7069 283.949 17.7069 284.049 16.2069Z" fill="#00AB9B"/>
<path d="M94.2492 45.1069C92.8492 45.0069 91.2492 45.0069 89.5492 45.0069C87.8492 45.0069 86.1492 45.0069 84.6492 45.1069C84.7492 44.1069 84.7492 41.3069 84.7492 39.9069V35.2069C84.7492 33.8069 84.7492 31.1069 84.6492 30.1069C85.4492 30.1069 87.5492 30.1069 88.2492 30.0069C88.1492 30.6069 88.1492 32.3069 88.1492 33.1069V41.1069C88.1492 41.5069 88.1492 41.9069 88.1492 42.3069C88.6492 42.3069 89.2492 42.3069 89.8492 42.3069C91.4492 42.3069 92.8492 42.3069 94.2492 42.2069C94.3492 43.1069 94.2492 44.0069 94.2492 45.1069Z" fill="#00719A"/>
<path d="M95.3492 42.4069C95.3492 40.3069 97.0492 39.0069 100.549 39.0069C100.749 39.0069 101.049 39.0069 101.349 39.0069V38.7069C101.349 37.6069 100.949 37.0069 99.6492 37.0069C98.5492 37.0069 97.4492 37.4069 96.5492 37.9069L96.1492 35.5069C97.4492 34.8069 98.8492 34.4069 100.349 34.4069C103.249 34.4069 104.649 35.8069 104.549 38.5069L104.449 42.2069C104.449 42.8069 104.649 43.0069 105.049 43.0069C105.249 43.0069 105.449 43.0069 105.649 42.9069L105.449 44.8069C104.949 45.0069 104.349 45.1069 103.749 45.1069C102.649 45.2069 101.749 44.5069 101.549 43.4069C100.849 44.5069 99.6492 45.1069 98.4492 45.1069C96.6492 45.3069 95.3492 44.2069 95.3492 42.4069ZM101.349 41.5069V40.5069C101.149 40.5069 100.949 40.5069 100.649 40.5069C98.9492 40.5069 98.2492 41.2069 98.2492 42.1069C98.2492 42.8069 98.7492 43.3069 99.3492 43.4069C99.4492 43.4069 99.4492 43.4069 99.5492 43.4069C100.449 43.4069 101.249 42.7069 101.249 41.7069C101.349 41.6069 101.349 41.5069 101.349 41.5069Z" fill="#00719A"/>
<path d="M113.649 45.0069C113.749 44.1069 113.749 42.6069 113.749 41.4069V39.0069C113.749 37.8069 113.449 37.0069 112.349 37.0069C111.149 37.0069 110.249 38.0069 110.149 39.1069V42.7069C110.149 43.4069 110.149 44.3069 110.249 44.9069H106.849C106.949 44.0069 106.949 42.5069 106.949 41.3069V38.4069C106.949 37.2069 106.949 35.8069 106.849 34.9069C107.549 34.9069 109.349 34.7069 110.049 34.6069L110.249 36.7069C111.049 35.3069 112.449 34.5069 114.049 34.4069C116.149 34.4069 117.149 35.8069 117.149 38.0069V42.7069C117.149 43.4069 117.149 44.3069 117.249 44.9069H113.649V45.0069Z" fill="#00719A"/>
<path d="M125.949 35.2069V33.3069C125.949 32.1069 125.949 30.8069 125.849 29.9069C126.649 29.8069 128.649 29.6069 129.249 29.5069C129.149 30.1069 129.149 31.1069 129.149 31.8069V41.4069C129.149 42.6069 129.149 44.0069 129.349 44.9069H126.249L126.049 43.9069C125.349 44.8069 124.249 45.3069 123.149 45.3069C120.349 45.3069 118.649 42.9069 118.649 40.3069C118.649 37.0069 120.749 34.5069 123.749 34.5069C124.449 34.5069 125.249 34.7069 125.949 35.2069ZM121.849 40.0069C121.849 42.0069 122.849 43.0069 124.149 43.0069C124.849 43.0069 125.549 42.6069 125.949 42.0069V37.5069C125.449 37.1069 124.849 36.8069 124.249 36.9069C122.649 36.9069 121.849 38.3069 121.849 40.0069Z" fill="#00719A"/>
<path d="M136.349 45.0069C136.449 44.0069 136.549 41.3069 136.549 39.9069V35.2069C136.549 33.8069 136.549 31.1069 136.349 30.1069C137.149 30.1069 139.349 30.1069 140.049 30.0069C139.949 30.6069 139.949 32.3069 139.949 33.1069V41.9069C139.949 42.7069 139.949 44.4069 140.049 45.0069H136.349Z" fill="#00719A"/>
<path d="M149.349 45.0069C149.449 44.1069 149.549 42.6069 149.549 41.4069V39.0069C149.549 37.8069 149.249 37.0069 148.149 37.0069C146.949 37.0069 146.049 38.0069 145.949 39.1069V42.7069C145.949 43.4069 145.949 44.3069 146.049 44.9069H142.649C142.749 44.0069 142.749 42.5069 142.749 41.3069V38.4069C142.749 37.2069 142.749 35.8069 142.649 34.9069C143.349 34.9069 145.149 34.7069 145.849 34.6069L146.049 36.7069C146.849 35.4069 148.249 34.5069 149.749 34.4069C151.849 34.4069 152.849 35.8069 152.849 38.0069V42.7069C152.849 43.4069 152.849 44.3069 152.949 44.9069H149.349V45.0069Z" fill="#00719A"/>
<path d="M161.449 32.2069C161.149 32.1069 160.849 32.0069 160.449 32.0069C159.349 32.0069 158.749 32.7069 158.749 34.1069V34.8069H161.249C161.149 35.3069 161.149 36.3069 161.149 37.1069H158.749V43.0069C158.749 43.7069 158.749 44.4069 158.849 45.1069H155.449C155.549 43.9069 155.649 42.8069 155.649 41.6069V37.1069H153.849L154.349 34.8069H155.649V34.3069C155.649 31.4069 157.149 29.6069 159.949 29.6069C160.449 29.6069 160.849 29.7069 161.349 29.8069L161.449 32.2069Z" fill="#00719A"/>
<path d="M166.949 45.4069C164.149 45.5069 161.849 43.3069 161.849 40.6069C161.849 40.5069 161.849 40.4069 161.849 40.3069C161.849 37.0069 164.049 34.6069 167.249 34.6069C170.049 34.5069 172.349 36.6069 172.449 39.4069C172.449 39.5069 172.449 39.7069 172.449 39.8069C172.349 42.9069 170.249 45.4069 166.949 45.4069ZM167.149 36.9069C165.849 36.9069 164.949 38.0069 164.949 39.9069C164.949 42.1069 165.849 43.0069 167.049 43.0069C168.449 43.0069 169.249 41.9069 169.249 40.0069C169.249 37.8069 168.349 36.9069 167.149 36.9069Z" fill="#00719A"/>
<path d="M180.649 37.6069C179.049 37.4069 177.249 37.9069 177.249 39.7069V42.7069C177.249 43.4069 177.249 44.3069 177.349 44.9069H173.949C174.049 43.7069 174.049 42.5069 174.049 41.3069V38.2069C174.049 37.1069 174.049 36.0069 173.849 35.0069C174.949 34.9069 175.949 34.8069 177.049 34.6069L177.249 37.0069C177.849 35.5069 179.349 34.6069 180.849 34.5069L180.649 37.6069Z" fill="#00719A"/>
<path d="M194.849 45.0069C194.949 43.8069 194.949 42.6069 194.949 41.4069V39.0069C194.949 37.8069 194.649 37.0069 193.649 37.0069C192.549 37.0069 191.649 37.9069 191.649 38.9069V42.7069C191.649 43.4069 191.649 44.3069 191.749 44.9069H188.349C188.449 44.0069 188.449 42.5069 188.449 41.3069V39.0069C188.449 37.8069 188.249 37.0069 187.249 37.0069C186.149 37.0069 185.249 37.9069 185.249 39.0069V42.8069C185.249 43.5069 185.249 44.3069 185.349 45.0069H181.949C182.049 44.1069 182.049 42.6069 182.049 41.4069V38.5069C182.049 37.3069 182.049 35.9069 181.949 35.0069C182.649 35.0069 184.449 34.8069 185.149 34.7069L185.349 36.6069C186.049 35.4069 187.349 34.6069 188.749 34.5069C190.149 34.4069 191.349 35.3069 191.649 36.6069C192.349 35.3069 193.749 34.5069 195.149 34.5069C197.249 34.5069 198.249 35.9069 198.249 38.1069V42.8069C198.249 43.5069 198.249 44.3069 198.349 45.0069H194.849Z" fill="#00719A"/>
<path d="M199.749 42.4069C199.749 40.3069 201.449 39.0069 204.949 39.0069C205.149 39.0069 205.449 39.0069 205.749 39.0069V38.7069C205.749 37.6069 205.349 37.0069 204.049 37.0069C202.949 37.0069 201.849 37.4069 200.949 37.9069L200.549 35.5069C201.849 34.8069 203.249 34.4069 204.749 34.4069C207.649 34.4069 209.049 35.8069 208.949 38.5069L208.849 42.2069C208.849 42.8069 209.049 43.0069 209.449 43.0069C209.649 43.0069 209.849 43.0069 210.049 42.9069L209.949 44.8069C209.449 45.0069 208.849 45.1069 208.249 45.1069C207.149 45.2069 206.249 44.5069 206.049 43.4069C205.349 44.5069 204.149 45.1069 202.949 45.1069C200.949 45.3069 199.749 44.2069 199.749 42.4069ZM205.749 41.5069V40.5069C205.549 40.5069 205.349 40.5069 205.049 40.5069C203.349 40.5069 202.649 41.2069 202.649 42.1069C202.649 42.8069 203.149 43.3069 203.749 43.4069C203.849 43.4069 203.849 43.4069 203.949 43.4069C204.949 43.4069 205.649 42.7069 205.749 41.7069C205.749 41.6069 205.749 41.5069 205.749 41.5069Z" fill="#00719A"/>
<path d="M217.549 44.7069C216.849 45.1069 216.049 45.3069 215.149 45.3069C213.049 45.3069 211.749 44.4069 211.749 41.8069V37.0069H210.049L210.549 34.7069H211.849L212.049 32.6069L215.049 31.6069V34.7069H217.649C217.649 35.2069 217.549 36.2069 217.549 37.0069H215.049V41.4069C215.049 42.5069 215.449 42.7069 216.149 42.7069C216.649 42.7069 217.249 42.5069 217.649 42.2069L217.549 44.7069Z" fill="#00719A"/>
<path d="M220.949 33.0069C219.949 33.1069 219.149 32.4069 219.149 31.4069C219.149 31.4069 219.149 31.4069 219.149 31.3069C219.149 30.3069 219.949 29.5069 220.949 29.5069C220.949 29.5069 220.949 29.5069 221.049 29.5069C222.049 29.5069 222.849 30.2069 222.849 31.2069C222.849 32.2069 222.049 33.0069 220.949 33.0069C221.049 33.0069 220.949 33.0069 220.949 33.0069ZM219.149 45.0069C219.249 43.8069 219.349 42.7069 219.349 41.5069V38.5069C219.349 37.3069 219.349 36.1069 219.149 34.9069C219.949 34.9069 221.949 34.8069 222.549 34.7069C222.449 35.2069 222.449 36.2069 222.449 37.0069V43.0069C222.449 43.7069 222.449 44.4069 222.549 45.1069L219.149 45.0069Z" fill="#00719A"/>
<path d="M229.249 45.4069C226.449 45.5069 224.149 43.3069 224.149 40.6069C224.149 40.5069 224.149 40.4069 224.149 40.3069C224.149 37.0069 226.349 34.6069 229.549 34.6069C232.249 34.5069 234.649 36.7069 234.649 39.4069C234.649 39.5069 234.649 39.6069 234.649 39.8069C234.649 42.9069 232.549 45.4069 229.249 45.4069ZM229.449 36.9069C228.149 36.9069 227.249 38.0069 227.249 39.9069C227.249 42.1069 228.149 43.0069 229.349 43.0069C230.749 43.0069 231.549 41.9069 231.549 40.0069C231.549 37.8069 230.649 36.9069 229.449 36.9069Z" fill="#00719A"/>
<path d="M243.049 45.0069C243.149 43.8069 243.249 42.6069 243.249 41.4069V39.0069C243.249 37.8069 242.949 37.0069 241.949 37.0069C240.749 37.0069 239.849 38.0069 239.749 39.1069V42.7069C239.749 43.4069 239.749 44.2069 239.849 44.9069H236.449C236.549 44.0069 236.549 42.5069 236.549 41.3069V38.4069C236.549 37.2069 236.549 35.8069 236.449 34.9069C237.149 34.9069 238.949 34.7069 239.649 34.6069L239.849 36.7069C240.649 35.4069 242.049 34.5069 243.549 34.4069C245.649 34.4069 246.649 35.8069 246.649 38.0069V42.7069C246.649 43.4069 246.649 44.3069 246.749 44.9069H243.049V45.0069Z" fill="#00719A"/>
<path d="M84.7492 61.1069V56.2069C84.7492 54.8069 84.7492 52.2069 84.6492 51.2069L86.7492 51.0069L94.7492 60.6069V56.4069C94.7492 55.0069 94.7492 52.3069 94.5492 51.3069C95.3492 51.3069 97.3492 51.3069 98.0492 51.2069C97.9492 51.8069 97.9492 53.5069 97.9492 54.3069L98.0492 63.3069C98.0492 64.1069 98.0492 65.8069 98.0492 66.4069L96.0492 66.6069L88.0492 57.0069V63.2069C88.0492 64.0069 88.0492 65.7069 88.1492 66.3069H84.6492C84.6492 65.2069 84.7492 62.5069 84.7492 61.1069Z" fill="#00719A"/>
<path d="M109.249 61.7069L103.349 61.9069C103.449 63.5069 104.349 64.3069 106.049 64.3069C107.449 64.3069 108.749 63.9069 109.849 63.1069V65.5069C108.649 66.3069 107.149 66.7069 105.749 66.7069C102.049 66.7069 100.349 64.3069 100.349 61.5069C100.349 58.2069 102.549 55.9069 105.749 55.9069C108.949 55.9069 110.349 58.1069 110.349 60.9069L109.249 61.7069ZM107.349 60.1069C107.249 58.7069 106.649 58.0069 105.549 58.0069C104.449 58.0069 103.449 58.9069 103.349 60.2069L107.349 60.1069Z" fill="#00719A"/>
<path d="M112.949 62.9069L111.949 60.2069C111.449 58.9069 110.849 57.2069 110.449 56.3069C110.749 56.3069 113.249 56.1069 113.649 56.1069L115.549 62.1069L116.349 59.8069L117.549 56.2069L119.649 56.1069L121.749 62.1069L122.549 59.8069C122.649 59.4069 123.449 56.8069 123.649 56.2069C124.849 56.2069 125.749 56.2069 126.749 56.1069L122.949 66.4069L120.749 66.5069C120.449 65.4069 119.949 64.1069 119.449 62.7069L118.649 60.6069L116.549 66.5069L114.249 66.6069C113.849 65.4069 113.449 64.2069 112.949 62.9069Z" fill="#00719A"/>
<path d="M144.449 52.7069L136.449 63.6069H139.049C140.849 63.6069 142.949 63.6069 144.149 63.5069C144.049 64.4069 143.949 65.3069 143.949 66.3069C142.649 66.2069 140.249 66.2069 138.149 66.2069C135.749 66.2069 133.449 66.2069 131.849 66.3069L131.549 64.7069L139.549 53.9069H137.249C135.349 53.9069 133.649 53.9069 132.249 53.9069C132.349 53.1069 132.449 52.0069 132.549 51.1069C134.649 51.2069 135.549 51.2069 138.349 51.2069C141.049 51.2069 142.749 51.2069 144.149 51.1069L144.449 52.7069Z" fill="#00719A"/>
<path d="M154.249 61.7069L148.349 61.9069C148.449 63.5069 149.349 64.3069 151.049 64.3069C152.449 64.3069 153.749 63.9069 154.849 63.1069L154.749 65.5069C153.549 66.3069 152.049 66.7069 150.649 66.7069C146.949 66.7069 145.249 64.3069 145.249 61.5069C145.249 58.2069 147.449 55.9069 150.649 55.9069C153.849 55.9069 155.249 58.1069 155.249 60.9069L154.249 61.7069ZM152.449 60.1069C152.349 58.7069 151.749 58.0069 150.649 58.0069C149.549 58.0069 148.549 58.9069 148.449 60.2069L152.449 60.1069Z" fill="#00719A"/>
<path d="M156.149 63.7069C156.149 61.6069 157.849 60.3069 161.349 60.3069C161.549 60.3069 161.849 60.3069 162.149 60.3069V60.0069C162.149 58.9069 161.749 58.3069 160.449 58.3069C159.349 58.3069 158.249 58.7069 157.349 59.2069L156.949 56.8069C158.249 56.1069 159.649 55.7069 161.149 55.7069C164.049 55.7069 165.449 57.1069 165.349 59.8069L165.249 63.5069C165.249 64.1069 165.449 64.3069 165.849 64.3069C166.049 64.3069 166.249 64.3069 166.449 64.2069L166.249 66.1069C165.749 66.3069 165.149 66.4069 164.549 66.4069C163.449 66.5069 162.549 65.8069 162.349 64.7069C161.649 65.8069 160.449 66.4069 159.249 66.4069C157.349 66.5069 156.149 65.5069 156.149 63.7069ZM162.149 62.8069V61.8069C161.949 61.8069 161.649 61.8069 161.449 61.8069C159.749 61.8069 159.049 62.5069 159.049 63.4069C159.049 64.1069 159.549 64.6069 160.149 64.7069C160.249 64.7069 160.249 64.7069 160.349 64.7069C161.349 64.7069 162.049 64.0069 162.149 63.0069C162.149 62.8069 162.149 62.8069 162.149 62.8069Z" fill="#00719A"/>
<path d="M167.649 66.3069C167.749 65.4069 167.749 64.0069 167.749 62.7069V54.6069C167.749 53.4069 167.749 52.1069 167.649 51.2069C168.349 51.2069 170.449 50.9069 171.049 50.8069C170.949 51.4069 170.949 53.2069 170.949 53.6069V64.1069C170.949 64.8069 170.949 65.7069 171.049 66.2069H167.649V66.3069Z" fill="#00719A"/>
<path d="M172.549 63.7069C172.549 61.6069 174.249 60.3069 177.749 60.3069C177.949 60.3069 178.249 60.3069 178.549 60.3069V60.0069C178.549 58.9069 178.149 58.3069 176.849 58.3069C175.749 58.3069 174.649 58.7069 173.749 59.2069L173.349 56.8069C174.649 56.1069 176.049 55.7069 177.549 55.7069C180.449 55.7069 181.849 57.1069 181.749 59.8069L181.649 63.5069C181.649 64.1069 181.849 64.3069 182.249 64.3069C182.449 64.3069 182.649 64.3069 182.849 64.2069L182.749 66.1069C182.249 66.3069 181.649 66.4069 181.049 66.4069C180.049 66.5069 179.049 65.8069 178.849 64.7069C178.149 65.8069 177.049 66.4069 175.749 66.4069C173.749 66.5069 172.549 65.5069 172.549 63.7069ZM178.449 62.8069V61.8069C178.249 61.8069 178.049 61.8069 177.749 61.8069C176.049 61.8069 175.349 62.5069 175.349 63.4069C175.349 64.1069 175.849 64.6069 176.449 64.7069C176.549 64.7069 176.549 64.7069 176.649 64.7069C177.549 64.7069 178.349 64.0069 178.449 63.0069C178.449 62.9069 178.449 62.8069 178.449 62.8069Z" fill="#00719A"/>
<path d="M190.749 66.3069C190.849 65.1069 190.949 63.9069 190.949 62.7069V60.3069C190.949 59.1069 190.649 58.3069 189.649 58.3069C188.449 58.3069 187.549 59.3069 187.449 60.4069V64.0069C187.449 64.7069 187.449 65.5069 187.549 66.2069H184.049C184.149 65.3069 184.149 63.8069 184.149 62.6069V59.7069C184.149 58.5069 184.149 57.1069 184.049 56.2069C184.749 56.2069 186.549 56.0069 187.249 55.9069L187.349 58.0069C188.149 56.7069 189.549 55.8069 191.049 55.7069C193.149 55.7069 194.149 57.1069 194.149 59.3069V64.0069C194.149 64.7069 194.149 65.6069 194.249 66.2069L190.749 66.3069Z" fill="#00719A"/>
<path d="M203.049 56.4069V54.5069C203.049 53.3069 203.049 52.0069 202.949 51.1069C203.749 51.0069 205.749 50.8069 206.349 50.7069C206.249 51.3069 206.249 52.3069 206.249 53.0069V62.6069C206.249 63.8069 206.249 65.0069 206.449 66.1069H203.349L203.249 65.0069C202.549 65.9069 201.449 66.4069 200.349 66.4069C197.549 66.4069 195.849 64.0069 195.849 61.4069C195.849 58.1069 197.949 55.6069 200.949 55.6069C201.549 55.7069 202.349 56.0069 203.049 56.4069ZM198.949 61.3069C198.949 63.4069 199.949 64.3069 201.249 64.3069C201.949 64.3069 202.649 63.9069 203.049 63.3069V58.8069C202.549 58.4069 201.949 58.1069 201.349 58.2069C199.849 58.1069 198.949 59.6069 198.949 61.3069Z" fill="#00719A"/>
<path d="M74.0492 14.0069C73.5492 13.0069 72.5492 12.4069 71.4492 12.3069L70.3492 12.2069C70.4492 12.1069 70.4492 12.0069 70.5492 11.8069C71.4492 10.3069 70.9492 8.40689 69.4492 7.40689C69.0492 7.10689 68.5492 7.00689 68.0492 7.00689H67.8492H67.7492H67.6492H67.4492H67.3492L65.8492 6.90689C65.8492 5.20689 64.5492 3.80689 62.9492 3.70689H62.3492H62.2492C56.4492 3.20689 50.4492 2.90689 44.6492 2.90689C43.3492 2.90689 41.3492 2.90689 40.0492 3.00689L39.7492 2.70689C39.4492 2.30689 39.1492 1.90689 38.8492 1.50689C38.5492 1.10689 38.1492 0.706886 37.6492 0.506886C37.1492 0.206886 36.6492 0.106886 36.0492 0.106886H35.3492H34.8492C32.4492 0.206886 30.2492 0.306886 27.9492 0.506886H27.7492C25.5492 0.706886 23.6492 0.806886 21.8492 1.00689C21.1492 1.10689 20.4492 1.40689 19.9492 1.90689C16.9492 4.90689 14.0492 9.40689 11.0492 15.1069V15.2069C10.9492 15.3069 10.9492 15.5069 10.8492 15.6069C9.74925 17.8069 8.64925 20.1069 7.64925 22.5069C7.64925 22.5069 7.64925 22.5069 7.64925 22.6069L7.44925 22.9069C6.54925 25.1069 5.64925 27.4069 4.74925 29.8069V29.9069L4.64925 30.2069L4.54925 30.4069V30.5069C3.74925 32.7069 3.04925 34.9069 2.34925 37.2069V37.3069L2.24925 37.6069V37.7069V37.8069C1.34925 40.6069 0.649246 43.3069 0.149246 45.8069V45.9069V46.1069L0.0492464 46.4069C-0.250754 48.1069 0.849246 49.8069 2.54925 50.1069C2.74925 50.1069 2.94925 50.2069 3.14925 50.2069H3.24925C3.14925 50.6069 3.04925 51.0069 2.94925 51.4069V51.5069L2.84925 52.1069C2.44925 53.8069 3.54925 55.5069 5.34925 55.9069C5.64925 55.9069 5.84925 55.9069 6.04925 55.9069H6.14925C6.04925 56.3069 5.94925 56.7069 5.84925 57.1069V57.2069V57.3069V57.4069V57.5069V57.7069C5.44925 59.4069 6.54925 61.1069 8.34925 61.5069C8.54925 61.5069 8.64925 61.6069 8.84925 61.6069H9.04925C8.94925 61.9069 8.94925 62.3069 8.84925 62.6069C8.54925 64.3069 9.64925 66.0069 11.3492 66.3069C11.5492 66.3069 11.7492 66.4069 11.9492 66.4069C12.1492 66.4069 12.2492 66.4069 12.4492 66.4069C18.7492 65.6069 25.0492 65.2069 31.3492 65.2069C39.6492 65.2069 47.9492 65.7069 56.1492 66.7069C56.2492 66.7069 56.4492 66.7069 56.5492 66.7069C58.1492 66.7069 59.4492 65.6069 59.6492 64.0069C61.8492 49.3069 66.7492 29.3069 74.0492 17.0069C74.5492 16.2069 74.5492 15.0069 74.0492 14.0069Z" fill="white"/>
<path d="M71.2493 15.7069C56.7493 14.5069 43.0493 14.8069 33.3493 15.9069C24.2493 25.2069 14.8493 48.0069 11.7493 63.7069C22.0493 62.2069 39.1493 61.9069 56.4493 64.1069C58.5493 49.7069 63.5493 28.8069 71.2493 15.7069Z" fill="url(#paint0_linear_11895_142)"/>
<path d="M67.6493 10.4069C53.1493 9.20689 39.5493 9.50689 29.7493 10.7069C20.6493 20.0069 11.8493 43.0069 8.74927 58.6069C19.1493 57.1069 34.6493 56.6069 51.2493 58.1069C54.0493 41.8069 59.4493 24.2069 67.6493 10.4069Z" fill="url(#paint1_linear_11895_142)"/>
<path d="M8.64923 58.8069L8.74923 58.2069C20.1492 56.5069 35.8492 56.3069 50.9492 57.7069C54.1492 39.5069 59.8492 22.8069 67.2492 10.3069H67.8492C60.4492 22.9069 54.5492 40.0069 51.4492 58.2069V58.5069H51.2492C36.0492 57.0069 20.0492 57.2069 8.64923 58.8069Z" fill="white"/>
<path d="M46.6492 31.3069L48.1492 27.3069L55.2492 19.2069C55.5492 19.1069 55.8492 19.1069 56.1492 19.1069C57.9492 14.9069 60.0492 10.9069 62.3492 7.00689C48.4492 5.80689 35.3492 6.10688 25.9492 7.20688C17.3492 16.0069 8.74924 38.0069 5.84924 52.8069C11.2492 52.1069 16.6492 51.6069 22.0492 51.5069C21.7492 51.3069 21.9492 50.1069 21.9492 50.0069C22.3492 48.4069 23.4492 47.2069 24.9492 45.9069C26.4492 44.6069 25.7492 43.8069 26.9492 43.3069C29.4492 42.2069 31.8492 40.8069 34.0492 39.2069C36.8492 37.1069 37.8492 30.0069 37.9492 30.5069C38.0492 31.0069 39.0492 30.8069 39.0492 31.2069C39.0492 31.6069 39.3492 32.4069 39.5492 32.5069C39.7492 32.6069 40.5492 30.4069 42.4492 30.3069C43.6492 30.4069 44.8492 30.8069 45.7492 31.6069C45.8492 31.6069 46.5492 31.5069 46.5492 31.5069L46.6492 31.3069Z" fill="url(#paint2_linear_11895_142)"/>
<path d="M55.9492 20.0069L55.4492 19.7069L55.8492 19.0069C57.6492 14.9069 59.7492 10.8069 62.0492 7.00689H62.6492C60.2492 10.9069 58.1492 15.0069 56.3492 19.2069L55.9492 20.0069Z" fill="white"/>
<path d="M37.8492 6.00689C37.6492 6.10689 37.9492 6.20688 38.3492 6.70688C38.8492 7.30688 39.2492 8.00689 39.5492 8.80689C39.5492 9.20689 39.0492 9.00688 39.6492 9.60688C40.1492 10.2069 41.9492 12.8069 42.1492 13.3069C42.3492 13.8069 42.6492 13.6069 42.6492 13.4069C42.6492 13.1069 42.9492 13.6069 43.0492 13.9069C43.0492 14.1069 42.8492 14.0069 42.8492 14.1069C42.8492 14.2069 43.4492 14.9069 43.8492 16.2069C44.3492 17.6069 44.8492 18.3069 44.7492 19.7069C44.6492 21.0069 44.3492 23.0069 43.3492 23.5069C42.3492 24.0069 41.4492 24.1069 41.5492 25.1069C41.6492 26.1069 42.6492 26.2069 43.3492 26.7069C44.0492 27.2069 45.1492 27.0069 45.5492 28.0069C45.9492 29.0069 45.4492 30.7069 44.7492 31.4069C44.0492 32.1069 43.8492 32.5069 44.1492 32.8069C44.4492 33.1069 44.7492 33.1069 45.0492 33.0069C45.3492 32.9069 45.5492 33.1069 45.5492 33.5069C45.5492 33.9069 45.7492 34.0069 46.8492 33.3069C47.9492 32.6069 48.4492 31.2069 49.3492 30.2069C50.1492 29.2069 50.7492 28.1069 51.3492 27.0069C51.4492 26.8069 51.4492 26.7069 51.0492 26.6069C50.6492 26.5069 50.5492 26.1069 50.6492 25.7069V25.6069C51.0492 24.7069 51.8492 24.6069 52.5492 24.4069C52.9492 24.3069 53.2492 24.3069 53.6492 24.4069C53.9492 24.7069 53.7492 25.2069 53.8492 25.1069C54.0492 24.9069 54.1492 24.7069 54.2492 24.4069C54.2492 24.3069 54.2492 24.3069 54.1492 24.2069C54.0492 24.2069 53.8492 23.9069 54.0492 23.3069C54.3492 22.5069 55.2492 22.8069 55.4492 21.4069C55.7492 20.1069 56.4492 19.3069 56.0492 18.8069C55.6492 18.3069 54.8492 18.5069 54.1492 18.7069C53.5492 19.0069 52.7492 20.3069 51.8492 20.0069C50.9492 19.7069 48.8492 19.1069 48.5492 18.5069C48.1492 17.4069 47.8492 16.3069 47.6492 15.2069C47.5492 14.4069 46.9492 14.7069 46.6492 14.3069C46.3492 13.9069 46.1492 14.6069 46.2492 15.3069C46.3492 16.0069 47.0492 16.7069 46.5492 17.0069C46.0492 17.3069 45.7492 16.0069 45.1492 15.7069C44.5492 15.4069 44.2492 15.1069 44.3492 13.8069C44.4492 12.5069 43.2492 12.3069 43.4492 11.6069C43.6492 10.9069 43.8492 10.2069 42.3492 9.20688C40.8492 8.20688 40.2492 8.40689 39.7492 7.90689C39.2492 7.40689 38.7492 7.10688 38.7492 6.60688C38.7492 6.10688 39.1492 5.90688 38.3492 6.10688C38.1492 6.00688 38.0492 5.90689 37.8492 6.00689Z" fill="white"/>
<path d="M42.2493 35.1069C42.5493 34.8069 42.7493 34.4069 42.8493 34.0069C42.9493 33.8069 42.1493 33.8069 42.1493 33.3069C42.1493 32.7069 42.5493 32.2069 42.5493 31.9069C42.5493 31.7069 42.3493 31.8069 42.2493 31.8069C42.1493 31.8069 41.9493 31.7069 41.9493 31.6069C41.8493 31.3069 41.5493 31.3069 40.9493 31.5069C40.3493 31.7069 39.7493 32.5069 39.5493 32.4069C39.3493 32.4069 39.0493 31.5069 39.0493 31.1069C39.0493 30.7069 37.9493 30.9069 38.0493 30.3069C38.0493 30.1069 38.1493 29.9069 38.2493 29.8069C38.2493 29.8069 38.3493 29.7069 38.2493 29.6069C37.4493 29.5069 36.8493 30.4069 36.4493 30.8069C36.0493 31.2069 37.0493 32.6069 36.0493 33.4069C35.0493 34.2069 34.6493 34.0069 34.5493 34.4069C34.2493 36.4069 33.2493 38.2069 31.6493 39.3069C28.9493 41.5069 27.4493 42.8069 26.2493 43.3069C25.0493 43.8069 24.8493 45.4069 23.4493 46.7069C22.0493 48.0069 21.1493 50.9069 21.9493 51.7069C22.5493 52.2069 23.3493 52.4069 24.0493 52.1069C24.4493 52.0069 24.8493 52.1069 25.1493 52.4069C25.3493 52.7069 26.0493 52.3069 26.4493 52.7069C27.0493 53.1069 27.8493 53.3069 28.5493 53.2069C29.5493 53.1069 31.2493 52.3069 32.6493 50.1069C34.0493 47.8069 33.8493 45.8069 34.1493 45.0069C34.5493 43.9069 35.4493 43.0069 36.6493 42.6069C37.8493 42.3069 38.0493 42.1069 38.4493 42.3069C38.8493 42.5069 39.7493 42.6069 39.6493 41.9069C39.5493 41.2069 38.5493 41.4069 38.5493 40.8069C38.5493 40.2069 38.3493 39.8069 39.1493 39.4069C39.9493 39.1069 40.3493 38.0069 40.8493 37.1069C41.1493 36.2069 41.7493 35.9069 42.2493 35.1069Z" fill="white"/>
<path d="M45.5493 27.8069C45.4493 27.7069 45.3493 27.5069 45.2493 27.4069C45.1493 27.3069 45.0493 27.2069 44.9493 27.2069C44.4493 26.9069 43.7493 26.9069 43.3493 26.5069C42.6493 25.9069 41.6493 25.9069 41.5493 24.9069C41.4493 23.9069 42.3493 23.8069 43.3493 23.3069C44.3493 22.8069 44.6493 20.9069 44.7493 19.5069C44.8493 18.2069 44.3493 17.4069 43.8493 16.0069C43.3493 14.8069 42.8493 14.1069 42.8493 13.9069C42.8493 13.7069 43.0493 13.9069 43.0493 13.7069C42.9493 13.4069 42.6493 13.1069 42.6493 13.2069C42.6493 13.3069 42.3493 13.6069 42.1493 13.1069C41.8493 12.7069 40.0493 10.0069 39.6493 9.40689C39.2493 8.80689 39.5493 9.00689 39.5493 8.60688C39.2493 7.80688 38.8493 7.10689 38.3493 6.50689C38.2493 6.30689 38.0493 6.20689 37.9493 6.00689C37.8493 6.00689 37.8493 6.00689 37.9493 6.00689C37.8493 5.90689 37.8493 5.90689 37.8493 5.80689C37.4493 4.90689 36.9493 4.10689 36.3493 3.30689C36.2493 3.20689 36.1493 3.10689 35.9493 3.00689C31.0493 3.10689 25.7493 3.50689 21.9493 3.90689C13.8493 12.5069 5.84926 32.6069 3.04926 46.8069C7.24926 46.2069 16.1493 45.5069 22.2493 45.4069H23.0493H23.8493H24.7493C25.2493 44.5069 25.6493 43.8069 26.3493 43.5069C27.4493 43.0069 29.0493 41.7069 31.7493 39.5069C33.3493 38.3069 34.4493 36.5069 34.6493 34.6069C34.7493 34.2069 35.1493 34.4069 36.1493 33.6069C37.1493 32.8069 36.1493 31.3069 36.5493 30.9069C36.9493 30.5069 37.5493 29.6069 38.3493 29.7069C38.4493 29.7069 38.3493 29.8069 38.3493 29.9069C38.2493 30.1069 38.1493 30.2069 38.1493 30.4069C38.1493 30.9069 39.1493 30.7069 39.1493 31.2069C39.1493 31.6069 39.4493 32.5069 39.6493 32.5069C39.8493 32.5069 40.3493 31.8069 41.0493 31.6069L41.2493 31.5069C41.3493 31.5069 41.4493 31.4069 41.5493 31.4069C42.1493 31.4069 42.7493 31.5069 43.3493 31.8069C43.6493 32.0069 43.8493 32.2069 44.0493 32.5069C44.0493 32.3069 44.2493 31.9069 44.7493 31.4069C45.4493 30.5069 45.9493 28.7069 45.5493 27.8069Z" fill="url(#paint3_linear_11895_142)"/>
<path d="M21.6493 51.3069C16.3493 51.4069 11.1493 51.9069 5.84927 52.6069L5.74927 53.2069C11.1493 52.5069 16.5493 52.1069 22.0493 51.9069L21.9493 51.8069C21.8493 51.6069 21.7493 51.4069 21.6493 51.3069Z" fill="white"/>
<path d="M24.6492 45.3069H23.7492H22.9492H22.1492C16.0492 45.4069 7.14924 46.1069 2.94924 46.7069V46.8069V47.0069L2.84924 47.3069C6.94924 46.7069 16.0492 46.0069 22.1492 45.9069H23.0492H24.2492C24.3492 45.8069 24.4492 45.7069 24.5492 45.5069L24.6492 45.3069Z" fill="white"/>
<path d="M25.3493 53.4069C24.8493 53.2069 25.0493 53.7069 25.0493 54.1069C25.0493 54.5069 24.8493 54.4069 24.7493 54.8069C24.6493 55.1069 24.5493 55.5069 24.6493 55.7069C24.7493 55.9069 24.8493 55.9069 25.1493 55.6069C25.4493 55.3069 25.4493 55.3069 25.8493 55.3069C26.2493 55.3069 26.4493 55.2069 26.4493 54.7069C26.2493 54.0069 25.8493 53.6069 25.3493 53.4069Z" fill="white"/>
<path d="M8.54926 46.2069H8.94926C9.64926 43.5069 10.2493 40.9069 11.0493 38.5069C12.9493 38.4069 15.2493 38.3069 17.6493 38.2069C16.9493 40.6069 16.2493 43.1069 15.5493 45.8069H16.0493C16.7493 43.1069 17.3493 40.6069 18.1493 38.3069C20.2493 38.2069 22.4493 38.1069 24.7493 38.1069C24.0493 40.5069 23.3493 43.0069 22.6493 45.6069H22.8493H23.0493C23.6493 43.0069 24.3493 40.5069 25.1493 38.1069C27.3493 38.1069 29.5493 38.1069 31.7493 38.1069C31.5493 38.7069 31.3493 39.3069 31.2493 39.9069C31.3493 39.8069 31.4493 39.7069 31.6493 39.6069L31.8493 39.4069C31.9493 38.9069 32.1493 38.5069 32.2493 38.0069H33.1493C33.2493 37.9069 33.3493 37.7069 33.4493 37.6069H32.3493C33.0493 35.2069 33.8493 32.9069 34.6493 30.7069H36.7493C36.8493 30.6069 36.9493 30.5069 37.1493 30.3069C36.4493 30.3069 35.6493 30.3069 34.8493 30.2069C35.7493 27.7069 36.6493 25.5069 37.5493 23.3069C39.3493 23.3069 41.1493 23.4069 42.9493 23.5069C43.1493 23.4069 43.3493 23.3069 43.4493 23.2069C43.5493 23.2069 43.5493 23.1069 43.6493 23.1069C41.7493 23.0069 39.7493 22.9069 37.7493 22.9069C38.8493 20.4069 39.9493 18.1069 40.9493 16.0069C41.9493 16.0069 43.0493 16.0069 44.0493 16.1069L43.9493 15.9069H43.7493C42.8493 15.9069 41.9493 15.8069 41.0493 15.8069C41.4493 15.0069 41.8493 14.3069 42.2493 13.5069C42.1493 13.4069 42.1493 13.4069 42.1493 13.3069L42.0493 13.2069C41.5493 14.0069 41.1493 14.9069 40.6493 15.8069C38.4493 15.8069 36.2493 15.8069 34.0493 15.8069C35.4493 13.1069 36.7493 10.8069 38.0493 8.90688H39.5493V8.80688C39.5493 8.70688 39.5493 8.60688 39.4493 8.50688H38.2493C38.4493 8.10688 38.7493 7.80688 38.9493 7.50688C38.8493 7.40688 38.7493 7.30688 38.7493 7.10688C38.4493 7.50688 38.1493 8.00688 37.8493 8.50688C35.5493 8.50688 33.3493 8.60688 31.3493 8.70688C32.5493 6.80688 33.9493 5.00688 35.4493 3.30688H34.9493C33.4493 5.00688 32.1493 6.80688 30.9493 8.70688C28.5493 8.80688 26.3493 8.90688 24.4493 9.00688C25.6493 7.10688 27.0493 5.30688 28.5493 3.50688H27.9493C26.4493 5.20688 25.1493 7.00688 23.9493 8.90688C20.9493 9.10688 18.8493 9.20688 18.0493 9.30688C17.9493 9.40688 17.8493 9.60688 17.7493 9.70688C18.1493 9.70688 20.3493 9.50688 23.6493 9.30688C22.4493 11.1069 21.1493 13.4069 19.6493 16.2069C16.6493 16.4069 14.5493 16.6069 13.7493 16.6069L13.5493 17.0069C14.0493 17.0069 16.2493 16.8069 19.4493 16.6069C18.3493 18.6069 17.3493 20.9069 16.2493 23.4069C13.4493 23.6069 11.3493 23.7069 10.4493 23.8069L10.2493 24.2069C10.9493 24.1069 13.1493 24.0069 16.0493 23.8069C15.1493 25.9069 14.2493 28.2069 13.3493 30.7069C10.4493 30.9069 8.34926 31.1069 7.64926 31.1069L7.54926 31.5069C8.04926 31.5069 10.1493 31.3069 13.2493 31.1069C12.4493 33.2069 11.7493 35.5069 10.9493 38.0069C8.04926 38.2069 5.94926 38.3069 5.24926 38.4069C5.04926 38.6069 5.04926 38.8069 5.04926 38.9069C5.54926 38.9069 7.64926 38.7069 10.7493 38.5069C9.94926 40.9069 9.24926 43.4069 8.54926 46.2069ZM24.8493 37.4069C22.5493 37.4069 20.3493 37.5069 18.2493 37.6069C18.9493 35.2069 19.7493 32.9069 20.5493 30.7069C22.6493 30.6069 24.8493 30.5069 27.1493 30.5069C26.3493 32.8069 25.6493 35.0069 24.8493 37.4069ZM29.9493 23.4069C29.0493 25.5069 28.1493 27.8069 27.2493 30.3069C24.9493 30.3069 22.7493 30.4069 20.6493 30.5069C21.5493 28.0069 22.4493 25.8069 23.3493 23.6069C25.4493 23.5069 27.6493 23.4069 29.9493 23.4069ZM23.5493 23.1069C24.6493 20.6069 25.7493 18.3069 26.8493 16.2069C28.9493 16.1069 31.1493 16.0069 33.4493 16.0069C32.4493 18.1069 31.3493 20.3069 30.2493 22.9069C27.8493 23.0069 25.6493 23.1069 23.5493 23.1069ZM31.9493 37.4069C29.7493 37.4069 27.5493 37.4069 25.3493 37.4069C26.0493 35.0069 26.8493 32.7069 27.6493 30.5069C29.8493 30.5069 32.0493 30.5069 34.2493 30.5069C33.4493 32.7069 32.6493 35.0069 31.9493 37.4069ZM34.3493 30.2069C32.1493 30.2069 29.9493 30.2069 27.7493 30.2069C28.6493 27.7069 29.5493 25.5069 30.4493 23.3069C32.6493 23.3069 34.8493 23.3069 37.0493 23.3069C36.1493 25.5069 35.2493 27.7069 34.3493 30.2069ZM40.4493 16.1069C39.4493 18.2069 38.3493 20.4069 37.2493 23.0069C35.0493 23.0069 32.8493 23.0069 30.6493 23.0069C31.7493 20.5069 32.8493 18.2069 33.8493 16.1069C35.9493 16.1069 38.2493 16.1069 40.4493 16.1069ZM30.9493 9.10688C33.0493 9.00688 35.2493 8.90688 37.4493 8.90688C36.2493 10.8069 34.9493 13.0069 33.5493 15.8069C31.2493 15.8069 29.0493 15.9069 26.9493 16.0069C28.4493 13.2069 29.7493 10.9069 30.9493 9.10688ZM23.9493 9.40688C25.8493 9.30688 28.0493 9.20688 30.5493 9.10688C29.3493 10.9069 28.0493 13.2069 26.5493 16.0069C24.1493 16.1069 21.8493 16.2069 19.9493 16.3069C21.3493 13.5069 22.7493 11.3069 23.9493 9.40688ZM19.7493 16.7069C21.6493 16.6069 23.9493 16.5069 26.3493 16.4069C25.3493 18.5069 24.2493 20.7069 23.1493 23.3069C20.7493 23.4069 18.4493 23.5069 16.5493 23.6069C17.5493 21.0069 18.6493 18.7069 19.7493 16.7069ZM16.3493 23.9069C18.2493 23.8069 20.5493 23.7069 22.9493 23.6069C22.0493 25.7069 21.1493 28.0069 20.2493 30.5069C17.7493 30.6069 15.5493 30.7069 13.6493 30.8069C14.4493 28.3069 15.4493 26.0069 16.3493 23.9069ZM13.4493 31.2069C15.3493 31.1069 17.6493 31.0069 20.0493 30.9069C19.2493 33.0069 18.5493 35.3069 17.8493 37.7069C15.3493 37.8069 13.1493 37.9069 11.2493 38.0069C11.9493 35.6069 12.6493 33.3069 13.4493 31.2069Z" fill="url(#paint4_linear_11895_142)"/>
<path opacity="0.4" d="M41.7492 30.5069C42.2492 29.1069 42.7492 27.8069 43.2492 26.5069C43.1492 26.4069 43.0492 26.3069 42.9492 26.3069C42.4492 27.7069 41.8492 29.0069 41.3492 30.5069C40.3492 30.4069 39.2492 30.4069 38.1492 30.3069C38.1492 30.6069 38.4492 30.6069 38.7492 30.7069C39.5492 30.7069 40.3492 30.8069 41.1492 30.8069L41.0492 31.5069C41.1492 31.4069 41.3492 31.4069 41.4492 31.4069L41.6492 31.0069C42.7492 31.1069 43.8492 31.2069 44.8492 31.3069C44.9492 31.2069 45.0492 31.1069 45.0492 30.9069C44.0492 30.7069 42.9492 30.6069 41.7492 30.5069Z" fill="url(#paint5_linear_11895_142)"/>
</g>
<defs>
<linearGradient id="paint0_linear_11895_142" x1="26.4511" y1="29.3933" x2="61.89" y2="64.838" gradientUnits="userSpaceOnUse">
<stop stop-color="#73C8E1"/>
<stop offset="1" stop-color="#007199"/>
</linearGradient>
<linearGradient id="paint1_linear_11895_142" x1="23.2147" y1="24.063" x2="58.4478" y2="59.2961" gradientUnits="userSpaceOnUse">
<stop stop-color="#75CBC7"/>
<stop offset="1" stop-color="#008782"/>
</linearGradient>
<linearGradient id="paint2_linear_11895_142" x1="19.7586" y1="20.046" x2="53.3336" y2="53.6151" gradientUnits="userSpaceOnUse">
<stop stop-color="#9DD19A"/>
<stop offset="0.5" stop-color="#06A24A"/>
</linearGradient>
<linearGradient id="paint3_linear_11895_142" x1="11.9669" y1="16.7226" x2="41.37" y2="46.1324" gradientUnits="userSpaceOnUse">
<stop stop-color="#9DD19A"/>
<stop offset="1" stop-color="#06A24A"/>
</linearGradient>
<linearGradient id="paint4_linear_11895_142" x1="16.6817" y1="10.5216" x2="32.4916" y2="39.6304" gradientUnits="userSpaceOnUse">
<stop stop-color="white" stop-opacity="0.9"/>
<stop offset="1" stop-color="white" stop-opacity="0.1"/>
</linearGradient>
<linearGradient id="paint5_linear_11895_142" x1="40.3423" y1="28.2165" x2="42.0055" y2="31.2871" gradientUnits="userSpaceOnUse">
<stop stop-color="#FFF799" stop-opacity="0.9"/>
<stop offset="1" stop-color="#FFF8A3" stop-opacity="0.1"/>
</linearGradient>
<clipPath id="clip0_11895_142">
<rect width="290" height="67" fill="white"/>
</clipPath>
</defs>
</svg>
