<?xml version="1.0" encoding="UTF-8" standalone="no"?>
<svg
   xmlns:dc="http://purl.org/dc/elements/1.1/"
   xmlns:cc="http://creativecommons.org/ns#"
   xmlns:rdf="http://www.w3.org/1999/02/22-rdf-syntax-ns#"
   xmlns:svg="http://www.w3.org/2000/svg"
   xmlns="http://www.w3.org/2000/svg"
   version="1.1"
   width="156.47597"
   height="58.577766"
   id="svg3594">
  <defs
     id="defs3596">
    <radialGradient
       id="radialGradient3658"
       spreadMethod="pad"
       gradientTransform="matrix(16.512611,0,0,16.512611,20.723515,26.350453)"
       gradientUnits="userSpaceOnUse"
       r="1"
       cy="0"
       cx="0"
       fy="0"
       fx="0">
      <stop
         id="stop3660"
         offset="0"
         style="stop-opacity:1;stop-color:#bfe6f9" />
      <stop
         id="stop3662"
         offset="1"
         style="stop-opacity:1;stop-color:#1478c7" />
    </radialGradient>
    <radialGradient
       id="radialGradient3684"
       spreadMethod="pad"
       gradientTransform="matrix(20.256615,0,0,20.256615,131.12638,151.53942)"
       gradientUnits="userSpaceOnUse"
       r="1"
       cy="0"
       cx="0"
       fy="0"
       fx="0">
      <stop
         id="stop3686"
         offset="0"
         style="stop-opacity:1;stop-color:#a6d71c" />
      <stop
         id="stop3688"
         offset="0.960678"
         style="stop-opacity:1;stop-color:#23a03d" />
      <stop
         id="stop3690"
         offset="1"
         style="stop-opacity:1;stop-color:#23a03d" />
    </radialGradient>
    <radialGradient
       id="radialGradient3712"
       spreadMethod="pad"
       gradientTransform="matrix(25.745964,0,0,25.745964,136.24656,150.21694)"
       gradientUnits="userSpaceOnUse"
       r="1"
       cy="0"
       cx="0"
       fy="0"
       fx="0">
      <stop
         id="stop3714"
         offset="0"
         style="stop-opacity:1;stop-color:#a6d71c" />
      <stop
         id="stop3716"
         offset="0.960678"
         style="stop-opacity:1;stop-color:#23a03d" />
      <stop
         id="stop3718"
         offset="1"
         style="stop-opacity:1;stop-color:#23a03d" />
    </radialGradient>
    <radialGradient
       id="radialGradient3740"
       spreadMethod="pad"
       gradientTransform="matrix(34.031276,0,0,34.031276,138.13428,139.23088)"
       gradientUnits="userSpaceOnUse"
       r="1"
       cy="0"
       cx="0"
       fy="0"
       fx="0">
      <stop
         id="stop3742"
         offset="0"
         style="stop-opacity:1;stop-color:#a6d71c" />
      <stop
         id="stop3744"
         offset="0.960678"
         style="stop-opacity:1;stop-color:#23a03d" />
      <stop
         id="stop3746"
         offset="1"
         style="stop-opacity:1;stop-color:#23a03d" />
    </radialGradient>
  </defs>
  <metadata
     id="metadata3599">
    <rdf:RDF>
      <cc:Work
         rdf:about="">
        <dc:format>image/svg+xml</dc:format>
        <dc:type
           rdf:resource="http://purl.org/dc/dcmitype/StillImage" />
        <dc:title></dc:title>
      </cc:Work>
    </rdf:RDF>
  </metadata>
  <path
     id="esri"
     d="m 150.4131,0.98816833 c -2.85772,0 -4.93202,2.27181677 -4.93202,4.80701397 0,2.5351972 2.0743,4.8089637 4.93202,4.8089637 2.85522,0 5.06289,-2.0712507 5.06289,-4.8089637 0,-2.7364629 -2.20767,-4.80701397 -5.06289,-4.80701397 z M 79.427116,15.403352 c -9.079456,0 -16.345026,6.323692 -16.345026,15.784428 0,9.458235 7.26557,15.788338 16.345026,15.788338 4.142823,0 8.042506,-1.28853 11.297759,-4.461277 l -4.742559,-4.742559 c -1.770137,1.862645 -4.040394,3.189698 -7.299397,3.189698 -4.200327,0 -7.58403,-2.70029 -8.08657,-7.143136 l 22.927564,0 0,-2.06461 c 0,-10.465814 -5.696143,-16.350882 -14.096797,-16.350882 z m 29.158504,0 c -6.07797,0 -12.092726,3.004223 -12.092726,9.709745 0,11.465892 16.223916,6.576602 16.223916,12.778334 0,2.380185 -2.81749,3.443628 -5.01016,3.443628 -3.18525,0 -5.18791,-1.556061 -7.12555,-3.679976 l -4.853885,4.853897 c 3.047737,3.304007 6.987795,4.467138 11.541895,4.467138 6.13548,0 12.96976,-2.507375 12.96976,-9.649181 0,-11.717161 -16.22782,-7.33042 -16.22782,-12.715839 0,-2.256425 2.38135,-3.197509 4.38901,-3.197509 2.5502,0 4.42683,1.057503 5.8657,3.045157 l 4.77967,-4.775761 c -2.47519,-3.090241 -6.577,-4.279633 -10.45981,-4.279633 z m 31.65091,0 c -3.95031,0 -7.27221,2.06602 -8.90109,5.506288 l -0.1211,0 0,-4.75623 -7.51621,0 0,30.068749 7.51621,0 0,-16.100862 c 0,-1.627627 0.9989,-7.57872 8.0807,-7.57872 1.09009,0 2.17603,0.215097 3.31862,0.486368 l 0.29299,-7.19392 c -0.86881,-0.246269 -1.74005,-0.431673 -2.67012,-0.431673 z m 6.48292,0.750058 0,30.068749 7.51426,0 0,-30.068749 -7.51426,0 z M 78.364534,21.0366 c 4.697865,0 7.58083,2.760295 7.647075,7.143136 l -15.41526,0 C 71.161393,23.856899 73.919188,21.0366 78.364534,21.0366 Z"
     style="fill:#231f20;fill-opacity:1;fill-rule:nonzero;stroke:none" />
  <g
     id="globe">
    <path
       id="ocean"
       style="fill:url(#radialGradient3658);stroke:none"
       d="m 4.891353,30.669049 c 0,12.859751 10.428311,23.285562 23.284311,23.285562 l 0,0 c 12.859751,0 23.285562,-10.425811 23.285562,-23.285562 l 0,0 c 0,-12.85725 -10.425811,-23.283063 -23.285562,-23.283063 l 0,0 c -12.856,0 -23.284311,10.425813 -23.284311,23.283063" />
    <g
       transform="matrix(1.0000778,0,0,1.0000778,-111.33187,-124.97085)"
       id="continents">
      <path
         d="m 129.66793,137.30904 c -1.795,0.0737 -3.51375,0.31375 -5.22875,0.56875 l 0,0 c -4.85625,4.12375 -7.995,10.19875 -8.20625,17.0175 l 0,0 c 1.3725,1.4475 3.185,4.715 5.275,6.605 l 0,0 c 0.27625,-0.1225 0.57625,-0.2275 0.8975,-0.325 l 0,0 c -1.02625,-1.19125 -2.46,-2.77125 -2.67625,-3.49875 l 0,0 c -1.05625,-3.56125 0.1675,-6.89625 2.81,-7.15875 l 0,0 c 2.37,-0.23875 4.4025,-3.76375 6.0725,-6.075 l 0,0 c 3.43625,-4.755 8.7175,-3.96125 8.45125,-6.34125 l 0,0 c -0.30375,-1.39 -1.1275,-1.81375 -2.175,-1.81375 l 0,0 c -1.57625,-0.002 -3.655,0.96 -5.22,1.02125"
         style="fill:url(#radialGradient3684);stroke:none"
         id="na" />
      <path
         d="m 123.40293,160.89154 c -0.34375,0.0987 -0.6775,0.18875 -0.9975,0.28375 l 0,0 c -0.28625,0.0775 -0.51,0.19 -0.8975,0.325 l 0,0 c -0.85375,0.38125 -1.4725,0.965 -1.6175,2.21375 l 0,0 c -0.26,2.26125 1.89125,4.0375 3.7025,4.55625 l 0,0 c 2.30125,0.65875 2.49375,-0.11125 3.7,1.51875 l 0,0 c 0.8425,1.14 1.005,3.25375 1.43625,4.645 l 0,0 c 0.24,0.7775 0.56625,1.55125 0.95625,2.3075 l 0,0 c 1.64375,0.765 3.3875,1.3475 5.21125,1.71125 l 0,0 c 0.4525,-2.68 0.24875,-6.30125 0.84625,-7.865 l 0,0 c 1.23125,-3.2025 1.92375,-4.615 0.26625,-7.92 l 0,0 c -3.65875,-1.03375 -4.7675,-1.36125 -8.45375,-2.11625 l 0,0 c -0.75,-0.155 -1.21875,-0.2325 -1.64125,-0.2325 l 0,0 c -0.655,0 -1.195,0.18875 -2.51125,0.5725"
         style="fill:url(#radialGradient3712);stroke:none"
         id="sa" />
      <path
         d="m 146.04418,142.32904 c -1.0775,1.54 -4.86125,1.9625 -6.075,3.69625 l 0,0 c -0.945,1.35375 0.0325,4.0125 -0.79125,5.54625 l 0,0 c -0.38,0.7075 -0.205,2.76 0.2575,3.42875 l 0,0 c 1.4575,2.12 3.87875,0.94125 5.7,1.705 l 0,0 c 2.22125,0.9275 2.47625,3.505 4.32,5.39125 l 0,0 c 1.84625,1.8875 -2.35625,4.7975 1.07375,11.6625 l 0,0 c 0.36625,0.7375 0.79375,1.2775 1.25125,1.64625 l 0,0 c 2.32,-1.4425 4.36125,-3.28125 6.04125,-5.42375 l 0,0 c 0.52,-3.46625 -0.65125,-4.57625 0.81375,-7.75 l 0,0 c 0.90125,-1.9575 2.45,-5.34625 4.11875,-7.64375 l 0,0 c -0.28375,-6.43 -3.17125,-12.18125 -7.63625,-16.22375 l 0,0 c -0.41875,0.11625 -0.95125,0.13625 -1.67875,0.004 l 0,0 c -0.625,-0.11375 -1.18625,-0.165 -1.69625,-0.165 l 0,0 c -3.445,0 -4.47,2.37125 -5.69875,4.12625"
         style="fill:url(#radialGradient3740);stroke:none"
         id="africa" />
    </g>
    <path
       id="grid"
       style="fill:#231f20;fill-opacity:1;fill-rule:nonzero;stroke:none"
       d="m 25.516078,55.379722 c -0.77131,-0.442535 -1.738886,-1.127588 -2.641456,-1.725135 -0.373779,0.331276 -0.676303,0.817564 -0.975076,1.207594 1.033831,0.353778 2.428939,0.38378 3.616532,0.517541 m -4.072817,-2.766466 c -1.651379,-1.231345 -5.739197,-5.107897 -7.433079,-7.445579 -0.622548,0.366279 -1.316352,1.363856 -2.217672,1.53637 -0.355028,0.065 -1.15134,0.163762 -1.387608,0.065 -0.235018,-0.09751 0.0537,-0.595046 0.308774,-0.927572 0.441284,-0.576295 1.083834,-1.323853 2.025158,-2.05266 -2.015157,-2.95273 -2.9714816,-5.110398 -4.3415882,-8.670675 -0.7925617,0.493789 -1.3676064,0.935073 -2.0576601,1.485116 -0.2325181,0.182514 -0.8725679,0.298773 -1.182592,0.02 C 4.5931999,36.116973 4.5844492,35.228154 5.3757607,34.66436 5.7020361,34.430592 7.3121614,33.319255 7.6884406,33.005481 6.6971135,30.150259 5.868299,26.396217 5.649532,24.451066 4.9894807,25.02486 4.0606584,25.677411 3.7993881,25.854925 c -0.3750292,0.106258 -0.6262987,-0.0138 -0.7338071,-0.0325 -0.3762793,4.039065 0.057505,8.48566 1.2588479,12.500973 2.0639106,6.903037 7.8531111,13.487299 15.6649691,15.93624 0.182514,-0.272522 1.080084,-1.311352 1.453863,-1.646379 M 5.4082633,22.353402 C 5.3095556,20.859536 5.1907463,18.814377 5.1907463,18.814377 4.093161,21.199563 3.4368599,22.638425 3.1318362,25.423641 3.8993959,24.063535 5.4082633,22.353402 5.4082633,22.353402 M 17.130425,5.2708215 c 4.537853,-1.8788962 8.954447,-2.9102264 14.054844,-2.2126721 0.566294,0.077506 0.51879,0.5587934 -0.08251,0.5637938 l -0.720056,0.018801 C 26.274884,3.7044492 20.234414,5.0096007 17.10792,6.7797384 17.04292,8.8636505 17.437946,12.17641 17.855479,14.786614 20.6957,13.592771 25.087291,12.365175 28.422551,11.998897 26.528656,9.9874884 23.953456,8.0835903 23.645932,7.8623231 23.337158,7.642306 23.183396,7.2660267 23.183396,6.7797389 23.227199,5.8709182 24.00721,5.7584094 24.425993,5.8659178 25.813601,5.5946467 27.193708,5.2946233 29.543891,5.3633787 39.479664,4.929595 48.55787,10.550032 52.02189,16.958033 c 8.776932,13.879829 0.004,33.030069 -11.489644,38.129216 -4.914133,2.18267 -9.129461,3.122743 -16.900065,2.038909 C 15.847825,56.039823 9.4835803,52.234527 4.5406958,44.235155 -1.5485279,34.376888 1.8792387,22.892244 2.7343052,20.484557 6.4008405,11.840135 12.408808,7.2597762 17.130425,5.2708715 M 6.8596262,15.774191 c -0.1337604,1.040081 0.005,2.95898 0.2662707,5.250408 C 9.2385612,19.134452 13.321379,16.66926 16.734144,15.162893 16.339114,12.562691 15.919081,8.4148661 15.962834,7.3110302 12.806339,9.0424149 9.3423193,12.523938 6.8033718,16.092965 m 0.5200404,7.023047 c 0.2987733,2.06016 1.2876002,6.504256 2.1789196,8.758181 2.1139142,-1.591374 6.9005372,-4.544103 9.6094972,-5.739196 -0.947573,-3.451519 -1.585123,-5.630438 -2.115164,-9.113209 -3.829048,1.702632 -7.8781131,4.349088 -9.6732528,6.094224 m 3.0039838,10.752086 c 1.255098,3.580279 2.468942,6.312991 4.054065,8.568167 1.852644,-1.612626 5.65294,-4.157824 8.559416,-5.549182 -0.957574,-2.05766 -2.338932,-5.904209 -3.301507,-8.784433 -3.742791,1.837643 -6.538008,3.629032 -9.311974,5.765448 m 5.237907,10.132038 c 1.970154,2.526447 5.055394,5.732946 7.201811,7.504334 2.031408,-1.632627 4.334087,-3.158996 6.249236,-4.089068 -1.652629,-2.561449 -4.094069,-6.282989 -5.116648,-8.570667 -3.665285,1.625127 -5.746697,2.986483 -8.334399,5.155401 m 8.465659,8.620671 c 0.781311,0.790062 3.877802,2.840221 3.877802,2.840221 2.06141,0.08881 4.662862,-0.153762 6.521757,-0.477537 -1.02508,-1.170091 -3.582779,-4.791623 -4.359089,-6.010468 -1.981404,0.831315 -4.489099,2.360184 -6.04047,3.647784 M 36.60069,54.4547 c 1.043831,-0.335026 3.704038,-1.54262 4.257831,-1.906399 0.13126,-2.145166 0.110009,-4.580356 0.0213,-6.039219 -2.796468,0 -6.734274,0.818813 -8.9907,1.763887 1.308852,2.107664 3.115243,4.430344 4.711617,6.181731 m 5.732946,-2.70146 c 2.098913,-1.310102 4.071567,-2.815219 5.502928,-4.62536 -1.231346,-0.310024 -3.98406,-0.683803 -5.349166,-0.596297 0,0 -0.0437,3.272755 -0.153762,5.221657 m 6.162979,-5.466676 c 0.396281,-0.396281 0.990077,-1.236346 1.221345,-1.726384 0.231268,-1.988905 0.238769,-6.067972 0.153762,-7.258065 -2.398936,-0.973825 -6.106725,-1.743885 -8.815686,-1.942651 0.880069,3.231502 1.321353,7.985621 1.387608,9.534492 1.298851,0.13251 4.577857,0.797562 6.052971,1.392608 m 3.521524,-9.224467 c -0.108758,0.376279 -0.77131,0.755058 -1.080084,0.660051 0.0463,0.668802 -0.108758,3.98906 -0.285022,5.27041 0.461286,-0.946324 1.341354,-3.297757 1.606375,-4.291584 l 0.373779,-1.460113 c 0.371279,-1.241347 1.573873,-5.530431 0.483788,-11.17212 -1.207594,-6.267987 -3.476521,-8.505661 -4.269082,-9.500739 -2.015157,-1.095085 -5.062894,-2.090162 -5.062894,-2.090162 2.762715,3.740291 3.719039,5.500428 5.371668,9.954524 0.958824,0.497539 2.696459,1.461364 2.912726,1.726384 0.175014,0.207517 0.177514,0.582546 -0.367528,0.573795 -0.455036,-0.004 -1.335104,-0.437534 -2.017657,-0.620048 0.726306,2.427689 1.2876,6.958041 1.246347,9.994527 0,0 1.197593,0.580045 1.087584,0.955075 M 47.39658,14.47784 C 43.565032,9.7862228 34.894357,5.7959123 25.241106,6.395959 c 2.156418,1.4226107 3.952808,3.5702778 5.52543,5.337917 2.410187,-0.221267 7.473081,0.177514 9.375729,0.703805 -0.323775,-0.38253 -0.721306,-0.762559 -0.825064,-0.988827 -0.270021,-0.580047 0.38003,-0.705057 0.90132,-0.372531 0.661302,0.421285 1.422611,0.926324 2.027658,1.542622 1.118837,0.25127 3.872801,1.195093 5.150401,1.858895 m 2.453941,21.155396 c -0.166263,-3.026486 -0.628799,-7.06805 -1.750137,-9.882019 -2.972731,-1.192593 -7.033047,-1.938901 -10.598324,-1.972654 1.100086,2.5652 2.378935,6.854284 3.003984,9.613248 2.5752,0.308774 6.603013,1.037581 9.344477,2.241425 m -8.3544,-21.642934 c -2.685209,-0.486288 -6.601764,-0.796312 -9.50824,-0.621299 1.981404,2.745214 3.434017,5.13415 4.797873,8.539415 3.676536,0.09121 8.671925,1.188842 10.719584,1.993905 -1.221345,-3.259004 -3.544026,-7.396826 -6.009217,-9.912021 m -16.83881,22.099219 c 4.38034,-2.012657 9.190715,-2.918977 14.032341,-2.787717 -1.321352,-4.577856 -2.078911,-6.703021 -3.202749,-9.489488 -5.380418,0.233768 -9.970775,1.560121 -14.152351,3.541525 0,0 1.54012,4.952886 3.322759,8.73568 m 14.52863,-0.861317 c -5.481676,-0.0662 -10.265799,1.245097 -13.536053,2.852722 1.385108,2.986482 4.125321,6.93804 5.150401,8.566916 1.781388,-0.662551 3.697787,-1.16134 5.182903,-1.393858 1.486365,-0.231268 3.466519,-0.448785 4.809124,-0.425033 -0.242519,-3.47527 -0.650051,-5.819203 -1.606375,-9.600747 M 20.713254,25.469945 c 3.962808,-1.682631 8.256892,-3.028986 14.047343,-3.515274 -1.475115,-3.539025 -3.102742,-6.037969 -5.019141,-8.328147 -4.267832,0.342526 -8.164385,1.492616 -11.533397,2.885224 0.495039,2.622704 1.431361,5.795451 2.505195,8.958197" />
  </g>
</svg>
